<svg id="Layer_1" data-name="Layer 1" xmlns="http://www.w3.org/2000/svg" viewBox="0 0 1026.04 302.45"><path d="M762.26,698.41h151.2c4.85,0,5.08-.24,5.08-5q0-11.61,0-23.2c0-3.79,1-4.77,4.79-4.74a11.66,11.66,0,0,0,4.62-.88c5-2.13,8,.56,11.09,3.29,3.63,3.19,2.92,7.34,3,11.38,0,1.38-.36,3.12.32,4.07,1.07,1.5,2.26-.71,3.68-.65,2.23.1,3.3-.89,2.88-3.64a47.43,47.43,0,0,1-.08-10,4.24,4.24,0,0,0-2.76-4.74c-3.67-1.78-4.2-6.19-1.06-8s6.76-1.42,9.78-.5c2.64.82,3,4.11,2.92,7-.1,5.68,0,11.37,0,17,0,1.46.13,2.34,2,2.59,2.57.35,3.55,2.24,3.69,4.82s-.49,4.66-3.39,5.14a42.9,42.9,0,0,1-15.49-.15c-1.69-.34-2.39-2-3-3.44-.8-1.88-1.53-2.44-3.36-.73-2.46,2.3-5.11,4.51-8.68,5a2.57,2.57,0,0,0-2.32,3c.14,1.74,1.73,1.35,2.87,1.35q34,0,67.92,0a31.28,31.28,0,0,1,3.86.35c3,.36,3.89,2.31,4,4.78.15,3.91.06,7.83,0,11.74,0,4.67-1.35,6.08-6,6-63.61-1.23-127.22-.3-190.83-.51-49.74-.16-99.5-.32-149.24.14-16.75.15-33.5.09-50.24.39-2.77,0-4.62,2.69-4.38,5.44.56,6.61,1.43,13.25,0,19.88a4.88,4.88,0,0,0,.11,2.73c1.75,5-1.34,9.4-6.64,9.4H487.09c-5.68,0-7.93-2.24-7.93-7.89q0-99.07,0-198.16c0-4,.35-8-.52-12-.15-.69.29-1.63-.55-2s-1.83.17-2.58.66a10.08,10.08,0,0,0-1.73,1.78c-2.85,3.3-6.56,3.56-10.62,3.52-15.09-.15-30.19-.07-45.28-.07-3.69,0-4,.28-4.13,4.14-.06,1.95,0,3.91,0,5.87,0,8.1-.51,16.25.16,24.3.53,6.49-.27,12.9.18,19.39.74,10.54.28,21.16.18,31.75-.05,4.77-2.36,6.8-7.19,6.81h-52c-8.75,0-9-.22-9-8.84,0-33.63.09-67.27,0-100.9,0-9-.91-18.09-1-27.13,0-5.86,2.88-8.75,8.43-8.48,17.76.86,35.54.57,53.31.58h54.93c2.89,0,5.46.5,7.23,3.21,3.73,5.69-.16,10-6.55,10.16-3.07.08-6.15,0-9.22,0q-18.18,0-36.34,0c-3.08,0-3.39.49-2.87,3.44a22.17,22.17,0,0,1,0,8.32c-1.8,8.83-.87,10.08,7.84,10.08H475c3.51,0,4.24-.65,4.19-4.23-.05-3.11-.41-6.21-.49-9.32-.1-4.18.84-8.32.52-12.51-.59-7.66-.14-15.32,0-23,.07-4,2.31-6.7,6.38-6.77,4.54-.07,9.09-.46,13.64.3,1.5.25,3.11-.34,4.67-.35,6.8,0,13.61-.25,20.4,0,11.1.47,22.18-.2,33.27-.08,13.33.13,26.67.06,40,0a12,12,0,0,1,6.36,1.77c2.11,1.26,2.86,3.11,2.63,5.66a180.68,180.68,0,0,0-.09,28.11,8.76,8.76,0,0,1,.11,2.49,24,24,0,0,0,0,9.66c.6,3.42-.68,6.82-.49,10.27.05.84,0,1.76.85,2.2,1.12.55,1.39-.55,1.93-1.11a9.73,9.73,0,0,1,7.42-3.18c18.63.06,37.27,0,55.9,0a17.41,17.41,0,0,0,4.13-.49,1.69,1.69,0,0,0,1.15-2.71c-1.77-1-2.34-3.22-4.66-3.65-4-.75-7.88-2.48-11.76-3.76-5.93-1.95-11.54-5.31-15.21-10.9-1-1.47-.78-3.23-1.32-4.75-1.75-4.91-.13-8.88,2.53-12.95a17.55,17.55,0,0,1,5.21-5.45c6.8-4.22,14.17-5.39,22.2-4.85a73,73,0,0,1,10.74,1.65c3.38.75,5.75,5.11,4.77,8.41-.23.8-.41,1.61-.57,2.43a3.32,3.32,0,0,1-3.46,2.94,45.16,45.16,0,0,1-13.68-1.93c-2.58-.69-4.56,1.3-7,1.14-.6,0-1.22.47-1.85.57-2.17.35-3.56,1.86-3.48,3.75.08,1.62,1.44,3.11,3.1,4,4.74,2.43,10,3.44,14.92,5.36a32.75,32.75,0,0,1,12.37,8c2.85,3,5.17,11.74,2.32,15.72-1.05,1.48-1.23,3.49-2.57,5.08-3.18,3.75-7.55,5.12-11.75,7.15-5.37,2.58-10.84,2-16.35,2.07q-26.7.09-53.39,0c-2.46,0-3.57.45-3.77,3.32s-.36,5.74-.36,8.61q0,45.42,0,90.84V693.4c0,3.59.83,4.55,4.41,5a23.29,23.29,0,0,0,2.51,0H762.26ZM482,648.13v93.62c0,2.7-.07,5.4,0,8.1.11,3.26,1.42,4.47,4.61,4.48,2.61,0,5.22,0,7.83,0H597c4.35,0,5.18-.85,5.17-5.23,0-8.2,0-16.4,0-24.6,0-2.08.13-4,1.53-5.77,1.17-1.48.92-2.52-1.3-3.09-3.1-.79-6.08,0-9.11.05-8.39.06-16.77.12-25.15,0-18.43-.25-36.86.65-55.28-.48-3.5-.22-4.66,1-4.66,4.59q0,8.52,0,17.05c0,5.12-1.14,6.3-6.23,6.82a4.79,4.79,0,0,1-5.54-5c.21-12.86.08-25.71.08-38.57,0-6.71-.05-13.42,0-20.12,0-2.32.1-4.91,2.68-6,5.21-2.14,8.92.41,9,6.05s0,11.18,0,16.77c0,4.61.85,5.49,5.52,5.49h84.68a9,9,0,0,0,3.29-.49c1.74-.66,2.84-1.51,1.42-3.48-.7-1-.41-2.17-.41-3.27q0-73.36,0-146.72c0-2.19-.34-4.4,1.35-6.36a3.92,3.92,0,0,0,.28-3.23c-1.83-5.32-.84-10.84-1-16.21-.42-14.8-.14-29.62-.14-44.43,0-4-.87-4.92-4.91-4.92q-56.17,0-112.35,0c-3.45,0-4.44,1.06-4.44,4.52q0,21.81,0,43.6c0,5.35-1.2,6.62-6.52,6.63q-29.34,0-58.69,0c-4.59,0-5.25-.79-5.39-5.32-.17-5.28.48-10.54.08-15.83-.27-3.61,1.6-5.36,5.57-5.27,7.8.18,15.6-.22,23.42.39,7,.54,14.16.15,21.24.13,4,0,6.73-1.87,6.71-4.38s-2.74-4.37-6.69-4.37l-107.6,0a16,16,0,0,0-2,0c-2.2.3-3.64,1.19-4.13,3.72-.53,2.77.3,5.36.36,8,.2,9.29.26,18.6.37,27.89.26,22.14.68,44.3-.28,66.46-.43,10-.08,19.93-.14,29.9a2.94,2.94,0,0,0,2.45,3.2A9.9,9.9,0,0,0,353,633q26.83,0,53.66,0c2.09,0,3.78-.46,4.18-2.72a36.49,36.49,0,0,0,.53-5.81c.06-4.65-.34-9.29-.39-13.92-.2-21.33-.1-42.67-.11-64,0-4.47,1.4-5.87,5.8-5.87h47.51a20.65,20.65,0,0,0,3.32-.27c4-.61,6.06-4.11,9.19-6,1-.59,1.55-2,3.08-1.16s2.52,2.22,2.09,3.6c-1.17,3.72.06,7.3.07,10.93Q482,598,482,648.13ZM846.3,700.67H696c-1.38,0-2.79-.25-4.12.42s-1.68,1.23-.88,2.62c1.91,3.34,2.23,6.77,0,10.16-1.06,1.6-.41,2.7,1.21,3.22a10.11,10.11,0,0,0,3,.31c13.74,0,27.48.08,41.22,0,45.72-.28,91.43.44,137.14-.41,21.82-.41,43.66-.54,65.47.45,3.93.18,7.78-.48,11.68-.56,11.37-.24,22.75.49,34.13.06a62.78,62.78,0,0,1,12.24.4c3.95.63,5.9-1.35,5.9-5.31,0-2.33,0-4.66,0-7,0-3-.84-4-3.83-4.33a26.18,26.18,0,0,0-3.07,0ZM598,705.13H510.47c-4.12,0-6.68-2.54-6-6.7.81-5.3.19-10.59.44-15.87a11.15,11.15,0,0,0-.3-2.75c-.47-2.41-2.21-2.13-3.89-2-2,.1-1.41,1.65-1.41,2.73q0,28.23,0,56.46c0,1.52-.24,3.12,2.15,2.89,1.91-.18,3.62-.52,3.47-3-.12-2-.44-4.05-.52-6.08-.18-4.18.62-8.31.61-12.51,0-4,1.69-6,5.72-6q83.15.21,166.3.09a78.62,78.62,0,0,0,10.84-.44c1.77-.25,2.11-.88,2.13-2.44,0-3.88-.4-4.39-4.23-4.39Zm42.43-165.52v0c10,0,19.94.26,29.89-.08,7.94-.28,14.85-3,18.9-10.61a13.44,13.44,0,0,0-2.89-15.81,31.4,31.4,0,0,0-12.9-6.37,93.69,93.69,0,0,1-11.26-4.05c-4-1.64-5.64-4.57-5.21-8.56.27-2.39,3.71-5.45,6.9-6a47,47,0,0,1,17.45.26c2.3.46,4.51.57,5.51-1.81,1.12-2.68-1.08-4-3-5.22a3.55,3.55,0,0,0-1.3-.42c-9-1.32-17.93-2.13-26.47,2-5.45,2.6-8.7,7.1-9,13.11-.29,5.66,2.76,9.78,7.5,12.78,5.5,3.48,11.9,4.59,17.83,6.94,3.24,1.28,6.34,2.76,7.7,6.34,1.26,3.27-.73,6-4.15,6.52-7,1-14-.11-21,.27-11.05.6-22.16.17-33.24.15-1.56,0-3.13-.35-4.68-.25-3.55.24-5.67,2.72-7.91,5.13-1.25,1.35-3.49,3-3,4.24.69,1.66,3.34,1.44,5.29,1.44ZM938.1,678a23.71,23.71,0,0,1,0-3.26c.89-5.16-5-9.34-9.54-7a7.55,7.55,0,0,1-3.55.49c-3.81,0-5.13,1-4.62,4.75.89,6.47-.4,12.92.31,19.36.12,1.1-.12,2.66,1,2.92s2.32-.85,3-2c.23-.4.42-.83.61-1.25.92-2,2.19-3.22,4.67-3.19a7.54,7.54,0,0,0,5-2C938.17,684.2,938.33,680.86,938.1,678Zm17.82-6.45v-4.19c0-1.49,0-3,0-4.46a5.39,5.39,0,0,0-7-5.14,4,4,0,0,0-2.57,2.41c-.4,1.19,1,1.34,1.76,1.74a4.72,4.72,0,0,1,2.46,4.65q0,6.28,0,12.57c0,3.18,0,6.27-4.2,6.91a1.59,1.59,0,0,0-1.35,1.27,1.32,1.32,0,0,0,1,1.51,21.23,21.23,0,0,0,13.36.45c2.14-.55,2.14-2.28.15-3.25-2.75-1.34-3.58-3.55-3.54-6.37S955.92,674.27,955.92,671.57Z" transform="translate(-29.71 -455.22)" fill="#cdd8e8"/><path d="M777.14,684.62c0-5-.06-10,0-15,.06-3.91,3.64-6.52,6.76-4.85a6.65,6.65,0,0,1,3.15,5.24c.4,3.09,1.21,6.21.15,9.37-.32.94-.26,2.23,1.06,2.5,1.75.36,1.27-1.35,1.41-2.06.64-3.21.34-6.5.24-9.74-.12-3.73,2.77-6.39,6.48-5.51a12.36,12.36,0,0,0,4.41.19c2.32-.24,3.92-1,4-3.77.08-1.87,1.31-2.85,3.41-2.83,3.68,0,5.94,1,6.7,3.63a2.41,2.41,0,0,0,2.43,2.08,6.89,6.89,0,0,1,4.88,2.3c2,2.34,1.51,4.82-1.34,6a12.89,12.89,0,0,1-1.86.56c-4.35,1.12-5.67,3.34-4.48,7.66a2.51,2.51,0,0,0,2.42,1.93c1.36.16,2.88.19,3.93,1.15,1.47,1.33,3.81,2.77,2.83,5a7.41,7.41,0,0,1-5.66,4.46c-4.68.76-8.32-1.07-11.54-4.12a6.92,6.92,0,0,1-2.07-5.3c0-2.51,0-5,0-7.54a3,3,0,0,0-1.26-2.91c-.62-.38-1.27-.93-2-.66-.94.33-.65,1.24-.65,1.94,0,3.82,0,7.64,0,11.45-.09,5.23-2.2,7-7.36,6.2-1.91-.3-3.47.9-5.37,1-5,.3-7.63-3-10.77-5.9,0,0-.27.05-.27.13-.25,4.79-2.47,5.51-7.16,5.64-2.51.07-5-.15-7.54.05-4,.31-6.26-1.76-7.77-5.07-.27-.59-.33-1.36-1.09-1.46s-1.29.62-1.67,1.26c-3.36,5.54-10.67,6.69-16.1,3.24-2.21-1.41-3.1-3.75-5.24-5-1.14-.69-1.76-.95-2.25.52-1.1,3.26-4.93,6.31-8.29,6.48a59.78,59.78,0,0,1-6.42,0,5.83,5.83,0,0,1-5.27-8.38c.85-2,2.91-2,4.77-2.17.51,0,1.14.19,1.51-.68-.81-.89-2.18-.41-3.13-1.27-3-2.72-4.6-7-3-10.71s4.85-5.17,8.54-5.7a27.91,27.91,0,0,1,6.13,0,4.82,4.82,0,0,1,4.39,3.75c.52,1.87.28,3.53-1.75,4.77s-2.07,3,.14,4.18c2.61,1.39,2,4.18,3.5,6.2,0-2.14,0-4.27,0-6.41-.07-4.24,2.24-6.9,5.35-9.56,3.53-3,7.18-3.47,11.32-2.51s8.91,7.12,9,11.23c0,2.23,0,4.47,0,6.7,0,1.73.15,2.43,2.45,1.46,3.51-1.47,4.3-3.43,3.87-7-.34-2.81-.9-5.88.74-8.72.7-1.19-.65-1.66-1.5-2.22-2.4-1.61-4.93-3.18-4.4-6.72.31-2,1.09-3.32,3.46-3.63a21.41,21.41,0,0,1,8,.06c1.88.45,3.1,1.38,3,3.36-.27,7.29,1.21,14.56.26,21.85-.15,1.15.54,1.35,1.35,1.72,1.57.72,3.41,1,4.5,2.57Zm-25.75-6.77v-1.12c0-4.9-1.75-7.72-5.65-9.3s-7.64-.61-10.88,2.52-3.36,6.78-2.91,10.6,2.41,7.25,6.31,8.42,7.68.91,10.78-2.84C751.19,683.52,751.37,680.82,751.39,677.85Zm-34.82,11.59a12.12,12.12,0,0,0,5-.63c4.6-1.29,5.79-6,2.62-9.48-1.55-1.71-3.56-2.21-5.48-3.1-1.59-.74-3.58-2-3.35-3.67.26-2,2.63-1.91,4.37-2.09.37,0,.75,0,1.12,0,1,0,2.21.14,2.45-1.24a2.21,2.21,0,0,0-1.92-2.63c-3.43-.88-6.44.3-8.95,2.43-1.65,1.39-3.38,3.27-1.87,5.79s3.23,4.78,6.47,5.21c2.06.28,3.43,1.18,3.09,3.67s-2.21,2.2-3.76,2.43a34.14,34.14,0,0,1-4.18.09,1.39,1.39,0,0,0-1.47,1c-.22.87.53,1.07,1,1.42C713.2,689.6,714.8,689.49,716.57,689.44Zm90.71-10.31c-.24,1.41.45,2.71.6,4.1.51,4.91,4.88,7.51,9.51,5.76.71-.27,1.5-.45,1.55-1.35s-.84-1.13-1.5-1.38c-6.35-2.38-6.46-4.34-6.32-8.88.17-5.63.19-5.85,5.64-6.91.81-.15,1.88-.2,2-1.15s-1-1.17-1.76-1.48c-1.74-.76-3.75-.76-5-2.73-2.3-3.74-2.42-3.7-5.38-.36a32.6,32.6,0,0,0-2.55,3.3c-.38.56-1.1,1.44-.21,2C807.59,672.12,808.05,675.37,807.28,679.13Zm-23.42-2.59h0c0-1.86,0-3.72,0-5.57,0-.83,0-1.87-1.08-2s-1,1-1.27,1.77c-.93,2.58.6,5.18-.06,7.67a13.41,13.41,0,0,0,.08,6.3c.57,2.85,2.48,4.27,5.35,3.84a39.5,39.5,0,0,1,6.61-.78,2.94,2.94,0,0,0,3.21-3.38c-.39-4.62-.53-9.24-.54-13.88,0-.76-.21-1.6-1.18-1.55s-1.1.87-1.11,1.64c0,2.6-.2,5.22,0,7.8.3,3.43-2.55,5.16-3.84,7.71-.34.68-1.33.53-2.07.43-2.78-.36-4-2.13-4.08-4.75C783.8,680.07,783.86,678.31,783.86,676.54ZM761,660.43c3.34,1.61,3.19,4.28,3.19,6.89,0,4.36.05,8.73,0,13.09,0,2.42-.45,4.82-2.39,6.56-1,.94-.33,1.35.46,1.38,2.59.1,5.2.14,7.79,0,1.2-.08,1.28-.87.38-1.7a11.73,11.73,0,0,1-3.86-9.91c.25-4.44.06-8.91.06-13.36C766.57,659.23,765.55,658.55,761,660.43Z" transform="translate(-29.71 -455.22)" fill="#cdd8e8"/><path d="M29.71,563q0-33.25,0-66.52c0-4.41,1-5.43,5.4-5.44H79c9.09,0,18.17,0,27.26,0a20,20,0,0,1,7.22,1.62c2.41.95,5.24,1,7.89,1.11a11.18,11.18,0,0,1,5.8,1.66,2.81,2.81,0,0,0,1,.53c4.85.7,8.57,3.68,12.72,5.9,8.68,4.63,15.1,11.45,21,19.06,2.37,3.08,3.88,6.63,6,9.78,3.95,5.85,5,12.71,7.41,19.07a18.4,18.4,0,0,1,.86,6.3c0,6.5.93,13.15-.7,19.44-1.2,4.63-1.54,9.6-4.33,13.86-1.31,2-1.75,4.48-3.06,6.66a121.3,121.3,0,0,1-9.23,13.56,69.28,69.28,0,0,1-14.92,13.77c-2.3,1.59-5.2,2.85-7.56,4.34-3.2,2-7.1,1.82-10,4.3-1.58,1.34-4.07,1-6.19,1.13-3.69.29-7,2.18-10.76,2.36-1.28.06-2.58.27-3.87.27q-34.51,0-69,0c-5.1,0-6.7-1.58-6.7-6.58Q29.71,596.11,29.71,563Zm123.8-46.31a.27.27,0,0,1-.2-.2c-3.48-5.76-9.08-9.2-14.56-12.52-11-6.65-23.44-9.08-36-9.44-21.78-.63-43.59-.19-65.39-.19-3.86,0-5,1.1-4.93,5,.08,7.62.39,15.25.44,22.85.24,35,.1,70.05.09,105.08,0,3.72.87,4.68,4.21,4.72,19.36.23,38.72-.57,58.07.46,5.47.29,10.92-.52,16.37-1a63,63,0,0,0,32.64-12.2,72,72,0,0,0,23.38-29.8,65.83,65.83,0,0,0,4.42-37.34,64.58,64.58,0,0,0-13-29.73C157.44,520.32,156.19,517.77,153.51,516.69Z" transform="translate(-29.71 -455.22)" fill="#cdd8e8"/><path d="M251.8,635.81H169.11a12.88,12.88,0,0,1-3.05-.15c-1.32-.32-3-.56-3.17-2.26s-.76-3.81,1.17-5.4,2.59-4,3.89-5.91c.93-1.41,1.88-2.86,2.91-4.24,3.29-4.43,5.89-9.31,9-13.88,2.21-3.28,3.92-7,6.43-10.12,2.88-3.56,4.62-7.7,6.72-11.65.85-1.6,2.24-2.77,3.24-4.24,2.53-3.68,4.58-7.66,7.27-11.24s4.76-7.82,7.36-11.58c2.87-4.14,4.89-8.79,8.07-12.78,2.69-3.38,4.51-7.44,7.11-10.92,2.86-3.82,4.81-8.16,7.46-12.1s5.08-7.81,7.71-11.64c2.18-3.17,4-6.52,6-9.8,1.31-2.18,5.78-2.42,7.49-.58,2.6,2.79,4.13,6.31,6.27,9.43,2.47,3.59,4.86,7.29,7,11.09,2.61,4.7,6.17,8.74,8.57,13.63.95,1.95,2.82,3.91,4.06,5.94,2.55,4.17,5.5,8.06,7.8,12.45,1.84,3.53,4.59,6.78,6.8,10.24,2.73,4.28,5.55,8.49,8,12.93a42.84,42.84,0,0,0,3.46,5.18c3.92,5,7.05,10.6,10.37,16,2.55,4.13,5.36,8.1,7.76,12.35,2.05,3.65,4.86,7.05,7.12,10.62s4.74,6.77,6.82,10.32c1.12,1.9.77,4.18.59,6.3a2.17,2.17,0,0,1-2.31,2c-.83,0-1.67,0-2.51,0Zm-84.08-4.39c1.1,2.09,3,.72,4.46,1,4.73-.15,9.48-.64,14.19-.36,7.6.46,15.18.32,22.77.31,7.74,0,15.49-.36,23.23-.36,13.83,0,27.66.18,41.48.23,7.29,0,14.62.25,21.93-.19,3.87-.23,7.79.81,11.67.27a46.56,46.56,0,0,1,9.73-.15,1.51,1.51,0,0,0,2,0,32.92,32.92,0,0,1,9.19.25c1.67,0,3.34.05,5,.11a2.35,2.35,0,0,0,2.5-1.42,2,2,0,0,0-1.3-2.67c-1.6-2.61-2.74-5.48-4.73-7.85a.81.81,0,0,0-.77-1,11.16,11.16,0,0,0-2-3.42.8.8,0,0,0-.8-1c-2.1-4.42-5.06-8.36-7.69-12.43-5.62-8.69-11.07-17.51-16.81-26.13-3.55-5.32-6.66-10.94-10.28-16.21-6.13-8.93-11.6-18.28-17.63-27.27-2.58-3.84-5.2-7.65-7.58-11.61-2.22-3.7-4.94-7.1-6.77-11a2.44,2.44,0,0,0-2-2.13c-.23-2.75-3.11-4.05-3.66-6.62,0-1.17-.64-2.13-1.73-2.05-1.32.09-2.75.46-3.25,2.06-.79,2.44-2.67,4.26-3.65,6.59a1,1,0,0,0-.83,1.08l-2,3.41c-3.8,3.84-6.24,8.67-9.2,13.1-5.81,8.69-11.22,17.65-16.88,26.44-4.39,6.84-8.7,13.74-13.31,20.45-3.7,5.4-6.92,11.14-10.46,16.66-5.43,8.46-11.07,16.79-16.35,25.35-1.23,2-3.33,3.61-3.41,6.25L172,622.4a1.53,1.53,0,0,0-1.45,1.52l-.2.68a12.37,12.37,0,0,0-3.42,5c-.34.88-.43,1.61.76,1.82Z" transform="translate(-29.71 -455.22)" fill="#cdd8e8"/><path d="M1024.32,533.68a2.84,2.84,0,0,0-1.23,2.58c-.26,3.15-1.73,4.53-5.05,4.54-10.24,0-20.48,0-30.73,0-3.44,0-6.89,0-10.33,0-3.61-.07-5.56-1.79-5.89-5s1.46-5.66,4.85-6.38c3.86-.81,7.79-.32,11.69-.31,2.58,0,3.55-1.14,3.56-3.49q0-27.39,0-54.76c0-1.52-.57-2.07-2-2.37-3.24-.68-6.49-.2-9.74-.3-4.21-.13-6.17-2.11-6.16-6.48s1.95-6.45,6.16-6.46c6.8,0,13.6,0,20.4,0,3.64,0,4.82,1.29,5.39,4.83.93,5.84.4,11.7.44,17.54q.15,24.17,0,48.33c0,2.4.59,3.22,3.1,3.17,3.79-.06,7.62-.55,11.39.43a1.69,1.69,0,0,0,2.15-.86,50.17,50.17,0,0,0,2.35-5.89c.69-2.38,6-7.82,8.44-8.26a14,14,0,0,0,4.75-1.43,3.22,3.22,0,0,1,2.17-.24c4.89,1.08,9.4,2.72,12.72,6.93a14.24,14.24,0,0,1,2.56,12.38c-1.14,5.24-7.52,12.18-13.71,11.44a6.22,6.22,0,0,0-1.67,0c-6.35,1.06-10.48-2.51-14.39-6.71C1024.69,536,1025,534.8,1024.32,533.68ZM1003.47,494h0q0-15.66,0-31.3c0-3.56-1.48-5.11-5-5.13-6.15,0-12.3,0-18.45,0-2.77,0-4.48,1.62-4.49,4.15s1.71,4.14,4.48,4.17c2.52,0,5,0,7.55,0,3.78,0,5.32,1.48,5.33,5.18q0,27.81,0,55.62c0,3.13-1,4-4.22,4.15-3.72.15-7.45-.45-11.14.33-3,.64-4,1.88-3.66,4.53s1.81,3.51,4.41,3.5c12.67-.08,25.34,0,38,0,3.24,0,4.47-1,4.52-3.55.07-2.92-1.6-4.71-4.59-4.79-2.33-.07-4.66,0-7,0-5,0-5.79-.76-5.79-5.79Q1003.47,509.48,1003.47,494Z" transform="translate(-29.71 -455.22)" fill="#cdd8e8"/><path d="M893.38,679.5c0,2.61,0,5.22,0,7.82,0,3.21-1.58,4.83-4.67,4.94a4.87,4.87,0,0,1-5.29-4.83c.12-3.5-.76-7-.15-10.48.1-.55.07-1.22-.68-1.29-1-.1-1,.69-1,1.33.13,3.26-.81,6.44-.61,9.71.14,2.3-2.48,5.29-4.55,5.55-2.86.37-4.56-1-5.43-4.24-.11-.44,0-1-.57-1.17-.87-.32-1.05.5-1.48.93-3.22,3.26-6.73,5.47-11.72,5.18-3.19-.19-4.95-2.35-7.17-3.78-1.34-.86-2-.79-2.71.2-2.31,3.43-5.65,3.76-9.32,3.46-3-.23-5.94.24-8.91-.26-2.28-.38-3.79-1.42-3.94-3.89-.19-3,1.18-5.48,3.64-6.24,1.17-.36,2.92-.08,2.46-2.1-.49-2.18,1.53-4.88-1.92-6.49-4.9-2.29-5.12-6.7-.73-9.8,1-.67.91-1.46,1-2.38.63-4.22,2.88-6.33,6.57-6.27,3.41.06,6.13,4.24,4.61,7.32-.54,1.08-1,2.28-.51,3.17,2.47,4.27,1.25,8.9,1.54,13.39a10.71,10.71,0,0,0,0,1.39,3.73,3.73,0,0,0,3.57,3c1.69,0,.74-1.91.88-3a16.23,16.23,0,0,0,0-3.62c-.43-4.57,1.7-7.57,5.1-10.51,3.7-3.2,7.48-2.87,11.68-2.34,2.24.29,3.21,2.13,4.75,3.22,1.77,1.26,2.76,1.83,3.38-.82a2.41,2.41,0,0,1,2.13-2c4.71.07,9.36-1.58,14.09-.41,2.71.67,5.78,4.47,5.81,7.19S893.38,676.8,893.38,679.5Zm-24.63-1.3c0-.74,0-1.49,0-2.23.33-6.35-7.54-11.3-13.2-8.63-3.7,1.74-7.35,7-6.73,11.27s1.42,8.59,6.28,10.3C862.11,691.37,869.65,686.29,868.75,678.2Zm21.76.68h.08c0-1.86.08-3.72,0-5.57-.23-4.44-3.9-7-8.12-5.6a7.29,7.29,0,0,1-3.55.52c-4.37-.79-5.43,2-4.95,5.58a98.36,98.36,0,0,1,.39,10c0,.84,0,1.68.07,2.51a1.91,1.91,0,0,0,1.46,1.84c1.14.21,1.23-.86,1.45-1.65.83-2.83.4-5.73.34-8.59a8.7,8.7,0,0,1,2.2-5.82c.82-1,1.9-1.87,3.38-1.34s3.13.71,3.56,2.93c.76,3.9.14,7.79.42,11.66.07,1-.44,2.61,1.09,2.74s2-1.4,2.14-2.52C890.67,683.35,890.51,681.11,890.51,678.88Zm-52.46-2.68h0c0-1.49,0-3,0-4.47s0-2.69-1.46-3.32c-1.74-.74-3.54-1.23-5.35-.15-1,.61-1.24,1.2-.18,2.12a10.91,10.91,0,0,1,2.36,13.2,5.07,5.07,0,0,1-2.34,2.66c-.62.29-1.58.49-1.32,1.5a1.73,1.73,0,0,0,1.77,1.13q4.19.11,8.37,0c.82,0,1.77-.29,2-1.26s-.66-1.2-1.25-1.65a6.36,6.36,0,0,1-2.57-5.3Z" transform="translate(-29.71 -455.22)" fill="#cdd8e8"/><path d="M805,478.17c4.29-.64,9.18,1,14.18.82,1.44-.06,2.36,1.41,3.46,2.22,3,2.19,2.74,10.71-.24,12.93-1.44,1.07-3.34,1.4-4.39.37-2.88-2.83-6.52-1.58-9.76-2.25a15.41,15.41,0,0,0-8.53.56c-2,.75-3.61,2.36-5.27,3.74a10.85,10.85,0,0,0-3.66,7.12c-.37,2.61-2.28,4.79-2,7.68.27,3.12,2.23,5.62,2.6,8.69.4,3.23,2.89,4.74,5.45,6.53,4.5,3.14,9.32,2.37,14.14,2.46,2.33.05,3.92-1.8,6.11-2.33,5-1.21,7.32.24,7.52,5.34.24,6-2.28,9.06-8.78,10.37-6.32,1.27-12.77,2.06-19,.44A41.31,41.31,0,0,1,786,538.38a27.92,27.92,0,0,1-8.31-8.28,22.5,22.5,0,0,1-3.9-13.3c0-5.66-.28-11.35.6-17,.53-3.34,2.64-6.06,4.36-8.81,3-4.73,7.7-7.75,12.32-10.71,3.16-2,6.83-2.17,10.48-2.14Zm-28.09,32.9c.52,6.05.58,12.24,4.34,17.5,3.61,5,8.24,8.68,14.42,10.08,5.78,1.32,11.61,1,17.42.37,2.51-.29,5.28-.34,7-2.89a4.71,4.71,0,0,0,.27-4.76c-.82-1.8-2.33-.87-3.65-.58-5.83,1.29-11.61,2.2-17.59.51a16.66,16.66,0,0,1-9.44-6.83c-3.44-4.86-3.81-10.38-3.52-16,.54-10.48,6.89-17.85,16.31-19.87a24.83,24.83,0,0,1,14,1.34c1.86.69,3.46,1,4.15-1.51s-.3-5.18-2.23-5.68c-8.42-2.2-16.89-3-25.11.6-4.44,1.93-8.6,4.71-11.11,8.94C778.75,498,776.65,504.23,776.94,511.07Z" transform="translate(-29.71 -455.22)" fill="#cdd8e8"/><path d="M858.73,510.17c0-5-.06-10.06,0-15.08,0-1.58-.43-2.31-2-2.63-3-.59-5.94-.21-8.9-.3-4.21-.12-6.42-2.46-6.44-7,0-5,1.65-7.05,6.15-6.95,7.33.16,14.68-.59,22,.46a4.25,4.25,0,0,1,3.78,3.12,15.27,15.27,0,0,1,1.11,8.34c-.46,2.4.4,4.79.49,7.19.15,3.62-.6,7.19-.62,10.82,0,4.38.63,8.7.67,13.06,0,1.83-1.05,3.52-.21,5.48.68,1.6,1.5,2.35,3.26,2.39,3.15.06,6.31-.37,9.46.3,1.76.37,3.48,1,3.57,2.9.13,2.59,1.15,5.76-1.58,7.5a11.54,11.54,0,0,1-7.82,2,94.91,94.91,0,0,0-20.23-.58,65.89,65.89,0,0,1-17.79-.36,3.46,3.46,0,0,1-1-.32c-2-1.11-3.08-4.84-2.18-8.11.67-2.41,2.42-3.36,4.86-3.33,3.16.05,6.33,0,9.49,0,3,0,4-1,4-4.07C858.74,520,858.73,515.1,858.73,510.17Zm12.32-3.5h0c0-6.88,0-13.77,0-20.66,0-2.91-1.17-4.18-4.08-4.47a18.12,18.12,0,0,0-2,0c-5.59,0-11.18,0-16.76.05-2.22,0-3.39,1.17-3.46,3.45-.09,2.46,1.18,3.29,3.45,3.24,2.7-.05,5.4,0,8.1,0,3.75,0,5.74,1.94,5.76,5.64,0,11.05-.05,22.09,0,33.14,0,2.55-1.14,3.75-3.47,4.2a32.38,32.38,0,0,1-10.53.26c-3-.4-5.32.84-5.56,3.16-.28,2.8,1,3.87,4.68,3.87l24,0c4.47,0,8.94,0,13.4,0a3.37,3.37,0,0,0,3.5-2.23c.64-1.7-.23-3.07-1.52-4.17a4.75,4.75,0,0,0-4.25-.8,21.73,21.73,0,0,1-7.46-.07c-3-.4-3.85-1.16-3.86-4.25C871,520.27,871.05,513.47,871.05,506.67Z" transform="translate(-29.71 -455.22)" fill="#cdd8e8"/><path d="M957.09,516.4v19c0,4-1.29,5.72-5.12,6.4-3.2.57-6.42.18-8.89-2.13a2.25,2.25,0,0,0-2.66-.56,56.16,56.16,0,0,0-6.25,2.29c-6.71,3.31-13.27,2.77-20-.1a21.5,21.5,0,0,1-8.55-6.31,7.27,7.27,0,0,1-1.85-4.17c-.36-4.78-1.39-9.72.86-14.2,1.79-3.58,2.85-8.1,7-9.78,3.58-1.46,6.75-3.84,10.94-4.17,5.2-.41,10.39-.34,15.59-.37,1.71,0,2.18-.61,2.26-2.28.21-4.21-1.68-8.31-7.53-8-4.8.29-9.64.13-14.45.63a3.06,3.06,0,0,0-2.23,1c-1.6,1.93-3.86,1.7-5.65,1a5.23,5.23,0,0,1-3.21-5.12c-.12-7,2-9.3,8.87-10.93,6.43-1.51,12.86-2.78,19.44-2,6.81.81,13.56,2.87,17.38,8.85,2.1,3.29,4.36,7.1,4.14,11.68C956.86,503.53,957.09,510,957.09,516.4Zm-2.31.12c0-6,0-12.1,0-18.15-.09-10.29-7-18.13-18.12-19.08-3.74-.32-7.38,0-11.06,0-4.52,0-8.55,1.63-12.66,3-2.44.82-3.67,4.7-2.55,7.55,1,2.6,3.09,2.35,5.38,1.75,4.91-1.27,9.77-2.71,15-2.5,4.87.19,8.65,1.89,11.2,6,1.35,2.18,2,4.76.82,7.14-1,2.15-3.29,2.38-5.57,2.34A122,122,0,0,0,925,505c-10.14.86-21.15,7.83-19.86,21.05.56,5.83,5.15,12.25,10.79,13.84,8.08,2.28,15.71,1.67,22.92-3,1.9-1.23,4.14-2.15,5.81.9,1,1.89,5.06,2.45,7.72,1.58,2.41-.79,2.45-2.66,2.43-4.72C954.75,528.62,954.78,522.57,954.78,516.52Z" transform="translate(-29.71 -455.22)" fill="#cdd8e8"/><path d="M665.87,676.56c0-2.7,0-5.4,0-8.1,0-1.21-.47-1.57-1.69-2-5.16-1.76-10.19.45-15.3.3-2.62-.07-4,3.22-4.6,5.43-1.24,4.71.48,10.86,7.48,10.58,1.12,0,2.24,0,3.35,0,1.4-.06,2.71.07,3.12,1.67s.93,3.5-.5,5a10.51,10.51,0,0,1-8.73,3.34,15.15,15.15,0,0,1-13-9.37c-1.68-4-1.15-8.73-.76-13.21.44-5.14,4.1-8.11,7.37-11.29,1.32-1.27,3.44-1.2,5.28-1.25a68.7,68.7,0,0,1,8.59.47c6.44.63,12.86-1.09,19.34-.5,1.28.12,2.56.2,3.85.37,2.71.37,3.33,2.25,3.38,4.34s-1.06,3.62-3.55,3.74c-3.31.18-3.55,2.78-3.6,5.22-.1,4.93-.05,9.86,0,14.79,0,2.6-1.74,4.11-3.57,5.32-1.62,1.07-3.36-.07-4.59-1.11-1.86-1.56-1.65-4-1.82-6.2-.2-2.5-.05-5-.05-7.53Zm-14.59-11.74h1.24c1.39,0,3.39.22,3.42-1.45s-.82-3.61-2.94-3.85c-2.85-.31-5.68-.49-8.34,1.26A17.23,17.23,0,0,0,637,678.31c1.62,9,8.26,13.43,16.39,11,1.15-.33,2.69-.75,2.62-2.1s-1.61-1.87-2.91-2.13a4.06,4.06,0,0,0-1.39,0c-5,.79-8.62-2.77-9.24-7.76C641.65,670.79,643.92,663.85,651.28,664.82Zm20.1-4.43c-1.67,0-3.34,0-5,0-1.39,0-1.82.5-1.33,1.9a3.29,3.29,0,0,0,1.74,2,5.14,5.14,0,0,1,3,5.4c-.35,4.43.4,8.9-.57,13.31a3.15,3.15,0,0,0,.45,2.42c.53.78.52,2.34,1.83,2.05.87-.19,1-1.52,1-2.39a116.33,116.33,0,0,0-.09-12.53c-.37-4-.61-7.43,4.15-8.86,1.06-.32,1.16-1.38,1-2.35-.22-1.19-1.22-.92-2-.94C674.17,660.37,672.78,660.39,671.38,660.39Z" transform="translate(-29.71 -455.22)" fill="#cdd8e8"/><path d="M764.23,511c-.23,2.09-.18,5.8-1.13,9.23-2.27,8.26-6.64,15.35-14.47,19.35-6.28,3.2-13,4.91-20.3,3.64-8.15-1.41-14.87-5-19.43-11.86-2.36-3.52-4.45-7.51-4.39-12,0-2.57-.77-4.94-1.19-7.39-.6-3.51,1.15-6.68,1.33-10.07.42-8.08,5.23-13.82,10.7-18.92a16.25,16.25,0,0,1,7.64-4.32c5.39-1.13,10.67-2.6,16.32-1.57,7.61,1.39,14.16,4,18.82,10.8S764.25,501.66,764.23,511Zm-58.05-.14c.06,2.76-.24,5.55.53,8.3,1.48,5.2,3,10.51,7,14.28,7.35,6.82,16.13,8.41,25.87,6.59,7.94-1.49,13.94-5.57,17.75-12.51,5.19-9.45,5-19.7,2.67-29.79a22,22,0,0,0-11.92-15.38,31.7,31.7,0,0,0-19.83-2.43c-9.15,1.64-15.51,6.89-19.2,15.19C706.89,500,705.5,505.25,706.18,510.81Z" transform="translate(-29.71 -455.22)" fill="#cdd8e8"/><path d="M624,692.28c-1.63-.16-3.6.29-5.52-.25s-3.63-1.56-3.95-3.78a4.27,4.27,0,0,1,2.66-4.77c2.8-1.06,3.06-3,2.91-5.46s-.08-5.21,0-7.81a3.9,3.9,0,0,0-2.79-4.24c-2.2-.73-3.16-2.15-2.78-4.44s1.48-3.25,3.9-3.46c4.26-.37,8.46.35,12.7.18a2.82,2.82,0,0,1,2.9,2.82c.22,1.91.23,4.1-2.12,4.52-3.15.56-3.32,2.77-3.4,5.08-.11,3.15,0,6.32-.06,9.47a2.8,2.8,0,0,0,2.16,3.1c2.49.86,4.07,2.58,3.36,5.24a5,5,0,0,1-5.19,3.79C627.23,692.29,625.74,692.28,624,692.28Zm-.3-2.78c1.52.21,2.94-.39,4.41-.54.76-.08,1.53-.13,1.88-.92.43-1-.28-1.58-.91-2.12a8.51,8.51,0,0,1-2.93-7.45c.15-2.88.08-5.77,0-8.65-.06-2.35.3-4.33,2.57-5.73,1.4-.86,1.23-3.37-.1-3.58-2.82-.47-5.67-1.1-8.54-.36-.78.2-1.69.35-1.68,1.51s-.17,2.17,1.11,2.56c1.74.53,2,1.89,2.32,3.42.9,4.43.34,8.89.4,13.33,0,1.81-1.12,3.27-2.38,4.58-.78.81-2.82.67-2.33,2.27.43,1.39,2.23,1.06,3.42,1.42A12.49,12.49,0,0,0,623.65,689.5Z" transform="translate(-29.71 -455.22)" fill="#cdd8e8"/><path d="M856.22,464.16c0-4.28,4.27-8.5,8.61-8.55s9.26,4.57,9.17,8.49-5.18,9-9.1,8.65S856,468.94,856.22,464.16Z" transform="translate(-29.71 -455.22)" fill="#3366fc"/><path d="M977.94,692.84c-4.54-.2-7.83-2.18-10.84-5.86-2.55-3.11-2.74-6.18-2.74-9.7,0-2,.32-3.67,1.87-5a3.63,3.63,0,0,0,.83-1.11c3.33-6.76,9.4-8.31,15.22-6.8a6.67,6.67,0,0,1,4.31,4c.9,2.08-1.56,4.73-4.74,5.37a20,20,0,0,1-3.83.56c-2.3,0-3,1.18-3.06,3.34,0,4.42,1,5.49,5.6,5a6.32,6.32,0,0,1,2.89.42c2,.69,3.53,1.75,3.26,4.16a6.2,6.2,0,0,1-3.81,5A9,9,0,0,1,977.94,692.84Zm-.12-2.89a8.1,8.1,0,0,0,3.6-.53c1.25-.46,2.21-1.22,1.78-2.68-.37-1.21-1.2-1.51-2.61-1.27a6.7,6.7,0,0,1-5.51-1.21,7.38,7.38,0,0,1-2.4-8.52c1.4-3.57,3.21-4.71,7.59-4.74,1.41,0,3.19.16,3.32-1.63.12-1.58-1.2-2.64-2.85-2.93a6.77,6.77,0,0,0-2.45-.29c-5.57,1.28-9.34,2.85-10.83,9.57C965.71,683.57,970.17,689.86,977.82,690Z" transform="translate(-29.71 -455.22)" fill="#cdd8e8"/><path d="M994,685.77c0-4.09,1.94-6.29,5.54-6.32,3.15,0,5.62,3,5.62,6.8s-2.14,6-6.12,6C995.24,692.26,994,690.67,994,685.77Zm2.22.12c-.2,2.29,1.28,3,3.08,3,2,.07,2.58-1.32,2.57-3.12s-.71-3.11-2.71-3C997.33,682.93,996,683.71,996.23,685.89Z" transform="translate(-29.71 -455.22)" fill="#cdd8e8"/><path d="M482,648.13q0-50.18,0-100.34c0-3.63-1.24-7.21-.07-10.93.43-1.38-.62-2.81-2.09-3.6s-2.11.57-3.08,1.16c-3.13,1.89-5.18,5.39-9.19,6a20.65,20.65,0,0,1-3.32.27H416.68c-4.4,0-5.8,1.4-5.8,5.87,0,21.33-.09,42.67.11,64,.05,4.63.45,9.27.39,13.92a36.49,36.49,0,0,1-.53,5.81c-.4,2.26-2.09,2.72-4.18,2.72q-26.82-.06-53.66,0a9.9,9.9,0,0,1-2.74-.38,2.94,2.94,0,0,1-2.45-3.2c.06-10-.29-19.95.14-29.9,1-22.16.54-44.32.28-66.46-.11-9.29-.17-18.6-.37-27.89-.06-2.67-.89-5.26-.36-8,.49-2.53,1.93-3.42,4.13-3.72a16,16,0,0,1,2,0l107.6,0c3.95,0,6.68,1.79,6.69,4.37s-2.75,4.37-6.71,4.38c-7.08,0-14.2.41-21.24-.13-7.82-.61-15.62-.21-23.42-.39-4-.09-5.84,1.66-5.57,5.27.4,5.29-.25,10.55-.08,15.83.14,4.53.8,5.32,5.39,5.32q29.34,0,58.69,0c5.32,0,6.53-1.28,6.52-6.63q0-21.8,0-43.6c0-3.46,1-4.51,4.44-4.52q56.18,0,112.35,0c4,0,4.91,1,4.91,4.92,0,14.81-.28,29.63.14,44.43.15,5.37-.84,10.89,1,16.21A3.92,3.92,0,0,1,604,542c-1.69,2-1.35,4.17-1.35,6.36q0,73.35,0,146.72c0,1.1-.29,2.29.41,3.27,1.42,2,.32,2.82-1.42,3.48a9,9,0,0,1-3.29.49H513.7c-4.67,0-5.53-.88-5.52-5.49,0-5.59,0-11.18,0-16.77s-3.75-8.19-9-6.05c-2.58,1.06-2.65,3.65-2.68,6-.08,6.7,0,13.41,0,20.12,0,12.86.13,25.71-.08,38.57a4.79,4.79,0,0,0,5.54,5c5.09-.52,6.22-1.7,6.23-6.82q0-8.52,0-17.05c0-3.54,1.16-4.81,4.66-4.59,18.42,1.13,36.85.23,55.28.48,8.38.12,16.76.06,25.15,0,3,0,6-.84,9.11-.05,2.22.57,2.47,1.61,1.3,3.09-1.4,1.77-1.54,3.69-1.53,5.77.05,8.2,0,16.4,0,24.6,0,4.38-.82,5.23-5.17,5.23H494.44c-2.61,0-5.22,0-7.83,0-3.19,0-4.5-1.22-4.61-4.48-.1-2.7,0-5.4,0-8.1Q482,694.94,482,648.13Zm-72.19-62.41h0q0-20,0-40c0-5.48,1.25-6.65,6.81-6.65,14.53,0,29.07-.18,43.59.1,5.87.11,11.15-.19,14.42-5.93.08-.16.28-.25.38-.4.34-.48,1.38-.56.95-1.46a2,2,0,0,0-1.79-1.16c-.93,0-1.86-.08-2.79-.08l-50.58,0c-1.67,0-3.36.09-5,0-5-.35-5.94-1.42-6-6.35,0-5.59,0-11.18,0-16.77,0-5.85,1.14-7.09,7-7,7.34.1,14.67-.1,22,.4,7.6.51,15.27.1,22.91.12a5.89,5.89,0,0,0,2.4-.62c1.22-.54,1.58-1.18,1.09-2.6-.81-2.4-2.67-2.29-4.52-2.28-19.82.15-39.65-.42-59.47.41-4.68.19-9.4-.51-14.07-.21a137.82,137.82,0,0,1-17.83.1c-5.37-.36-10.71.33-16.06-.26-2-.22-3.27.94-4,3.12s.1,4.23.15,6.33q.25,12.82.34,25.65c.19,23.54.68,47.09-.29,70.63-.36,8.74-.09,17.51,0,26.27,0,3.79,1.11,4.8,4.87,4.81q24.74,0,49.46,0c4.82,0,5.93-1.13,5.94-5.91Q409.81,605.84,409.79,585.72Zm128.49-45.47c15.46,0,30.93-.12,46.38.06,5.46.06,9.11-2.65,12.26-6.5,1.61-2,.55-4.32-2-4.73a16.14,16.14,0,0,0-2.51,0l-48.34,0c-2.33,0-4.85,0-6.66-1.49-3.79-3.07-7.28-6.63-7.73-11.81-.6-7.05.57-12.22,8.06-14.45,3.64-1.09,7.38-.95,11.22-.88,9.81.18,19.65.68,29.46-.38,2.39-.25,4.57-2.17,4.52-4.38s-.91-4.18-3.68-4.31c-1,0-2-.28-3-.29-11.74,0-23.47,0-35.21,0a19.12,19.12,0,0,0-8.17,1.36c-4.15,1.95-8.1,4.29-9.71,9.29-2.49,7.76-1.71,15.14,1.59,22.38,1.12,2.45-.06,3.58-2,4.52a7.2,7.2,0,0,1-3.28.5c-7,0-14-.09-21,0-3.69.06-7.15.94-9.73,4-1.35,1.6-3.45,3.59-2.83,5.18.8,2,3.67,2,6,2C507.36,540.23,522.82,540.25,538.28,540.25Zm13.78,63c5.14,0,9.47.44,13.31-1.3,3.14-1.43,6.43-2.47,9.37-4.61a27.93,27.93,0,0,0,10.87-14.85c1.88-6.42,1.44-13.21.65-19.86-.33-2.78-1-5.4-3.44-7.31-2-1.52-6.37-2.34-8.56-1-2.68,1.59-1.65,4-1.28,6.25.92,5.58,2.94,11,.49,16.85-2.36,5.7-8.46,10.81-14.63,11.63a34.83,34.83,0,0,1-17.31-2.18c-5.54-2.08-7.84-6.43-9.31-11.43-1.4-4.77-.53-9.54,1.17-14.16.66-1.81.87-3.53-.71-5.15a5.44,5.44,0,0,0-5.85-1.56c-2.39.74-5,1.39-5.47,4.45a22.06,22.06,0,0,1-1.29,3.66,27.63,27.63,0,0,0-.21,17.24,32.9,32.9,0,0,0,4.38,9.61c3.12,4.38,7,8.09,11.46,10C541,601.85,546.7,604.72,552.06,603.28Zm4.17,26c0-4.65,0-8.74,0-12.84,0-2.25-1.18-3.45-3.43-3.48-2.89,0-5.79-.17-8.66,0a29.2,29.2,0,0,0-14.87,5.51,23.53,23.53,0,0,0-8.8,11.71c-2.85,8-1.44,15.24,2.62,22.18,2.95,5,7.3,8.51,12.58,11.27A41.56,41.56,0,0,0,552.09,668c7.08.52,13.86-1.32,20.4-4.61,7.31-3.68,11.37-9.76,13-17,1.88-8.11,1.37-16.58,0-24.91-.43-2.53-1.9-4-3.59-5.35s-5.78-1.26-7.7,0c-2.27,1.52-1.73,3.6-1.16,5.75,1.18,4.47,2.41,9,1.74,13.67-.62,4.38-1.24,8.78-4.12,12.47-2.4,3.09-5.53,4.61-9.26,5.63-3.31.91-5.26,0-5.17-3.53,0-2,.87-4,.48-6.08C555.76,639,556.52,633.86,556.23,629.31Z" transform="translate(-29.71 -455.22)" fill="#98999b"/><path d="M846.3,700.67H996.07a26.18,26.18,0,0,1,3.07,0c3,.35,3.82,1.32,3.83,4.33,0,2.33,0,4.66,0,7,0,4-2,5.94-5.9,5.31a62.78,62.78,0,0,0-12.24-.4c-11.38.43-22.76-.3-34.13-.06-3.9.08-7.75.74-11.68.56-21.81-1-43.65-.86-65.47-.45-45.71.85-91.42.13-137.14.41-13.74.08-27.48,0-41.22,0a10.11,10.11,0,0,1-3-.31c-1.62-.52-2.27-1.62-1.21-3.22,2.24-3.39,1.92-6.82,0-10.16-.8-1.39-.31-2,.88-2.62s2.74-.41,4.12-.42Z" transform="translate(-29.71 -455.22)" fill="#98999b"/><path d="M598,705.13h87.77c3.83,0,4.25.51,4.23,4.39,0,1.56-.36,2.19-2.13,2.44a78.62,78.62,0,0,1-10.84.44q-83.16,0-166.3-.09c-4,0-5.72,1.9-5.72,6,0,4.2-.79,8.33-.61,12.51.08,2,.4,4.05.52,6.08.15,2.46-1.56,2.8-3.47,3-2.39.23-2.16-1.37-2.15-2.89q0-28.23,0-56.46c0-1.08-.56-2.63,1.41-2.73,1.68-.08,3.42-.36,3.89,2a11.15,11.15,0,0,1,.3,2.75c-.25,5.28.37,10.57-.44,15.87-.64,4.16,1.92,6.7,6,6.7Z" transform="translate(-29.71 -455.22)" fill="#fefefe"/><path d="M640.38,539.61h-29c-2,0-4.6.22-5.29-1.44-.53-1.28,1.71-2.89,3-4.24,2.24-2.41,4.36-4.89,7.91-5.13,1.55-.1,3.12.25,4.68.25,11.08,0,22.19.45,33.24-.15,7-.38,14,.76,21-.27,3.42-.51,5.41-3.25,4.15-6.52-1.36-3.58-4.46-5.06-7.7-6.34-5.93-2.35-12.33-3.46-17.83-6.94-4.74-3-7.79-7.12-7.5-12.78.31-6,3.56-10.51,9-13.11,8.54-4.09,17.5-3.28,26.47-2a3.55,3.55,0,0,1,1.3.42c1.93,1.21,4.13,2.54,3,5.22-1,2.38-3.21,2.27-5.51,1.81a47,47,0,0,0-17.45-.26c-3.19.56-6.63,3.62-6.9,6-.43,4,1.19,6.92,5.21,8.56a93.69,93.69,0,0,0,11.26,4.05,31.4,31.4,0,0,1,12.9,6.37A13.44,13.44,0,0,1,689.17,529c-4,7.58-11,10.33-18.9,10.61-9.95.34-19.93.08-29.89.08Z" transform="translate(-29.71 -455.22)" fill="#3366fc"/><path d="M938.1,678c.23,2.84.07,6.18-3.1,8.83a7.54,7.54,0,0,1-5,2c-2.48,0-3.75,1.18-4.67,3.19-.19.42-.38.85-.61,1.25-.68,1.16-1.76,2.29-3,2s-.89-1.82-1-2.92c-.71-6.44.58-12.89-.31-19.36-.51-3.73.81-4.72,4.62-4.75a7.55,7.55,0,0,0,3.55-.49c4.53-2.35,10.43,1.83,9.54,7A23.71,23.71,0,0,0,938.1,678Zm-3.88.21a15.83,15.83,0,0,0,0-3,4.7,4.7,0,0,0-3.53-3.91,3.31,3.31,0,0,0-3.69,1.25,12,12,0,0,0-1.17,10.67c1,2.65,3.11,3.16,5.28,1.34C933.1,682.86,935.08,681.07,934.22,678.23Z" transform="translate(-29.71 -455.22)" fill="#98999b"/><path d="M955.92,671.57c0,2.7,0,5.4,0,8.1s.79,5,3.54,6.37c2,1,2,2.7-.15,3.25a21.23,21.23,0,0,1-13.36-.45,1.32,1.32,0,0,1-1-1.51,1.59,1.59,0,0,1,1.35-1.27c4.2-.64,4.23-3.73,4.2-6.91q0-6.28,0-12.57a4.72,4.72,0,0,0-2.46-4.65c-.74-.4-2.16-.55-1.76-1.74a4,4,0,0,1,2.57-2.41,5.39,5.39,0,0,1,7,5.14c0,1.49,0,3,0,4.46Z" transform="translate(-29.71 -455.22)" fill="#98999b"/><path d="M751.39,677.85c0,3-.2,5.67-2.35,8.28-3.1,3.75-6.85,4-10.78,2.84s-5.84-4.54-6.31-8.42-.18-7.61,2.91-10.6,7-4.07,10.88-2.52,5.61,4.4,5.65,9.3Zm-14.66.54c0,3,2.12,6.22,4.33,6.69s3.57-.6,5.23-4.69a10.28,10.28,0,0,0,.55-1.28c1-3.49-1.78-7.67-5.05-7.65S736.72,674.15,736.73,678.39Z" transform="translate(-29.71 -455.22)" fill="#98999b"/><path d="M716.57,689.44c-1.77,0-3.37.16-4.78-.78-.52-.35-1.27-.55-1-1.42a1.39,1.39,0,0,1,1.47-1,34.14,34.14,0,0,0,4.18-.09c1.55-.23,3.44,0,3.76-2.43s-1-3.39-3.09-3.67c-3.24-.43-5-2.72-6.47-5.21s.22-4.4,1.87-5.79c2.51-2.13,5.52-3.31,8.95-2.43a2.21,2.21,0,0,1,1.92,2.63c-.24,1.38-1.44,1.21-2.45,1.24-.37,0-.75,0-1.12,0-1.74.18-4.11.1-4.37,2.09-.23,1.72,1.76,2.93,3.35,3.67,1.92.89,3.93,1.39,5.48,3.1,3.17,3.48,2,8.19-2.62,9.48A12.12,12.12,0,0,1,716.57,689.44Z" transform="translate(-29.71 -455.22)" fill="#98999b"/><path d="M807.28,679.13c.77-3.76.31-7-3.39-9.13-.89-.51-.17-1.39.21-2a32.6,32.6,0,0,1,2.55-3.3c3-3.34,3.08-3.38,5.38.36,1.21,2,3.22,2,5,2.73.72.31,1.87.46,1.76,1.48s-1.18,1-2,1.15c-5.45,1.06-5.47,1.28-5.64,6.91-.14,4.54,0,6.5,6.32,8.88.66.25,1.55.41,1.5,1.38s-.84,1.08-1.55,1.35c-4.63,1.75-9-.85-9.51-5.76C807.73,681.84,807,680.54,807.28,679.13Z" transform="translate(-29.71 -455.22)" fill="#98999b"/><path d="M783.86,676.54c0,1.77-.06,3.53,0,5.3.11,2.62,1.3,4.39,4.08,4.75.74.1,1.73.25,2.07-.43,1.29-2.55,4.14-4.28,3.84-7.71-.22-2.58,0-5.2,0-7.8,0-.77.16-1.6,1.11-1.64s1.18.79,1.18,1.55c0,4.64.15,9.26.54,13.88a2.94,2.94,0,0,1-3.21,3.38,39.5,39.5,0,0,0-6.61.78c-2.87.43-4.78-1-5.35-3.84a13.41,13.41,0,0,1-.08-6.3c.66-2.49-.87-5.09.06-7.67.27-.77.13-1.86,1.27-1.77s1.07,1.12,1.08,2c0,1.85,0,3.71,0,5.57Z" transform="translate(-29.71 -455.22)" fill="#98999b"/><path d="M761,660.43c4.56-1.88,5.58-1.2,5.59,2.94,0,4.45.19,8.92-.06,13.36a11.73,11.73,0,0,0,3.86,9.91c.9.83.82,1.62-.38,1.7-2.59.15-5.2.11-7.79,0-.79,0-1.51-.44-.46-1.38,1.94-1.74,2.34-4.14,2.39-6.56.09-4.36,0-8.73,0-13.09C764.18,664.71,764.33,662,761,660.43Z" transform="translate(-29.71 -455.22)" fill="#98999b"/><path d="M153.51,516.69c2.68,1.08,3.93,3.63,5.55,5.69a64.58,64.58,0,0,1,13,29.73,65.83,65.83,0,0,1-4.42,37.34,72,72,0,0,1-23.38,29.8,63,63,0,0,1-32.64,12.2c-5.45.47-10.9,1.28-16.37,1-19.35-1-38.71-.23-58.07-.46-3.34,0-4.21-1-4.21-4.72,0-35,.15-70-.09-105.08,0-7.6-.36-15.23-.44-22.85,0-3.89,1.07-5,4.93-5,21.8,0,43.61-.44,65.39.19,12.52.36,25,2.79,36,9.44,5.48,3.32,11.08,6.76,14.56,12.53-2.33.29-2.53-2.12-3.86-3.11-3.4-2.52-6.89-4.9-10.31-7.36-5.29-3.79-11.46-5.3-17.3-7.5-3.52-1.33-7.69-1.08-11.6-.79-.63.05-1.48-.1-1.54.79s.78.9,1.41.89a40.24,40.24,0,0,1,15.53,3.22,67.34,67.34,0,0,1,18.78,11,71.18,71.18,0,0,1,19.12,25.45,40.57,40.57,0,0,1,3.14,8.25,68,68,0,0,1,1.09,15.52c-.05,4,.26,8-.33,12-.89,6-3.45,11.41-6,16.85a60.19,60.19,0,0,1-15.13,19.89c-2.87,2.48-5.69,5.08-9.21,7-2.14,1.14-4.58,1.9-6.54,3.42-2.88,2.26-6.56,2.81-9.81,4.13-3.61,1.47-8,1.12-12.06,1.36-2,.12-3.85,0-5.39,1.58-1,1-2.24.74-3.43.45-4.88-1.19-6.78-3.57-6.78-9.16q-.06-57.56,0-115.11a7.82,7.82,0,0,1,1.79-5.68c1.45-1.58.75-3.18-1.45-3.45a61.63,61.63,0,0,0-6.92-.54q-22.77-.08-45.54,0c-1.11,0-2.22.15-3.33.24-2.85.22-3.53,2.43-3.36,4.55.4,5.07.29,10.14.31,15.2.11,37,.08,73.95.13,110.93,0,4.2.29,4.45,4.42,4.45q33,0,65.94,0c.56,0,1.24.16,1.66-.1,3.86-2.43,8.31-1.51,12.47-2.11,4.63-.68,8.84-2.52,13.11-4.11,3.21-1.2,6.06-3.36,9.09-5.06a44.17,44.17,0,0,0,8.9-6.92,68.49,68.49,0,0,0,10.48-13.19c3.88-6.27,7.32-12.64,8.67-20a20.68,20.68,0,0,1,.71-3.81c2.85-7.33,2.15-15,.63-22.2C169.6,547.88,169,542,166,536.89c-1.78-3-3.13-6.39-5-9.39a42.16,42.16,0,0,0-7.19-9A1.44,1.44,0,0,1,153.51,516.69ZM94.05,565.76c.25,15-.5,35.17.47,55.36.21,4.51,2.27,6.41,6.76,5.53a35,35,0,0,1,4.43-.39c3.51-.25,7.12-.12,10.51-.89a69.71,69.71,0,0,0,24-10.6c8.62-5.89,14.87-13.69,19.57-22.69a62.62,62.62,0,0,0,7-31.17,61.18,61.18,0,0,0-7-26.35,62.46,62.46,0,0,0-22.16-24.48c-11.46-7.37-24.29-9.84-37.59-10.52-3.21-.17-5.18,1.38-5.38,3.73-.23,2.68-.61,5.34-.6,8C94.08,527.74,94.05,544.13,94.05,565.76Z" transform="translate(-29.71 -455.22)" fill="#98999b"/><path d="M253.84,501.7c.55,2.57,3.43,3.87,3.66,6.62-.21,1.51.56,2.1,2,2.13,1.83,3.94,4.55,7.34,6.77,11,2.38,4,5,7.77,7.58,11.61,6,9,11.5,18.34,17.63,27.27,3.62,5.27,6.73,10.89,10.28,16.21,5.74,8.62,11.19,17.44,16.81,26.13,2.63,4.07,5.59,8,7.69,12.43-.26.75,0,1.07.8,1a10.94,10.94,0,0,1,2,3.42c-.27.76,0,1.09.78,1,2,2.37,3.13,5.24,4.72,7.85.19,2.63-1.31,3.12-3.55,3-.89,0-2.3-.72-2.65,1a32.92,32.92,0,0,0-9.19-.25c-.66-1.1-1.32-1.09-2,0a46.56,46.56,0,0,0-9.73.15c-3.88.54-7.8-.5-11.67-.27-7.31.44-14.64.21-21.93.19-13.82-.05-27.65-.22-41.48-.23-7.74,0-15.49.34-23.23.36-7.59,0-15.17.15-22.77-.31-4.71-.28-9.46.21-14.19.36-1.1-2.1-3-.75-4.46-1h0c1.05-2.21,2.72-4.17,2.66-6.81.07-.23.13-.46.2-.68,1.14.12,1.71-.3,1.45-1.52l.77-1.36c1.06.36,1.62-.46,2-1.09,2.57-3.93,5.24-7.81,7.53-11.89s5.1-7.41,7.37-11.3c2.51-4.28,5.32-8.39,8-12.59,2.45-3.86,4.8-7.79,7.3-11.61,2.17-3.32,4.74-6.4,6.67-9.85,3.2-5.69,7-11,10.41-16.56,2.61-4.19,5.62-8.24,8.26-12.41,3.87-6.12,7.69-12.29,11.66-18.36a2.53,2.53,0,0,0,.4-2.59l2-3.41c.83.07,1.16-.25.83-1.08,1-2.33,2.86-4.15,3.65-6.59C250.52,501.6,252.17,500.79,253.84,501.7Zm-2.48,117.35h47.23c1.58,0,3.16,0,4.75,0a3.74,3.74,0,0,0,3.49-5.32c-1.48-4-4.6-6.92-6.64-10.53-6.54-11.56-14.31-22.34-21.25-33.64-5.09-8.28-10.47-16.38-15.74-24.54-2.56-4-5.32-7.82-7.85-11.82a4.28,4.28,0,0,0-6.9-.58c-6.15,7.24-10.54,15.66-15.81,23.49-6.81,10.15-12.91,20.78-19.76,30.91-5.36,7.9-10,16.23-15.73,23.93-1.08,1.47-2.14,3.5-1.37,5.6,1,2.65,3.24,2.55,5.56,2.54Q226.34,619,251.36,619.05Z" transform="translate(-29.71 -455.22)" fill="#3366fc"/><path d="M242.39,512.79a2.53,2.53,0,0,1-.4,2.59c-4,6.07-7.79,12.24-11.66,18.36-2.64,4.17-5.65,8.22-8.26,12.41-3.45,5.53-7.21,10.87-10.41,16.56-1.93,3.45-4.5,6.53-6.67,9.85-2.5,3.82-4.85,7.75-7.3,11.61-2.66,4.2-5.47,8.31-8,12.59-2.27,3.89-5.17,7.35-7.37,11.3s-5,8-7.53,11.89c-.41.63-1,1.45-2,1.09.08-2.64,2.18-4.27,3.41-6.25,5.28-8.56,10.92-16.89,16.35-25.35,3.54-5.52,6.76-11.26,10.46-16.66,4.61-6.71,8.92-13.61,13.31-20.45,5.66-8.79,11.07-17.75,16.88-26.44C236.15,521.46,238.59,516.63,242.39,512.79Z" transform="translate(-29.71 -455.22)" fill="#98999b"/><path d="M328.33,632.4c.35-1.71,1.76-1,2.65-1,2.24.13,3.74-.36,3.55-3a2,2,0,0,1,1.31,2.67,2.35,2.35,0,0,1-2.5,1.42C331.67,632.45,330,632.43,328.33,632.4Z" transform="translate(-29.71 -455.22)" fill="#98999b"/><path d="M170.36,624.6c.06,2.64-1.61,4.6-2.66,6.81-1.19-.21-1.1-.94-.76-1.82A12.37,12.37,0,0,1,170.36,624.6Z" transform="translate(-29.71 -455.22)" fill="#98999b"/><path d="M253.84,501.7c-1.67-.91-3.32-.1-5,0,.5-1.6,1.93-2,3.25-2.06C253.2,499.57,253.82,500.53,253.84,501.7Z" transform="translate(-29.71 -455.22)" fill="#98999b"/><path d="M167.72,631.42c1.51.24,3.36-1.11,4.46,1C170.68,632.14,168.82,633.51,167.72,631.42Z" transform="translate(-29.71 -455.22)" fill="#98999b"/><path d="M259.46,510.45c-1.4,0-2.17-.62-2-2.13A2.44,2.44,0,0,1,259.46,510.45Z" transform="translate(-29.71 -455.22)" fill="#98999b"/><path d="M317.18,632.16c.64-1.1,1.3-1.11,2,0A1.51,1.51,0,0,1,317.18,632.16Z" transform="translate(-29.71 -455.22)" fill="#98999b"/><path d="M172,622.4c.26,1.22-.31,1.64-1.45,1.52A1.53,1.53,0,0,1,172,622.4Z" transform="translate(-29.71 -455.22)" fill="#98999b"/><path d="M329.81,620.57c-.8.1-1.05-.23-.78-1C329.59,619.68,329.89,620,329.81,620.57Z" transform="translate(-29.71 -455.22)" fill="#98999b"/><path d="M327,616.16c-.76.05-1.06-.27-.8-1A.8.8,0,0,1,327,616.16Z" transform="translate(-29.71 -455.22)" fill="#98999b"/><path d="M245.21,508.3c.33.83,0,1.15-.83,1.08A1,1,0,0,1,245.21,508.3Z" transform="translate(-29.71 -455.22)" fill="#98999b"/><path d="M1003.47,494q0,15.51,0,31c0,5,.78,5.79,5.79,5.79,2.32,0,4.65-.07,7,0,3,.08,4.66,1.87,4.59,4.79-.05,2.57-1.28,3.55-4.52,3.55-12.67,0-25.34,0-38,0-2.6,0-4.1-.89-4.41-3.5s.67-3.89,3.66-4.53c3.69-.78,7.42-.18,11.14-.33,3.2-.13,4.21-1,4.22-4.15q0-27.81,0-55.62c0-3.7-1.55-5.15-5.33-5.18-2.52,0-5,0-7.55,0-2.77,0-4.49-1.66-4.48-4.17s1.72-4.14,4.49-4.15c6.15,0,12.3,0,18.45,0,3.52,0,5,1.57,5,5.13q0,15.65,0,31.3Zm-1.55,1h0c0-10.62,0-21.23,0-31.85,0-3.31-.71-4-3.91-4-6,0-11.91,0-17.87,0-1.52,0-2.82.13-2.8,2.17s1,2.89,2.92,2.89c3.07,0,6.14,0,9.21.05A4.07,4.07,0,0,1,993.5,467a12.85,12.85,0,0,1,1.06,5.11c-.06,8.57,0,17.13,0,25.7,0,9.5,0,19,0,28.49,0,4.08-1.88,6-6,6.05-2.33,0-4.66,0-7,0-1.38,0-2.83-.3-4.1.51-.81.52-2.2.58-2.17,1.86s.94,2,1.81,2.71a3,3,0,0,0,2.12.51q18.43,0,36.87,0c1.92,0,3-.75,3-2.76s-1.1-2.8-3-2.79c-2.51,0-5,0-7.54,0-4.49,0-6.66-2.2-6.67-6.68Q1001.91,510.32,1001.92,495Z" transform="translate(-29.71 -455.22)" fill="#98999b"/><path d="M868.75,678.2c.9,8.09-6.64,13.17-13.65,10.71-4.86-1.71-5.67-6.12-6.28-10.3s3-9.53,6.73-11.27c5.66-2.67,13.53,2.28,13.2,8.63C868.71,676.71,868.75,677.46,868.75,678.2ZM859.27,671a4.82,4.82,0,0,0-4.9,2.93c-1.12,2.14-.71,4.36-.69,6.55,0,2.7,2.08,4.22,4.17,5s3.83-.48,5.08-2.44a12.26,12.26,0,0,0,1.63-4.09C865.31,675.47,862.28,671,859.27,671Z" transform="translate(-29.71 -455.22)" fill="#98999b"/><path d="M890.51,678.88c0,2.23.16,4.47-.06,6.68-.11,1.12-.72,2.65-2.14,2.52s-1-1.71-1.09-2.74c-.28-3.87.34-7.76-.42-11.66-.43-2.22-2-2.39-3.56-2.93s-2.56.31-3.38,1.34a8.7,8.7,0,0,0-2.2,5.82c.06,2.86.49,5.76-.34,8.59-.22.79-.31,1.86-1.45,1.65a1.91,1.91,0,0,1-1.46-1.84c-.07-.83,0-1.67-.07-2.51a98.36,98.36,0,0,0-.39-10c-.48-3.53.58-6.37,4.95-5.58a7.29,7.29,0,0,0,3.55-.52c4.22-1.36,7.89,1.16,8.12,5.6.1,1.85,0,3.71,0,5.57Z" transform="translate(-29.71 -455.22)" fill="#98999b"/><path d="M838.05,676.2v4.47a6.36,6.36,0,0,0,2.57,5.3c.59.45,1.42.78,1.25,1.65s-1.14,1.24-2,1.26q-4.18.09-8.37,0a1.73,1.73,0,0,1-1.77-1.13c-.26-1,.7-1.21,1.32-1.5a5.07,5.07,0,0,0,2.34-2.66,10.91,10.91,0,0,0-2.36-13.2c-1.06-.92-.84-1.51.18-2.12,1.81-1.08,3.61-.59,5.35.15,1.46.63,1.5,2,1.46,3.32s0,3,0,4.47Z" transform="translate(-29.71 -455.22)" fill="#98999b"/><path d="M776.94,511.07c-.29-6.84,1.81-13.07,5.19-18.78,2.51-4.23,6.67-7,11.11-8.94,8.22-3.58,16.69-2.8,25.11-.6,1.93.5,2.91,3.28,2.23,5.68s-2.29,2.2-4.15,1.51a24.83,24.83,0,0,0-14-1.34c-9.42,2-15.77,9.39-16.31,19.87-.29,5.62.08,11.14,3.52,16a16.66,16.66,0,0,0,9.44,6.83c6,1.69,11.76.78,17.59-.51,1.32-.29,2.83-1.22,3.65.58a4.71,4.71,0,0,1-.27,4.76c-1.67,2.55-4.44,2.6-7,2.89-5.81.66-11.64,1-17.42-.37-6.18-1.4-10.81-5-14.42-10.08C777.52,523.31,777.46,517.12,776.94,511.07Z" transform="translate(-29.71 -455.22)" fill="#3366fc"/><path d="M871.05,506.67c0,6.8,0,13.6,0,20.39,0,3.09.85,3.85,3.86,4.25a21.73,21.73,0,0,0,7.46.07,4.75,4.75,0,0,1,4.25.8c1.29,1.1,2.16,2.47,1.52,4.17a3.37,3.37,0,0,1-3.5,2.23c-4.46-.06-8.93,0-13.4,0l-24,0c-3.69,0-5-1.07-4.68-3.87.24-2.32,2.53-3.56,5.56-3.16a32.38,32.38,0,0,0,10.53-.26c2.33-.45,3.49-1.65,3.47-4.2-.08-11.05,0-22.09,0-33.14,0-3.7-2-5.59-5.76-5.64-2.7,0-5.4-.08-8.1,0-2.27.05-3.54-.78-3.45-3.24.07-2.28,1.24-3.43,3.46-3.45,5.58-.05,11.17,0,16.76-.05a18.12,18.12,0,0,1,2,0c2.91.29,4.07,1.56,4.08,4.47,0,6.89,0,13.78,0,20.66Z" transform="translate(-29.71 -455.22)" fill="#3366fc"/><path d="M954.78,516.52c0,6.05,0,12.1,0,18.15,0,2.06,0,3.93-2.43,4.72-2.66.87-6.68.31-7.72-1.58-1.67-3-3.91-2.13-5.81-.9-7.21,4.67-14.84,5.28-22.92,3-5.64-1.59-10.23-8-10.79-13.84-1.29-13.22,9.72-20.19,19.86-21.05a122,122,0,0,1,12.23-.42c2.28,0,4.53-.19,5.57-2.34,1.16-2.38.53-5-.82-7.14-2.55-4.1-6.33-5.8-11.2-6-5.24-.21-10.1,1.23-15,2.5-2.29.6-4.35.85-5.38-1.75-1.12-2.85.11-6.73,2.55-7.55,4.11-1.38,8.14-3,12.66-3,3.68,0,7.32-.35,11.06,0,11.1.95,18,8.79,18.12,19.08C954.82,504.42,954.78,510.47,954.78,516.52Zm-2.15-1.18c0-5.87.12-11.74,0-17.61-.16-6.48-2.92-11.77-8.94-14.38a29.33,29.33,0,0,0-11.29-2.51c-5-.07-9.73,1.19-14.54,2.13-1.64.32-3.3.45-4.53,1.85-1,1.13-1.79,2.32-.83,3.71a3,3,0,0,0,3.91,1,32.46,32.46,0,0,1,15.83-2.38c8.51.67,14.34,6.88,12.44,16.33a3.86,3.86,0,0,1-4.06,3.14c-5.2.09-10.4,0-15.59.54-10.27,1.07-18.57,6.64-17.7,18.85.34,4.91,4.51,10.76,9,11.92,7.85,2,15.38,1.39,22.38-3.05,4.69-3,5.12-2.88,8.61,1.39,1.53,1.88,3.16,1.82,4.57-.18a5.65,5.65,0,0,0,.81-3.46C952.63,526.89,952.64,521.11,952.63,515.34Z" transform="translate(-29.71 -455.22)" fill="#98999b"/><path d="M651.28,664.82c-7.36-1-9.63,6-8.82,12.53.62,5,4.28,8.55,9.24,7.76a4.06,4.06,0,0,1,1.39,0c1.3.26,2.85.68,2.91,2.13s-1.47,1.77-2.62,2.1c-8.13,2.39-14.77-2.09-16.39-11a17.23,17.23,0,0,1,7.67-17.53c2.66-1.75,5.49-1.57,8.34-1.26,2.12.24,3,2.31,2.94,3.85s-2,1.45-3.42,1.45Z" transform="translate(-29.71 -455.22)" fill="#98999b"/><path d="M671.38,660.39c1.4,0,2.79,0,4.18,0,.79,0,1.79-.25,2,.94.18,1,.08,2-1,2.35-4.76,1.43-4.52,4.9-4.15,8.86a116.33,116.33,0,0,1,.09,12.53c0,.87-.14,2.2-1,2.39-1.31.29-1.3-1.27-1.83-2.05a3.15,3.15,0,0,1-.45-2.42c1-4.41.22-8.88.57-13.31a5.14,5.14,0,0,0-3-5.4,3.29,3.29,0,0,1-1.74-2c-.49-1.4-.06-1.91,1.33-1.9C668,660.41,669.71,660.39,671.38,660.39Z" transform="translate(-29.71 -455.22)" fill="#98999b"/><path d="M706.18,510.81c-.68-5.56.71-10.82,2.9-15.75,3.69-8.3,10-13.55,19.2-15.19a31.7,31.7,0,0,1,19.83,2.43A22,22,0,0,1,760,497.68c2.37,10.09,2.52,20.34-2.67,29.79-3.81,6.94-9.81,11-17.75,12.51-9.74,1.82-18.52.23-25.87-6.59-4.07-3.77-5.55-9.08-7-14.28C705.94,516.36,706.24,513.57,706.18,510.81Zm25.9,27.84c7.53-.24,7.39.41,13.75-2.48,7.61-3.45,11.46-10,13.12-17.23,1.9-8.2,1.75-16.73-2.16-25a22.13,22.13,0,0,0-11-10.63,27.25,27.25,0,0,0-13.24-2.49c-8.67.41-14.77,5-19.51,11.62-1.25,1.74-2.86,3.68-3.09,6.11-.59,6.35-1.61,12.62-.7,19.08.73,5.09,2,10,5.26,13.8C719.32,537.08,725.72,539.52,732.08,538.65Z" transform="translate(-29.71 -455.22)" fill="#98999b"/><path d="M623.65,689.5a12.49,12.49,0,0,1-2.76-.26c-1.19-.36-3,0-3.42-1.42-.49-1.6,1.55-1.46,2.33-2.27,1.26-1.31,2.4-2.77,2.38-4.58-.06-4.44.5-8.9-.4-13.33-.31-1.53-.58-2.89-2.32-3.42-1.28-.39-1.1-1.54-1.11-2.56s.9-1.31,1.68-1.51c2.87-.74,5.72-.11,8.54.36,1.33.21,1.5,2.72.1,3.58-2.27,1.4-2.63,3.38-2.57,5.73.08,2.88.15,5.77,0,8.65a8.51,8.51,0,0,0,2.93,7.45c.63.54,1.34,1.14.91,2.12-.35.79-1.12.84-1.88.92C626.59,689.11,625.17,689.71,623.65,689.5Z" transform="translate(-29.71 -455.22)" fill="#98999b"/><path d="M977.82,690c-7.65-.09-12.11-6.38-10.36-14.23,1.49-6.72,5.26-8.29,10.83-9.57a6.77,6.77,0,0,1,2.45.29c1.65.29,3,1.35,2.85,2.93-.13,1.79-1.91,1.62-3.32,1.63-4.38,0-6.19,1.17-7.59,4.74a7.38,7.38,0,0,0,2.4,8.52,6.7,6.7,0,0,0,5.51,1.21c1.41-.24,2.24.06,2.61,1.27.43,1.46-.53,2.22-1.78,2.68A8.1,8.1,0,0,1,977.82,690Z" transform="translate(-29.71 -455.22)" fill="#98999b"/><path d="M996.23,685.89c-.28-2.18,1.1-3,2.94-3.08,2-.13,2.69,1.12,2.71,3s-.54,3.19-2.57,3.12C997.51,688.86,996,688.18,996.23,685.89Z" transform="translate(-29.71 -455.22)" fill="#98999b"/><path d="M409.79,585.72q0,20.12,0,40.24c0,4.78-1.12,5.9-5.94,5.91q-24.73,0-49.46,0c-3.76,0-4.84-1-4.87-4.81-.06-8.76-.33-17.53,0-26.27,1-23.54.48-47.09.29-70.63q-.1-12.81-.34-25.65c-.05-2.1-.85-4.09-.15-6.33s2-3.34,4-3.12c5.35.59,10.69-.1,16.06.26a137.82,137.82,0,0,0,17.83-.1c4.67-.3,9.39.4,14.07.21,19.82-.83,39.65-.26,59.47-.41,1.85,0,3.71-.12,4.52,2.28.49,1.42.13,2.06-1.09,2.6a5.89,5.89,0,0,1-2.4.62c-7.64,0-15.31.39-22.91-.12-7.35-.5-14.68-.3-22-.4-5.88-.07-7,1.17-7,7,0,5.59,0,11.18,0,16.77,0,4.93,1,6,6,6.35,1.67.12,3.36,0,5,0l50.58,0c.93,0,1.86,0,2.79.08a2,2,0,0,1,1.79,1.16c.43.9-.61,1-.95,1.46-.1.15-.3.24-.38.4-3.27,5.74-8.55,6-14.42,5.93-14.52-.28-29.06-.1-43.59-.1-5.56,0-6.8,1.17-6.81,6.65q0,20,0,40Z" transform="translate(-29.71 -455.22)" fill="#3366fc"/><path d="M538.28,540.25c-15.46,0-30.92,0-46.38,0-2.3,0-5.17,0-6-2-.62-1.59,1.48-3.58,2.83-5.18,2.58-3.05,6-3.93,9.73-4,7-.13,14,0,21,0a7.2,7.2,0,0,0,3.28-.5c1.94-.94,3.12-2.07,2-4.52-3.3-7.24-4.08-14.62-1.59-22.38,1.61-5,5.56-7.34,9.71-9.29A19.12,19.12,0,0,1,541,491c11.74.06,23.47,0,35.21,0,1,0,2,.25,3,.29,2.77.13,3.62,2,3.68,4.31s-2.13,4.13-4.52,4.38c-9.81,1.06-19.65.56-29.46.38-3.84-.07-7.58-.21-11.22.88-7.49,2.23-8.66,7.4-8.06,14.45.45,5.18,3.94,8.74,7.73,11.81,1.81,1.47,4.33,1.49,6.66,1.49l48.34,0a16.14,16.14,0,0,1,2.51,0c2.56.41,3.62,2.75,2,4.73-3.15,3.85-6.8,6.56-12.26,6.5C569.21,540.13,553.74,540.25,538.28,540.25Z" transform="translate(-29.71 -455.22)" fill="#3366fc"/><path d="M552.06,603.28c-5.36,1.44-11-1.43-16.36-3.73-4.49-1.94-8.34-5.65-11.46-10a32.9,32.9,0,0,1-4.38-9.61,27.63,27.63,0,0,1,.21-17.24,22.06,22.06,0,0,0,1.29-3.66c.51-3.06,3.08-3.71,5.47-4.45a5.44,5.44,0,0,1,5.85,1.56c1.58,1.62,1.37,3.34.71,5.15-1.7,4.62-2.57,9.39-1.17,14.16,1.47,5,3.77,9.35,9.31,11.43A34.83,34.83,0,0,0,558.84,589c6.17-.82,12.27-5.93,14.63-11.63,2.45-5.89.43-11.27-.49-16.85-.37-2.23-1.4-4.66,1.28-6.25,2.19-1.3,6.58-.48,8.56,1,2.49,1.91,3.11,4.53,3.44,7.31.79,6.65,1.23,13.44-.65,19.86a27.93,27.93,0,0,1-10.87,14.85c-2.94,2.14-6.23,3.18-9.37,4.61C561.53,603.72,557.2,603.3,552.06,603.28Zm30-31.38a84.06,84.06,0,0,0-.5-11.21c-.28-2.11-1.77-2.4-3.12-2.44-1.84-.06-.92,1.43-1,2.45-.17,2.52,1.18,4.61,1.62,6.89,1,5.06-1.5,9.67-2.89,14.39-.07.25-.35.43-.52.64-3.35,4.07-6.73,7.73-12.29,9.28a38.89,38.89,0,0,1-12.09,1.5c-2.75-.09-5.18-1-7.77-1.63-8.39-2-13.31-7.42-15.67-15.22-1.58-5.23-.48-10.66.59-15.95.14-.69,1-1.7-.57-1.91a1.53,1.53,0,0,0-1.87,1.18c-1.5,3.94-3,7.73-2.84,12.2.14,3.47,1.53,6.39,2.22,9.58.83,3.83,3,6.72,5.49,9.33a24.4,24.4,0,0,0,14.71,7.35c1.38.19,2.81-.05,4.18.13,9,1.18,17.42.18,24.69-6a22.89,22.89,0,0,0,6.94-11A25.24,25.24,0,0,0,582,571.9Z" transform="translate(-29.71 -455.22)" fill="#cdd8e8"/><path d="M556.23,629.31c.29,4.55-.47,9.67.5,14.76.39,2-.43,4-.48,6.08-.09,3.49,1.86,4.44,5.17,3.53,3.73-1,6.86-2.54,9.26-5.63,2.88-3.69,3.5-8.09,4.12-12.47.67-4.69-.56-9.2-1.74-13.67-.57-2.15-1.11-4.23,1.16-5.75,1.92-1.29,6-1.41,7.7,0s3.16,2.82,3.59,5.35c1.39,8.33,1.9,16.8,0,24.91-1.67,7.22-5.73,13.3-13,17-6.54,3.29-13.32,5.13-20.4,4.61a41.56,41.56,0,0,1-16.43-4.27c-5.28-2.76-9.63-6.23-12.58-11.27-4.06-6.94-5.47-14.18-2.62-22.18a23.53,23.53,0,0,1,8.8-11.71A29.2,29.2,0,0,1,544.13,613c2.87-.22,5.77-.08,8.66,0,2.25,0,3.42,1.23,3.43,3.48C556.24,620.57,556.23,624.66,556.23,629.31Zm-2.57,34.49A32.12,32.12,0,0,0,568,661.5a21.36,21.36,0,0,0,13.28-14.08c2.35-7.76,1.37-16,.48-24a5.63,5.63,0,0,0-.39-2.17c-.78-1.34-1.71-3.13-3.49-2.62s-.69,2.16-.54,3.38a76.91,76.91,0,0,0,1.21,8.46c.65,2.77-.09,5.67-.69,8.59-.76,3.71-.91,7.33-3.58,10.4-2.91,3.34-5.83,6.54-10.37,7.56-1.62.36-3.44.28-4.86,1-2,1-3.13.21-4.25-1.18a7.67,7.67,0,0,1-1.78-3.73c-.73-5.12,0-10.27-.4-15.43a70.33,70.33,0,0,1,.33-17c.44-2.8-1.53-4.44-4.3-3.84-1.38.31-2.8.19-4.12.5-3.67.87-7.37.73-11,2.94-6.68,4.06-9.6,9.58-10.26,17-.39,4.53,1.16,8.42,2.74,12.45,1.45,3.69,4.38,6,7.23,8.36,2.56,2.13,6,2.62,8.87,4.13s5.24,1.45,8,1.48C551.24,663.81,552.45,663.8,553.66,663.8Z" transform="translate(-29.71 -455.22)" fill="#cdd8e8"/><path d="M934.22,678.23c.86,2.84-1.12,4.63-3.14,6.32-2.17,1.82-4.32,1.31-5.28-1.34A12,12,0,0,1,927,672.54a3.31,3.31,0,0,1,3.69-1.25,4.7,4.7,0,0,1,3.53,3.91A15.83,15.83,0,0,1,934.22,678.23Z" transform="translate(-29.71 -455.22)" fill="#cdd8e8"/><path d="M736.73,678.39c0-4.24,1.93-6.9,5.06-6.93s6.05,4.16,5.05,7.65a10.28,10.28,0,0,1-.55,1.28c-1.66,4.09-2.89,5.19-5.23,4.69S736.74,681.34,736.73,678.39Z" transform="translate(-29.71 -455.22)" fill="#cdd8e8"/><path d="M153.51,516.69a1.44,1.44,0,0,0,.22,1.81,42.16,42.16,0,0,1,7.19,9c1.9,3,3.25,6.34,5,9.39,3,5.13,3.65,11,4.81,16.48,1.52,7.2,2.22,14.87-.63,22.2a20.68,20.68,0,0,0-.71,3.81c-1.35,7.32-4.79,13.69-8.67,20a68.49,68.49,0,0,1-10.48,13.19,44.17,44.17,0,0,1-8.9,6.92c-3,1.7-5.88,3.86-9.09,5.06-4.27,1.59-8.48,3.43-13.11,4.11-4.16.6-8.61-.32-12.47,2.11-.42.26-1.1.1-1.66.1q-33,0-65.94,0c-4.13,0-4.41-.25-4.42-4.45,0-37,0-74-.13-110.93,0-5.06.09-10.13-.31-15.2-.17-2.12.51-4.33,3.36-4.55,1.11-.09,2.22-.24,3.33-.24q22.77,0,45.54,0a61.63,61.63,0,0,1,6.92.54c2.2.27,2.9,1.87,1.45,3.45a7.82,7.82,0,0,0-1.79,5.68q0,57.55,0,115.11c0,5.59,1.9,8,6.78,9.16,1.19.29,2.48.52,3.43-.45,1.54-1.57,3.43-1.46,5.39-1.58,4.06-.24,8.45.11,12.06-1.36,3.25-1.32,6.93-1.87,9.81-4.13,2-1.52,4.4-2.28,6.54-3.42,3.52-1.88,6.34-4.48,9.21-7a60.19,60.19,0,0,0,15.13-19.89c2.58-5.44,5.14-10.83,6-16.85.59-4,.28-8,.33-12a68,68,0,0,0-1.09-15.52,40.57,40.57,0,0,0-3.14-8.25,71.18,71.18,0,0,0-19.12-25.45,67.34,67.34,0,0,0-18.78-11,40.24,40.24,0,0,0-15.53-3.22c-.63,0-1.48,0-1.41-.89s.91-.74,1.54-.79c3.91-.29,8.08-.54,11.6.79,5.84,2.2,12,3.71,17.3,7.5,3.42,2.46,6.91,4.84,10.31,7.36,1.33,1,1.53,3.4,3.86,3.11A.27.27,0,0,0,153.51,516.69Z" transform="translate(-29.71 -455.22)" fill="#3366fc"/><path d="M94.05,565.76c0-21.63,0-38,0-54.42,0-2.71.37-5.37.6-8,.2-2.35,2.17-3.9,5.38-3.73,13.3.68,26.13,3.15,37.59,10.52a62.46,62.46,0,0,1,22.16,24.48,61.18,61.18,0,0,1,7,26.35,62.62,62.62,0,0,1-7,31.17c-4.7,9-10.95,16.8-19.57,22.69a69.71,69.71,0,0,1-24,10.6c-3.39.77-7,.64-10.51.89a35,35,0,0,0-4.43.39c-4.49.88-6.55-1-6.76-5.53C93.55,600.93,94.3,580.73,94.05,565.76Zm68.18-2.46a81.41,81.41,0,0,1,.08-9.76c.43-3.55-2.16-6.09-2.51-9.12-.42-3.71-2.67-6.5-4.09-9.49A31,31,0,0,0,146,522.85a3.91,3.91,0,0,1-1.39-1.31c-1.07-2.44-3.12-3.85-5.16-5.31a60.18,60.18,0,0,0-11.44-6.8,38.49,38.49,0,0,0-7.54-2.19c-.72-.15-1.55,0-2.09-.59-1.92-2.28-4.51-2.27-7.15-2.24-3.35,0-6.71.14-10-.05-2.3-.13-2.81.75-2.8,2.89.09,11.14,0,22.29,0,33.43,0,9.39.12,18.77-.56,28.14-.26,3.65.67,7.2.58,10.83-.19,7.71-.14,15.42-.39,23.13-.18,5.52.43,11.12.34,16.69,0,2.25,1,2.87,3,3,4.39.28,8.7-.72,13.07-.6a2.41,2.41,0,0,0,1.78-.67,8,8,0,0,1,5.09-1.93c2.42-.18,4.75-.15,6.36-2.42a2.21,2.21,0,0,1,1.54-.52c3.39-.1,6.28-2.4,8.42-4.06,2.73-2.13,6.1-4,8.11-7.37.71-1.15,1.48-2.76,2.89-3.57,2.32-1.32,3.59-3.57,4.66-5.81,1.23-2.58,3.41-4.75,3.5-7.86a1.88,1.88,0,0,1,1-1.24c1.44-.67,1.59-1.83,1.64-3.22a4.66,4.66,0,0,1,.75-2.9c2.53-2.51,2-5.61,2-8.62C162.25,568.89,162.23,566.1,162.23,563.3Z" transform="translate(-29.71 -455.22)" fill="#cdd8e8"/><path d="M251.36,619.05q-25,0-50,0c-2.32,0-4.59.11-5.56-2.54-.77-2.1.29-4.13,1.37-5.6,5.68-7.7,10.37-16,15.73-23.93,6.85-10.13,13-20.76,19.76-30.91,5.27-7.83,9.66-16.25,15.81-23.49a4.28,4.28,0,0,1,6.9.58c2.53,4,5.29,7.84,7.85,11.82,5.27,8.16,10.65,16.26,15.74,24.54,6.94,11.3,14.71,22.08,21.25,33.64,2,3.61,5.16,6.54,6.64,10.53a3.74,3.74,0,0,1-3.49,5.32c-1.59.06-3.17,0-4.75,0H251.36Z" transform="translate(-29.71 -455.22)" fill="#98999b"/><path d="M1001.92,495q0,15.36,0,30.73c0,4.48,2.18,6.63,6.67,6.68,2.51,0,5,0,7.54,0,1.9,0,3,.76,3,2.79s-1.13,2.76-3,2.76q-18.44,0-36.87,0a3,3,0,0,1-2.12-.51c-.87-.74-1.78-1.55-1.81-2.71s1.36-1.34,2.17-1.86c1.27-.81,2.72-.48,4.1-.51,2.32,0,4.65,0,7,0,4.09-.1,6-2,6-6.05,0-9.49,0-19,0-28.49,0-8.57,0-17.13,0-25.7A12.85,12.85,0,0,0,993.5,467a4.07,4.07,0,0,0-4.09-2.74c-3.07,0-6.14-.05-9.21-.05-2,0-2.9-.89-2.92-2.89s1.28-2.17,2.8-2.17c6,0,11.92,0,17.87,0,3.2,0,3.89.67,3.91,4,0,10.62,0,21.23,0,31.85Z" transform="translate(-29.71 -455.22)" fill="#3366fc"/><path d="M859.27,671c3,0,6,4.48,5.29,8a12.26,12.26,0,0,1-1.63,4.09c-1.25,2-3,3.22-5.08,2.44s-4.14-2.31-4.17-5c0-2.19-.43-4.41.69-6.55A4.8,4.8,0,0,1,859.27,671Zm2.81,7.61c0-3.13-1.34-5.31-3.26-5.3-1.25,0-3.38,2.86-3.44,4.61-.08,2.41,1.53,4.79,3.24,4.78C861.3,682.69,862.07,681.78,862.08,678.6Z" transform="translate(-29.71 -455.22)" fill="#cdd8e8"/><path d="M952.63,515.34c0,5.77,0,11.55,0,17.33a5.65,5.65,0,0,1-.81,3.46c-1.41,2-3,2.06-4.57.18-3.49-4.27-3.92-4.36-8.61-1.39-7,4.44-14.53,5.1-22.38,3.05-4.46-1.16-8.63-7-9-11.92-.87-12.21,7.43-17.78,17.7-18.85,5.19-.54,10.39-.45,15.59-.54a3.86,3.86,0,0,0,4.06-3.14c1.9-9.45-3.93-15.66-12.44-16.33a32.46,32.46,0,0,0-15.83,2.38,3,3,0,0,1-3.91-1c-1-1.39-.17-2.58.83-3.71,1.23-1.4,2.89-1.53,4.53-1.85,4.81-.94,9.53-2.2,14.54-2.13a29.33,29.33,0,0,1,11.29,2.51c6,2.61,8.78,7.9,8.94,14.38C952.75,503.6,952.63,509.47,952.63,515.34Zm-7.08.76c-.44-3.21-.57-4.54-5.84-4.34-3.53.13-7.08.17-10.6,0-4.19-.25-7.61,1.37-10.7,3.89-3.87,3.15-4.47,10.86-1.22,14.49,3,3.29,9.81,4.68,13.9,2.69a86.07,86.07,0,0,0,8.79-4.66C943.74,525.65,946.07,522.8,945.55,516.1Z" transform="translate(-29.71 -455.22)" fill="#3366fc"/><path d="M732.08,538.65c-6.36.87-12.76-1.57-17.55-7.18-3.26-3.82-4.53-8.71-5.26-13.8-.91-6.46.11-12.73.7-19.08.23-2.43,1.84-4.37,3.09-6.11,4.74-6.6,10.84-11.21,19.51-11.62a27.25,27.25,0,0,1,13.24,2.49,22.13,22.13,0,0,1,11,10.63c3.91,8.23,4.06,16.76,2.16,25-1.66,7.18-5.51,13.78-13.12,17.23C739.47,539.06,739.61,538.41,732.08,538.65Zm20.48-29.25c.24-3.71-1-7.9-3.24-11.9-4-7.12-12.07-10.93-19.83-8.69-5.71,1.65-9.31,5.8-12.06,11.1a23.59,23.59,0,0,0,6.83,29.14c5.3,3.86,15,3.82,19.77-.19C749.78,524,752.59,517.8,752.56,509.4Z" transform="translate(-29.71 -455.22)" fill="#3366fc"/><path d="M582,571.9a25.24,25.24,0,0,1-.69,9.57,22.89,22.89,0,0,1-6.94,11c-7.27,6.15-15.68,7.15-24.69,6-1.37-.18-2.8.06-4.18-.13A24.4,24.4,0,0,1,530.83,591c-2.49-2.61-4.66-5.5-5.49-9.33-.69-3.19-2.08-6.11-2.22-9.58-.17-4.47,1.34-8.26,2.84-12.2a1.53,1.53,0,0,1,1.87-1.18c1.52.21.71,1.22.57,1.91-1.07,5.29-2.17,10.72-.59,15.95,2.36,7.8,7.28,13.25,15.67,15.22,2.59.61,5,1.54,7.77,1.63a38.89,38.89,0,0,0,12.09-1.5c5.56-1.55,8.94-5.21,12.29-9.28.17-.21.45-.39.52-.64,1.39-4.72,3.87-9.33,2.89-14.39-.44-2.28-1.79-4.37-1.62-6.89.08-1-.84-2.51,1-2.45,1.35,0,2.84.33,3.12,2.44A84.06,84.06,0,0,1,582,571.9Z" transform="translate(-29.71 -455.22)" fill="#fefefe"/><path d="M553.66,663.8c-1.21,0-2.42,0-3.63,0-2.73,0-5.28-.06-8-1.48s-6.31-2-8.87-4.13c-2.85-2.36-5.78-4.67-7.23-8.36-1.58-4-3.13-7.92-2.74-12.45.66-7.44,3.58-13,10.26-17,3.63-2.21,7.33-2.07,11-2.94,1.32-.31,2.74-.19,4.12-.5,2.77-.6,4.74,1,4.3,3.84a70.33,70.33,0,0,0-.33,17c.44,5.16-.33,10.31.4,15.43a7.67,7.67,0,0,0,1.78,3.73c1.12,1.39,2.24,2.21,4.25,1.18,1.42-.73,3.24-.65,4.86-1,4.54-1,7.46-4.22,10.37-7.56,2.67-3.07,2.82-6.69,3.58-10.4.6-2.92,1.34-5.82.69-8.59a76.91,76.91,0,0,1-1.21-8.46c-.15-1.22-1.11-2.9.54-3.38s2.71,1.28,3.49,2.62a5.63,5.63,0,0,1,.39,2.17c.89,8,1.87,16.22-.48,24A21.36,21.36,0,0,1,568,661.5,32.12,32.12,0,0,1,553.66,663.8ZM549,640.69c0-3.91,0-7.82,0-11.73s-2.32-5.82-6-6.05c-2.53-.15-4.37,1.11-6.48,2.05-6.94,3.1-11.12,10.63-8.93,18,2,6.59,6.44,11.63,13.15,13.71,4.71,1.47,8.52.73,8.28-6.2C548.92,647.2,549,643.94,549,640.69Z" transform="translate(-29.71 -455.22)" fill="#fefefe"/><path d="M862.08,678.6c0,3.18-.78,4.09-3.46,4.09-1.71,0-3.32-2.37-3.24-4.78.06-1.75,2.19-4.61,3.44-4.61C860.74,673.29,862.09,675.47,862.08,678.6Z" transform="translate(-29.71 -455.22)" fill="#fefefe"/><path d="M945.55,516.1c.52,6.7-1.81,9.55-5.67,12a86.07,86.07,0,0,1-8.79,4.66c-4.09,2-10.94.6-13.9-2.69-3.25-3.63-2.65-11.34,1.22-14.49,3.09-2.52,6.51-4.14,10.7-3.89,3.52.21,7.07.17,10.6,0C945,511.56,945.11,512.89,945.55,516.1Zm-11.89-2.77c-5.64-.37-10.86.19-14.92,4.95-3.45,4.05-1.64,11.1,3.49,12.52,7.28,2,12.93-1.27,18.37-5.48a8.47,8.47,0,0,0,3.12-6.23,5.07,5.07,0,0,0-4.75-5.74C937.21,513.23,935.43,513.33,933.66,513.33Z" transform="translate(-29.71 -455.22)" fill="#98999b"/><path d="M752.56,509.4c0,8.4-2.78,14.6-8.53,19.46-4.74,4-14.47,4-19.77.19a23.59,23.59,0,0,1-6.83-29.14c2.75-5.3,6.35-9.45,12.06-11.1,7.76-2.24,15.87,1.57,19.83,8.69C751.53,501.5,752.8,505.69,752.56,509.4Z" transform="translate(-29.71 -455.22)" fill="#98999b"/><path d="M549,640.69c0,3.25-.09,6.51,0,9.77.24,6.93-3.57,7.67-8.28,6.2-6.71-2.08-11.18-7.12-13.15-13.71-2.19-7.36,2-14.89,8.93-18,2.11-.94,4-2.2,6.48-2.05,3.67.23,5.94,2.26,6,6.05S549,636.78,549,640.69Zm-3.78-.55c0-3.15.06-6.31,0-9.47,0-1.1.7-2.71-.83-3.17a5.28,5.28,0,0,0-4.57.37c-.61.41-1.15.94-1.79,1.29-6.14,3.27-7,7.72-5.75,13.6.31,1.52,1.84,2.74,2.53,4.22,1.45,3.15,4.19,4.65,7.21,5.61,2,.63,3.36-.19,3.26-2.7C545.12,646.64,545.22,643.39,545.23,640.14Z" transform="translate(-29.71 -455.22)" fill="#cdd8e8"/><path d="M933.66,513.33c1.77,0,3.55-.1,5.31,0a5.07,5.07,0,0,1,4.75,5.74,8.47,8.47,0,0,1-3.12,6.23c-5.44,4.21-11.09,7.51-18.37,5.48-5.13-1.42-6.94-8.47-3.49-12.52C922.8,513.52,928,513,933.66,513.33Zm-.91,2.85c-1.94,0-3.9-.11-5.84,0-4.91.32-7.94,4.58-6.42,9.72.29,1,.39,2.83,1.64,3,2.91.28,6.14,1.1,8.72-.36s5.1-2.55,7.44-4.44,2.15-3.78,2.57-5.86c.26-1.33-.6-2-2-2Z" transform="translate(-29.71 -455.22)" fill="#cdd8e8"/><path d="M545.23,640.14c0,3.25-.11,6.5,0,9.75.1,2.51-1.25,3.33-3.26,2.7-3-1-5.76-2.46-7.21-5.61-.69-1.48-2.22-2.7-2.53-4.22-1.21-5.88-.39-10.33,5.75-13.6.64-.35,1.18-.88,1.79-1.29a5.28,5.28,0,0,1,4.57-.37c1.53.46.8,2.07.83,3.17C545.29,633.83,545.23,637,545.23,640.14Z" transform="translate(-29.71 -455.22)" fill="#98999b"/><path d="M932.75,516.18h6.12c1.39,0,2.25.71,2,2-.42,2.08-.28,4-2.57,5.86s-5,3-7.44,4.44-5.81.64-8.72.36c-1.25-.12-1.35-2-1.64-3-1.52-5.14,1.51-9.4,6.42-9.72C928.85,516.07,930.81,516.18,932.75,516.18Z" transform="translate(-29.71 -455.22)" fill="#fefefe"/><text transform="translate(1003.34 80.7)" font-size="22.72" fill="#3366fc" font-family="MyriadPro-Regular, Myriad Pro">R</text></svg>