<svg width="155" height="168" viewBox="0 0 155 168" fill="none" xmlns="http://www.w3.org/2000/svg">
<path fill-rule="evenodd" clip-rule="evenodd" d="M55.0412 111.323C54.8935 112.369 54.8171 113.438 54.8171 114.524C54.8171 127.052 64.9726 137.207 77.5 137.207C90.0274 137.207 100.183 127.052 100.183 114.524C100.183 113.438 100.107 112.369 99.9588 111.323H155V161.78C155 164.912 152.461 167.451 149.329 167.451H5.67073C2.53887 167.451 0 164.912 0 161.78V111.323H55.0412Z" fill="white"/>
<path fill-rule="evenodd" clip-rule="evenodd" d="M102.073 112.635C102.073 126.206 91.0714 137.208 77.5 137.208C63.9286 137.208 52.9268 126.206 52.9268 112.635C52.9268 112.195 52.9384 111.758 52.9612 111.324H0L18.0716 57.891C18.8506 55.5875 21.0117 54.0371 23.4434 54.0371H131.557C133.988 54.0371 136.149 55.5875 136.928 57.891L155 111.324H102.039C102.062 111.758 102.073 112.195 102.073 112.635Z" fill="white"/>
<path fill-rule="evenodd" clip-rule="evenodd" d="M98.4771 114.439C98.4771 124.925 89.0853 135.317 77.5 135.317C65.9146 135.317 56.5229 124.925 56.5229 114.439C56.5229 114.099 56.5327 111.871 56.5522 111.535H17.0122L32.4391 74.0269C33.1042 72.2469 34.949 71.0488 37.0248 71.0488H117.975C120.051 71.0488 121.896 72.2469 122.561 74.0269L137.988 111.535H98.4477C98.4672 111.871 98.4771 114.099 98.4771 114.439Z" fill="black" fill-opacity="0.08"/>
<path fill-rule="evenodd" clip-rule="evenodd" d="M2.36285 111.712V161.78C2.36285 163.607 3.84386 165.088 5.67078 165.088H149.329C151.156 165.088 152.637 163.607 152.637 161.78V111.712L134.69 58.6475C134.236 57.3038 132.975 56.3994 131.557 56.3994H23.4434C22.0249 56.3994 20.7643 57.3038 20.3099 58.6475L2.36285 111.712Z" stroke="black" stroke-opacity="0.6" stroke-width="4.72561"/>
<path d="M26.4635 110.744C33.9045 110.744 41.9349 110.744 50.5544 110.744C54.1011 110.744 54.1011 113.237 54.1011 114.525C54.1011 127.052 64.4902 137.208 77.3059 137.208C90.1215 137.208 100.511 127.052 100.511 114.525C100.511 113.237 100.511 110.744 104.057 110.744H151.22M12.426 110.744H17.0122H12.426Z" stroke="black" stroke-opacity="0.6" stroke-width="4.72561" stroke-linecap="round" stroke-linejoin="round"/>
<path d="M124.944 11.1332L103.963 34.6727M75.7981 3V34.6727V3ZM26.4634 11.1332L47.4444 34.6727L26.4634 11.1332Z" stroke="black" stroke-opacity="0.38" stroke-width="4.72561" stroke-linecap="round" stroke-linejoin="round"/>
</svg>
