<svg id="Layer_1" data-name="Layer 1" xmlns="http://www.w3.org/2000/svg" viewBox="0 0 1600.59 1598.18"><path d="M1502.16,1024.68c-8.5,3.25-9.62,10-12.52,15-30,52-58.93,104.71-89.89,156.16-21.47,35.68-48.91,66.29-88.48,83.33-70,30.13-137-7.23-146.56-82.57-7.29-57.29,4-109.06,52.12-146.67,34.15-26.67,73.06-30.51,114-19.58,24.15,6.44,48.41,12.64,72.2,20.26,8.32,2.67,11.85.81,15.88-5.93,18.25-30.56,36.67-61,55.52-91.21,3.9-6.25,5-12,3.27-18.9-20.3-80.3-36.68-161.62-62-240.62-2.54-7.93-5.53-15.72-8.57-23.47-9.14-23.24-23.66-31.21-48.4-26.17-19.75,4-38.16,11.8-56.14,20.79-31.5,15.73-67.42,5-85.21-25.28-18.2-30.91-10.5-69.57,20.2-88C1302.89,512.74,1373,488,1450.2,486.21c95.55-2.15,157.13,72.85,173.71,137.35,10.5,40.81,17.88,82.42,26.68,123.8,7.05-.85,7.61-6.66,9.91-10.66,31.57-54.9,62-110.48,94.85-164.61,24.67-40.69,56.31-76,104.76-87.9,50.44-12.43,115.37,4.54,129.27,81.4,6.54,36.18,2.16,70-11.64,102.72-24.81,58.84-87.27,87.23-152.3,71.07-24.81-6.17-49.56-12.52-73.14-22.55-7.15-3-11-.9-15.1,5.16q-30.69,44.75-62.25,88.9a21.76,21.76,0,0,0-3.81,18.76c19.06,85.69,32.08,172.83,62.23,255.85,17.45,48,35,57,83.49,40.34a252.31,252.31,0,0,0,29-12.57c33.35-16.36,69.1-7.23,87.74,22.69,18.11,29,12.25,68.24-18.19,87.19-69.49,43.25-144.27,73.28-228.18,65.84-77.51-6.87-126.84-51.53-151.57-124.12C1520.24,1119.54,1512,1072.37,1502.16,1024.68Z" transform="translate(-391.77 -43.19)" fill="#030303"/><path d="M784.58,536.63c16.72,0,33.47-.63,50.14.22,10.87.55,15.82-3.49,19.08-13.75,26.37-83.2,58.44-164.33,93.26-244.25,29.84-68.49,69.31-131.13,128.47-178.59,69.77-56,147-73.16,232.79-40.87,61.88,23.29,77.63,86.42,66.57,130.17-10.24,40.53-53.3,63.56-91.19,49.61-41.64-15.33-60.21-58-42.25-97.5,3.45-7.59,8-14.67,11.29-22.33,6.52-15.43-2.69-29.55-19.48-30.11-18.4-.62-33.44,7.22-46.33,19.64-16.29,15.71-27.66,34.84-36.84,55.25-49.79,110.77-87.4,225.82-119.59,342.72-8.83,32.06-8.29,32.21,24.61,32.21q30.93,0,61.85,0c26,0,39.88,10.44,39.74,29.85s-13.15,28.85-40.29,28.88c-29.53,0-59.08.44-88.6-.23-11-.24-15.67,3.44-17.94,14.37C966.76,820,919.15,1027.05,863.12,1232c-27.12,99.25-59.4,197.12-114.83,285.08-45,71.34-108.63,115.43-194,123.27-47,4.32-91.09-4.93-126.6-39-31.86-30.52-41.83-66.68-32.67-110.86,5.89-28.42,20.22-42.94,46.71-48.27,28-5.63,52.63,1.76,70.36,24,17.09,21.44,20.64,46.4,9.67,72.31-2.36,5.58-6.12,10.57-9.13,15.88-11.46,20.18-2.91,35.3,20.7,35.17,23.41-.13,41.13-11.74,54.79-30.22,18.58-25.14,27.57-54.45,35.52-84,44.54-165.44,83.73-332.18,121.1-499.37q41.13-184,84.1-367.64c2.66-11.44.26-13.31-10.22-13.13-28.41.48-56.84.29-85.26.13-20.87-.12-35.29-12.65-35-29.92.33-16.69,13.85-28.34,34.36-28.83C750,536.31,767.31,536.64,784.58,536.63Z" transform="translate(-391.77 -43.19)" fill="#030303"/></svg>