<svg width="291" height="224" viewBox="0 0 291 224" fill="none" xmlns="http://www.w3.org/2000/svg">
<g clip-path="url(#clip0_467_47214)">
<path opacity="0.7" d="M254.874 198.215C254.874 198.215 270.849 165.653 247.423 139.929C222.848 112.939 263.56 92.3848 249.832 55.4494C240.567 30.5683 187.571 29.2547 153.754 49.77C119.936 70.2854 114.717 8.23703 60.1766 24.2707C14.2991 37.7622 28.7989 112.97 46.1323 145.872C55.3433 163.35 47.8849 181.416 44.1094 197.983L254.874 198.215Z" fill="url(#paint0_linear_467_47214)"/>
<path d="M84.451 37.7159H81.5557C80.8515 37.7398 80.1583 37.5374 79.5775 37.1383C78.9967 36.7392 78.5589 36.1644 78.3283 35.4982C77.7465 33.6835 76.9699 31.9373 76.0121 30.2901C75.6606 29.6647 75.5224 28.9415 75.6186 28.2304C75.7147 27.5193 76.0399 26.8589 76.5448 26.3493L78.753 24.0776C79.0592 23.7641 79.3008 23.3932 79.4638 22.9863C79.6269 22.5793 79.7082 22.1442 79.7032 21.7058C79.6982 21.2673 79.6069 20.8342 79.4346 20.4311C79.2623 20.0279 79.0123 19.6628 78.6989 19.3563L75.8577 16.5901C75.5439 16.284 75.1729 16.0429 74.766 15.8804C74.3591 15.7179 73.9242 15.6372 73.4861 15.6429C73.048 15.6487 72.6154 15.7407 72.2129 15.9138C71.8103 16.0869 71.4458 16.3377 71.1402 16.6519L68.8239 19.055C68.3293 19.571 67.6841 19.917 66.9809 20.0433C66.2776 20.1697 65.5525 20.0698 64.9094 19.7582C63.1085 18.8512 61.2096 18.1538 59.25 17.6796C58.5425 17.4995 57.9149 17.0889 57.4662 16.5125C57.0174 15.9361 56.7731 15.2267 56.7716 14.496L56.733 11.9306C56.7208 11.0466 56.3587 10.2036 55.7262 9.58648C55.0936 8.96937 54.2423 8.62858 53.359 8.6389L49.3905 8.68527C48.5065 8.69951 47.6641 9.0636 47.0477 9.69788C46.4313 10.3322 46.0911 11.185 46.1014 12.0697V15.3692C46.107 16.0703 45.8935 16.7557 45.4906 17.3293C45.0877 17.9029 44.5157 18.3361 43.8546 18.5682C42.3254 19.1331 40.852 19.8393 39.4537 20.6777C38.8637 21.0387 38.1774 21.21 37.4871 21.1686C36.7968 21.1271 36.1359 20.8749 35.5933 20.4459L32.1497 17.6564C31.4612 17.1004 30.5804 16.8402 29.7005 16.9329C28.8206 17.0256 28.0133 17.4636 27.4554 18.1509L24.9616 21.2418C24.406 21.9309 24.1461 22.8123 24.2387 23.693C24.3313 24.5736 24.769 25.3815 25.4557 25.9398L28.1426 28.1111C28.7214 28.5772 29.1272 29.2242 29.2952 29.9484C29.4632 30.6727 29.3835 31.4324 29.0691 32.106C28.4428 33.413 27.9263 34.7699 27.5249 36.1627C27.3161 36.8337 26.8986 37.4203 26.3334 37.8373C25.7682 38.2543 25.0847 38.4797 24.3825 38.4808H21.4795C21.0415 38.4869 20.6089 38.5792 20.2065 38.7526C19.8042 38.926 19.4399 39.1769 19.1345 39.4912C18.829 39.8055 18.5885 40.1769 18.4265 40.5843C18.2645 40.9916 18.1843 41.4269 18.1904 41.8653L18.2367 45.8293C18.2509 46.7147 18.6145 47.5585 19.248 48.1766C19.8816 48.7947 20.7337 49.137 21.6185 49.1287H24.4983C25.2093 49.1127 25.9066 49.3255 26.4876 49.7359C27.0686 50.1462 27.5026 50.7325 27.7257 51.4082C28.0543 52.4612 28.4462 53.4934 28.8993 54.499C29.2102 55.1858 29.2779 55.9582 29.0912 56.6887C28.9046 57.4191 28.4746 58.0641 27.8724 58.5171L26.0116 59.9312C25.6613 60.1956 25.3666 60.5267 25.1443 60.9053C24.9221 61.284 24.7767 61.7028 24.7164 62.1378C24.6562 62.5728 24.6823 63.0154 24.7933 63.4403C24.9042 63.8652 25.0979 64.2639 25.3631 64.6138L27.7643 67.7664C28.0278 68.117 28.358 68.4119 28.7359 68.6341C29.1139 68.8563 29.5321 69.0014 29.9663 69.0611C30.4006 69.1207 30.8424 69.0937 31.2662 68.9815C31.6899 68.8694 32.0873 68.6744 32.4354 68.4078L35.323 66.221C35.8741 65.8039 36.5398 65.5662 37.2302 65.5399C37.9206 65.5137 38.6024 65.7002 39.1835 66.0742C40.8682 67.1097 42.6628 67.9545 44.534 68.5932C45.1958 68.8141 45.7733 69.2338 46.1878 69.7953C46.6023 70.3567 46.8337 71.0325 46.8503 71.7304V75.0299C46.8553 75.4689 46.9469 75.9026 47.1196 76.3062C47.2924 76.7098 47.543 77.0753 47.8572 77.3818C48.1713 77.6883 48.5428 77.9297 48.9503 78.0923C49.3578 78.2549 49.7934 78.3354 50.232 78.3293L54.1929 78.2752C54.6305 78.2702 55.0629 78.1788 55.4652 78.0063C55.8675 77.8337 56.2319 77.5835 56.5374 77.2698C56.8429 76.9561 57.0836 76.5852 57.2457 76.1783C57.4078 75.7714 57.4881 75.3365 57.482 74.8985V72.3331C57.4678 71.6027 57.6958 70.8882 58.1301 70.3011C58.5645 69.714 59.181 69.2873 59.8831 69.0878C61.8194 68.5662 63.6897 67.8248 65.4576 66.8778C66.09 66.5513 66.8095 66.4338 67.5128 66.5421C68.2161 66.6504 68.867 66.9789 69.3721 67.4805L71.8196 69.8682C72.1334 70.1742 72.5043 70.4154 72.9112 70.5779C73.3182 70.7404 73.7531 70.8211 74.1912 70.8153C74.6292 70.8096 75.0619 70.7175 75.4644 70.5444C75.8669 70.3713 76.2314 70.1205 76.5371 69.8064L79.3012 66.9628C79.6069 66.6488 79.8479 66.2776 80.0103 65.8703C80.1727 65.4631 80.2533 65.0278 80.2475 64.5894C80.2418 64.151 80.1498 63.7179 79.9768 63.3151C79.8039 62.9123 79.5533 62.5475 79.2394 62.2416L76.9231 60.0085C76.4037 59.5115 76.0608 58.8583 75.9465 58.1483C75.8322 57.4384 75.9529 56.7104 76.29 56.0754C77.2024 54.393 77.9274 52.6154 78.4519 50.7746C78.6622 50.103 79.081 49.5161 79.6476 49.0992C80.2141 48.6823 80.8988 48.4572 81.602 48.4565H84.4973C85.3813 48.4422 86.2236 48.0781 86.8401 47.4439C87.4565 46.8096 87.7967 45.9568 87.7864 45.072L87.7324 41.108C87.7395 40.6697 87.6603 40.2342 87.4993 39.8264C87.3382 39.4187 87.0985 39.0467 86.7938 38.7317C86.4891 38.4167 86.1253 38.1648 85.7234 37.9905C85.3214 37.8162 84.889 37.7229 84.451 37.7159ZM53.2972 61.0516C49.8169 61.0972 46.4012 60.1087 43.4822 58.2112C40.5632 56.3137 38.2721 53.5924 36.8987 50.3916C35.5254 47.1908 35.1314 43.6542 35.7666 40.2293C36.4018 36.8043 38.0377 33.6448 40.4674 31.1505C42.8971 28.6562 46.0114 26.939 49.4163 26.2163C52.8212 25.4936 56.3639 25.7978 59.5961 27.0903C62.8282 28.3829 65.6048 30.6058 67.5744 33.4778C69.5441 36.3499 70.6184 39.7421 70.6615 43.2253C70.7192 47.8932 68.9226 52.393 65.6665 55.7357C62.4104 59.0785 57.9614 60.9905 53.2972 61.0516Z" fill="url(#paint1_linear_467_47214)"/>
<path d="M178.777 55.264L176.785 54.4913C176.296 54.3002 175.882 53.9564 175.604 53.511C175.325 53.0655 175.198 52.5422 175.241 52.0186C175.365 50.6137 175.341 49.1997 175.171 47.7996C175.109 47.2713 175.221 46.737 175.49 46.2782C175.759 45.8193 176.17 45.4609 176.661 45.2574L178.823 44.3379C179.123 44.2107 179.395 44.0255 179.622 43.7929C179.85 43.5604 180.03 43.2851 180.151 42.9828C180.273 42.6805 180.333 42.3572 180.329 42.0315C180.325 41.7058 180.257 41.3841 180.128 41.0848L178.985 38.3804C178.858 38.0805 178.673 37.8087 178.441 37.5806C178.209 37.3526 177.933 37.1727 177.631 37.0513C177.329 36.93 177.006 36.8696 176.681 36.8736C176.355 36.8775 176.034 36.9458 175.735 37.0745L173.419 38.0481C172.932 38.2569 172.392 38.3073 171.875 38.1922C171.359 38.0771 170.891 37.8024 170.539 37.4067C169.568 36.2695 168.47 35.2479 167.265 34.3623C166.836 34.0336 166.527 33.5718 166.387 33.049C166.247 32.5261 166.285 31.9717 166.493 31.4723L167.203 29.7106C167.325 29.4092 167.387 29.0868 167.384 28.7617C167.382 28.4365 167.315 28.1151 167.188 27.8158C167.061 27.5165 166.876 27.2452 166.644 27.0174C166.413 26.7897 166.138 26.6099 165.837 26.4884L163.111 25.3834C162.81 25.2615 162.487 25.2004 162.162 25.2036C161.837 25.2068 161.515 25.2742 161.216 25.402C160.917 25.5298 160.646 25.7154 160.419 25.9483C160.191 26.1811 160.012 26.4566 159.892 26.7588L158.973 29.0229C158.775 29.5038 158.432 29.9111 157.992 30.188C157.552 30.465 157.037 30.5979 156.518 30.5683C155.31 30.515 154.101 30.5745 152.904 30.746C152.396 30.8267 151.876 30.7482 151.414 30.5214C150.953 30.2945 150.572 29.9303 150.326 29.4788L148.781 26.5811C148.469 26.0042 147.941 25.5745 147.313 25.3863C146.685 25.198 146.008 25.2665 145.431 25.5766L142.844 26.9752C142.558 27.1292 142.305 27.3381 142.099 27.5901C141.894 27.8421 141.74 28.1321 141.647 28.4436C141.554 28.7551 141.523 29.082 141.556 29.4054C141.589 29.7289 141.686 30.0427 141.84 30.3287L143.052 32.585C143.313 33.0702 143.405 33.6286 143.313 34.1718C143.22 34.7149 142.949 35.2117 142.543 35.5832C141.743 36.2947 141.002 37.0699 140.327 37.9013C139.996 38.3076 139.543 38.5962 139.036 38.7243C138.528 38.8524 137.992 38.8131 137.509 38.6122L135.517 37.8395C134.908 37.5926 134.225 37.5979 133.62 37.8544C133.015 38.1109 132.536 38.5975 132.29 39.2072L131.193 41.9348C131.071 42.2361 131.01 42.5586 131.012 42.8837C131.015 43.2089 131.082 43.5303 131.209 43.8296C131.336 44.1289 131.52 44.4002 131.752 44.6279C131.984 44.8557 132.258 45.0355 132.56 45.157L134.544 45.9297C135.033 46.1257 135.446 46.4727 135.724 46.9203C136.002 47.3679 136.129 47.8925 136.088 48.4178C136.019 49.2246 135.996 50.0347 136.019 50.8441C136.034 51.4024 135.859 51.9492 135.522 52.3944C135.185 52.8397 134.707 53.1568 134.166 53.2936L132.483 53.7263C131.848 53.8935 131.305 54.3049 130.973 54.8709C130.64 55.4368 130.545 56.1114 130.707 56.7476L131.44 59.5911C131.521 59.9068 131.664 60.2034 131.859 60.4639C132.055 60.7245 132.3 60.9439 132.58 61.1097C132.86 61.2755 133.171 61.3843 133.493 61.43C133.816 61.4757 134.144 61.4574 134.459 61.3761L137.053 60.7038C137.546 60.5797 138.065 60.6085 138.541 60.7866C139.016 60.9646 139.427 61.2835 139.717 61.7006C140.572 62.8922 141.559 63.9834 142.659 64.9537C143.052 65.2926 143.33 65.7453 143.454 66.2492C143.579 66.7532 143.543 67.2833 143.354 67.7664L142.435 70.0381C142.191 70.6479 142.199 71.3296 142.456 71.9336C142.714 72.5377 143.2 73.0148 143.809 73.2603L146.535 74.3653C146.836 74.4874 147.158 74.5489 147.483 74.5462C147.808 74.5436 148.129 74.4768 148.428 74.3498C148.727 74.2227 148.998 74.0379 149.226 73.8059C149.453 73.5739 149.633 73.2992 149.754 72.9976L150.465 71.2358C150.661 70.7293 151.02 70.3026 151.486 70.0229C151.951 69.7431 152.496 69.6261 153.036 69.6904C154.507 69.887 155.996 69.9181 157.475 69.7832C158.004 69.7382 158.532 69.864 158.984 70.1422C159.436 70.4203 159.786 70.8362 159.984 71.3286L160.973 73.6467C161.1 73.9466 161.285 74.2183 161.517 74.4464C161.75 74.6745 162.025 74.8544 162.327 74.9757C162.629 75.097 162.952 75.1575 163.277 75.1535C163.603 75.1495 163.924 75.0812 164.223 74.9526L166.925 73.809C167.225 73.6818 167.497 73.4965 167.725 73.264C167.952 73.0314 168.132 72.7561 168.253 72.4538C168.375 72.1515 168.435 71.8282 168.431 71.5025C168.427 71.1768 168.359 70.8551 168.23 70.5559L167.304 68.3691C167.094 67.8804 167.048 67.3367 167.174 66.8198C167.299 66.3028 167.588 65.8405 167.999 65.5024C169.105 64.6136 170.109 63.6056 170.994 62.4965C171.329 62.0929 171.783 61.807 172.292 61.6805C172.8 61.5539 173.336 61.5935 173.82 61.7934L175.812 62.5661C176.113 62.6882 176.435 62.7497 176.76 62.747C177.085 62.7443 177.406 62.6776 177.705 62.5505C178.004 62.4235 178.276 62.2387 178.503 62.0067C178.731 61.7746 178.91 61.5 179.032 61.1984L180.136 58.4707C180.376 57.8647 180.368 57.1886 180.113 56.5885C179.859 55.9884 179.379 55.5126 178.777 55.264ZM150.789 62.2956C148.396 61.3288 146.343 59.6736 144.89 57.5394C143.437 55.4051 142.649 52.8875 142.626 50.3051C142.602 47.7226 143.345 45.1912 144.759 43.0308C146.173 40.8705 148.195 39.1782 150.57 38.1681C152.945 37.1579 155.566 36.8752 158.101 37.3557C160.637 37.8362 162.973 39.0583 164.814 40.8674C166.656 42.6766 167.92 44.9916 168.447 47.5198C168.974 50.0479 168.74 52.6757 167.775 55.0708C167.134 56.6616 166.186 58.1104 164.985 59.3345C163.784 60.5586 162.355 61.5339 160.777 62.2048C159.2 62.8757 157.506 63.2291 155.792 63.2447C154.078 63.2603 152.378 62.9378 150.789 62.2956Z" fill="url(#paint2_linear_467_47214)"/>
<path d="M205.939 202.642C205.368 203.245 205.985 204.118 206.619 203.601C215.25 196.507 240.66 185.442 249.855 177.754C263.483 166.356 276.284 149.588 290.907 122.428C291.224 121.84 290.73 121.253 290.189 121.578C283.518 125.658 244.157 146.119 230.785 163.08C219.783 177.035 215.868 192.188 205.939 202.642Z" fill="url(#paint3_linear_467_47214)"/>
<path d="M281.588 131.53C281.588 131.53 233.981 180.767 208.927 200.564" stroke="#1A2E9D" stroke-width="0.59" stroke-miterlimit="10" stroke-linecap="round"/>
<path d="M250.064 172.507C250.064 172.507 238.761 178.124 231.256 181.208" stroke="#1A2E9D" stroke-width="0.59" stroke-miterlimit="10" stroke-linecap="round"/>
<path d="M250.72 151.775C250.72 151.775 245.099 162.995 242.582 170.227" stroke="#1A2E9D" stroke-width="0.59" stroke-miterlimit="10" stroke-linecap="round"/>
<path d="M271.35 147.541C267.032 151.077 262.266 154.026 257.175 156.311" stroke="#1A2E9D" stroke-width="0.59" stroke-miterlimit="10" stroke-linecap="round"/>
<path d="M190.281 205.586C189.756 206.537 190.814 207.449 191.447 206.583C200.11 194.768 228.785 172.453 237.958 159.695C251.562 140.787 262.379 115.326 272.13 76.0729C272.339 75.223 271.52 74.6357 270.941 75.2307C263.792 82.5791 220.447 121.369 208.973 147.262C199.546 168.566 199.469 189.081 190.281 205.586Z" fill="url(#paint4_linear_467_47214)"/>
<path d="M263.236 90.6694C263.236 90.6694 218.763 168.659 193.369 201.939" stroke="#1A2E9D" stroke-width="0.77" stroke-miterlimit="10" stroke-linecap="round"/>
<path d="M236.506 152.95C236.506 152.95 223.975 163.767 215.443 170.127" stroke="#1A2E9D" stroke-width="0.77" stroke-miterlimit="10" stroke-linecap="round"/>
<path d="M230.607 126.415C230.607 126.415 227.071 142.487 226.268 152.501" stroke="#1A2E9D" stroke-width="0.77" stroke-miterlimit="10" stroke-linecap="round"/>
<path d="M255.469 114.361C251.136 120.256 246.042 125.552 240.32 130.108" stroke="#1A2E9D" stroke-width="0.77" stroke-miterlimit="10" stroke-linecap="round"/>
<path opacity="0.3" d="M145.376 209.373C166.22 209.373 183.116 206.993 183.116 204.056C183.116 201.12 166.22 198.74 145.376 198.74C124.533 198.74 107.637 201.12 107.637 204.056C107.637 206.993 124.533 209.373 145.376 209.373Z" fill="url(#paint5_linear_467_47214)"/>
<path opacity="0.3" d="M65.2106 222.903C89.5075 222.903 109.204 220.831 109.204 218.274C109.204 215.718 89.5075 213.646 65.2106 213.646C40.9136 213.646 21.217 215.718 21.217 218.274C21.217 220.831 40.9136 222.903 65.2106 222.903Z" fill="url(#paint6_linear_467_47214)"/>
<path opacity="0.3" d="M235.132 224C243.485 224 250.257 223.187 250.257 222.184C250.257 221.181 243.485 220.368 235.132 220.368C226.778 220.368 220.007 221.181 220.007 222.184C220.007 223.187 226.778 224 235.132 224Z" fill="url(#paint7_linear_467_47214)"/>
<path opacity="0.3" d="M214.37 220.762C235.213 220.762 252.11 217.562 252.11 213.615C252.11 209.667 235.213 206.467 214.37 206.467C193.527 206.467 176.631 209.667 176.631 213.615C176.631 217.562 193.527 220.762 214.37 220.762Z" fill="url(#paint8_linear_467_47214)"/>
<path d="M4.91049 197.674H288.367" stroke="url(#paint9_linear_467_47214)" stroke-miterlimit="10"/>
<path d="M231.897 44.9869H61.8829C59.5461 44.9869 57.6518 46.8828 57.6518 49.2214V176.061C57.6518 178.4 59.5461 180.296 61.8829 180.296H231.897C234.233 180.296 236.128 178.4 236.128 176.061V49.2214C236.128 46.8828 234.233 44.9869 231.897 44.9869Z" fill="url(#paint10_linear_467_47214)"/>
<path d="M231.897 180.296L61.8751 180.296C60.753 180.296 59.6768 179.85 58.8833 179.055C58.0899 178.261 57.6441 177.184 57.6441 176.061V161.318L236.128 161.318V176.061C236.128 177.184 235.682 178.261 234.888 179.055C234.095 179.85 233.019 180.296 231.897 180.296Z" fill="url(#paint11_linear_467_47214)"/>
<path d="M128.236 189.676V180.288H164.918V189.676C164.921 191.819 165.508 193.921 166.615 195.755C167.723 197.589 169.309 199.086 171.203 200.085C171.489 200.254 171.713 200.511 171.842 200.817C171.97 201.124 171.997 201.464 171.917 201.787C171.837 202.109 171.655 202.398 171.399 202.609C171.142 202.82 170.824 202.943 170.492 202.959H122.623C122.291 202.943 121.973 202.82 121.717 202.609C121.46 202.398 121.278 202.109 121.199 201.787C121.119 201.464 121.145 201.124 121.274 200.817C121.403 200.511 121.627 200.254 121.913 200.085C123.815 199.092 125.409 197.597 126.524 195.762C127.638 193.928 128.23 191.823 128.236 189.676Z" fill="url(#paint12_linear_467_47214)"/>
<path d="M225.759 51.3773H68.0132C66.0773 51.3773 64.508 52.9479 64.508 54.8854V150.531C64.508 152.469 66.0773 154.039 68.0132 154.039H225.759C227.694 154.039 229.264 152.469 229.264 150.531V54.8854C229.264 52.9479 227.694 51.3773 225.759 51.3773Z" fill="url(#paint13_linear_467_47214)"/>
<path d="M234.877 208.7V208.762C234.844 209.214 234.718 209.653 234.505 210.052C234.292 210.452 233.998 210.802 233.642 211.08C233.434 211.269 233.215 211.444 232.985 211.606C232.215 212.15 231.386 212.606 230.515 212.966L229.858 213.236C229.086 213.537 228.276 213.816 227.388 214.071L226.731 214.256C225.954 214.462 225.128 214.655 224.253 214.836L223.604 214.959C222.832 215.114 221.983 215.245 221.126 215.369L220.477 215.462C219.705 215.562 218.848 215.655 217.999 215.732L217.351 215.786C216.542 215.853 215.716 215.907 214.872 215.948H214.216C213.405 215.948 212.579 216.002 211.745 216.002H211.127C210.294 216.002 209.467 216.002 208.657 215.956H208.001C207.383 215.956 206.773 215.894 206.171 215.856L205.53 215.809L204.874 215.747C204.032 215.678 203.206 215.585 202.395 215.485L201.747 215.4C201.232 215.328 200.73 215.25 200.241 215.168L199.268 214.998L198.62 214.874C197.755 214.704 196.921 214.519 196.141 214.31L195.686 214.187L195.485 214.132C195.138 214.032 194.79 213.932 194.458 213.823C193.949 213.661 193.47 213.499 193.014 213.321L192.358 213.058C191.598 212.749 190.864 212.377 190.165 211.946L189.887 211.76L189.563 211.528L189.231 211.273C188.816 210.985 188.47 210.608 188.217 210.17C187.965 209.732 187.813 209.243 187.772 208.739C187.772 208.677 187.772 208.615 187.772 208.554V203.516H234.869V208.747L234.877 208.7Z" fill="url(#paint14_linear_467_47214)"/>
<path d="M189.849 203.539V211.783L189.524 211.552L189.192 211.297V203.57L189.849 203.539Z" fill="#DA8928"/>
<path d="M192.976 203.531V213.344L192.319 213.082V203.539L192.976 203.531Z" fill="#DA8928"/>
<path d="M196.103 203.531V214.349L195.647 214.225L195.446 214.171V203.531H196.103Z" fill="#DA8928"/>
<path d="M199.23 203.523V215.021L198.581 214.898V203.523H199.23Z" fill="#DA8928"/>
<path d="M202.357 203.523V215.539L201.708 215.454V203.554L202.357 203.523Z" fill="#DA8928"/>
<path d="M205.491 203.516V215.832L204.835 215.771V203.516H205.491Z" fill="#DA8928"/>
<path d="M208.618 203.508V216.002H207.962V203.516L208.618 203.508Z" fill="#DA8928"/>
<path d="M211.745 203.508V216.049H211.128V203.508H211.745Z" fill="#DA8928"/>
<path d="M214.872 203.5V215.972H214.216V203.5H214.872Z" fill="#DA8928"/>
<path d="M217.999 203.5V215.755L217.351 215.809V203.5H217.999Z" fill="#DA8928"/>
<path d="M221.165 203.492V215.392L220.516 215.485V203.492H221.165Z" fill="#DA8928"/>
<path d="M224.253 203.485V214.859L223.604 214.983V203.492L224.253 203.485Z" fill="#DA8928"/>
<path d="M227.388 203.485V214.094L226.731 214.279V203.461L227.388 203.485Z" fill="#DA8928"/>
<path d="M230.515 203.477V212.989L229.858 213.259V203.477H230.515Z" fill="#DA8928"/>
<path d="M233.642 203.477V211.104C233.434 211.292 233.215 211.468 232.985 211.629V203.477H233.642Z" fill="#DA8928"/>
<path d="M234.877 203.539C234.877 207.232 224.322 210.238 211.313 210.238C209.529 210.238 207.8 210.176 206.132 210.076C204.04 209.937 202.048 209.728 200.202 209.442C198.67 209.218 197.149 208.916 195.647 208.538C195.23 208.438 194.821 208.322 194.427 208.206C192.934 207.801 191.493 207.222 190.134 206.483C189.918 206.351 189.717 206.228 189.532 206.096C188.374 205.324 187.741 204.443 187.741 203.539C187.733 203.454 187.733 203.369 187.741 203.284C188.196 199.706 198.55 196.839 211.29 196.839C214.246 196.833 217.2 196.995 220.138 197.326C220.663 197.388 221.18 197.45 221.682 197.527C223.705 197.799 225.709 198.199 227.681 198.725C228.067 198.833 228.453 198.941 228.808 199.057C229.946 199.404 231.049 199.855 232.105 200.402C232.908 200.798 233.629 201.343 234.228 202.009C234.545 202.368 234.751 202.81 234.823 203.284C234.849 203.367 234.867 203.452 234.877 203.539Z" fill="url(#paint15_linear_467_47214)"/>
<path d="M230.144 203.539C230.144 203.616 230.144 203.701 230.144 203.786C229.688 206.622 221.419 208.894 211.328 208.894C201.237 208.894 192.96 206.622 192.505 203.786C192.505 203.701 192.505 203.616 192.505 203.539C192.505 200.587 200.951 198.184 211.344 198.184C221.736 198.184 230.144 200.587 230.144 203.539Z" fill="#DA8928"/>
<path d="M230.129 203.786C229.673 206.622 221.404 208.894 211.313 208.894H210.633C208.5 208.877 206.368 208.748 204.248 208.507C202.428 208.309 200.622 207.992 198.844 207.557C198.442 207.456 198.071 207.348 197.678 207.24C196.279 206.871 194.95 206.279 193.74 205.486C193.538 205.337 193.348 205.175 193.169 204.999C192.817 204.68 192.574 204.258 192.474 203.794C192.929 200.95 201.198 198.678 211.297 198.678C212.571 198.678 213.822 198.717 215.027 198.787C215.644 198.825 216.254 198.864 216.841 198.918C219.044 199.101 221.232 199.439 223.388 199.93C223.797 200.031 224.199 200.139 224.577 200.247C225.845 200.578 227.069 201.061 228.222 201.684C228.976 202.052 229.595 202.65 229.99 203.392C230.054 203.516 230.1 203.649 230.129 203.786Z" fill="url(#paint16_linear_467_47214)"/>
<path d="M213.93 206.575V207.464H209.954V206.614C207.53 206.599 205.109 206.41 202.712 206.05L204.85 204.675C207.006 205.01 209.185 205.181 211.367 205.185C213.251 205.185 213.93 205.076 213.93 204.883C213.93 204.18 203.021 204.744 203.021 202.658C203.021 201.746 205.337 200.989 209.969 200.803V199.93H213.946V200.788C215.86 200.823 217.771 200.978 219.667 201.252L217.667 202.627C215.847 202.354 214.01 202.215 212.17 202.21C210.224 202.21 209.599 202.364 209.599 202.557C209.599 203.23 220.516 202.673 220.516 204.736C220.501 205.602 218.3 206.359 213.93 206.575Z" fill="#DA8928"/>
<path d="M213.814 206.266V207.163H209.838V206.313C207.414 206.29 204.994 206.101 202.596 205.749L204.735 204.373C206.891 204.709 209.069 204.88 211.251 204.883C213.135 204.883 213.814 204.775 213.814 204.582C213.814 203.871 202.905 204.443 202.905 202.349C202.905 201.445 205.221 200.687 209.854 200.502V199.629H213.83V200.486C215.745 200.521 217.655 200.676 219.551 200.95L217.551 202.318C215.731 202.049 213.894 201.909 212.054 201.901C210.108 201.901 209.483 202.063 209.483 202.256C209.483 202.928 220.4 202.364 220.4 204.435C220.393 205.308 218.184 206.058 213.814 206.266Z" fill="url(#paint17_linear_467_47214)"/>
<path d="M228.886 200.541C228.889 200.564 228.889 200.587 228.886 200.61C228.852 201.062 228.725 201.502 228.51 201.902C228.296 202.301 228.001 202.651 227.642 202.928C227.435 203.12 227.216 203.298 226.986 203.461C226.212 204 225.384 204.456 224.515 204.821L223.859 205.092C223.087 205.386 222.276 205.664 221.389 205.926L220.732 206.104C219.96 206.313 219.126 206.506 218.262 206.684L217.605 206.815C216.833 206.962 215.984 207.101 215.127 207.217L214.478 207.31C213.706 207.418 212.849 207.503 212 207.58L211.351 207.642C210.579 207.704 209.715 207.758 208.873 207.796H208.224C207.406 207.796 206.58 207.843 205.746 207.85H205.09C204.256 207.85 203.43 207.85 202.619 207.804H201.963L200.133 207.696L199.492 207.65L198.836 207.595C197.994 207.518 197.168 207.433 196.365 207.333L195.709 207.24L194.203 207.016L193.23 206.846L192.582 206.722C191.717 206.545 190.891 206.359 190.104 206.151L189.648 206.035L189.455 205.981L188.42 205.671C187.911 205.509 187.432 205.339 186.977 205.169L186.32 204.906C185.56 204.594 184.826 204.22 184.128 203.786L183.85 203.608C183.737 203.535 183.629 203.455 183.525 203.369C183.41 203.291 183.301 203.199 183.193 203.114C182.778 202.827 182.432 202.452 182.18 202.015C181.927 201.578 181.775 201.09 181.734 200.587C181.734 200.525 181.734 200.463 181.734 200.402V195.364H228.831V200.587L228.886 200.541Z" fill="url(#paint18_linear_467_47214)"/>
<path d="M183.888 195.379V203.631C183.776 203.558 183.667 203.478 183.564 203.392C183.448 203.315 183.34 203.222 183.232 203.137V195.41L183.888 195.379Z" fill="#DA8928"/>
<path d="M187.015 195.379V205.192L186.359 204.93V195.379H187.015Z" fill="#DA8928"/>
<path d="M190.142 195.371V206.189L189.687 206.073L189.494 206.019V195.371H190.142Z" fill="#DA8928"/>
<path d="M193.269 195.371V206.869L192.621 206.745V195.371H193.269Z" fill="#DA8928"/>
<path d="M196.404 195.364V207.356L195.747 207.263V195.364H196.404Z" fill="#DA8928"/>
<path d="M199.546 195.356V207.673L198.89 207.619V195.363L199.546 195.356Z" fill="#DA8928"/>
<path d="M202.635 195.356V207.85H201.978V195.356H202.635Z" fill="#DA8928"/>
<path d="M205.785 195.348V207.897H205.128V195.348H205.785Z" fill="#DA8928"/>
<path d="M208.912 195.348V207.812H208.263V195.348H208.912Z" fill="#DA8928"/>
<path d="M212.039 195.34V207.595L211.39 207.657V195.34H212.039Z" fill="#DA8928"/>
<path d="M215.166 195.333V207.232L214.517 207.325V195.34L215.166 195.333Z" fill="#DA8928"/>
<path d="M218.3 195.333V206.699L217.644 206.83V195.333H218.3Z" fill="#DA8928"/>
<path d="M221.427 195.325V205.942L220.771 206.12V195.302L221.427 195.325Z" fill="#DA8928"/>
<path d="M224.554 195.325V204.837L223.898 205.107V195.325H224.554Z" fill="#DA8928"/>
<path d="M227.681 195.317V202.944C227.474 203.135 227.254 203.313 227.025 203.477V195.317H227.681Z" fill="#DA8928"/>
<path d="M228.886 195.379C228.886 199.08 218.339 202.078 205.321 202.078C203.535 202.078 201.808 202.024 200.141 201.916C198.048 201.785 196.056 201.568 194.219 201.29C192.566 201.038 191.048 200.736 189.663 200.386C189.239 200.278 188.83 200.17 188.436 200.054C186.942 199.646 185.502 199.065 184.143 198.323C183.927 198.199 183.726 198.068 183.541 197.944C182.39 197.172 181.75 196.283 181.75 195.379C181.742 195.297 181.742 195.214 181.75 195.132C182.205 191.546 192.559 188.679 205.298 188.679C208.254 188.677 211.208 188.839 214.146 189.166L215.691 189.367C217.714 189.637 219.718 190.04 221.69 190.573C222.076 190.681 222.462 190.789 222.817 190.905C223.955 191.247 225.059 191.694 226.114 192.242C226.915 192.64 227.635 193.186 228.237 193.849C228.552 194.213 228.761 194.657 228.839 195.132C228.886 195.217 228.886 195.294 228.886 195.379Z" fill="url(#paint19_linear_467_47214)"/>
<path d="M224.183 195.379C224.183 195.464 224.183 195.541 224.183 195.626C223.728 198.462 215.459 200.734 205.368 200.734C195.277 200.734 187 198.462 186.544 195.626C186.544 195.541 186.544 195.464 186.544 195.379C186.544 192.427 194.991 190.024 205.383 190.024C215.775 190.024 224.183 192.427 224.183 195.379Z" fill="#DA8928"/>
<path d="M224.168 195.626C223.713 198.462 215.443 200.734 205.352 200.734H204.681C202.544 200.721 200.41 200.592 198.288 200.347C196.467 200.152 194.662 199.837 192.883 199.405L191.717 199.088C190.318 198.717 188.989 198.122 187.78 197.326C187.576 197.182 187.385 197.022 187.208 196.847C186.857 196.524 186.615 196.1 186.513 195.634C186.969 192.798 195.238 190.526 205.337 190.526C206.611 190.526 207.862 190.565 209.066 190.635C209.684 190.635 210.294 190.712 210.888 190.766C213.09 190.942 215.276 191.28 217.428 191.778C217.837 191.879 218.238 191.979 218.617 192.087C219.886 192.417 221.11 192.902 222.261 193.532C223.014 193.902 223.634 194.496 224.037 195.232C224.095 195.358 224.139 195.49 224.168 195.626Z" fill="url(#paint20_linear_467_47214)"/>
<path d="M207.97 198.416V199.312H203.993V198.462C201.569 198.445 199.149 198.259 196.751 197.906L198.89 196.523C201.045 196.865 203.224 197.038 205.406 197.04C207.29 197.04 207.97 196.924 207.97 196.731C207.97 196.028 197.06 196.6 197.06 194.506C197.06 193.602 199.376 192.837 204.009 192.659V191.786H207.985V192.636C209.9 192.673 211.811 192.83 213.706 193.107L211.707 194.475C209.886 194.206 208.049 194.067 206.209 194.058C204.264 194.058 203.646 194.22 203.646 194.413C203.646 195.085 214.556 194.521 214.556 196.592C214.54 197.45 212.34 198.199 207.97 198.416Z" fill="#DA8928"/>
<path d="M207.854 198.122V199.011H203.878V198.161C201.454 198.144 199.034 197.958 196.635 197.604L198.774 196.221C200.93 196.561 203.108 196.731 205.291 196.731C207.174 196.731 207.854 196.623 207.854 196.43C207.854 195.727 196.944 196.291 196.944 194.204C196.944 193.3 199.261 192.535 203.893 192.35V191.477H207.869V192.358C209.784 192.393 211.695 192.547 213.59 192.821L211.591 194.197C209.771 193.924 207.934 193.785 206.093 193.779C204.148 193.779 203.53 193.934 203.53 194.127C203.53 194.799 214.44 194.243 214.44 196.306C214.424 197.148 212.224 197.906 207.854 198.122Z" fill="url(#paint21_linear_467_47214)"/>
<path d="M238.189 193.64V193.702C238.157 194.154 238.03 194.593 237.817 194.992C237.604 195.392 237.31 195.742 236.954 196.02C236.745 196.207 236.526 196.383 236.298 196.546C235.527 197.09 234.699 197.546 233.827 197.906L233.171 198.176C232.399 198.478 231.588 198.756 230.7 199.011L230.044 199.196C229.266 199.402 228.44 199.595 227.565 199.776L226.917 199.899C226.145 200.054 225.295 200.185 224.438 200.309L223.79 200.402C223.018 200.502 222.161 200.595 221.311 200.672L220.655 200.726C219.883 200.796 219.026 200.85 218.184 200.888H217.528C216.717 200.888 215.891 200.942 215.057 200.942H214.401C213.567 200.942 212.741 200.942 211.93 200.896H211.274C210.657 200.896 210.047 200.834 209.444 200.796L208.796 200.742L208.147 200.687C207.298 200.618 206.472 200.525 205.669 200.425L205.02 200.34C204.506 200.268 204.004 200.19 203.515 200.108L202.542 199.938L201.893 199.814C201.021 199.644 200.195 199.451 199.415 199.25L198.952 199.127L198.759 199.072C198.411 198.972 198.064 198.872 197.732 198.763C197.222 198.601 196.743 198.439 196.288 198.261L195.632 197.998C194.871 197.689 194.138 197.317 193.439 196.886L193.161 196.7L192.829 196.468L192.505 196.213C192.09 195.925 191.743 195.548 191.491 195.11C191.239 194.672 191.087 194.183 191.045 193.679C191.042 193.617 191.042 193.555 191.045 193.494V188.494H238.143V193.725L238.189 193.64Z" fill="url(#paint22_linear_467_47214)"/>
<path d="M193.161 188.494V196.739L192.829 196.507L192.505 196.252V188.494H193.161Z" fill="#DA8928"/>
<path d="M196.288 188.494V198.308L195.632 198.045V188.494H196.288Z" fill="#DA8928"/>
<path d="M199.415 188.494V199.312L198.952 199.188L198.759 199.134V188.494H199.415Z" fill="#DA8928"/>
<path d="M202.542 188.494V199.992L201.893 199.868V188.494H202.542Z" fill="#DA8928"/>
<path d="M205.669 188.494V200.479L205.02 200.394V188.494H205.669Z" fill="#DA8928"/>
<path d="M208.811 188.494V200.803L208.163 200.749V188.494H208.811Z" fill="#DA8928"/>
<path d="M211.9 188.448V200.942H211.243V188.494L211.9 188.448Z" fill="#DA8928"/>
<path d="M215.057 188.448V200.989H214.401V188.448H215.057Z" fill="#DA8928"/>
<path d="M218.184 188.44V200.912H217.528V188.44H218.184Z" fill="#DA8928"/>
<path d="M221.311 188.44V200.695L220.655 200.749V188.44H221.311Z" fill="#DA8928"/>
<path d="M224.438 188.432V200.332L223.79 200.425V188.432H224.438Z" fill="#DA8928"/>
<path d="M227.565 188.425V199.799L226.917 199.922V188.432L227.565 188.425Z" fill="#DA8928"/>
<path d="M230.7 188.425V199.034L230.044 199.219V188.401L230.7 188.425Z" fill="#DA8928"/>
<path d="M233.827 188.417V197.929L233.171 198.199V188.417H233.827Z" fill="#DA8928"/>
<path d="M236.954 188.417V196.043C236.745 196.23 236.526 196.406 236.298 196.569V188.417H236.954Z" fill="#DA8928"/>
<path d="M238.189 188.494C238.189 192.188 227.635 195.186 214.617 195.186C212.842 195.186 211.112 195.132 209.444 195.024C207.352 194.892 205.36 194.684 203.515 194.398C201.982 194.174 200.462 193.872 198.959 193.494C198.542 193.393 198.133 193.277 197.739 193.161C196.245 192.757 194.804 192.176 193.447 191.43C193.23 191.307 193.03 191.183 192.837 191.052C191.686 190.279 191.053 189.398 191.053 188.494C191.046 188.409 191.046 188.324 191.053 188.239C191.509 184.662 201.862 181.795 214.594 181.795C217.553 181.788 220.51 181.95 223.45 182.282C223.975 182.343 224.492 182.405 224.994 182.482C227.017 182.755 229.021 183.155 230.993 183.68C231.379 183.788 231.765 183.897 232.113 184.012C233.253 184.359 234.359 184.809 235.417 185.357C236.221 185.753 236.941 186.298 237.541 186.964C237.857 187.323 238.063 187.766 238.135 188.239C238.161 188.322 238.179 188.408 238.189 188.494Z" fill="url(#paint23_linear_467_47214)"/>
<path d="M233.456 188.494C233.456 188.571 233.456 188.656 233.456 188.734C233.001 191.577 224.732 193.841 214.633 193.841C204.534 193.841 196.273 191.577 195.817 188.734C195.817 188.656 195.817 188.571 195.817 188.494C195.817 185.542 204.264 183.139 214.648 183.139C225.033 183.139 233.456 185.527 233.456 188.494Z" fill="#DA8928"/>
<path d="M233.441 188.718C232.985 191.562 224.716 193.826 214.617 193.826H213.946C211.809 193.809 209.675 193.68 207.553 193.439C205.733 193.237 203.928 192.92 202.148 192.489C201.747 192.389 201.376 192.28 200.982 192.172C199.584 191.803 198.254 191.211 197.045 190.418C196.843 190.269 196.652 190.107 196.473 189.931C196.118 189.611 195.875 189.186 195.778 188.718C196.234 185.882 204.503 183.611 214.594 183.611C215.876 183.611 217.127 183.649 218.331 183.719C218.949 183.757 219.551 183.796 220.145 183.85C222.349 184.033 224.537 184.372 226.693 184.862C227.102 184.963 227.465 185.063 227.882 185.171C229.149 185.51 230.372 185.995 231.526 186.616C232.279 186.984 232.897 187.578 233.294 188.316C233.36 188.444 233.409 188.579 233.441 188.718Z" fill="url(#paint24_linear_467_47214)"/>
<path d="M217.242 191.515V192.404H213.266V191.585C210.839 191.57 208.416 191.381 206.016 191.021L208.163 189.645C210.316 189.981 212.492 190.151 214.671 190.155C216.563 190.155 217.242 190.047 217.242 189.854C217.242 189.151 206.333 189.715 206.333 187.629C206.333 186.717 208.649 185.96 213.282 185.774V184.901H217.258V185.759C219.173 185.794 221.084 185.948 222.979 186.222L220.979 187.59C219.159 187.324 217.322 187.187 215.482 187.18C213.536 187.18 212.911 187.335 212.911 187.528C212.911 188.2 223.821 187.644 223.821 189.707C223.805 190.542 221.612 191.299 217.242 191.515Z" fill="#DA8928"/>
<path d="M217.127 191.214V192.11H213.15V191.26C210.724 191.237 208.301 191.049 205.9 190.696L208.047 189.321C210.2 189.656 212.376 189.827 214.556 189.831C216.447 189.831 217.127 189.723 217.127 189.529C217.127 188.819 206.217 189.39 206.217 187.296C206.217 186.392 208.533 185.635 213.166 185.45V184.576H217.142V185.403C219.057 185.438 220.968 185.593 222.863 185.867L220.864 187.235C219.043 186.966 217.206 186.826 215.366 186.817C213.421 186.817 212.795 186.98 212.795 187.173C212.795 187.845 223.705 187.281 223.705 189.352C223.689 190.248 221.497 190.998 217.127 191.214Z" fill="url(#paint25_linear_467_47214)"/>
<path d="M233.232 186.029V186.091C233.198 186.543 233.07 186.983 232.856 187.382C232.642 187.781 232.347 188.131 231.989 188.409C231.784 188.598 231.568 188.773 231.341 188.935C230.563 189.471 229.733 189.927 228.862 190.295C228.654 190.387 228.438 190.48 228.206 190.565C227.398 190.886 226.573 191.165 225.735 191.4L225.079 191.577C224.307 191.786 223.473 191.979 222.608 192.157L221.952 192.288C221.18 192.435 220.331 192.574 219.481 192.698L218.825 192.783C218.022 192.891 217.196 192.984 216.347 193.061L215.698 193.115C214.888 193.184 214.061 193.231 213.22 193.277H212.571C211.753 193.277 210.934 193.324 210.093 193.331H209.444C208.605 193.331 207.779 193.316 206.966 193.285H206.31C205.692 193.285 205.082 193.223 204.48 193.177L203.839 193.13L203.183 193.076C202.341 193.007 201.515 192.914 200.712 192.814L200.056 192.729C199.541 192.662 199.026 192.584 198.512 192.497L197.546 192.327L196.89 192.203C196.025 192.033 195.199 191.84 194.412 191.639L193.956 191.515L193.763 191.461C193.408 191.361 193.061 191.26 192.729 191.152C192.227 190.99 191.74 190.828 191.285 190.65C191.061 190.565 190.845 190.48 190.636 190.387C189.873 190.079 189.137 189.707 188.436 189.275L188.158 189.089L187.834 188.857L187.502 188.595C187.086 188.308 186.74 187.933 186.487 187.496C186.235 187.059 186.083 186.571 186.042 186.068C186.039 186.006 186.039 185.944 186.042 185.882V180.844H233.14V186.076L233.232 186.029Z" fill="url(#paint26_linear_467_47214)"/>
<path d="M188.196 180.867V189.112L187.872 188.88L187.54 188.618V180.891L188.196 180.867Z" fill="#DA8928"/>
<path d="M191.323 180.86V190.673C191.1 190.588 190.883 190.503 190.675 190.41V180.86H191.323Z" fill="#DA8928"/>
<path d="M194.45 180.86V191.678L193.995 191.554L193.802 191.5V180.86H194.45Z" fill="#DA8928"/>
<path d="M197.585 180.852V192.358L196.929 192.234V180.852H197.585Z" fill="#DA8928"/>
<path d="M200.712 180.844V192.837L200.056 192.752V180.844H200.712Z" fill="#DA8928"/>
<path d="M203.839 180.844V193.13L203.183 193.076V180.844H203.839Z" fill="#DA8928"/>
<path d="M206.966 180.837V193.331H206.31V180.837H206.966Z" fill="#DA8928"/>
<path d="M210.093 180.837V193.378H209.444V180.837H210.093Z" fill="#DA8928"/>
<path d="M213.22 180.829V193.3H212.571V180.829H213.22Z" fill="#DA8928"/>
<path d="M216.347 180.821V193.084L215.698 193.138V180.821H216.347Z" fill="#DA8928"/>
<path d="M219.482 180.821V192.721L218.825 192.806V180.821H219.482Z" fill="#DA8928"/>
<path d="M222.608 180.813V192.18L221.952 192.311V180.813H222.608Z" fill="#DA8928"/>
<path d="M225.735 180.813V191.423L225.079 191.6V180.782L225.735 180.813Z" fill="#DA8928"/>
<path d="M228.886 180.806V190.318C228.677 190.41 228.461 190.503 228.229 190.588V180.806H228.886Z" fill="#DA8928"/>
<path d="M231.974 180.767V188.401C231.769 188.59 231.552 188.766 231.325 188.927V180.767H231.974Z" fill="#DA8928"/>
<path d="M233.225 180.86C233.225 184.561 222.678 187.559 209.661 187.559C207.874 187.559 206.148 187.505 204.48 187.397C202.387 187.266 200.395 187.049 198.558 186.771C196.913 186.524 195.385 186.215 194.003 185.867C193.578 185.759 193.169 185.651 192.775 185.535C191.28 185.131 189.839 184.55 188.482 183.804C188.266 183.68 188.065 183.557 187.88 183.425C186.73 182.653 186.096 181.772 186.096 180.86C186.089 180.778 186.089 180.695 186.096 180.613C186.552 177.027 196.906 174.168 209.645 174.168C212.601 174.161 215.556 174.324 218.493 174.655L220.037 174.848C222.061 175.122 224.064 175.525 226.037 176.054C226.43 176.162 226.809 176.27 227.164 176.386C228.302 176.73 229.406 177.18 230.461 177.73C231.266 178.12 231.987 178.663 232.584 179.33C232.899 179.693 233.108 180.137 233.186 180.613C233.217 180.698 233.225 180.767 233.225 180.86Z" fill="url(#paint27_linear_467_47214)"/>
<path d="M228.492 180.86C228.492 180.945 228.492 181.03 228.492 181.107C228.036 183.951 219.775 186.215 209.676 186.215C199.577 186.215 191.316 183.951 190.86 181.107C190.852 181.025 190.852 180.942 190.86 180.86C190.86 177.908 199.315 175.513 209.699 175.513C220.084 175.513 228.492 177.908 228.492 180.86Z" fill="#DA8928"/>
<path d="M228.476 181.107C228.021 183.951 219.759 186.215 209.661 186.215H208.989C206.853 186.194 204.719 186.065 202.596 185.828C200.776 185.626 198.971 185.308 197.191 184.878C196.79 184.777 196.419 184.669 196.033 184.561C194.632 184.194 193.3 183.601 192.088 182.807C191.886 182.658 191.695 182.496 191.516 182.32C191.163 182 190.923 181.575 190.829 181.107C191.285 178.271 199.546 175.999 209.645 175.999C210.919 175.999 212.17 176.038 213.374 176.108C213.992 176.108 214.602 176.185 215.196 176.239C217.398 176.419 219.583 176.757 221.736 177.251C222.145 177.352 222.547 177.452 222.925 177.56C224.193 177.894 225.417 178.379 226.569 179.005C227.322 179.375 227.942 179.969 228.345 180.705C228.403 180.834 228.447 180.969 228.476 181.107Z" fill="url(#paint28_linear_467_47214)"/>
<path d="M212.278 183.896V184.793H208.302V183.943C205.878 183.92 203.458 183.731 201.059 183.379L203.198 182.003C205.354 182.339 207.533 182.509 209.715 182.513C211.598 182.513 212.278 182.405 212.278 182.212C212.278 181.501 201.368 182.073 201.368 179.979C201.368 179.075 203.685 178.318 208.317 178.132V177.259H212.293V178.117C214.208 178.152 216.119 178.306 218.015 178.58L216.015 179.948C214.195 179.679 212.358 179.54 210.518 179.531C208.572 179.531 207.954 179.693 207.954 179.886C207.954 180.558 218.864 179.994 218.864 182.065C218.848 182.931 216.648 183.68 212.278 183.896Z" fill="#DA8928"/>
<path d="M212.162 183.603V184.492H208.186V183.642C205.762 183.624 203.342 183.439 200.944 183.085L203.082 181.702C205.238 182.044 207.416 182.217 209.599 182.22C211.483 182.22 212.162 182.104 212.162 181.911C212.162 181.208 201.252 181.779 201.252 179.685C201.252 178.781 203.569 178.016 208.201 177.838V176.965H212.178V177.815C214.093 177.852 216.003 178.01 217.899 178.287L215.899 179.654C214.064 179.378 212.211 179.233 210.355 179.222C208.41 179.222 207.792 179.384 207.792 179.577C207.792 180.249 218.702 179.685 218.702 181.756C218.733 182.637 216.532 183.387 212.162 183.603Z" fill="url(#paint29_linear_467_47214)"/>
<path d="M241.239 178.951V179.021C241.206 179.473 241.078 179.913 240.864 180.312C240.65 180.712 240.354 181.061 239.996 181.339C239.79 181.528 239.573 181.706 239.347 181.872C238.57 182.409 237.739 182.865 236.869 183.232L236.213 183.502C235.441 183.796 234.668 184.074 233.742 184.329L233.086 184.515C232.314 184.723 231.48 184.917 230.615 185.094L229.959 185.226C229.187 185.372 228.337 185.512 227.48 185.627L226.832 185.72C226.06 185.821 225.203 185.913 224.353 185.991L223.705 186.052C222.894 186.114 222.068 186.168 221.226 186.207H220.578C219.759 186.207 218.933 186.253 218.099 186.261H217.443C216.609 186.261 215.783 186.261 214.972 186.215H214.316C213.699 186.215 213.089 186.153 212.486 186.114L211.846 186.068L211.189 186.014C210.348 185.937 209.522 185.852 208.719 185.751L208.062 185.658L206.557 185.434L205.584 185.264L204.935 185.141C204.071 184.963 203.244 184.777 202.457 184.569L202.001 184.453L201.808 184.391C201.453 184.298 201.106 184.19 200.774 184.09C200.272 183.927 199.786 183.757 199.33 183.587L198.674 183.325C197.913 183.013 197.18 182.638 196.481 182.204L196.203 182.019C196.091 181.948 195.982 181.871 195.879 181.787L195.547 181.532C195.132 181.245 194.786 180.87 194.533 180.433C194.281 179.996 194.129 179.508 194.087 179.005C194.087 178.944 194.087 178.882 194.087 178.82V173.813H241.185V179.036L241.239 178.951Z" fill="url(#paint30_linear_467_47214)"/>
<path d="M196.226 173.813V182.058C196.114 181.987 196.005 181.909 195.902 181.826L195.57 181.571V173.813H196.226Z" fill="#DA8928"/>
<path d="M199.353 173.813V183.626L198.697 183.363V173.813H199.353Z" fill="#DA8928"/>
<path d="M202.48 173.813V184.631L202.025 184.515L201.832 184.453V173.813H202.48Z" fill="#DA8928"/>
<path d="M205.607 173.813V185.311L204.959 185.187V173.813H205.607Z" fill="#DA8928"/>
<path d="M208.742 173.813V185.805L208.085 185.712V173.813H208.742Z" fill="#DA8928"/>
<path d="M211.9 173.766V186.083L211.243 186.029V173.766H211.9Z" fill="#DA8928"/>
<path d="M214.988 173.766V186.261H214.332V173.766H214.988Z" fill="#DA8928"/>
<path d="M218.123 173.759V186.307H217.466V173.759H218.123Z" fill="#DA8928"/>
<path d="M221.25 173.759V186.222H220.601V173.759H221.25Z" fill="#DA8928"/>
<path d="M224.377 173.751V186.006L223.728 186.068V173.751H224.377Z" fill="#DA8928"/>
<path d="M227.503 173.743V185.643L226.855 185.736V173.743H227.503Z" fill="#DA8928"/>
<path d="M230.638 173.743V185.11L229.982 185.241V173.743H230.638Z" fill="#DA8928"/>
<path d="M233.765 173.735V184.345L233.109 184.53V173.712L233.765 173.735Z" fill="#DA8928"/>
<path d="M236.892 173.735V183.247L236.236 183.518V173.735H236.892Z" fill="#DA8928"/>
<path d="M240.019 173.728V181.354C239.813 181.544 239.596 181.722 239.37 181.887V173.728H240.019Z" fill="#DA8928"/>
<path d="M241.239 173.813C241.239 177.514 230.692 180.512 217.675 180.512C215.889 180.512 214.162 180.458 212.494 180.35C210.402 180.218 208.41 180.002 206.572 179.724C204.92 179.466 203.401 179.165 202.017 178.82C201.592 178.712 201.183 178.603 200.789 178.488C199.296 178.08 197.855 177.499 196.496 176.757C196.28 176.633 196.079 176.502 195.894 176.378C194.744 175.605 194.103 174.717 194.103 173.813C194.095 173.73 194.095 173.648 194.103 173.565C194.558 169.98 204.912 167.113 217.652 167.113C220.608 167.11 223.562 167.273 226.5 167.6L228.044 167.801C230.068 168.071 232.072 168.474 234.043 169.006C234.429 169.115 234.815 169.223 235.17 169.339C236.308 169.681 237.412 170.128 238.467 170.676C239.269 171.074 239.989 171.619 240.59 172.283C240.906 172.646 241.114 173.09 241.193 173.565C241.239 173.627 241.239 173.705 241.239 173.813Z" fill="url(#paint31_linear_467_47214)"/>
<path d="M236.521 173.813C236.521 173.898 236.521 173.975 236.521 174.06C236.066 176.896 227.797 179.167 217.706 179.167C207.614 179.167 199.338 176.896 198.882 174.06C198.882 173.975 198.882 173.898 198.882 173.813C198.882 170.861 207.329 168.458 217.721 168.458C228.113 168.458 236.521 170.838 236.521 173.813Z" fill="#DA8928"/>
<path d="M236.506 174.037C236.05 176.873 227.781 179.144 217.69 179.144H217.019C214.882 179.128 212.748 178.999 210.626 178.758C208.805 178.564 206.999 178.246 205.221 177.808C204.82 177.707 204.449 177.607 204.055 177.491C202.657 177.122 201.327 176.53 200.118 175.737C199.914 175.593 199.723 175.433 199.546 175.258C199.195 174.934 198.953 174.511 198.851 174.044C199.307 171.201 207.576 168.937 217.675 168.937C218.949 168.937 220.2 168.937 221.404 169.037L223.226 169.169C225.428 169.351 227.613 169.692 229.766 170.189C230.175 170.289 230.538 170.39 230.955 170.498C232.224 170.828 233.448 171.313 234.599 171.943C235.352 172.313 235.972 172.906 236.375 173.643C236.433 173.769 236.477 173.901 236.506 174.037Z" fill="url(#paint32_linear_467_47214)"/>
<path d="M220.308 176.826V177.715H216.331V176.903C213.907 176.886 211.487 176.7 209.089 176.347L211.228 174.964C213.383 175.306 215.562 175.479 217.744 175.482C219.628 175.482 220.308 175.366 220.308 175.173C220.308 174.469 209.398 175.041 209.398 172.947C209.398 172.043 211.714 171.278 216.347 171.093V170.181H220.323V171.039C222.238 171.076 224.149 171.233 226.044 171.51L224.045 172.878C222.224 172.609 220.387 172.469 218.547 172.46C216.602 172.46 215.984 172.623 215.984 172.816C215.984 173.488 226.894 172.924 226.894 174.995C226.878 175.86 224.678 176.61 220.308 176.826Z" fill="#DA8928"/>
<path d="M220.192 176.533V177.421H216.216V176.571C213.791 176.556 211.371 176.368 208.973 176.007L211.112 174.632C213.268 174.968 215.447 175.138 217.628 175.142C219.512 175.142 220.192 175.034 220.192 174.84C220.192 174.137 209.282 174.701 209.282 172.615C209.282 171.711 211.598 170.946 216.231 170.76V169.887H220.207V170.722C222.122 170.757 224.033 170.912 225.928 171.185L223.929 172.561C222.109 172.288 220.272 172.149 218.431 172.144C216.486 172.144 215.868 172.298 215.868 172.491C215.868 173.164 226.778 172.607 226.778 174.67C226.762 175.559 224.562 176.316 220.192 176.533Z" fill="url(#paint33_linear_467_47214)"/>
<path opacity="0.7" d="M247.354 202.89C247.354 213.8 255.538 208.538 233.703 213.213C221.574 215.809 215.613 215.933 215.613 215.933C212.979 211.879 211.653 207.113 211.815 202.279C211.815 202.032 213.05 185.566 231.758 182.544C234.344 182.127 236.792 184.638 239.077 185.573C239.517 185.751 239.957 185.952 240.382 186.161C242.229 187.077 243.922 188.276 245.401 189.715C245.725 190.032 246.034 190.356 246.335 190.689C248.557 193.161 250.116 196.157 250.867 199.397C251.158 200.637 251.324 201.903 251.361 203.176C251.376 203.415 247.354 202.642 247.354 202.89Z" fill="#DA8928"/>
<path d="M254.28 197.434C255.442 202.543 254.53 207.905 251.743 212.341C248.955 216.777 244.522 219.923 239.417 221.087C237.992 221.407 236.538 221.573 235.078 221.581C233.304 221.586 231.538 221.35 229.827 220.878C228.328 220.466 226.882 219.88 225.519 219.132C225.102 218.9 224.693 218.661 224.299 218.398C222.543 217.262 220.979 215.854 219.667 214.225C219.404 213.901 219.157 213.576 218.895 213.236C217.399 211.121 216.334 208.732 215.76 206.205C215.706 205.965 215.66 205.725 215.613 205.486C215.024 202.366 215.195 199.15 216.111 196.11C217.026 193.07 218.66 190.296 220.874 188.022C223.088 185.748 225.817 184.041 228.829 183.046C231.842 182.051 235.05 181.796 238.181 182.305C238.652 182.382 239.116 182.475 239.579 182.583C241.581 183.058 243.498 183.84 245.262 184.901C245.648 185.133 246.026 185.39 246.396 185.674C250.192 188.326 252.927 192.238 254.117 196.716C254.171 196.994 254.225 197.195 254.28 197.434Z" fill="url(#paint34_linear_467_47214)"/>
<path d="M250.419 198.315C250.473 198.555 250.519 198.787 250.566 199.026C251.264 203.016 250.403 207.122 248.162 210.496C245.92 213.869 242.469 216.251 238.523 217.15C234.576 218.049 230.435 217.396 226.956 215.325C223.477 213.255 220.925 209.926 219.829 206.027C219.767 205.795 219.705 205.563 219.651 205.324C219.192 203.302 219.134 201.209 219.482 199.165C219.831 197.121 220.578 195.166 221.681 193.411C222.785 191.656 224.223 190.135 225.913 188.936C227.604 187.737 229.514 186.883 231.534 186.423C233.554 185.963 235.645 185.906 237.687 186.254C239.73 186.603 241.684 187.351 243.437 188.455C245.191 189.559 246.71 190.998 247.908 192.69C249.106 194.382 249.959 196.293 250.419 198.315Z" fill="#DA8928"/>
<path d="M250.566 199.026C251.277 203.024 250.424 207.142 248.185 210.528C245.946 213.914 242.491 216.308 238.537 217.216L237.981 217.332C234.397 218.019 230.687 217.434 227.488 215.678C227.094 215.462 226.716 215.237 226.33 214.983C224.597 213.848 223.104 212.383 221.937 210.671C221.658 210.254 221.4 209.823 221.165 209.38C220.584 208.32 220.131 207.194 219.813 206.027C219.098 202.03 219.948 197.911 222.186 194.524C224.425 191.137 227.88 188.743 231.835 187.837C232.849 187.603 233.883 187.471 234.923 187.443C235.438 187.43 235.954 187.443 236.467 187.482C238.563 187.645 240.606 188.226 242.474 189.19C242.876 189.39 243.246 189.615 243.648 189.854C245.139 190.787 246.464 191.963 247.57 193.331C248.67 194.697 249.534 196.238 250.126 197.89C250.342 198.261 250.458 198.64 250.566 199.026Z" fill="url(#paint35_linear_467_47214)"/>
<path d="M239.162 210.068L239.741 212.626L236.498 213.398L235.942 210.957C233.855 211.35 231.704 211.258 229.658 210.686L230.507 206.328C232.339 206.89 234.283 206.98 236.159 206.591C237.703 206.235 238.181 205.818 238.058 205.239C237.595 203.206 229.055 206.877 227.689 200.857C227.094 198.253 228.461 195.634 232.136 194.243L231.565 191.732L234.815 190.959L235.379 193.432C237.037 193.178 238.73 193.27 240.351 193.702L239.579 198.014C238.027 197.579 236.395 197.518 234.815 197.836C233.225 198.199 232.823 198.779 232.947 199.327C233.387 201.267 241.934 197.62 243.285 203.57C243.895 206.058 242.59 208.631 239.162 210.068Z" fill="#DA8928"/>
<path d="M238.869 209.241L239.455 211.799L236.205 212.533L235.649 210.091C233.562 210.486 231.412 210.396 229.364 209.829L230.214 205.463C232.047 206.032 233.995 206.122 235.873 205.725C237.417 205.378 237.896 204.953 237.765 204.373C237.309 202.349 228.762 206.011 227.395 200C226.809 197.396 228.167 194.776 231.85 193.385L231.279 190.874L234.529 190.101L235.085 192.566C236.747 192.32 238.44 192.412 240.065 192.837L239.293 197.156C237.742 196.721 236.109 196.66 234.529 196.978C232.939 197.342 232.538 197.913 232.661 198.47C233.101 200.402 241.648 196.762 242.999 202.704C243.602 205.231 242.297 207.812 238.869 209.241Z" fill="url(#paint36_linear_467_47214)"/>
<path d="M106.849 88.2509H90.2416C89.5242 88.2509 88.8361 87.9662 88.3281 87.4593C87.8201 86.9523 87.5337 86.2644 87.5316 85.5464C87.5316 84.8271 87.8171 84.1373 88.3254 83.6286C88.8336 83.12 89.5229 82.8342 90.2416 82.8342H106.849C107.568 82.8342 108.257 83.12 108.766 83.6286C109.274 84.1373 109.559 84.8271 109.559 85.5464C109.557 86.2644 109.271 86.9523 108.763 87.4593C108.255 87.9662 107.567 88.2509 106.849 88.2509Z" fill="url(#paint37_linear_467_47214)"/>
<path d="M128.823 97.9251H90.2185C89.4997 97.9251 88.8104 97.6394 88.3022 97.1307C87.794 96.6221 87.5085 95.9322 87.5085 95.2129C87.5085 94.4936 87.794 93.8037 88.3022 93.2951C88.8104 92.7865 89.4997 92.5007 90.2185 92.5007H128.823C129.542 92.5007 130.231 92.7865 130.739 93.2951C131.247 93.8037 131.533 94.4936 131.533 95.2129C131.533 95.9322 131.247 96.6221 130.739 97.1307C130.231 97.6394 129.542 97.9251 128.823 97.9251Z" fill="url(#paint38_linear_467_47214)"/>
<path d="M113.389 107.569H90.2262C89.5075 107.569 88.8182 107.283 88.3099 106.774C87.8017 106.266 87.5162 105.576 87.5162 104.856C87.5182 104.138 87.8046 103.45 88.3126 102.944C88.8207 102.437 89.5088 102.152 90.2262 102.152H113.389C114.106 102.152 114.793 102.437 115.3 102.944C115.806 103.451 116.091 104.139 116.091 104.856C116.091 105.574 115.807 106.263 115.3 106.771C114.794 107.28 114.106 107.566 113.389 107.569Z" fill="url(#paint39_linear_467_47214)"/>
<path d="M103.035 116.632H90.2416C89.5242 116.632 88.8361 116.348 88.3281 115.841C87.8201 115.334 87.5337 114.646 87.5316 113.928C87.5316 113.209 87.8171 112.519 88.3254 112.01C88.8336 111.501 89.5229 111.216 90.2416 111.216H103.035C103.754 111.216 104.443 111.501 104.951 112.01C105.46 112.519 105.745 113.209 105.745 113.928C105.743 114.646 105.457 115.334 104.949 115.841C104.441 116.348 103.753 116.632 103.035 116.632Z" fill="url(#paint40_linear_467_47214)"/>
<path d="M119.805 125.603H90.2416C89.5242 125.603 88.8361 125.319 88.3281 124.812C87.8201 124.305 87.5337 123.617 87.5316 122.899C87.5316 122.18 87.8171 121.49 88.3254 120.981C88.8336 120.473 89.5229 120.187 90.2416 120.187H119.805C120.522 120.189 121.21 120.475 121.716 120.984C122.223 121.492 122.507 122.181 122.507 122.899C122.507 123.616 122.222 124.304 121.716 124.811C121.209 125.318 120.522 125.603 119.805 125.603Z" fill="url(#paint41_linear_467_47214)"/>
<path d="M176.646 103.025L168.076 93.088C167.87 92.848 167.615 92.6554 167.328 92.5233C167.04 92.3913 166.728 92.3229 166.412 92.3229C166.096 92.3229 165.784 92.3913 165.496 92.5233C165.209 92.6554 164.954 92.848 164.748 93.088L156.17 103.025C155.894 103.346 155.717 103.739 155.658 104.158C155.6 104.577 155.663 105.003 155.841 105.387C156.018 105.771 156.302 106.096 156.659 106.322C157.016 106.549 157.431 106.668 157.853 106.665H159.552C159.745 106.665 159.929 106.741 160.065 106.877C160.201 107.013 160.278 107.198 160.278 107.391V127.234C160.278 127.818 160.51 128.378 160.922 128.791C161.335 129.204 161.895 129.436 162.478 129.436H170.361C170.944 129.434 171.503 129.201 171.915 128.789C172.327 128.376 172.56 127.817 172.562 127.234V107.36C172.562 107.167 172.638 106.983 172.774 106.846C172.91 106.71 173.095 106.634 173.287 106.634H174.986C175.402 106.63 175.809 106.509 176.159 106.283C176.509 106.056 176.787 105.735 176.961 105.357C177.135 104.978 177.198 104.558 177.142 104.145C177.086 103.732 176.914 103.344 176.646 103.025Z" fill="url(#paint42_linear_467_47214)"/>
<path d="M205.144 88.3436L196.574 78.3989C196.367 78.16 196.112 77.9684 195.824 77.8371C195.537 77.7058 195.225 77.6378 194.91 77.6378C194.594 77.6378 194.282 77.7058 193.995 77.8371C193.708 77.9684 193.452 78.16 193.246 78.3989L184.668 88.3436C184.393 88.6631 184.216 89.0549 184.156 89.4724C184.097 89.8899 184.159 90.3156 184.335 90.6989C184.511 91.0821 184.793 91.4069 185.147 91.6345C185.502 91.8622 185.914 91.9832 186.336 91.9831H188.027C188.217 91.9923 188.397 92.0715 188.532 92.2056C188.668 92.3397 188.749 92.5191 188.76 92.7094V112.553C188.756 112.612 188.756 112.671 188.76 112.73V127.056C188.76 127.686 189.01 128.29 189.454 128.736C189.898 129.182 190.501 129.434 191.13 129.436H198.666C198.977 129.441 199.285 129.384 199.573 129.267C199.861 129.151 200.123 128.977 200.343 128.758C200.562 128.538 200.736 128.276 200.852 127.987C200.969 127.699 201.026 127.39 201.021 127.079V112.769C201.025 112.71 201.025 112.65 201.021 112.591V92.6785C201.021 92.4859 201.097 92.3011 201.233 92.1649C201.37 92.0287 201.554 91.9522 201.747 91.9522H203.445C203.863 91.9532 204.273 91.8348 204.627 91.611C204.98 91.3872 205.263 91.0672 205.441 90.6885C205.619 90.3098 205.686 89.888 205.633 89.4727C205.581 89.0574 205.411 88.6658 205.144 88.3436Z" fill="url(#paint43_linear_467_47214)"/>
<path d="M34.1186 217.903H96.1636C97.8948 217.903 99.2982 216.499 99.2982 214.766V163.721C99.2982 161.988 97.8948 160.584 96.1636 160.584H34.1186C32.3873 160.584 30.9839 161.988 30.9839 163.721V214.766C30.9839 216.499 32.3873 217.903 34.1186 217.903Z" fill="url(#paint44_linear_467_47214)"/>
<path d="M99.2982 177.089H30.9839V163.721C30.9839 162.889 31.3142 162.091 31.902 161.503C32.4899 160.914 33.2872 160.584 34.1186 160.584H96.1713C97.0027 160.584 97.8 160.914 98.3878 161.503C98.9757 162.091 99.306 162.889 99.306 163.721V177.089H99.2982Z" fill="url(#paint45_linear_467_47214)"/>
<path d="M82.93 191.392H90.7744C91.1113 191.392 91.3843 191.118 91.3843 190.781V182.931C91.3843 182.593 91.1113 182.32 90.7744 182.32H82.93C82.5931 182.32 82.32 182.593 82.32 182.931V190.781C82.32 191.118 82.5931 191.392 82.93 191.392Z" fill="url(#paint46_linear_467_47214)"/>
<path d="M72.2983 191.392H80.1427C80.4796 191.392 80.7527 191.118 80.7527 190.781V182.931C80.7527 182.593 80.4796 182.32 80.1427 182.32H72.2983C71.9615 182.32 71.6884 182.593 71.6884 182.931V190.781C71.6884 191.118 71.9615 191.392 72.2983 191.392Z" fill="url(#paint47_linear_467_47214)"/>
<path d="M45.9624 164.872C45.7188 164.873 45.4774 164.826 45.2521 164.733C45.0268 164.641 44.8221 164.504 44.6499 164.332C44.4776 164.159 44.3411 163.954 44.2484 163.729C44.1556 163.503 44.1084 163.262 44.1094 163.018V156.434C44.1398 155.962 44.3487 155.519 44.6936 155.196C45.0385 154.872 45.4935 154.692 45.9663 154.692C46.439 154.692 46.8941 154.872 47.2389 155.196C47.5838 155.519 47.7927 155.962 47.8231 156.434V162.995C47.8262 163.241 47.7803 163.485 47.6881 163.713C47.5958 163.942 47.4591 164.149 47.2859 164.324C47.1128 164.499 46.9065 164.637 46.6793 164.731C46.4521 164.825 46.2084 164.873 45.9624 164.872Z" fill="url(#paint48_linear_467_47214)"/>
<path d="M54.9263 164.865C54.6824 164.866 54.4406 164.819 54.2149 164.726C53.9892 164.633 53.784 164.497 53.6111 164.324C53.4382 164.152 53.301 163.947 53.2074 163.722C53.1138 163.496 53.0656 163.254 53.0656 163.01V156.427C53.0961 155.955 53.3049 155.512 53.6498 155.188C53.9947 154.865 54.4497 154.684 54.9225 154.684C55.3952 154.684 55.8503 154.865 56.1952 155.188C56.54 155.512 56.7489 155.955 56.7794 156.427V162.995C56.7824 163.24 56.7367 163.483 56.6449 163.71C56.553 163.938 56.4169 164.144 56.2444 164.318C56.072 164.492 55.8666 164.63 55.6403 164.724C55.414 164.818 55.1713 164.866 54.9263 164.865Z" fill="url(#paint49_linear_467_47214)"/>
<path d="M64.3227 164.88C63.8305 164.878 63.3592 164.681 63.0119 164.332C62.6646 163.983 62.4696 163.51 62.4697 163.018V156.442C62.4533 156.188 62.4891 155.933 62.575 155.694C62.6609 155.454 62.7951 155.234 62.9691 155.049C63.1431 154.863 63.3534 154.715 63.5869 154.614C63.8203 154.512 64.0721 154.46 64.3265 154.46C64.581 154.46 64.8327 154.512 65.0662 154.614C65.2997 154.715 65.5099 154.863 65.6839 155.049C65.858 155.234 65.9921 155.454 66.078 155.694C66.1639 155.933 66.1998 156.188 66.1834 156.442V162.995C66.1865 163.241 66.1406 163.486 66.0485 163.715C65.9563 163.943 65.8197 164.151 65.6467 164.327C65.4736 164.502 65.2674 164.641 65.0401 164.736C64.8128 164.831 64.569 164.88 64.3227 164.88Z" fill="url(#paint50_linear_467_47214)"/>
<path d="M73.2866 164.872C73.0426 164.872 72.801 164.824 72.5757 164.731C72.3504 164.637 72.1458 164.5 71.9736 164.327C71.8014 164.154 71.6651 163.948 71.5724 163.722C71.4798 163.496 71.4326 163.254 71.4336 163.01V156.435C71.4172 156.18 71.4531 155.926 71.539 155.686C71.6249 155.446 71.759 155.227 71.933 155.041C72.1071 154.855 72.3173 154.707 72.5508 154.606C72.7843 154.505 73.036 154.452 73.2905 154.452C73.5449 154.452 73.7967 154.505 74.0301 154.606C74.2636 154.707 74.4739 154.855 74.6479 155.041C74.8219 155.227 74.9561 155.446 75.042 155.686C75.1279 155.926 75.1637 156.18 75.1474 156.435V162.995C75.1494 163.241 75.1028 163.484 75.0102 163.712C74.9176 163.94 74.7808 164.147 74.6078 164.322C74.4349 164.496 74.229 164.635 74.0023 164.729C73.7755 164.824 73.5323 164.872 73.2866 164.872Z" fill="url(#paint51_linear_467_47214)"/>
<path d="M61.5895 191.392H69.4339C69.7707 191.392 70.0438 191.118 70.0438 190.781V182.931C70.0438 182.593 69.7707 182.32 69.4339 182.32H61.5895C61.2526 182.32 60.9795 182.593 60.9795 182.931V190.781C60.9795 191.118 61.2526 191.392 61.5895 191.392Z" fill="url(#paint52_linear_467_47214)"/>
<path d="M50.9501 191.392H58.7945C59.1314 191.392 59.4044 191.118 59.4044 190.781V182.931C59.4044 182.593 59.1314 182.32 58.7945 182.32H50.9501C50.6132 182.32 50.3401 182.593 50.3401 182.931V190.781C50.3401 191.118 50.6132 191.392 50.9501 191.392Z" fill="url(#paint53_linear_467_47214)"/>
<path d="M82.8528 201.491H90.6972C91.034 201.491 91.3071 201.218 91.3071 200.881V193.03C91.3071 192.693 91.034 192.419 90.6972 192.419H82.8528C82.5159 192.419 82.2428 192.693 82.2428 193.03V200.881C82.2428 201.218 82.5159 201.491 82.8528 201.491Z" fill="url(#paint54_linear_467_47214)"/>
<path d="M72.2211 201.491H80.0655C80.4024 201.491 80.6755 201.218 80.6755 200.881V193.03C80.6755 192.693 80.4024 192.419 80.0655 192.419H72.2211C71.8842 192.419 71.6112 192.693 71.6112 193.03V200.881C71.6112 201.218 71.8842 201.491 72.2211 201.491Z" fill="url(#paint55_linear_467_47214)"/>
<path d="M61.5123 201.491H69.3567C69.6935 201.491 69.9666 201.218 69.9666 200.881V193.03C69.9666 192.693 69.6935 192.419 69.3567 192.419H61.5123C61.1754 192.419 60.9023 192.693 60.9023 193.03V200.881C60.9023 201.218 61.1754 201.491 61.5123 201.491Z" fill="url(#paint56_linear_467_47214)"/>
<path d="M50.8729 201.491H58.7173C59.0542 201.491 59.3272 201.218 59.3272 200.881V193.03C59.3272 192.693 59.0542 192.419 58.7173 192.419H50.8729C50.536 192.419 50.2629 192.693 50.2629 193.03V200.881C50.2629 201.218 50.536 201.491 50.8729 201.491Z" fill="url(#paint57_linear_467_47214)"/>
<path d="M82.7756 211.683H90.62C90.9568 211.683 91.2299 211.41 91.2299 211.073V203.222C91.2299 202.885 90.9568 202.611 90.62 202.611H82.7756C82.4387 202.611 82.1656 202.885 82.1656 203.222V211.073C82.1656 211.41 82.4387 211.683 82.7756 211.683Z" fill="url(#paint58_linear_467_47214)"/>
<path d="M72.1439 211.683H79.9883C80.3252 211.683 80.5983 211.41 80.5983 211.073V203.222C80.5983 202.885 80.3252 202.611 79.9883 202.611H72.1439C71.807 202.611 71.534 202.885 71.534 203.222V211.073C71.534 211.41 71.807 211.683 72.1439 211.683Z" fill="url(#paint59_linear_467_47214)"/>
<path d="M61.435 211.683H69.2795C69.6163 211.683 69.8894 211.41 69.8894 211.073V203.222C69.8894 202.885 69.6163 202.611 69.2795 202.611H61.435C61.0982 202.611 60.8251 202.885 60.8251 203.222V211.073C60.8251 211.41 61.0982 211.683 61.435 211.683Z" fill="url(#paint60_linear_467_47214)"/>
<path d="M50.8034 211.683H58.6478C58.9847 211.683 59.2578 211.41 59.2578 211.073V203.222C59.2578 202.885 58.9847 202.611 58.6478 202.611H50.8034C50.4665 202.611 50.1934 202.885 50.1934 203.222V211.073C50.1934 211.41 50.4665 211.683 50.8034 211.683Z" fill="url(#paint61_linear_467_47214)"/>
<path d="M52.2626 194.668L56.926 199.335" stroke="white" stroke-miterlimit="10" stroke-linecap="round"/>
<path d="M56.926 194.668L52.2626 199.335" stroke="white" stroke-miterlimit="10" stroke-linecap="round"/>
<path d="M82.2737 164.872C82.0281 164.872 81.7848 164.824 81.5581 164.729C81.3313 164.635 81.1255 164.496 80.9525 164.322C80.7795 164.147 80.6428 163.94 80.5502 163.712C80.4576 163.484 80.4109 163.241 80.413 162.995V156.419C80.3966 156.165 80.4325 155.91 80.5184 155.67C80.6043 155.431 80.7384 155.211 80.9124 155.025C81.0865 154.84 81.2967 154.692 81.5302 154.59C81.7637 154.489 82.0154 154.437 82.2699 154.437C82.5243 154.437 82.776 154.489 83.0095 154.59C83.243 154.692 83.4533 154.84 83.6273 155.025C83.8013 155.211 83.9354 155.431 84.0213 155.67C84.1072 155.91 84.1431 156.165 84.1267 156.419V162.995C84.1298 163.24 84.0841 163.484 83.9924 163.712C83.9006 163.939 83.7646 164.146 83.5922 164.321C83.4199 164.496 83.2146 164.634 82.9882 164.729C82.7619 164.824 82.519 164.872 82.2737 164.872Z" fill="url(#paint62_linear_467_47214)"/>
<path d="M40.0791 191.392H47.9235C48.2604 191.392 48.5334 191.118 48.5334 190.781V182.931C48.5334 182.593 48.2604 182.32 47.9235 182.32H40.0791C39.7422 182.32 39.4691 182.593 39.4691 182.931V190.781C39.4691 191.118 39.7422 191.392 40.0791 191.392Z" fill="url(#paint63_linear_467_47214)"/>
<path d="M40.0019 201.491H47.8463C48.1832 201.491 48.4562 201.218 48.4562 200.881V193.03C48.4562 192.693 48.1832 192.419 47.8463 192.419H40.0019C39.665 192.419 39.3919 192.693 39.3919 193.03V200.881C39.3919 201.218 39.665 201.491 40.0019 201.491Z" fill="url(#paint64_linear_467_47214)"/>
<path d="M39.9247 211.683H47.7691C48.1059 211.683 48.379 211.41 48.379 211.073V203.222C48.379 202.885 48.1059 202.611 47.7691 202.611H39.9247C39.5878 202.611 39.3147 202.885 39.3147 203.222V211.073C39.3147 211.41 39.5878 211.683 39.9247 211.683Z" fill="url(#paint65_linear_467_47214)"/>
<path d="M17.5341 136.893H71.0398C72.7455 136.893 74.1282 135.509 74.1282 133.802V94.3629C74.1282 92.6559 72.7455 91.2721 71.0398 91.2721H17.5341C15.8285 91.2721 14.4458 92.6559 14.4458 94.3629L14.4458 133.802C14.4458 135.509 15.8285 136.893 17.5341 136.893Z" fill="url(#paint66_linear_467_47214)"/>
<path d="M39.5232 98.2497C48.5026 94.9502 55.297 103.705 54.3241 110.667C53.8995 117.529 45.8775 121.771 46.6032 124.359H39.9556C39.9556 124.359 40.4265 123.084 38.6971 121.555C32.1575 116.393 27.9419 103.496 39.5232 98.2497Z" fill="white"/>
<path d="M46.6032 124.359C46.6032 127.504 47.3753 131.314 42.7968 130.951C39.2066 130.835 40.0173 126.778 39.9556 124.359H46.6032Z" fill="url(#paint67_linear_467_47214)"/>
<path d="M44.6112 124.359C44.6112 124.359 44.4954 113.889 45.3833 110.984C46.2712 108.078 48.1474 105.838 49.514 108.333C52.1314 116.269 38.0639 118.263 36.9676 111.239C35.5161 104.462 43.1443 103.89 41.8626 124.375" stroke="url(#paint68_linear_467_47214)" stroke-miterlimit="10"/>
<path d="M192.721 67.751H246.227C247.932 67.751 249.315 66.3672 249.315 64.6601V25.2212C249.315 23.5142 247.932 22.1304 246.227 22.1304L192.721 22.1304C191.015 22.1304 189.633 23.5142 189.633 25.2212V64.6601C189.633 66.3672 191.015 67.751 192.721 67.751Z" fill="url(#paint69_linear_467_47214)"/>
<path d="M230.345 32.9637C230.475 32.8212 230.547 32.6351 230.547 32.4421C230.547 32.249 230.475 32.0629 230.345 31.9205C230.159 31.7582 229.982 31.596 229.789 31.4414C229.604 31.2869 229.411 31.1401 229.218 30.9933L228.631 30.5683C228.43 30.4292 228.222 30.2978 228.013 30.1665C227.797 30.0325 227.581 29.9089 227.365 29.7956L226.701 29.4478C224.794 28.5144 222.714 27.9881 220.593 27.9024C220.514 27.8983 220.435 27.9101 220.361 27.9373C220.287 27.9644 220.219 28.0063 220.161 28.0604C220.103 28.1146 220.057 28.1798 220.025 28.2523C219.993 28.3247 219.977 28.4028 219.976 28.482V43.4338L230.345 32.9637Z" fill="url(#paint70_linear_467_47214)"/>
<path d="M229.488 34.8722L219.196 45.1646V30.3364C219.196 30.2414 219.177 30.1474 219.14 30.06C219.102 29.9726 219.048 29.8937 218.979 29.8279C218.911 29.7622 218.83 29.7111 218.741 29.6776C218.652 29.6442 218.557 29.6291 218.462 29.6332C214.942 29.7876 211.579 31.1347 208.924 33.4534C206.269 35.7722 204.48 38.925 203.851 42.3948C203.221 45.8647 203.789 49.4455 205.46 52.5502C207.131 55.6549 209.807 58.099 213.049 59.4818C216.29 60.8647 219.905 61.104 223.3 60.1607C226.695 59.2174 229.67 57.1474 231.735 54.2901C233.801 51.4329 234.835 47.9581 234.667 44.4355C234.5 40.9129 233.142 37.5517 230.816 34.9031C230.731 34.8123 230.63 34.7393 230.517 34.6884C230.404 34.6375 230.282 34.6099 230.158 34.607C230.034 34.6041 229.911 34.6261 229.796 34.6716C229.681 34.7172 229.576 34.7854 229.488 34.8722Z" fill="url(#paint71_linear_467_47214)"/>
<path d="M230.167 56.1449C232.974 53.3271 234.594 49.5397 234.695 45.5623C234.795 41.5849 233.368 37.7204 230.708 34.7641C230.563 34.6202 230.367 34.5394 230.163 34.5394C229.959 34.5394 229.764 34.6202 229.619 34.7641L219.196 45.1879L230.167 56.1449Z" fill="url(#paint72_linear_467_47214)"/>
<path opacity="0.2" d="M7.58963 138.268C7.58963 139.02 7.36684 139.755 6.94943 140.38C6.53203 141.005 5.93876 141.493 5.24464 141.781C4.55053 142.068 3.78674 142.144 3.04987 141.997C2.313 141.85 1.63614 141.488 1.10489 140.956C0.573631 140.425 0.211844 139.747 0.0652713 139.01C-0.0813014 138.272 -0.00607525 137.508 0.281437 136.813C0.56895 136.119 1.05583 135.525 1.68052 135.107C2.30521 134.689 3.03965 134.466 3.79095 134.466C4.29009 134.465 4.78451 134.563 5.24585 134.754C5.70718 134.944 6.12635 135.224 6.47929 135.578C6.83223 135.931 7.112 136.35 7.30254 136.812C7.49308 137.274 7.59064 137.769 7.58963 138.268Z" fill="#CCF2FF"/>
<path d="M262.186 184.229C262.186 184.687 262.05 185.135 261.795 185.517C261.541 185.898 261.179 186.195 260.756 186.37C260.333 186.546 259.867 186.592 259.418 186.502C258.968 186.413 258.556 186.192 258.232 185.868C257.908 185.544 257.687 185.131 257.598 184.681C257.508 184.231 257.554 183.765 257.729 183.342C257.905 182.918 258.202 182.556 258.583 182.301C258.963 182.047 259.411 181.911 259.869 181.911C260.484 181.911 261.073 182.155 261.507 182.59C261.942 183.024 262.186 183.614 262.186 184.229Z" fill="#CCF2FF"/>
<path d="M18.8776 74.2725H16.6385V72.0317C16.6385 71.796 16.545 71.57 16.3784 71.4033C16.2119 71.2367 15.9861 71.1431 15.7506 71.1431C15.5151 71.1431 15.2893 71.2367 15.1228 71.4033C14.9563 71.57 14.8627 71.796 14.8627 72.0317V74.2725H12.6237C12.3882 74.2725 12.1623 74.3661 11.9958 74.5328C11.8293 74.6994 11.7357 74.9255 11.7357 75.1611C11.7357 75.3968 11.8293 75.6228 11.9958 75.7895C12.1623 75.9561 12.3882 76.0497 12.6237 76.0497H14.8627V78.2906C14.8627 78.5263 14.9563 78.7523 15.1228 78.9189C15.2893 79.0856 15.5151 79.1792 15.7506 79.1792C15.9861 79.1792 16.2119 79.0856 16.3784 78.9189C16.545 78.7523 16.6385 78.5263 16.6385 78.2906V76.0497H18.8776C19.113 76.0497 19.3389 75.9561 19.5054 75.7895C19.6719 75.6228 19.7655 75.3968 19.7655 75.1611C19.7655 74.9255 19.6719 74.6994 19.5054 74.5328C19.3389 74.3661 19.113 74.2725 18.8776 74.2725Z" fill="#B1E5F2"/>
<path d="M106.224 26.2874H102.819V22.8798C102.819 22.5232 102.677 22.1812 102.425 21.9291C102.174 21.6769 101.832 21.5353 101.476 21.5353C101.119 21.5353 100.778 21.6769 100.526 21.9291C100.274 22.1812 100.132 22.5232 100.132 22.8798V26.2874H96.7349C96.3786 26.2874 96.0369 26.4291 95.785 26.6812C95.533 26.9334 95.3915 27.2754 95.3915 27.6319C95.3915 27.9885 95.533 28.3305 95.785 28.5827C96.0369 28.8348 96.3786 28.9764 96.7349 28.9764H100.132V32.4073C100.132 32.5838 100.167 32.7587 100.234 32.9218C100.302 33.0849 100.401 33.2331 100.526 33.358C100.65 33.4828 100.798 33.5819 100.961 33.6494C101.124 33.717 101.299 33.7518 101.476 33.7518C101.652 33.7518 101.827 33.717 101.99 33.6494C102.153 33.5819 102.301 33.4828 102.425 33.358C102.55 33.2331 102.649 33.0849 102.717 32.9218C102.784 32.7587 102.819 32.5838 102.819 32.4073V29.0074H106.224C106.58 29.0074 106.922 28.8657 107.174 28.6136C107.426 28.3614 107.567 28.0194 107.567 27.6628C107.567 27.3063 107.426 26.9643 107.174 26.7121C106.922 26.46 106.58 26.3183 106.224 26.3183V26.2874Z" fill="#B1E5F2"/>
<path d="M26.5984 149.125C26.5984 149.603 26.4567 150.071 26.1912 150.468C25.9256 150.866 25.5482 151.176 25.1066 151.359C24.665 151.542 24.1791 151.59 23.7103 151.497C23.2416 151.404 22.811 151.173 22.473 150.835C22.135 150.497 21.9048 150.066 21.8116 149.597C21.7184 149.127 21.7662 148.641 21.9491 148.199C22.132 147.757 22.4418 147.38 22.8392 147.114C23.2366 146.848 23.7038 146.706 24.1818 146.706C24.8227 146.706 25.4374 146.961 25.8906 147.415C26.3438 147.868 26.5984 148.483 26.5984 149.125Z" fill="#CCF2FF"/>
<path opacity="0.2" d="M285.117 104.516C285.117 105.269 284.894 106.004 284.476 106.629C284.058 107.255 283.465 107.742 282.77 108.029C282.075 108.317 281.311 108.392 280.574 108.244C279.837 108.097 279.16 107.734 278.629 107.202C278.098 106.669 277.737 105.991 277.591 105.253C277.446 104.515 277.522 103.751 277.811 103.056C278.099 102.362 278.588 101.768 279.213 101.352C279.839 100.935 280.574 100.713 281.326 100.715C281.824 100.715 282.318 100.813 282.778 101.004C283.239 101.195 283.657 101.475 284.009 101.829C284.361 102.182 284.64 102.601 284.83 103.062C285.02 103.523 285.118 104.017 285.117 104.516Z" fill="#CCF2FF"/>
<path opacity="0.2" d="M134.32 6.31298H129.796V1.78491C129.766 1.33081 129.565 0.905059 129.233 0.594002C128.901 0.282945 128.463 0.109863 128.008 0.109863C127.554 0.109863 127.116 0.282945 126.784 0.594002C126.452 0.905059 126.251 1.33081 126.221 1.78491V6.31298H121.697C121.243 6.34284 120.817 6.54429 120.507 6.87647C120.196 7.20866 120.023 7.6467 120.023 8.10179C120.023 8.55688 120.196 8.99493 120.507 9.32711C120.817 9.6593 121.243 9.86075 121.697 9.89061H126.198V14.4187C126.228 14.8728 126.429 15.2985 126.761 15.6096C127.093 15.9206 127.53 16.0937 127.985 16.0937C128.44 16.0937 128.878 15.9206 129.21 15.6096C129.541 15.2985 129.743 14.8728 129.773 14.4187V9.89061H134.297C134.542 9.90671 134.787 9.87239 135.018 9.78977C135.249 9.70716 135.46 9.57802 135.639 9.41034C135.818 9.24265 135.96 9.03999 136.058 8.81491C136.155 8.58983 136.206 8.34712 136.206 8.10179C136.206 7.85646 136.155 7.61375 136.058 7.38867C135.96 7.16359 135.818 6.96093 135.639 6.79325C135.46 6.62556 135.249 6.49642 135.018 6.4138C134.787 6.33119 134.542 6.29688 134.297 6.31298H134.32Z" fill="#CCF2FF"/>
</g>
<defs>
<linearGradient id="paint0_linear_467_47214" x1="145.747" y1="210.895" x2="142.832" y2="-56.7089" gradientUnits="userSpaceOnUse">
<stop stop-color="#3E51C9" stop-opacity="0.67"/>
<stop offset="0.12" stop-color="#4759CB" stop-opacity="0.67"/>
<stop offset="0.29" stop-color="#6070D3" stop-opacity="0.67"/>
<stop offset="0.47" stop-color="#8A95DE" stop-opacity="0.67"/>
<stop offset="0.67" stop-color="#C3C9EE" stop-opacity="0.67"/>
<stop offset="0.85" stop-color="white" stop-opacity="0.67"/>
</linearGradient>
<linearGradient id="paint1_linear_467_47214" x1="18.263" y1="41.8997" x2="87.8928" y2="45.1199" gradientUnits="userSpaceOnUse">
<stop offset="0.28" stop-color="#D6E5FF"/>
<stop offset="0.84" stop-color="#ECF3FF"/>
</linearGradient>
<linearGradient id="paint2_linear_467_47214" x1="132.293" y1="39.1381" x2="179.013" y2="61.2747" gradientUnits="userSpaceOnUse">
<stop offset="0.28" stop-color="#D6E5FF"/>
<stop offset="0.84" stop-color="#ECF3FF"/>
</linearGradient>
<linearGradient id="paint3_linear_467_47214" x1="225.413" y1="170.032" x2="315.415" y2="138.162" gradientUnits="userSpaceOnUse">
<stop stop-color="#1A2E9D"/>
<stop offset="0.13" stop-color="#3754B3"/>
<stop offset="0.39" stop-color="#6B97DA"/>
<stop offset="0.58" stop-color="#8CC2F3"/>
<stop offset="0.67" stop-color="#98D2FC"/>
</linearGradient>
<linearGradient id="paint4_linear_467_47214" x1="190.588" y1="158.631" x2="305.575" y2="108.6" gradientUnits="userSpaceOnUse">
<stop offset="0.11" stop-color="#1A2E9D"/>
<stop offset="0.25" stop-color="#3754B3"/>
<stop offset="0.5" stop-color="#6B97DA"/>
<stop offset="0.69" stop-color="#8CC2F3"/>
<stop offset="0.78" stop-color="#98D2FC"/>
</linearGradient>
<linearGradient id="paint5_linear_467_47214" x1="107.637" y1="204.056" x2="183.116" y2="204.056" gradientUnits="userSpaceOnUse">
<stop offset="0.03" stop-color="#00006A"/>
<stop offset="1" stop-color="#00006A"/>
</linearGradient>
<linearGradient id="paint6_linear_467_47214" x1="21.2093" y1="218.274" x2="109.204" y2="218.274" gradientUnits="userSpaceOnUse">
<stop offset="0.03" stop-color="#00006A"/>
<stop offset="1" stop-color="#00006A"/>
</linearGradient>
<linearGradient id="paint7_linear_467_47214" x1="220.007" y1="222.184" x2="250.257" y2="222.184" gradientUnits="userSpaceOnUse">
<stop offset="0.03" stop-color="#00006A"/>
<stop offset="1" stop-color="#00006A"/>
</linearGradient>
<linearGradient id="paint8_linear_467_47214" x1="176.631" y1="213.615" x2="252.11" y2="213.615" gradientUnits="userSpaceOnUse">
<stop offset="0.03" stop-color="#00006A"/>
<stop offset="1" stop-color="#00006A"/>
</linearGradient>
<linearGradient id="paint9_linear_467_47214" x1="nan" y1="nan" x2="nan" y2="nan" gradientUnits="userSpaceOnUse">
<stop stop-color="#93FFFF"/>
<stop offset="1" stop-color="#98D2FC"/>
</linearGradient>
<linearGradient id="paint10_linear_467_47214" x1="116.686" y1="134.188" x2="336.788" y2="-22.6127" gradientUnits="userSpaceOnUse">
<stop stop-color="#00006A"/>
<stop offset="0.4" stop-color="#2F3FA7"/>
<stop offset="0.8" stop-color="#5B7AE1"/>
<stop offset="1" stop-color="#6C91F7"/>
</linearGradient>
<linearGradient id="paint11_linear_467_47214" x1="236.128" y1="170.807" x2="57.6441" y2="170.807" gradientUnits="userSpaceOnUse">
<stop offset="0.28" stop-color="#D6E5FF"/>
<stop offset="0.84" stop-color="#ECF3FF"/>
</linearGradient>
<linearGradient id="paint12_linear_467_47214" x1="172.021" y1="191.631" x2="121.133" y2="191.631" gradientUnits="userSpaceOnUse">
<stop offset="0.28" stop-color="#D6E5FF"/>
<stop offset="0.84" stop-color="#ECF3FF"/>
</linearGradient>
<linearGradient id="paint13_linear_467_47214" x1="64.508" y1="102.708" x2="229.264" y2="102.708" gradientUnits="userSpaceOnUse">
<stop stop-color="#8093F9"/>
<stop offset="1" stop-color="#8CDCFD"/>
</linearGradient>
<linearGradient id="paint14_linear_467_47214" x1="194.697" y1="209.759" x2="241.849" y2="209.759" gradientUnits="userSpaceOnUse">
<stop stop-color="#E4A64B"/>
<stop offset="1" stop-color="#F0DB70"/>
</linearGradient>
<linearGradient id="paint15_linear_467_47214" x1="173.913" y1="203.539" x2="221.049" y2="203.539" gradientUnits="userSpaceOnUse">
<stop stop-color="#E4A64B"/>
<stop offset="0.23" stop-color="#E8BA59"/>
<stop offset="0.59" stop-color="#EED26A"/>
<stop offset="0.81" stop-color="#F0DB70"/>
</linearGradient>
<linearGradient id="paint16_linear_467_47214" x1="183.216" y1="203.778" x2="220.856" y2="203.778" gradientUnits="userSpaceOnUse">
<stop stop-color="#F0DB70"/>
<stop offset="1" stop-color="#E4A64B"/>
</linearGradient>
<linearGradient id="paint17_linear_467_47214" x1="208.14" y1="203.4" x2="225.928" y2="203.4" gradientUnits="userSpaceOnUse">
<stop stop-color="#F0DB70"/>
<stop offset="1" stop-color="#E4A64B"/>
</linearGradient>
<linearGradient id="paint18_linear_467_47214" x1="188.745" y1="201.607" x2="235.888" y2="201.607" gradientUnits="userSpaceOnUse">
<stop stop-color="#E4A64B"/>
<stop offset="1" stop-color="#F0DB70"/>
</linearGradient>
<linearGradient id="paint19_linear_467_47214" x1="167.952" y1="195.379" x2="215.088" y2="195.379" gradientUnits="userSpaceOnUse">
<stop stop-color="#E4A64B"/>
<stop offset="0.23" stop-color="#E8BA59"/>
<stop offset="0.59" stop-color="#EED26A"/>
<stop offset="0.81" stop-color="#F0DB70"/>
</linearGradient>
<linearGradient id="paint20_linear_467_47214" x1="177.256" y1="195.626" x2="214.895" y2="195.626" gradientUnits="userSpaceOnUse">
<stop stop-color="#F0DB70"/>
<stop offset="1" stop-color="#E4A64B"/>
</linearGradient>
<linearGradient id="paint21_linear_467_47214" x1="202.179" y1="195.248" x2="219.968" y2="195.248" gradientUnits="userSpaceOnUse">
<stop stop-color="#F0DB70"/>
<stop offset="1" stop-color="#E4A64B"/>
</linearGradient>
<linearGradient id="paint22_linear_467_47214" x1="198.01" y1="194.699" x2="245.161" y2="194.699" gradientUnits="userSpaceOnUse">
<stop stop-color="#E4A64B"/>
<stop offset="1" stop-color="#F0DB70"/>
</linearGradient>
<linearGradient id="paint23_linear_467_47214" x1="177.225" y1="188.479" x2="224.361" y2="188.479" gradientUnits="userSpaceOnUse">
<stop stop-color="#E4A64B"/>
<stop offset="0.23" stop-color="#E8BA59"/>
<stop offset="0.59" stop-color="#EED26A"/>
<stop offset="0.81" stop-color="#F0DB70"/>
</linearGradient>
<linearGradient id="paint24_linear_467_47214" x1="186.529" y1="188.718" x2="224.168" y2="188.718" gradientUnits="userSpaceOnUse">
<stop stop-color="#F0DB70"/>
<stop offset="1" stop-color="#E4A64B"/>
</linearGradient>
<linearGradient id="paint25_linear_467_47214" x1="211.452" y1="188.339" x2="229.241" y2="188.339" gradientUnits="userSpaceOnUse">
<stop stop-color="#F0DB70"/>
<stop offset="1" stop-color="#E4A64B"/>
</linearGradient>
<linearGradient id="paint26_linear_467_47214" x1="193.053" y1="187.088" x2="240.197" y2="187.088" gradientUnits="userSpaceOnUse">
<stop stop-color="#E4A64B"/>
<stop offset="1" stop-color="#F0DB70"/>
</linearGradient>
<linearGradient id="paint27_linear_467_47214" x1="172.268" y1="180.86" x2="219.397" y2="180.86" gradientUnits="userSpaceOnUse">
<stop stop-color="#E4A64B"/>
<stop offset="0.23" stop-color="#E8BA59"/>
<stop offset="0.59" stop-color="#EED26A"/>
<stop offset="0.81" stop-color="#F0DB70"/>
</linearGradient>
<linearGradient id="paint28_linear_467_47214" x1="181.572" y1="181.107" x2="219.204" y2="181.107" gradientUnits="userSpaceOnUse">
<stop stop-color="#F0DB70"/>
<stop offset="1" stop-color="#E4A64B"/>
</linearGradient>
<linearGradient id="paint29_linear_467_47214" x1="206.487" y1="180.728" x2="224.284" y2="180.728" gradientUnits="userSpaceOnUse">
<stop stop-color="#F0DB70"/>
<stop offset="1" stop-color="#E4A64B"/>
</linearGradient>
<linearGradient id="paint30_linear_467_47214" x1="201.083" y1="180.018" x2="248.226" y2="180.018" gradientUnits="userSpaceOnUse">
<stop stop-color="#E4A64B"/>
<stop offset="1" stop-color="#F0DB70"/>
</linearGradient>
<linearGradient id="paint31_linear_467_47214" x1="180.29" y1="173.79" x2="227.426" y2="173.79" gradientUnits="userSpaceOnUse">
<stop stop-color="#E4A64B"/>
<stop offset="0.23" stop-color="#E8BA59"/>
<stop offset="0.59" stop-color="#EED26A"/>
<stop offset="0.81" stop-color="#F0DB70"/>
</linearGradient>
<linearGradient id="paint32_linear_467_47214" x1="189.594" y1="174.037" x2="227.233" y2="174.037" gradientUnits="userSpaceOnUse">
<stop stop-color="#F0DB70"/>
<stop offset="1" stop-color="#E4A64B"/>
</linearGradient>
<linearGradient id="paint33_linear_467_47214" x1="214.517" y1="173.658" x2="232.306" y2="173.658" gradientUnits="userSpaceOnUse">
<stop stop-color="#F0DB70"/>
<stop offset="1" stop-color="#E4A64B"/>
</linearGradient>
<linearGradient id="paint34_linear_467_47214" x1="212.476" y1="213.594" x2="247.235" y2="195.045" gradientUnits="userSpaceOnUse">
<stop stop-color="#E4A64B"/>
<stop offset="1" stop-color="#F0DB70"/>
</linearGradient>
<linearGradient id="paint35_linear_467_47214" x1="220.781" y1="210.895" x2="252.644" y2="191.612" gradientUnits="userSpaceOnUse">
<stop stop-color="#F0DB70"/>
<stop offset="1" stop-color="#E4A64B"/>
</linearGradient>
<linearGradient id="paint36_linear_467_47214" x1="226.864" y1="209.024" x2="239.183" y2="196.721" gradientUnits="userSpaceOnUse">
<stop stop-color="#E4A64B"/>
<stop offset="1" stop-color="#F0DB70"/>
</linearGradient>
<linearGradient id="paint37_linear_467_47214" x1="92.7664" y1="92.779" x2="99.7142" y2="84.0915" gradientUnits="userSpaceOnUse">
<stop stop-color="#ECF3FF"/>
<stop offset="0.86" stop-color="#D6E5FF"/>
</linearGradient>
<linearGradient id="paint38_linear_467_47214" x1="98.7346" y1="108.743" x2="111.718" y2="92.4954" gradientUnits="userSpaceOnUse">
<stop stop-color="#ECF3FF"/>
<stop offset="0.86" stop-color="#D6E5FF"/>
</linearGradient>
<linearGradient id="paint39_linear_467_47214" x1="94.5422" y1="113.967" x2="103.283" y2="103.032" gradientUnits="userSpaceOnUse">
<stop stop-color="#ECF3FF"/>
<stop offset="0.86" stop-color="#D6E5FF"/>
</linearGradient>
<linearGradient id="paint40_linear_467_47214" x1="91.7318" y1="120.055" x2="97.6208" y2="112.681" gradientUnits="userSpaceOnUse">
<stop stop-color="#ECF3FF"/>
<stop offset="0.86" stop-color="#D6E5FF"/>
</linearGradient>
<linearGradient id="paint41_linear_467_47214" x1="96.2871" y1="133.84" x2="106.79" y2="120.697" gradientUnits="userSpaceOnUse">
<stop stop-color="#ECF3FF"/>
<stop offset="0.86" stop-color="#D6E5FF"/>
</linearGradient>
<linearGradient id="paint42_linear_467_47214" x1="166.408" y1="129.436" x2="166.408" y2="92.3231" gradientUnits="userSpaceOnUse">
<stop offset="0.28" stop-color="#D6E5FF"/>
<stop offset="0.84" stop-color="#ECF3FF"/>
</linearGradient>
<linearGradient id="paint43_linear_467_47214" x1="194.906" y1="129.436" x2="194.906" y2="77.6416" gradientUnits="userSpaceOnUse">
<stop offset="0.28" stop-color="#D6E5FF"/>
<stop offset="0.84" stop-color="#ECF3FF"/>
</linearGradient>
<linearGradient id="paint44_linear_467_47214" x1="99.2982" y1="189.236" x2="30.9916" y2="189.236" gradientUnits="userSpaceOnUse">
<stop offset="0.28" stop-color="#D6E5FF"/>
<stop offset="0.84" stop-color="#ECF3FF"/>
</linearGradient>
<linearGradient id="paint45_linear_467_47214" x1="99.2982" y1="168.829" x2="30.9916" y2="168.829" gradientUnits="userSpaceOnUse">
<stop stop-color="#5587F6"/>
<stop offset="1" stop-color="#3359FA"/>
</linearGradient>
<linearGradient id="paint46_linear_467_47214" x1="91.3766" y1="186.856" x2="82.3123" y2="186.856" gradientUnits="userSpaceOnUse">
<stop stop-color="#5587F6"/>
<stop offset="1" stop-color="#3359FA"/>
</linearGradient>
<linearGradient id="paint47_linear_467_47214" x1="80.7527" y1="186.856" x2="71.6884" y2="186.856" gradientUnits="userSpaceOnUse">
<stop stop-color="#5587F6"/>
<stop offset="1" stop-color="#3359FA"/>
</linearGradient>
<linearGradient id="paint48_linear_467_47214" x1="44.1094" y1="159.726" x2="47.8231" y2="159.726" gradientUnits="userSpaceOnUse">
<stop stop-color="#E4A64B"/>
<stop offset="0.86" stop-color="#F0DB70"/>
</linearGradient>
<linearGradient id="paint49_linear_467_47214" x1="53.0656" y1="159.719" x2="56.7794" y2="159.719" gradientUnits="userSpaceOnUse">
<stop stop-color="#E4A64B"/>
<stop offset="0.86" stop-color="#F0DB70"/>
</linearGradient>
<linearGradient id="paint50_linear_467_47214" x1="62.4697" y1="159.726" x2="66.1834" y2="159.726" gradientUnits="userSpaceOnUse">
<stop stop-color="#E4A64B"/>
<stop offset="0.86" stop-color="#F0DB70"/>
</linearGradient>
<linearGradient id="paint51_linear_467_47214" x1="71.4336" y1="159.719" x2="75.1474" y2="159.719" gradientUnits="userSpaceOnUse">
<stop stop-color="#E4A64B"/>
<stop offset="0.86" stop-color="#F0DB70"/>
</linearGradient>
<linearGradient id="paint52_linear_467_47214" x1="70.0438" y1="186.856" x2="60.9795" y2="186.856" gradientUnits="userSpaceOnUse">
<stop stop-color="#5587F6"/>
<stop offset="1" stop-color="#3359FA"/>
</linearGradient>
<linearGradient id="paint53_linear_467_47214" x1="59.4044" y1="186.856" x2="50.3401" y2="186.856" gradientUnits="userSpaceOnUse">
<stop stop-color="#5587F6"/>
<stop offset="1" stop-color="#3359FA"/>
</linearGradient>
<linearGradient id="paint54_linear_467_47214" x1="91.2994" y1="196.955" x2="82.2351" y2="196.955" gradientUnits="userSpaceOnUse">
<stop stop-color="#5587F6"/>
<stop offset="1" stop-color="#3359FA"/>
</linearGradient>
<linearGradient id="paint55_linear_467_47214" x1="80.6755" y1="196.955" x2="71.6112" y2="196.955" gradientUnits="userSpaceOnUse">
<stop stop-color="#5587F6"/>
<stop offset="1" stop-color="#3359FA"/>
</linearGradient>
<linearGradient id="paint56_linear_467_47214" x1="69.9666" y1="196.955" x2="60.9023" y2="196.955" gradientUnits="userSpaceOnUse">
<stop stop-color="#5587F6"/>
<stop offset="1" stop-color="#3359FA"/>
</linearGradient>
<linearGradient id="paint57_linear_467_47214" x1="59.3272" y1="196.955" x2="50.2629" y2="196.955" gradientUnits="userSpaceOnUse">
<stop stop-color="#5587F6"/>
<stop offset="1" stop-color="#3359FA"/>
</linearGradient>
<linearGradient id="paint58_linear_467_47214" x1="91.2376" y1="207.139" x2="82.1656" y2="207.139" gradientUnits="userSpaceOnUse">
<stop stop-color="#5587F6"/>
<stop offset="1" stop-color="#3359FA"/>
</linearGradient>
<linearGradient id="paint59_linear_467_47214" x1="80.5905" y1="207.139" x2="71.5262" y2="207.139" gradientUnits="userSpaceOnUse">
<stop stop-color="#5587F6"/>
<stop offset="1" stop-color="#3359FA"/>
</linearGradient>
<linearGradient id="paint60_linear_467_47214" x1="69.8894" y1="207.139" x2="60.8174" y2="207.139" gradientUnits="userSpaceOnUse">
<stop stop-color="#5587F6"/>
<stop offset="1" stop-color="#3359FA"/>
</linearGradient>
<linearGradient id="paint61_linear_467_47214" x1="59.2578" y1="207.139" x2="50.1934" y2="207.139" gradientUnits="userSpaceOnUse">
<stop stop-color="#5587F6"/>
<stop offset="1" stop-color="#3359FA"/>
</linearGradient>
<linearGradient id="paint62_linear_467_47214" x1="80.413" y1="159.718" x2="84.1267" y2="159.718" gradientUnits="userSpaceOnUse">
<stop stop-color="#E4A64B"/>
<stop offset="0.86" stop-color="#F0DB70"/>
</linearGradient>
<linearGradient id="paint63_linear_467_47214" x1="48.5257" y1="186.856" x2="39.4614" y2="186.856" gradientUnits="userSpaceOnUse">
<stop stop-color="#5587F6"/>
<stop offset="1" stop-color="#3359FA"/>
</linearGradient>
<linearGradient id="paint64_linear_467_47214" x1="48.4485" y1="196.955" x2="39.3842" y2="196.955" gradientUnits="userSpaceOnUse">
<stop stop-color="#5587F6"/>
<stop offset="1" stop-color="#3359FA"/>
</linearGradient>
<linearGradient id="paint65_linear_467_47214" x1="48.3867" y1="207.139" x2="39.3147" y2="207.139" gradientUnits="userSpaceOnUse">
<stop stop-color="#5587F6"/>
<stop offset="1" stop-color="#3359FA"/>
</linearGradient>
<linearGradient id="paint66_linear_467_47214" x1="74.1205" y1="114.075" x2="14.438" y2="114.075" gradientUnits="userSpaceOnUse">
<stop stop-color="#5587F6"/>
<stop offset="1" stop-color="#3359FA"/>
</linearGradient>
<linearGradient id="paint67_linear_467_47214" x1="39.917" y1="127.667" x2="46.6418" y2="127.667" gradientUnits="userSpaceOnUse">
<stop stop-color="#E4A64B"/>
<stop offset="0.86" stop-color="#F0DB70"/>
</linearGradient>
<linearGradient id="paint68_linear_467_47214" x1="36.4271" y1="115.504" x2="50.2552" y2="115.504" gradientUnits="userSpaceOnUse">
<stop stop-color="#E4A64B"/>
<stop offset="0.86" stop-color="#F0DB70"/>
</linearGradient>
<linearGradient id="paint69_linear_467_47214" x1="249.323" y1="44.9407" x2="189.633" y2="44.9407" gradientUnits="userSpaceOnUse">
<stop stop-color="#5587F6"/>
<stop offset="1" stop-color="#3359FA"/>
</linearGradient>
<linearGradient id="paint70_linear_467_47214" x1="218.478" y1="35.5445" x2="237" y2="36.64" gradientUnits="userSpaceOnUse">
<stop stop-color="#E4A64B"/>
<stop offset="0.15" stop-color="#EABF5C"/>
<stop offset="0.31" stop-color="#EED36B"/>
<stop offset="0.42" stop-color="#F0DB70"/>
</linearGradient>
<linearGradient id="paint71_linear_467_47214" x1="203.623" y1="45.1724" x2="234.699" y2="45.1724" gradientUnits="userSpaceOnUse">
<stop stop-color="#ECF3FF"/>
<stop offset="0.66" stop-color="#D6E5FF"/>
</linearGradient>
<linearGradient id="paint72_linear_467_47214" x1="216.756" y1="50.2801" x2="234.842" y2="43.5824" gradientUnits="userSpaceOnUse">
<stop stop-color="#1A2E9D"/>
<stop offset="1" stop-color="#98D2FC"/>
</linearGradient>
<clipPath id="clip0_467_47214">
<rect width="291" height="224" fill="white"/>
</clipPath>
</defs>
</svg>
