<svg id="Layer_3" data-name="Layer 3" xmlns="http://www.w3.org/2000/svg" viewBox="0 0 942.51 314.73"><g id="Layer_1" data-name="Layer 1"><path d="M113.69,431.81c-5.93,40.28-23.5,74.35-51.37,103.06,17.2-26.86,37.26-61.45,51.94-113.74.79,3.46,1.45,6.4,2.12,9.35a174.88,174.88,0,0,0,14.22,38.8C140.8,489.73,154,508,168.94,525.07c8.92,10.21,18.7,19.61,27.49,30,7.42,8.73,14.18,17.88,18.39,28.78,5.83,15.08,5.53,30.2.28,45.31-6.54,18.82-19,32.62-35.3,43.14s-34.44,16.19-53.5,19c-12.9,1.88-25.17-1.11-37.39-4.57a133.26,133.26,0,0,1-38-18,29.81,29.81,0,0,1-3.79-3.16c4.19,2.1,8.27,4.38,12.53,6.3,20.49,9.26,41.92,12.83,64.1,10.13,21.63-2.63,41.29-10.59,57.47-26,15.81-15,24-33.61,22.6-55.94-.72-11.88-5.44-22.43-11.85-32.22-7.2-11-16.1-20.58-24.8-30.33-12.47-14-23.91-28.73-33.32-45.07-9.28-16.11-16.1-33.16-19.12-51.69C114.28,437.76,114,434.78,113.69,431.81Z" transform="translate(-47.14 -377.08)" fill="#0f79d3"/><path d="M155.84,396c-3.49,0-6.25,2.1-9.24,3.46A133.31,133.31,0,0,0,119,416.53c-.64.51-1.54,1.71-2.12,1.15-.91-.87-.3-2.17.41-3.14,2-2.78,4.92-4.57,7.47-6.73,9.54-8,19.71-15.11,31.13-20.13a116.43,116.43,0,0,1,24.33-7.82c9.33-1.86,18.68-3.11,28.2-2.7a133.42,133.42,0,0,1,25.12,3.58,103.92,103.92,0,0,1,30.93,12.34c14.22,8.77,27,19.3,36,33.95a71.88,71.88,0,0,1,10.18,46.59c-1.23,10.89-5.51,20.73-11.38,29.89-6.21,9.71-13.79,18.25-21.26,26.88-9.26,10.71-18.36,21.52-25.26,34.06a327.82,327.82,0,0,0-14.3,30c-.29.68-.43,1.46-1.18,1.83l0-1,.1-.21-.12.19a1,1,0,0,0-1,1.18c.05.93-.32,1.41-1.27,1.34-1.63-2.86-.14-5.64.63-8.16,3.08-10.07,6.13-20.15,10.18-29.88a142.32,142.32,0,0,1,17.32-29.86c7.33-9.93,15-19.63,21.41-30.2,7.24-11.87,11.94-24.63,11.51-38.8a63.23,63.23,0,0,0-13.53-37.69A87.14,87.14,0,0,0,258,401.56a108.32,108.32,0,0,0-25.51-10.84c-13.31-3.84-26.82-4.5-40.47-3.71a111.11,111.11,0,0,0-20.89,3.6c-4.82,1.22-9.55,2.68-14.23,4.34-.51.18-1.2.21-1.07,1.07Z" transform="translate(-47.14 -377.08)" fill="#f9a735"/><path d="M235,597.81c.95.07,1.32-.41,1.27-1.34a1,1,0,0,1,1-1.18l0,0,0,1v0c-.55.32-.54.81-.4,1.33.17.78-.45,1.19-.76,1.74-.53.75-.35,1.25.51,1.5,4.07,2.22,8.28,4.19,12.16,6.71,4.22,2.73,4.09,6.92.07,10a7.22,7.22,0,0,1-1.39,1c-1.57.68-.83,1.5-.15,2.23,4.54,4.85,4.55,5.39.07,10.4-2.47,2.75-2.47,2.75-.09,5.39s2.31,4.9-.09,7.41a8.51,8.51,0,0,1-1.52,1.21C243,647,243,647,245.19,649.45c2.68,2.94,2.41,6.87-.62,9.68-2.82,2.62-6.41,3.51-9.9,4.54a10.34,10.34,0,0,0-4.89,3.08c-2.33,2.51-4.85,2.93-7.84,1.37-2.45-1.28-4.88-2.61-7.31-3.93-.49-.27-1.14-.48-1-1.24s.8-.73,1.36-.82c3.85-.63,7.7-1.29,11.56-1.86,3.46-.51,5.4-2.9,6.68-5.87,1.06-2.48-.17-4.58-1.95-6.22-1.45-1.33-1.39-2.38-.05-3.72a35.36,35.36,0,0,0,2.45-3.09c2.19-2.76,2.1-4.14-.42-6.61s-2.47-2.76.41-4.94c3.46-2.62,3.75-6,.8-9.39-2-2.3-2-2.55.34-4.45,4.82-3.89,4.83-9.53,0-13.47a11.46,11.46,0,0,1-2.2-2c-.51-.72.19-.73.7-.65,1.1.68,1.93.8,1.9-.93C234.89,598.66,234.61,598.31,235,597.81Z" transform="translate(-47.14 -377.08)" fill="#f69d27"/><path d="M134.12,669.34a141.18,141.18,0,0,0,14.23-10.28C161.22,648.42,172.11,636.21,178,620c4.29-11.89,5.25-24.21,4.66-36.75a4.3,4.3,0,0,1,.29-2.85,17.78,17.78,0,0,1,3.18,6.44c2.4,9.4,4.29,18.93,2.8,28.68-2.8,18.22-12.53,31.94-27.05,42.36a83,83,0,0,1-24.76,11.66C136.33,669.77,135.84,669.73,134.12,669.34Z" transform="translate(-47.14 -377.08)" fill="#0f79d3"/><path d="M205.51,465.26c3.09,2.46,6.4,2,9.71.66,1.66-.67,3.21-1.62,4.84-2.37,1.05-.48,2.09-.8,3.18.16,7.9,7,16.4,3.12,20.36-3.59.71-1.21,1.62-2.29,2.39-3.46.36-.54.74-.94,1.39-.69s.5.8.5,1.29c0,3.8-1.6,7.06-3.55,10.13-4.11,6.48-10.74,7.56-17.42,3.42-.21-.13-.39-.3-.6-.43-4-2.39-4-2.38-7.46.73-2.83,2.53-6.83,2.82-10.73.77-.21-.11-.38-.3-.59-.44-3.69-2.58-7-4.21-10.83.41-2.21,2.65-5.93,1.67-8.91.16a13.55,13.55,0,0,1-2.39-1.16c-3.06-2.44-6-2.52-8.93.22-4.17,3.86-8.46,1.89-12.41-.3-4.81-2.67-7.91-7-9.62-12.32a7.09,7.09,0,0,1-.32-1.7c0-.67-.05-1.42.73-1.69s1.25.37,1.55.93a9.68,9.68,0,0,1,1.13,2.73c.81,4.8,2.93,6.45,7.66,7.89,5.16,1.57,9-.25,12.73-3.39,1.13-1,1.88-.73,3,0,3.17,2.16,6.35,4.39,10.46,4.18a4.79,4.79,0,0,0,3.88-2.08C198.68,466.51,202.09,465.51,205.51,465.26Z" transform="translate(-47.14 -377.08)" fill="#f3b067"/><path d="M202.5,554.64c.64-10.83,1.45-21.53,3.14-32.18a187.15,187.15,0,0,1,4.15-20.75,86.86,86.86,0,0,1,10.72-24.47c.62-.95,1.21-2.43,2.55-1.5a2.82,2.82,0,0,1,.93,3.77,38.09,38.09,0,0,0-2.85,6.87q-3,10.55-5.45,21.24-2.38,10.44-4.28,21c-1.13,6.38-2.25,12.77-2.83,19.25-.37,4-1.18,8-1.87,12.06-.15.84-.35,2-1.55,1.88a2.63,2.63,0,0,1-2.35-2.26A48.11,48.11,0,0,1,202.5,554.64Z" transform="translate(-47.14 -377.08)" fill="#f3b067"/><path d="M205.51,465.26c-3.42.25-6.83,1.25-10.26.09-5.82-2-9.12-6.49-9.07-12.24s3.61-10.17,9.44-11.95a14.7,14.7,0,0,1,12.92,1.72c8.12,5.33,7.69,16.41-.82,21.32C207,464.61,206.25,464.91,205.51,465.26Zm-5.22-19.19a7.24,7.24,0,0,0-7.67,6.95,7.58,7.58,0,0,0,7.43,7.65c4.16.12,7.61-2.87,7.69-6.67C207.84,449.22,205,446.18,200.29,446.07Z" transform="translate(-47.14 -377.08)" fill="#43b552"/><path d="M198,546.45c0,1.77.15,3.49-.88,5.1-.53.82-.94.85-1.46.17-1.73-2.27-3.44-4.32-3.58-7.64a148,148,0,0,0-2.06-19.37c-1.43-8.08-3.54-16-5.31-24a125.3,125.3,0,0,0-7-21.74c-.22-.53-.27-1.13-.47-1.68a1.13,1.13,0,0,1,.39-1.53c.73-.42,1.25,0,1.63.62,1.93,3,4.2,5.83,5.35,9.41,1.63,5,3.91,9.83,5.45,14.88a146.58,146.58,0,0,1,6.35,31.16C196.81,536.7,197.48,541.57,198,546.45Z" transform="translate(-47.14 -377.08)" fill="#f3b067"/><path d="M201,395.16c1.21-.12,1.83.46,1.86,1.85s-.55,2-1.88,2-2.58-.66-2.56-2C198.45,395.78,199.6,395.1,201,395.16Z" transform="translate(-47.14 -377.08)" fill="#f3b067"/><path d="M145.7,433.2c1,.12,2.09.33,2.15,1.74s-.78,1.94-2,2.07a2,2,0,0,1-2.41-1.85C143.43,434.08,144.33,433.25,145.7,433.2Z" transform="translate(-47.14 -377.08)" fill="#f3b067"/><path d="M184.05,411a1.82,1.82,0,0,1-1.59-1.94,1.88,1.88,0,0,1,2.18-1.83c1.31,0,2.33.83,2.2,2.1C186.74,410.32,185.77,411.11,184.05,411Z" transform="translate(-47.14 -377.08)" fill="#f3b067"/><path d="M219.51,409a2.17,2.17,0,0,1-2.28,2,1.94,1.94,0,1,1,.15-3.83A2.22,2.22,0,0,1,219.51,409Z" transform="translate(-47.14 -377.08)" fill="#f3b067"/><path d="M262.21,411.86c-.63-.85-2.21-.55-2.19-2a2.29,2.29,0,0,1,2-2.22,2.21,2.21,0,0,1,2.24,1.87C264.39,410.64,263.21,411.2,262.21,411.86Z" transform="translate(-47.14 -377.08)" fill="#f3b067"/><path d="M159.74,400c-2.63,0-4.07-1.18-3.9-4l0,0a1.25,1.25,0,0,0,1.1.27c2.91-.15,3.07.06,2.55,3.1,0,.19.18.42.27.62Z" transform="translate(-47.14 -377.08)" fill="#f9a735"/><path d="M229.37,421c-1.08.05-1.93-.29-1.81-1.65a1.92,1.92,0,0,1,2-2c1,.06,2.15.56,2,2S230.66,421.13,229.37,421Z" transform="translate(-47.14 -377.08)" fill="#f3b067"/><path d="M159.73,400a4.48,4.48,0,0,1,1.64.34c.88.58,2.27,1.07,1.62,2.54s-2,1.44-3.14.88c-1.35-.67-1.18-1.78-.24-2.86.16-.19.09-.59.13-.9Z" transform="translate(-47.14 -377.08)" fill="#f3b067"/><path d="M178.92,427.38c1.6-.06,1.64,1.49,1.7,2.28s-1,1.38-2,1.26a1.8,1.8,0,0,1-1.82-1.66C176.78,428.05,177.73,427.44,178.92,427.38Z" transform="translate(-47.14 -377.08)" fill="#f3b067"/><path d="M185.94,416.06a1.56,1.56,0,0,1-1.86-1.65,1.9,1.9,0,0,1,2-2,2,2,0,0,1,2,2.11C188.12,416,187.1,416,185.94,416.06Z" transform="translate(-47.14 -377.08)" fill="#f3b067"/><path d="M255.84,433.23c1.16,0,2,.31,2,1.64a1.89,1.89,0,0,1-2,2.06,1.75,1.75,0,0,1-1.91-2C254,433.59,254.74,433.18,255.84,433.23Z" transform="translate(-47.14 -377.08)" fill="#f3b067"/><path d="M151.24,439.81c-.92-.49-2.15-.53-2.18-2s1-1.76,2.1-1.8a1.62,1.62,0,0,1,1.88,1.76C153,438.93,152.12,439.38,151.24,439.81Z" transform="translate(-47.14 -377.08)" fill="#f3b067"/><path d="M234.41,414.6a1.83,1.83,0,0,1-1.8,2,1.85,1.85,0,0,1-2-2c0-1.19.8-1.5,1.8-1.52S234.36,413.22,234.41,414.6Z" transform="translate(-47.14 -377.08)" fill="#f9a735"/><path d="M201,404.26c-1.14,0-1.92-.45-2-1.72a1.94,1.94,0,0,1,1.89-2.14,2,2,0,0,1,2,2.08C202.93,403.88,201.9,404,201,404.26Z" transform="translate(-47.14 -377.08)" fill="#f3b067"/><path d="M257.15,412.2a1.75,1.75,0,0,1,2,1.47c0,.72-.28,1.92-1.4,1.93a2,2,0,0,1-2.25-1.78C255.38,412.76,256.24,412.32,257.15,412.2Z" transform="translate(-47.14 -377.08)" fill="#f9a735"/><path d="M155.82,425.12c-1.11,0-2-.36-2-1.64a2,2,0,0,1,1.95-1.86,1.77,1.77,0,0,1,1.9,1.82C157.75,424.77,157,425.15,155.82,425.12Z" transform="translate(-47.14 -377.08)" fill="#f9a735"/><path d="M158.25,440.15c-.4.78-.64,1.74-1.72,1.84a1.89,1.89,0,0,1-2.14-1.63c-.18-1.05.73-1.6,1.63-1.82C157.27,438.23,157.67,439.29,158.25,440.15Z" transform="translate(-47.14 -377.08)" fill="#f9a735"/><path d="M161.88,427.08c-.12,1.21-.76,1.87-1.9,1.8a1.74,1.74,0,0,1-1.76-1.9,2,2,0,0,1,2.11-1.62C161.44,425.38,161.85,426.08,161.88,427.08Z" transform="translate(-47.14 -377.08)" fill="#f9a735"/><path d="M164.84,433c-1.3-.17-2.22-.59-2.26-1.77s.33-2,1.64-2a1.92,1.92,0,0,1,2.2,1.77C166.54,432.28,165.35,432.45,164.84,433Z" transform="translate(-47.14 -377.08)" fill="#f3b067"/><path d="M250.68,436c.87.32,2.06.1,2.1,1.61s-1,1.77-2.11,1.8a1.71,1.71,0,0,1-1.86-1.87C248.81,436.3,249.76,436.1,250.68,436Z" transform="translate(-47.14 -377.08)" fill="#f3b067"/><path d="M245.76,442.09c-1.52-.08-2.35-.64-2.33-1.8a1.77,1.77,0,0,1,1.87-1.86,1.86,1.86,0,0,1,1.9,1.86C247.2,441.4,246.67,442.22,245.76,442.09Z" transform="translate(-47.14 -377.08)" fill="#f3b067"/><path d="M165.82,407a2,2,0,0,1-1.91,1.78A1.79,1.79,0,0,1,162,407c0-1.31,1-1.77,2.17-1.8S165.67,405.91,165.82,407Z" transform="translate(-47.14 -377.08)" fill="#f3b067"/><path d="M226.58,422.15a1.56,1.56,0,0,1,1.9,1.68,1.76,1.76,0,0,1-1.89,1.8c-.87-.07-1.94-.44-2-1.81S225.43,422.15,226.58,422.15Z" transform="translate(-47.14 -377.08)" fill="#f3b067"/><path d="M200.8,406.09c1,0,2,.1,2,1.53a1.92,1.92,0,0,1-2.08,1.95,1.76,1.76,0,0,1-1.69-2C199.05,406.38,199.78,406.05,200.8,406.09Z" transform="translate(-47.14 -377.08)" fill="#f3b067"/><path d="M212.7,422.39c.89.34,1.71.85,1.73,1.84a1.73,1.73,0,0,1-1.88,1.8c-1.07.05-1.74-.4-1.67-1.58S211.79,422.82,212.7,422.39Z" transform="translate(-47.14 -377.08)" fill="#f3b067"/><path d="M247.89,420.29c1,.1,1.93.58,1.93,1.77a1.81,1.81,0,0,1-1.72,1.76,1.75,1.75,0,0,1-1.91-1.82C246.13,420.88,246.8,420.36,247.89,420.29Z" transform="translate(-47.14 -377.08)" fill="#f3b067"/><path d="M189.38,419.38a1.69,1.69,0,0,1-2,1.62,1.82,1.82,0,0,1-1.9-1.8,1.49,1.49,0,0,1,1.73-1.59C188.19,417.72,189.3,418,189.38,419.38Z" transform="translate(-47.14 -377.08)" fill="#f3b067"/><path d="M215.89,416c-1.34.06-2.15-.29-2.1-1.65a1.64,1.64,0,0,1,1.86-1.8c1,.07,2,.39,1.95,1.75S216.86,416.11,215.89,416Z" transform="translate(-47.14 -377.08)" fill="#f3b067"/><path d="M191,424.2c-.3,1.08-.81,1.84-2,1.86-.94,0-1.57-.33-1.66-1.39a1.86,1.86,0,0,1,1.75-2C189.9,422.51,190.65,423.24,191,424.2Z" transform="translate(-47.14 -377.08)" fill="#f3b067"/><path d="M215.86,419.32c-.19.92-.61,1.62-1.62,1.52a1.63,1.63,0,0,1-1.69-1.74c0-.9.38-1.77,1.4-1.66A2,2,0,0,1,215.86,419.32Z" transform="translate(-47.14 -377.08)" fill="#f9a735"/><path d="M252.81,419.92c-1-.29-1.8-.76-1.79-2s.87-1.57,1.77-1.6a1.69,1.69,0,0,1,1.81,1.85C254.56,419.13,253.75,419.69,252.81,419.92Z" transform="translate(-47.14 -377.08)" fill="#f3b067"/><path d="M170,417.8c-.73-.76-2.17-.47-2.15-1.81a1.77,1.77,0,0,1,1.88-1.81,1.43,1.43,0,0,1,1.74,1.52C171.59,416.9,170.56,417.07,170,417.8Z" transform="translate(-47.14 -377.08)" fill="#f3b067"/><path d="M242,443a2,2,0,0,1-1.72,1.85,1.73,1.73,0,0,1-1.82-1.64,1.66,1.66,0,0,1,1.65-1.79C241.16,441.27,241.65,442.07,242,443Z" transform="translate(-47.14 -377.08)" fill="#f3b067"/><path d="M202.75,413.05c-.3.92-.89,1.75-1.82,1.69a1.76,1.76,0,0,1-1.8-1.91,1.67,1.67,0,0,1,1.88-1.55A1.85,1.85,0,0,1,202.75,413.05Z" transform="translate(-47.14 -377.08)" fill="#f3b067"/><path d="M167,409.47c.81.44,1.61.79,1.6,1.93S168,413,166.92,413a1.83,1.83,0,0,1-2-1.76C164.82,409.87,166.32,410.16,167,409.47Z" transform="translate(-47.14 -377.08)" fill="#f3b067"/><path d="M202.74,417.94a2.13,2.13,0,0,1-1.64,1.93,1.63,1.63,0,0,1-2-1.66,1.74,1.74,0,0,1,1.67-1.77C201.77,416.3,202.32,417.14,202.74,417.94Z" transform="translate(-47.14 -377.08)" fill="#f3b067"/><path d="M168.94,433.22c1,0,1.54.49,1.47,1.54s-.67,1.92-1.57,1.84a2,2,0,0,1-1.87-2A1.66,1.66,0,0,1,168.94,433.22Z" transform="translate(-47.14 -377.08)" fill="#f3b067"/><path d="M177.36,424.62c0,1.23-.71,1.94-1.63,1.84s-1.87-.6-1.84-1.66.9-1.63,2-1.59S177.4,423.75,177.36,424.62Z" transform="translate(-47.14 -377.08)" fill="#f3b067"/><path d="M240.17,430.36a1.8,1.8,0,0,1-3.59-.19c-.07-1.19,1.12-1.45,1.87-1.53C239.36,428.55,240.05,429.27,240.17,430.36Z" transform="translate(-47.14 -377.08)" fill="#f3b067"/><path d="M201,421.93c.71.21,1.73.16,1.71,1.29a1.76,1.76,0,0,1-1.9,1.78c-1.06.07-1.68-.35-1.66-1.54S200,422.08,201,421.93Z" transform="translate(-47.14 -377.08)" fill="#f3b067"/><path d="M225.3,428.42a1.8,1.8,0,0,1-1.81,1.54,1.64,1.64,0,0,1-1.72-1.69c0-1.22,1-1.43,1.9-1.38S225.3,427.2,225.3,428.42Z" transform="translate(-47.14 -377.08)" fill="#f3b067"/><path d="M243,424.58c.72.4,1.86.32,2,1.49a1.59,1.59,0,0,1-1.65,1.77,1.77,1.77,0,0,1-1.86-1.6C241.32,425.28,242.08,424.81,243,424.58Z" transform="translate(-47.14 -377.08)" fill="#f3b067"/><path d="M174.36,420.88A1.43,1.43,0,0,1,172.8,422a1.67,1.67,0,0,1-1.81-1.62,1.57,1.57,0,0,1,1.92-1.46C173.8,419,174.51,419.33,174.36,420.88Z" transform="translate(-47.14 -377.08)" fill="#f3b067"/><path d="M233.78,432.72c.8.37,1.56.77,1.51,1.9s-.59,1.43-1.55,1.44a1.45,1.45,0,0,1-1.58-1.47C232,433.37,233,433.19,233.78,432.72Z" transform="translate(-47.14 -377.08)" fill="#f3b067"/><path d="M163.46,442.9a1.8,1.8,0,0,1-1.75,1.54c-.83.07-1.72-.16-1.8-1.23a1.63,1.63,0,0,1,1.6-1.83C162.58,441.26,163,442.16,163.46,442.9Z" transform="translate(-47.14 -377.08)" fill="#f3b067"/><path d="M168.42,445.59c0,.87-.3,1.38-1.22,1.48a1.7,1.7,0,0,1-2-1.33c-.13-.83.63-1.42,1.58-1.44S168.4,444.45,168.42,445.59Z" transform="translate(-47.14 -377.08)" fill="#f3b067"/><path d="M230.84,438.64a2,2,0,0,1-1.69,1.41c-.94.06-1.55-.28-1.59-1.34a1.24,1.24,0,0,1,1.22-1.47C229.85,437.11,230.38,437.76,230.84,438.64Z" transform="translate(-47.14 -377.08)" fill="#f3b067"/><path d="M210.84,428.22c.87,0,1.78,0,1.7,1.21a1.6,1.6,0,0,1-1.6,1.53c-1.17.06-1.44-1-1.58-1.84C209.16,427.83,210.38,428.56,210.84,428.22Z" transform="translate(-47.14 -377.08)" fill="#f3b067"/><path d="M236.44,445.69a1.43,1.43,0,0,1-1.69,1.38c-.93,0-1.3-.5-1.29-1.4a1.21,1.21,0,0,1,1.34-1.38A1.44,1.44,0,0,1,236.44,445.69Z" transform="translate(-47.14 -377.08)" fill="#f3b067"/><path d="M183.19,433.75c0,1.1-.67,1.36-1.58,1.36a1.25,1.25,0,0,1-1.39-1.34c0-1,.54-1.45,1.52-1.46S183.25,432.7,183.19,433.75Z" transform="translate(-47.14 -377.08)" fill="#f3b067"/><path d="M200.81,427.25a1.6,1.6,0,0,1,1.61,1.54c0,.88-.83,1.31-1.76,1.24-.77-.06-1.56-.16-1.42-1.2A1.78,1.78,0,0,1,200.81,427.25Z" transform="translate(-47.14 -377.08)" fill="#f3b067"/><path d="M190.63,431c-1,.05-1.58-.44-1.54-1.45a1.29,1.29,0,0,1,1.45-1.32c1,0,1.54.41,1.5,1.47A1.2,1.2,0,0,1,190.63,431Z" transform="translate(-47.14 -377.08)" fill="#f3b067"/><path d="M210.72,434.7a1.23,1.23,0,0,1-1.4,1.32c-.89,0-1.31-.46-1.31-1.38s.5-1.27,1.38-1.29S210.7,433.8,210.72,434.7Z" transform="translate(-47.14 -377.08)" fill="#f3b067"/><path d="M222.15,432.89c-.42.88-1,1.41-1.93,1.3-.8-.09-1.52-.29-1.35-1.32.14-.79.64-1.47,1.48-1.3S221.93,432,222.15,432.89Z" transform="translate(-47.14 -377.08)" fill="#f3b067"/><path d="M201.43,435.12c-1.37-.09-2-.63-1.94-1.38a1.47,1.47,0,0,1,1.53-1.26,1.43,1.43,0,0,1,1.41,1.36C202.4,434.51,201.79,435.14,201.43,435.12Z" transform="translate(-47.14 -377.08)" fill="#f3b067"/><path d="M174.41,438.45c-.08.93-.7,1.25-1.63,1.33s-1.23-.14-1.19-1,.51-1.54,1.51-1.52C173.81,437.22,174.39,437.45,174.41,438.45Z" transform="translate(-47.14 -377.08)" fill="#f3b067"/><path d="M173.34,448.36a1.41,1.41,0,0,1-1.44,1.27,1.35,1.35,0,0,1-1.24-1.27c0-1,.67-1.27,1.43-1.24A1.15,1.15,0,0,1,173.34,448.36Z" transform="translate(-47.14 -377.08)" fill="#f3b067"/><path d="M186,438.17c0,.9-.68,1.13-1.32,1.14s-1.26-.23-1.32-1.09a1,1,0,0,1,1.13-1.24C185.27,437,186,437.25,186,438.17Z" transform="translate(-47.14 -377.08)" fill="#f3b067"/><path d="M229.75,447.24c.56.07,1.28,0,1.39.93s-.54,1.16-1.19,1.2-1.34,0-1.43-.93S228.94,447.28,229.75,447.24Z" transform="translate(-47.14 -377.08)" fill="#f3b067"/><path d="M178.39,442.31c-.06.76-.58.9-1.18.86a.86.86,0,0,1-.85-1c0-.73.4-1,1.06-1S178.42,441.62,178.39,442.31Z" transform="translate(-47.14 -377.08)" fill="#f3b067"/><path d="M235.26,599c0,1.73-.8,1.61-1.9.93C234.1,599.82,234.86,599.79,235.26,599Z" transform="translate(-47.14 -377.08)" fill="#f9a735"/><path d="M236.59,600.87c-.86-.25-1-.75-.51-1.5Z" transform="translate(-47.14 -377.08)" fill="#f9a735"/><path d="M236.84,597.63c-.14-.52-.15-1,.4-1.33A1.42,1.42,0,0,1,236.84,597.63Z" transform="translate(-47.14 -377.08)" fill="#f9a735"/><path d="M237.25,595.29l.12-.19-.1.21Z" transform="translate(-47.14 -377.08)" fill="#f69d27"/></g><g id="Layer_2" data-name="Layer 2"><path d="M440.46,530l.17,1.81v2.48a17.32,17.32,0,0,1-.76,6.14,8.73,8.73,0,0,1-2.84,4.42,8.07,8.07,0,0,1-4.6,1.39l-4.38.08-.8.09-.59.08-1.3.21a6.9,6.9,0,0,0-1.48.25l-.75.21-.8.34-3,1a10,10,0,0,1-2,.38l-1.05.08-1,0-1.6,0-.67-.08-.51-.17c-1.31-.42-2.3-1.68-2.94-3.79a20.21,20.21,0,0,1-.25-2.69v-2.1a20.13,20.13,0,0,1,1.09-6.06,9.89,9.89,0,0,1,1.56-3.29,14.9,14.9,0,0,1,6.8-4.71c.42-.17.9-.33,1.43-.5l1.86-.51,1.9-.38a14,14,0,0,1,3-.33c1.35,0,2.1.29,2.24.88a22.66,22.66,0,0,1,2.57-.84,13.29,13.29,0,0,1,3-.3Q439.24,524.14,440.46,530Zm-17.29-2a1.48,1.48,0,0,0-.36-1.08,1.25,1.25,0,0,0-1-.48,3.87,3.87,0,0,0-2.14.93,10.65,10.65,0,0,0-1.73,1.68l-.38.46-.38.55a12.92,12.92,0,0,0-1.55,4.29,18.64,18.64,0,0,0-.38,3.54v5.51l.08.59.17,1.09q.47,2.4,3.45,2.4t3.24-3.2ZM435,534.29q0-5.43-1.05-7.16a3,3,0,0,0-1.51-1.3l-.51-.17-.71-.08-.68,0-.71.21a2.65,2.65,0,0,0-1.1.71l-.5,5.94-.59,11.36c0,1.15.57,1.72,1.81,1.72a5.44,5.44,0,0,0,3-.8,4.42,4.42,0,0,0,1.64-2.4A26.89,26.89,0,0,0,435,534.29Zm15.4,3.24-.12.25a9.14,9.14,0,0,1-2.91.42l-1.26-.09a2.77,2.77,0,0,1-2.1-1.38,5.62,5.62,0,0,1-.68-1.48l-.33-1a1,1,0,0,0-.93-.75l-.25,0-5.22,1.18-.17-.72,11.87-2.36c.34,0,.5.24.5.72v.84l.17,1.18.25.84A4.68,4.68,0,0,0,450.39,537.53Z" transform="translate(-47.14 -377.08)"/><path d="M475.51,523.39a14.42,14.42,0,0,1-.46,2.69l-1.35,5.85-3,11.45a20.07,20.07,0,0,0-.79,3.87,1.31,1.31,0,0,0,.84,1.22l-.34.63-.84.08-1.52.17-.92.13-.72,0-.71,0a1.74,1.74,0,0,1-.59-.09c-1.18-.22-1.73-.85-1.64-1.89v-.8l.09-.42.2-.51,3.43-12.63a5.38,5.38,0,0,0-1.14.13l-1.25.3L463,534a13.31,13.31,0,0,1-3.44.34,3.1,3.1,0,0,1-1.13-.21,2.21,2.21,0,0,1-1.26-1.69l-.21-1.72-.3-7a2.6,2.6,0,0,0,0-.46l-.13-.46a.82.82,0,0,0-.19-.4,1,1,0,0,0-.44-.32l.09-.21,2-.71,1.33-.38a4.71,4.71,0,0,1,1.19-.13,1.61,1.61,0,0,1,1.11.38,1.83,1.83,0,0,1,.47,1.31l.08,1.64v2.31l.17,3.83a4,4,0,0,0,.44,1.85,1.63,1.63,0,0,0,1.41.51h1.05a4.43,4.43,0,0,0,.59-.09,6.11,6.11,0,0,0,1.77-.76l1.17-4.42.72-3.53.09-.8v-.71a3.49,3.49,0,0,0-.12-1.27,1.44,1.44,0,0,0-.6-.8l.09-.25,1.77-.42a8.45,8.45,0,0,1,1.89-.29,3.77,3.77,0,0,1,1.85.33,3,3,0,0,1,.76.8,2.75,2.75,0,0,1,.38,1.73v1Z" transform="translate(-47.14 -377.08)"/><path d="M506.65,526.58l-.25.3h-1a9.34,9.34,0,0,1-2.82-.42,3.41,3.41,0,0,1-2.28-2.78l-.29-1.39q-.33-.91-1.77-1l-.92,0a8.48,8.48,0,0,0-4.25,1,5.19,5.19,0,0,0-2.27,2.65,12.94,12.94,0,0,0-1.23,5.34v.59l.13.88a3.78,3.78,0,0,0,1.47,2.4,4.25,4.25,0,0,0,2,.8,13.09,13.09,0,0,0,2.36.13l1.22-.09,2.1-.12a3.79,3.79,0,0,1,2.91.59,2.57,2.57,0,0,1,.63,1.89v.59l-.09.38-1.38,9a1.62,1.62,0,0,0,.92,1.64l-.33.42-2.07.21-2,.08a4.74,4.74,0,0,1-2.19-.25,1,1,0,0,1-.55-1.05l.08-.68,1.44-9a2.41,2.41,0,0,0-1-2.1,4.07,4.07,0,0,0-2.46-.72c-.15,0-1.41.14-3.79.42a7.9,7.9,0,0,1-1.22.13,3.66,3.66,0,0,1-3.45-2.27,4.9,4.9,0,0,1-.55-2.23,24.62,24.62,0,0,1,.17-3.37,8.35,8.35,0,0,1,3.32-5.81,13.37,13.37,0,0,1,6.23-2,43,43,0,0,1,5.64-.21l5.05,0a2.69,2.69,0,0,1,1.53.28A1.68,1.68,0,0,1,506,522v.92l0,.89A4.09,4.09,0,0,0,506.65,526.58Z" transform="translate(-47.14 -377.08)"/><path d="M554.16,548.41l-.17.3-1.77.55-1.3.3-1.1.08h-.25a2.58,2.58,0,0,1-1.64-.49,2.92,2.92,0,0,1-.8-2l-.5-4.84-.46-5.09a3.48,3.48,0,0,0-.71-2.29,2.9,2.9,0,0,0-2.36-.87,2.15,2.15,0,0,0-1.39.51,9.23,9.23,0,0,0-1.22,1.3,27.93,27.93,0,0,0-1.69,2.95,16,16,0,0,0-1.6,6.69c0,1.88.3,3,.88,3.36l-.16.55h-1.06l-.71.07-2.44.18a3.13,3.13,0,0,1-2.06-.42,3.51,3.51,0,0,1-.42-2.14,17.85,17.85,0,0,1,2-7.22l.67-1.47.84-1.6.84-1.47,1.35-1.93Q538,532,540.23,529l.13-.21.12-.29.13-.46a.73.73,0,0,0-.21-.46,1,1,0,0,0-.8-.26l-.93,0a12.88,12.88,0,0,1-1.26.3l-1.14.25-.67.09c-.39,0-.59-.3-.59-.89v-5a3.28,3.28,0,0,0-.84-2.6l.08-.3,1.27-.38a13.27,13.27,0,0,1,1.64-.38l.8-.08h.33a1.08,1.08,0,0,1,1,.42,3.19,3.19,0,0,1,.44,1.68l.34,3.87c.06,1,.23,1.53.51,1.73a4.27,4.27,0,0,0,2.39.42h1.81q.93,0,.93.3a7.07,7.07,0,0,1-.38.71l-.5.76-3.75,5.47,3.79-1.22,1.39-.34a4.67,4.67,0,0,1,1.18-.17q4,0,4.41,3.54l1.35,11.19A2.59,2.59,0,0,0,554.16,548.41Zm8.67-3-.3.38-.29.46-.63,1a4.62,4.62,0,0,0-.34,1.68,3.29,3.29,0,0,0,1.35,2.53l-.13.16A8,8,0,0,1,560,552l-.47,0-1-.08a3,3,0,0,1-1.31-.63,5.2,5.2,0,0,1-.92-1.14,3.3,3.3,0,0,0-.51-.84,3,3,0,0,0-.5-.13h-.26l-3.83.34-3.49.12.46-.46h.72c.22,0,.39,0,.51-.08.81-.17,1.22-.49,1.22-1a.86.86,0,0,0-.13-.42H551l.67.33.72.22.8.16h1.56a1,1,0,0,0,.58-.16l.47-.43.21-.46.25-.5a3.47,3.47,0,0,1,.93-1.22,4.68,4.68,0,0,1,2.86-.8h.71l1.1.17a3.68,3.68,0,0,1,.84.16Z" transform="translate(-47.14 -377.08)"/><path d="M581.47,529.91a5.76,5.76,0,0,1-.21,1.3l-3.83,13.93c-.42,1.6-.64,2.48-.64,2.65a.92.92,0,0,0,.72.89l-.21.42a16,16,0,0,0-2.06.19,18.54,18.54,0,0,1-2.06.19c-1.55,0-2.32-.57-2.32-1.69a6.27,6.27,0,0,1,.13-1.14l4.07-13.54a10.19,10.19,0,0,0,.47-2.53c0-.59-.15-.92-.46-1a1.59,1.59,0,0,0-.42-.08,9.51,9.51,0,0,0-2.44.5c-.51.17-1.12.35-1.83.53a8.13,8.13,0,0,1-2,.27c-1.18,0-1.75-.84-1.72-2.52l.12-6.4c-.05-.45-.08-.7-.08-.76a1.5,1.5,0,0,0-.63-.84v-.42l1.64-.25c.92-.14,1.91-.25,2.94-.34h.21c1.1,0,1.63.59,1.6,1.77l-.12,6.44q0,1.26,1.17,1.26a11.81,11.81,0,0,0,2.45-.55,11.4,11.4,0,0,1,2.77-.54,2.6,2.6,0,0,1,2.09.73A2.43,2.43,0,0,1,581.47,529.91Z" transform="translate(-47.14 -377.08)"/><path d="M611.47,527.3l-.13.3-1.35.25-.93.08-.42,0a5.92,5.92,0,0,1-2.59-.56,4.67,4.67,0,0,1-2-1.62,6.32,6.32,0,0,1-.88-1.9l-.34-1.09a1,1,0,0,0-1-.68l-.47,0a8.89,8.89,0,0,0-2.27.54l-1.06.34-1.05.55a8.43,8.43,0,0,0-3.25,3.36L593,528.6l-.3.89-.21.8-.38,2-.25,2.19-.21,2.35v7.28a2.18,2.18,0,0,0,.08.89l.25.92a2.48,2.48,0,0,0,2.64,2h2.22l.5,0,.71,0a3.64,3.64,0,0,0,2-.56,3.51,3.51,0,0,0,.73-1.18,3.73,3.73,0,0,1,.9-1.35,8.2,8.2,0,0,1,1.72-.95l.54-.13.8-.21h2.51l.21.21a24.8,24.8,0,0,0-.34,3.41c0,1.82.49,3,1.47,3.49l-.12.25-.68.09-.71.08-1.35.05h-1.18a3.85,3.85,0,0,1-3.24-1.65,1.62,1.62,0,0,0-1.26-.8h-.29l-.59.09-.76,0-1.47.21a39,39,0,0,1-4.17.34l-2.65.12a6,6,0,0,1-1.68-.16l-.38-.13-.25-.13a3.44,3.44,0,0,1-.68-.54,7.89,7.89,0,0,1-1.85-3.92,37.63,37.63,0,0,1-.29-4.16,33.26,33.26,0,0,1,1.55-10,12.59,12.59,0,0,1,2-4,7.43,7.43,0,0,1,1.39-1.47l.76-.55.84-.5c.23-.14.86-.46,1.9-1l.92-.38,1.1-.34a15.24,15.24,0,0,1,3.11-.71l1.05-.17,3.7-.42,1.94-.08,4,0c.56,0,.88.1,1,.28a4.41,4.41,0,0,1,.16,1.24l0,2.61,0,.42.21.67A2,2,0,0,0,611.47,527.3Z" transform="translate(-47.14 -377.08)"/><path d="M638.31,516.36a5.42,5.42,0,0,0-1,3.58,1.87,1.87,0,0,0,.8,1.81l-.17.21h-.67l-1.23.12-.68-.08-1.14-.25a2.05,2.05,0,0,1-.89-.76l-.25-.76a.54.54,0,0,0-.55-.34l-1.23.17a1.06,1.06,0,0,0-.63.26,1.09,1.09,0,0,0-.17.71v2.19l1.48,0,.72,0a3.55,3.55,0,0,1,1.31.42,4.48,4.48,0,0,1,2.46,2.91l.17.84v.88a5.53,5.53,0,0,1-.34,2.27,4.54,4.54,0,0,1-.8,1.65,5,5,0,0,1-1.3,1.13,4.71,4.71,0,0,1-2.44.93l-1.14.12-1.3.09h-.55a2.18,2.18,0,0,0-.55,0l-1.76.13a3.63,3.63,0,0,0,.46,1.3,4.79,4.79,0,0,0,.59,1.14,2,2,0,0,0,.67.63,3.12,3.12,0,0,0,1.05.17,4.85,4.85,0,0,0,1-.09l1.18-.25.42-.13,1.35-.25,1.39-.08a2.71,2.71,0,0,1,.92.08,1.85,1.85,0,0,1,1.18.61,1.59,1.59,0,0,1,.3,1.1l-.09.88-.46,4.68c-.08.78-.13,1.4-.13,1.84a3.2,3.2,0,0,0,.17,1.28,2,2,0,0,0,.51.6l-.17.38-1.35.5-1.39.29-.88.13-.88.12a2.49,2.49,0,0,1-1.64-.42,1.45,1.45,0,0,1-.55-1.43l0-.8.8-5.8a12.43,12.43,0,0,0,.13-1.39c0-.42-.1-.69-.3-.8a6.42,6.42,0,0,0-1.26-.13l-1.31.13c-2,.17-2.8.26-2.44.29h-.63l-.46,0-.63-.17-.46-.12-.47-.26-.5-.16-.46.12-.47.3-.76.5a.86.86,0,0,0-.29.67v.21l.08.93a3.59,3.59,0,0,1-1.64,3.37,8.9,8.9,0,0,1-1.89.8l-2.4.38-.12-.17a5.41,5.41,0,0,0,.58-1.18l.13-.8.08-.93a4.14,4.14,0,0,0-.16-1.43l0-.42a.45.45,0,0,1,.13-.33l.55-.22.8-.21,1-.33.88-.3a6.84,6.84,0,0,0,3.16-2c-.48-1-.82-1.81-1-2.32a10.64,10.64,0,0,1-.59-2.44l-.09-1v-1a8,8,0,0,1,.46-2.56,7.28,7.28,0,0,1,1.17-2.36,6.12,6.12,0,0,1,3.84-2.27l.17-2.32v-.67c-.05-.17-.24-.25-.55-.25h-2.53a4.53,4.53,0,0,0-.68.08,1.24,1.24,0,0,0-.46.57,2.83,2.83,0,0,1-2,1.7l-1.27.13-1.43.08h-.89l-.42-.08-.09-.29a2,2,0,0,0,.8-1.18l.25-.89.09-.88a3.92,3.92,0,0,0-.59-2.27l.21-.17,1.72-.25.8,0a2.79,2.79,0,0,1,2.18.64,3,3,0,0,1,.84,1.24c.23.54.52.8.88.78l9.58-.55a.49.49,0,0,0,.5-.38,5,5,0,0,1,.26-.63,3.91,3.91,0,0,1,2-1.68l.84-.17,1.05,0h.65l.61,0Zm-7.23,10.69q0-3.12-2.19-3.12a3,3,0,0,0-2.32,1.18,4.8,4.8,0,0,0-1,2.36l-.13.92-.08,1.14a9.52,9.52,0,0,0,.12,1.85v.42l0,.47.13.58a8.53,8.53,0,0,0,.42.8q3.75,0,4.63-3.87A11.73,11.73,0,0,0,631.08,527.05Zm14.85,18.39-.3.38-.29.46-.63,1a4.62,4.62,0,0,0-.34,1.68,3.29,3.29,0,0,0,1.35,2.53l-.13.16a8,8,0,0,1-2.48.38l-.46,0-1-.09a2.79,2.79,0,0,1-1.3-.64,4.78,4.78,0,0,1-.93-1.15,3.22,3.22,0,0,0-.51-.85,2.75,2.75,0,0,0-.5-.13h-.25l-3.83.38-3.49.12.46-.5H632l.51-.08c.81-.17,1.22-.48,1.22-.94a.73.73,0,0,0-.13-.41h.42l.68.32.71.19.8.16h1.56a1.07,1.07,0,0,0,.59-.16l.46-.42.21-.46.25-.5a3.46,3.46,0,0,1,.93-1.2,4.75,4.75,0,0,1,2.86-.79h.72l1.09.17a3.5,3.5,0,0,1,.84.16Z" transform="translate(-47.14 -377.08)"/><path d="M708.25,527.72,703,547.58a1.26,1.26,0,0,0,.84,1.31l-.29.42-2.07.21-2,.12q-2.82.14-2.82-1.44a3.34,3.34,0,0,1,.24-1.16l4.52-15.11a21.64,21.64,0,0,0-3,.25l-2.86.46h-.67a3,3,0,0,1-2.57-1,2.77,2.77,0,0,1-.38-.84l-.08-.71v-.8l.25-4a4.38,4.38,0,0,0-.38-2.57,1.73,1.73,0,0,0-1.6-.63,1.66,1.66,0,0,0-1.47.67,4.73,4.73,0,0,0-.51,1.6l-1,4.71q-.33,1.44-.63,2.4a5.67,5.67,0,0,1-1.05,1.94,3.73,3.73,0,0,1-1.94,1.09l-1.13.25-1.39.21-2.78.34-.59.09-1,.25a12.82,12.82,0,0,1-2.77.42,6.33,6.33,0,0,1-3.08-.59,2.25,2.25,0,0,1-.82-.93,2.7,2.7,0,0,1-.31-1.43v-1.85l.08-.29.13-.63a8.42,8.42,0,0,1,1.81-3.62l.64-.72.46-.5a11.94,11.94,0,0,1,2.4-1.94,11.36,11.36,0,0,1,6.24-1.89l4.09.12.76-.08h.17l.17,0,.46-.13,2.15-.57a16.67,16.67,0,0,1,4.18-.56h1.35c1.49-.06,2.37.4,2.66,1.38l1.47-.5,1.73-.51a12.36,12.36,0,0,1,3.42-.5,4.44,4.44,0,0,1,3.88,1.6,4.6,4.6,0,0,1,.8,3v.88a1.73,1.73,0,0,1,0,.29l-.08.3-.12,1.13Zm-26.09-2.44.08-.59,0-.5a1.32,1.32,0,0,0-.19-.82.84.84,0,0,0-.66-.4l-.68-.05c-1,0-2.09.83-3.22,2.49a14.65,14.65,0,0,0-1,1.85l-.51,1.3-.34,1a7.57,7.57,0,0,0-.3,2.23c0,1.63.6,2.44,1.78,2.44l.42,0a3.46,3.46,0,0,0,1.66-.5,3,3,0,0,0,1.35-2l.47-1.47A45.44,45.44,0,0,0,682.16,525.28Zm20.91-.75a2.41,2.41,0,0,0-.61-1.69,1.86,1.86,0,0,0-1.62-.59h-.29a4.9,4.9,0,0,0-1.73.46l-1,.47v1.55l-.08.47-.17,2.06-.13,1.77a1.41,1.41,0,0,0,.47,1.22,6,6,0,0,0,1.4.54l.51,0,.38,0,.55-.08.93-.2,1-3.11.3-1.65A5.7,5.7,0,0,0,703.07,524.53Zm11.45,20.91-.3.38-.29.46-.63,1A4.62,4.62,0,0,0,713,549a3.29,3.29,0,0,0,1.35,2.53l-.13.16a8,8,0,0,1-2.48.38l-.46,0-1-.08a3.05,3.05,0,0,1-1.31-.63,5.2,5.2,0,0,1-.92-1.14,3.3,3.3,0,0,0-.51-.84,2.75,2.75,0,0,0-.5-.13h-.25l-3.83.34-3.5.12.47-.46h.71a5.08,5.08,0,0,0,.51-.08c.81-.17,1.22-.49,1.22-1a.76.76,0,0,0-.13-.42h.42l.68.33.71.22.8.16h1.56a1.07,1.07,0,0,0,.59-.16l.46-.43.21-.46.25-.5a3.47,3.47,0,0,1,.93-1.22,4.68,4.68,0,0,1,2.86-.8h.71l1.1.17a3.5,3.5,0,0,1,.84.16Z" transform="translate(-47.14 -377.08)"/><path d="M733.71,529.9a4.88,4.88,0,0,1-.26,1.3l-3.8,13.94c-.41,1.6-.62,2.48-.62,2.65a.92.92,0,0,0,.72.89l-.21.42a16,16,0,0,0-2.06.19,18.54,18.54,0,0,1-2.06.19c-1.55,0-2.32-.56-2.32-1.69a5.32,5.32,0,0,1,.17-1.13l4-13.55a10.47,10.47,0,0,0,.46-2.53c0-.59-.15-.92-.46-1l-.42-.08a4.28,4.28,0,0,0-1,.17,11.14,11.14,0,0,0-1.39.33l-1.81.55a7.46,7.46,0,0,1-2,.25c-1.18,0-1.75-.84-1.72-2.53l.12-6.42-.08-.76a1.21,1.21,0,0,0-.63-.85v-.42l1.64-.25q2.1-.3,2.61-.3h.54c1.1,0,1.63.59,1.6,1.77l-.12,6.44a1.23,1.23,0,0,0,.63,1.18,4.67,4.67,0,0,0,.54.08,11.22,11.22,0,0,0,2.4-.5,12.64,12.64,0,0,1,1.85-.51l1-.08a4.51,4.51,0,0,1,.82.06,3.55,3.55,0,0,1,.7.23A1.86,1.86,0,0,1,733.71,529.9Zm7.74,15.54-.3.38-.29.46-.63,1a4.62,4.62,0,0,0-.34,1.68,3.29,3.29,0,0,0,1.35,2.53l-.13.16a8,8,0,0,1-2.48.38l-.46,0-1-.08a3,3,0,0,1-1.31-.63,5.2,5.2,0,0,1-.92-1.14,3.3,3.3,0,0,0-.51-.84,2.75,2.75,0,0,0-.5-.13h-.25l-3.83.34-3.5.12.47-.46h.71a5.08,5.08,0,0,0,.51-.08c.81-.17,1.22-.49,1.22-1a.76.76,0,0,0-.13-.42h.42l.67.33.72.22.8.16h1.56a1.07,1.07,0,0,0,.59-.16l.46-.43.21-.46.25-.5a3.47,3.47,0,0,1,.93-1.22,4.68,4.68,0,0,1,2.86-.8h.71l1.1.17a3.5,3.5,0,0,1,.84.16Z" transform="translate(-47.14 -377.08)"/><path d="M765.64,549a15.33,15.33,0,0,1-2.23.42l-1.09.17-1.47.09a1.87,1.87,0,0,1-2.07-2v-5.48l.21-6.28v-5.18a4.35,4.35,0,0,0-1.7-3.88,2,2,0,0,0-1-.38l-.67-.08H754.1a3.92,3.92,0,0,0-2.41,1.43,8.22,8.22,0,0,0-1.25,2.78l-.33,1.78-.29,2.11-.17,4.51c0,1.86,0,3.49.05,4.9a12.23,12.23,0,0,0,.28,1.94l.1.58.18.71c.23.87.64,1.31,1.24,1.31v.33l-2.31.42-2.44.34a2.16,2.16,0,0,1-2.15-1.43l-.5-2v-6.23c.06-1.57.14-3,.25-4.12a14.79,14.79,0,0,1,.64-3.16,12.53,12.53,0,0,1,1.94-3.41,16.89,16.89,0,0,1,2.88-2.48l1.53-1-1.48-2.11-1.34-2.27-.34-.76-.17-.67c0-.53.53-.91,1.6-1.14l2.57-.25,2.65-.12,0,.16v.09a.79.79,0,0,1,0,.33,1,1,0,0,0-.38.34l-.13.46,0,.3.21.46a15.32,15.32,0,0,0,1.42,2.32,5.45,5.45,0,0,0,1.89,1.81l4.31,1.85a5.68,5.68,0,0,1,2.56,5v15.87a1.87,1.87,0,0,0,.88,1.47Z" transform="translate(-47.14 -377.08)"/><path d="M799,534.62l-.08.25a7.32,7.32,0,0,1-1.9.3,4,4,0,0,1-3.28-1.26,3.9,3.9,0,0,1-.8-1.73,6.91,6.91,0,0,0-.33-1.43,1,1,0,0,0-1-.71l-.46,0-3.79.33-1,10.49,2.64-.32a30.78,30.78,0,0,1,3.58-.24,3.37,3.37,0,0,1,2.49.93,3.87,3.87,0,0,1,.92,2.82q0,3.28-5,4.29a14.73,14.73,0,0,1-2.86.3c-.17,0-1.32.19-3.45.59a13.82,13.82,0,0,1-1.81.16,2.7,2.7,0,0,1-1.93-.63,3.14,3.14,0,0,1-.76-2.48l.08-1.05,1.6-14.35-4.58.38c-.79.08-1.3.66-1.52,1.72a4.86,4.86,0,0,1-1.64,2.82,5.17,5.17,0,0,1-3.41,1,6.91,6.91,0,0,1-1.3-.12l0-.3a4.47,4.47,0,0,0,1.14-3.36l0-.76v-.5a.3.3,0,0,1,0-.13v-.13a.62.62,0,0,1,.14-.46,2,2,0,0,1,.87-.17l10.52-.84.5-6.23c.06-1.23-.18-2-.71-2.4l.12-.38,4.93-.84c1,0,1.43.56,1.43,1.69v.54a.76.76,0,0,0-.05.21l-.08.72-.59,6.27,9.22-.72a1.66,1.66,0,0,1,1.17.17c.2.17.28.54.26,1.1V532A3.23,3.23,0,0,0,799,534.62Zm-8.08,10.19q0-2.61-2.31-2.82l-.63-.09a4.36,4.36,0,0,0-.85.13l-.84.12-.12,1.81-.13,2.19A1.86,1.86,0,0,0,788.2,548Q790.93,548,790.93,544.81Z" transform="translate(-47.14 -377.08)"/><path d="M828.8,527.3l-.13.3-1.34.25-.93.08-.42,0a6,6,0,0,1-2.6-.56,4.7,4.7,0,0,1-2-1.62,6.32,6.32,0,0,1-.89-1.9l-.33-1.09a1,1,0,0,0-1-.68l-.46,0a9,9,0,0,0-2.28.54l-1.05.34-1.06.55A8.34,8.34,0,0,0,811,527l-.72,1.64-.3.89-.21.8-.38,2-.25,2.19-.21,2.35v7.28a2.18,2.18,0,0,0,.08.89l.26.92a2.48,2.48,0,0,0,2.63,2h2.22l.5,0,.71,0a3.61,3.61,0,0,0,2-.56,3.49,3.49,0,0,0,.74-1.18,3.73,3.73,0,0,1,.9-1.35,7.8,7.8,0,0,1,1.71-.95l.55-.13.79-.21h2.51l.21.21a26.51,26.51,0,0,0-.34,3.41c0,1.82.5,3,1.48,3.49l-.13.25-.67.09-.72.08-1.34.05h-1.18a3.83,3.83,0,0,1-3.24-1.65,1.63,1.63,0,0,0-1.26-.8h-.3l-.59.09-.76,0-1.47.21a39,39,0,0,1-4.16.34l-2.65.12a6.06,6.06,0,0,1-1.69-.16l-.38-.13-.25-.13a3.43,3.43,0,0,1-.67-.54,7.89,7.89,0,0,1-1.85-3.92,35.62,35.62,0,0,1-.3-4.16,33,33,0,0,1,1.56-10,12.2,12.2,0,0,1,2-4,7.15,7.15,0,0,1,1.39-1.47l.75-.55.85-.5c.22-.14.85-.46,1.89-1l.93-.38,1.09-.34a15.24,15.24,0,0,1,3.11-.71l1.06-.17,3.7-.42,1.93-.08,4,0c.56,0,.89.1,1,.28a4.28,4.28,0,0,1,.17,1.24l0,2.61,0,.42.21.67C828.2,526.67,828.46,527.13,828.8,527.3Z" transform="translate(-47.14 -377.08)"/><path d="M293.63,612.33l0,.36,0,.39a.68.68,0,0,1,0,.19l-.05.22-.14.39a3.07,3.07,0,0,1-.68,1.12,2.26,2.26,0,0,1-.73.56,8,8,0,0,1-1.27.39l-2.16.43.28.67.29.58.13.34.15.45.14.66a5.45,5.45,0,0,1,.05.58l.05,2.19a1.39,1.39,0,0,0,.24.71v.1l-1,.14a4.68,4.68,0,0,1-.88.07h-.31l-.15,0a.33.33,0,0,1-.22-.34v-1.92a11.45,11.45,0,0,0-.08-1.33l0-.22,0-.13-.12-.34a1.77,1.77,0,0,0-.15-.41l-.17-.39-.27-.63-.21-.6-.13-.42-.14-.63a3,3,0,0,1-.05-.56v-.63l0-.2a2.74,2.74,0,0,1,2.09-2.43l1.36-.31.79-.15.89-.15.86-.1h.16A1.42,1.42,0,0,1,293.63,612.33Zm-2.31.91.1-.41v-.38a.87.87,0,0,0-.24-.73.81.81,0,0,0-.67-.25h-.13a2.36,2.36,0,0,0-1.76,1,2.73,2.73,0,0,0-.58,1.75v.17a.62.62,0,0,0,0,.21,4.2,4.2,0,0,0,.12.76l.17.56a6.35,6.35,0,0,0,1-.26l.19-.06.12-.07a2.25,2.25,0,0,0,1-.82A3.38,3.38,0,0,0,291.32,613.24Z" transform="translate(-47.14 -377.08)" fill="#3d3775"/><path d="M304.42,622.45l-.07.12-.71.23-.53.12-.44,0h-.1a1,1,0,0,1-.66-.2,1.19,1.19,0,0,1-.33-.82l-.2-1.95-.18-2.06a1.41,1.41,0,0,0-.29-.92,1.2,1.2,0,0,0-1-.35.91.91,0,0,0-.56.2,5.07,5.07,0,0,0-.49.53,12.26,12.26,0,0,0-.68,1.19,6.5,6.5,0,0,0-.65,2.7c0,.76.12,1.21.36,1.36l-.07.22h-.42l-.29,0-1,.07a1.27,1.27,0,0,1-.83-.17,1.43,1.43,0,0,1-.17-.86A7.19,7.19,0,0,1,296,619l.27-.59.34-.65.34-.59.54-.78c.3-.38.74-1,1.33-1.76l.05-.09,0-.12.05-.18a.34.34,0,0,0-.08-.19.42.42,0,0,0-.33-.1l-.37,0-.51.11-.46.11-.27,0q-.24,0-.24-.36v-2a1.31,1.31,0,0,0-.34-1.05l0-.12.51-.15a6.74,6.74,0,0,1,.67-.16l.32,0H298a.46.46,0,0,1,.4.17,1.35,1.35,0,0,1,.17.68l.14,1.56c0,.39.09.62.2.7a1.78,1.78,0,0,0,1,.17h.73c.25,0,.38,0,.38.12l-.16.29-.2.3-1.51,2.21,1.53-.49.56-.14a2.06,2.06,0,0,1,.47-.07,1.55,1.55,0,0,1,1.79,1.43l.54,4.52A1,1,0,0,0,304.42,622.45Zm3.5-1.2-.12.16-.12.18-.25.41a2,2,0,0,0-.14.68,1.34,1.34,0,0,0,.54,1l-.05.07a3.36,3.36,0,0,1-1,.15l-.19,0-.39,0a1.17,1.17,0,0,1-.52-.25,2.38,2.38,0,0,1-.38-.46,1.14,1.14,0,0,0-.2-.34l-.2-.05h-.11l-1.54.13-1.41.05.18-.18h.29l.21,0c.33-.07.49-.2.49-.39a.37.37,0,0,0-.05-.17h.17l.27.14.29.08.32.07h.63a.4.4,0,0,0,.24-.07l.19-.17.08-.18.1-.21a1.38,1.38,0,0,1,.38-.49,1.87,1.87,0,0,1,1.15-.32h.29l.44.06a1.83,1.83,0,0,1,.34.07Z" transform="translate(-47.14 -377.08)" fill="#3d3775"/><path d="M321.76,617.23l-.08.08h-.27a4,4,0,0,1-1.62-.25,1.45,1.45,0,0,1-.76-.94c-.08-.35-.13-.56-.15-.62a.54.54,0,0,0-.55-.43h-1.87l-1,5.9a2.81,2.81,0,0,0-.05.57,2.13,2.13,0,0,0,.09.67.57.57,0,0,0,.28.35l-.07.09a4.11,4.11,0,0,0-.64.06,6.73,6.73,0,0,1-1.09.17.73.73,0,0,1-.83-.83v-.15a1.09,1.09,0,0,1,0-.17l.07-.39,1.07-6.18-1.76.05c-.23,0-.43.26-.62.78a5,5,0,0,1-.25.66,2.45,2.45,0,0,1-.46.49,1.58,1.58,0,0,1-.7.33c-.23,0-.5.07-.79.1l-.55,0-.08-.1a2.85,2.85,0,0,0,.68-2.23q0-.36.12-.39a1.58,1.58,0,0,1,.37,0l4.13-.09.52-3.18c0-.47-.32-.71-1-.71h-1.33a1,1,0,0,0-.53.14l-.1-.12a1.53,1.53,0,0,0,.19-.82,2.87,2.87,0,0,0-.44-1.61l.12-.09h.41l.64,0a1.48,1.48,0,0,1,1.25.48,1.53,1.53,0,0,1,.21.76v.6q0,.54.66.57l.12,0h.12l.92-.05c.63,0,.95.21.95.68a3.19,3.19,0,0,1,0,.42l-.53,2.89,4.53-.1a.55.55,0,0,1,.28,0c.06,0,.08.08.08.18l0,.22a8.93,8.93,0,0,0-.13,1C321.29,616.71,321.45,617.07,321.76,617.23Z" transform="translate(-47.14 -377.08)" fill="#3d3775"/><path d="M333.6,616.63a2.44,2.44,0,0,1-.88.16,1.5,1.5,0,0,1-1.36-.56,3,3,0,0,1-.24-.63v-.17A.7.7,0,0,0,331,615c-.06-.07-.2-.1-.42-.1h-.86a2.48,2.48,0,0,1-.84.73,5.1,5.1,0,0,1-1.2.36l-2.25.46.14.3.46.89.09.2.1.27.17.58a4.22,4.22,0,0,1,.12,1l0,2.19a1.28,1.28,0,0,0,.25.71v.1l-1,.14a4.68,4.68,0,0,1-.88.07h-.29l-.17,0a.34.34,0,0,1-.2-.34v-1.92a8.49,8.49,0,0,0-.1-1.33l-.21-.69-.17-.46-.42-1-.16-.44-.18-.58a3.85,3.85,0,0,1-.17-1.19v-.83a2.76,2.76,0,0,1,2.08-2.43,13.3,13.3,0,0,1,1.36-.31l.81-.15L328,611a3.22,3.22,0,0,1,.86-.1H329a1.55,1.55,0,0,1,1.53,1.39l0,.38v.2l0,.29a1.07,1.07,0,0,1-.11.38,2.92,2.92,0,0,1-.35.81l.37,0h2.29a.61.61,0,0,1,.41.09l0,.14v1.2a.94.94,0,0,0,.39.66Zm-5.33-3.39.08-.41v-.37a.88.88,0,0,0-.23-.74.82.82,0,0,0-.69-.25h-.12a2.44,2.44,0,0,0-1.76,1,2.35,2.35,0,0,0-.4.84,4.58,4.58,0,0,0-.14,1.12,4.9,4.9,0,0,0,.06.93l.05.24.14.39.61-.14.41-.11a3.14,3.14,0,0,0,1.5-1.28A11.38,11.38,0,0,0,328.27,613.24Z" transform="translate(-47.14 -377.08)" fill="#3d3775"/><path d="M346.72,615.41l-.12.17-.49,0h-.84l-.2,0-.2-.1a1.17,1.17,0,0,1-.6-.6c0-.08-.11-.36-.24-.85,0-.24-.19-.36-.47-.35l-1.26.07a2.26,2.26,0,0,1,.05.47,2.32,2.32,0,0,1-.12.8,4.79,4.79,0,0,1-1.2,1.78l-.5.46-.54.56.62,0,1,0h.15a1.78,1.78,0,0,1,.95.29,1.24,1.24,0,0,1,.36.74l.19,1.52v.93a3.7,3.7,0,0,0,.08.76.85.85,0,0,0,.44.58l-.1.17-.95.09-.92,0a.89.89,0,0,1-.71-.26A1.23,1.23,0,0,1,341,622v-1.73a2.25,2.25,0,0,0-.39-1.46,1.12,1.12,0,0,0-.87-.48.57.57,0,0,0-.4.15l-.84.88-.42.53-.36.45a2,2,0,0,0-.32.72,3.41,3.41,0,0,0-.14.82.78.78,0,0,0,.34.75l-.13.13-.94.09-1,.07a.63.63,0,0,1-.54-.26,1.57,1.57,0,0,1-.14-.73,3.72,3.72,0,0,1,.22-1.18,2.69,2.69,0,0,1,.22-.51l.34-.54a10.26,10.26,0,0,1,1.63-1.83l.63-.58.63-.54H338l-1,0a2.35,2.35,0,0,1-.85-.14,1.25,1.25,0,0,1-.61-.56l-.09-.19-.05-.23,0-.53a2.17,2.17,0,0,1,.49-1.46,2.09,2.09,0,0,1,.68-.58l.2-.12.17-.07.22-.1.24-.08.39-.12c.06,0,.09-.14.09-.31v-1.51a.49.49,0,0,0,0-.24,2.6,2.6,0,0,0-.3-.35l.17-.22.85-.06.69,0a.78.78,0,0,1,.66.22.74.74,0,0,1,.19.51v1.82a7.07,7.07,0,0,1,1.2.37,2.11,2.11,0,0,1,.65.45,1.07,1.07,0,0,1,.24.3l3.93-.25q.19,0,.18.15v.22l0,.27v.31A1.36,1.36,0,0,0,346.72,615.41Zm-6.63-1.29c-.11-.77-.51-1.16-1.19-1.16h-.1l-.12,0a1.07,1.07,0,0,0-.68.37l-.22.34-.08.24-.07.22-.09.48v.66a1.44,1.44,0,0,0,.29.77,1.08,1.08,0,0,0,.37.22,4.21,4.21,0,0,0,.53.08h.18l.1,0a2.26,2.26,0,0,0,.68-.77,2.5,2.5,0,0,0,.4-1.29Z" transform="translate(-47.14 -377.08)" fill="#3d3775"/><path d="M357.88,613.05v.46a.85.85,0,0,1,0,.17.71.71,0,0,1,0,.23l-.1.26a2.74,2.74,0,0,1-1.28,1.54l-.8.27-1.43.26-1.45.2.16.72.08.34.14.4.18.43.19.51.31.71.42.89.05.15,0,.1s-.06.1-.17.17a12.61,12.61,0,0,0-3,.95.81.81,0,0,0-.53.75,1.14,1.14,0,0,1-.19.73,1.23,1.23,0,0,1-.62.44l-1.13.41-.22.05-.18.07-.29.1-.09-.08L348,624l.12-.34.05-.24.06-.44,0-.22v-.16a.54.54,0,0,0,0-.17,1.9,1.9,0,0,0-.06-.35c-.05-.16-.11-.33-.17-.51l.05-.14.74-.19.82-.15.15,0a.72.72,0,0,1,.51.31,1.42,1.42,0,0,0,.21.1.68.68,0,0,0,.22,0l.22-.07.29-.13.29-.19c.22-.14.34-.25.34-.34a.45.45,0,0,0-.06-.2l-.1-.19-.27-.73-.48-1.12a8.49,8.49,0,0,1-.56-3.21,3.13,3.13,0,0,1,.2-1.08,6.13,6.13,0,0,1,.47-1,4,4,0,0,1,1.79-1.52,5.21,5.21,0,0,1,1.55-.45l.85-.12c.2,0,.46,0,.76,0h.22l.38,0,.56.18.17.09.14.12a2.17,2.17,0,0,1,.34.73l.05.37Zm-2.16-.6a4.57,4.57,0,0,0,0-.49,1.51,1.51,0,0,0-.22-.36.68.68,0,0,0-.19-.08l-.18,0h-.19l-.2,0-.22.09-.12.07a3.09,3.09,0,0,0-1.37,1.42,3.84,3.84,0,0,0-.54,1.89v.19l0,.29a.84.84,0,0,0,0,.23l.05.24a7.25,7.25,0,0,0,1.36-.29,2.34,2.34,0,0,0,1.05-.8,3.45,3.45,0,0,0,.53-1.19l.15-.66.05-.3Z" transform="translate(-47.14 -377.08)" fill="#3d3775"/><path d="M381.24,621.45v.34l0,.05a1,1,0,0,1,0,.28,1,1,0,0,1-.11.34l-.05.17-.08.16a1.28,1.28,0,0,1-1.29.69h-1.23a.25.25,0,0,0-.13,0c-.44.12-.76.2-.95.23l-.4,0-.43,0a1.08,1.08,0,0,1-.88-.43,1.28,1.28,0,0,1-.35-.93v-.59a.49.49,0,0,0-.19-.51.89.89,0,0,0-.56-.11l-.88,0-.2,0-.56.19-1.75.72-1,.44a2.84,2.84,0,0,1-1.05.2h-.24l-.07,0-.3,0a1.27,1.27,0,0,1-1-1.19,1.57,1.57,0,0,1,0-.32,3.94,3.94,0,0,1,.3-1.5,6.35,6.35,0,0,1,.77-1.39l.36-.51.4-.46.85-.93.82-.92a7.57,7.57,0,0,0,.82-1.09,9.5,9.5,0,0,0,.69-1.2l.22-.55.05-.25v-.29a.7.7,0,0,0-.35-.73l.11-.15.89-.19.46-.07.44,0a.83.83,0,0,1,1,1v.2l0,.15,0,.17-.05.23a4.64,4.64,0,0,1-1.14,1.81l-.74.79-1.19,1.19L370.77,618h.17l.61-.13.73-.15.36-.05.32,0,.31,0a1.35,1.35,0,0,1,.78.36.75.75,0,0,1,.17.36l0,.23,0,.26,0,.25c0,.06,0,.19-.08.39l-.17.79v.13a.4.4,0,0,0,.1.24l.3.12.45.08.32,0a.76.76,0,0,0,.61-.38,1.45,1.45,0,0,1,.64-.46,3.63,3.63,0,0,1,1.25-.17h2.08l.19,0,.29.07Q381.24,620.2,381.24,621.45ZM372,619a.86.86,0,0,0-.66-.78h-.19a.62.62,0,0,0-.26,0l-.27,0-.2.34-.24.48c-.06.15-.12.37-.2.66l0,.34,0,.38a1.83,1.83,0,0,0,.13.74.77.77,0,0,0,.2.33.73.73,0,0,0,.33.2l.2,0a.78.78,0,0,0,.48-.15,1.56,1.56,0,0,0,.51-.76l.1-.31.09-.34.06-.36,0-.35v-.31Zm7.15,2.28a1.77,1.77,0,0,0-.08-.69.7.7,0,0,0-.36-.4l-.22-.05h-.35a.57.57,0,0,0-.49.33,1.48,1.48,0,0,0-.23.76l0,.41V622a2,2,0,0,0,.23,1.12.35.35,0,0,0,.27.13,1.33,1.33,0,0,0,.48-.13.9.9,0,0,0,.34-.24l.08-.14.14-.25.1-.24.11-.31v-.44Z" transform="translate(-47.14 -377.08)" fill="#3d3775"/><path d="M396.8,620.88a1.27,1.27,0,0,1-1,1.31l-.56.12-.82.1-1.68.3-.25,0a1.39,1.39,0,0,1-.65-.15,1.3,1.3,0,0,1-.43-.44l-.23-.58-.36-1.29a1,1,0,0,0-.25-.44.68.68,0,0,0-.46-.12l-.43,0-.39.07-1,.14-.41,0-.37,0a3,3,0,0,1-.54,0l-.22,0-.17-.08-.29-.15-.41.27a1.24,1.24,0,0,0-.25.72,5.26,5.26,0,0,1-.17.84l0,.16-.09.14-.22.27a2.8,2.8,0,0,1-2.28.76l-.08,0a2.35,2.35,0,0,0,.44-1.36c0-.3,0-.61.05-1,0,0,.11-.09.31-.17a13,13,0,0,0,1.37-.45l.31-.11.2-.12.6-.31a10.17,10.17,0,0,1-1.7-4.06,1.91,1.91,0,0,1-.05-.54l0-.34,0-.21a.68.68,0,0,1,.05-.17,3.76,3.76,0,0,1,.37-1,2.46,2.46,0,0,1,.7-.75,5.71,5.71,0,0,1,1.27-.82,5,5,0,0,1,1.57-.42l.4,0h.33a2,2,0,0,1,.64.08l.31.1.13.07a.38.38,0,0,1,.21.12,1.64,1.64,0,0,1,.86,1.3l0,.22,0,.25v.31c0,.09,0,.19,0,.29l-.08.37-.11.31a2.67,2.67,0,0,1-.75,1.17l-.27.21-.31.22-.73.32a4.11,4.11,0,0,1-.92.27l-1,.21c.68,1.42,1.27,2.19,1.78,2.33l.34.05.44,0h.88a5.12,5.12,0,0,0,2.28-.35,4.88,4.88,0,0,1,1-.33,3.06,3.06,0,0,1,.94-.13h.33a2,2,0,0,1,1.29.72,2.16,2.16,0,0,1,.37.78l.05.41Zm-7.67-8.36a1.07,1.07,0,0,0-.68-1l-.23,0a1.65,1.65,0,0,0-.63.17,3.25,3.25,0,0,0-.59.38,4.25,4.25,0,0,0-.36.42,4.79,4.79,0,0,0-.26.65l0,.3,0,.31,0,.47a5.15,5.15,0,0,0,.29,1.4l.34,1,.39-.12a2,2,0,0,0,1-.7,3.58,3.58,0,0,0,.65-1.47,4.56,4.56,0,0,0,.11-1.16v-.61Zm5.76,8.84,0-.46a3.51,3.51,0,0,0-.19-1.19,1.22,1.22,0,0,0-.34-.58A.75.75,0,0,0,394,619l-.19,0a1,1,0,0,0-.68.25.77.77,0,0,0-.27.65V620a3.06,3.06,0,0,0,.16.75l0,.13,0,.17.19.46c.17.48.45.7.85.68l.14,0a.91.91,0,0,0,.47-.27A4.13,4.13,0,0,0,394.89,621.36Z" transform="translate(-47.14 -377.08)" fill="#3d3775"/><path d="M410.88,619.33l-.09.11-.32,0h-.58l-.3,0a1.8,1.8,0,0,1-.44-.14,2.14,2.14,0,0,1-.58-.34l-.17-.22-.19-.34c-.13-.33-.3-.49-.49-.49l-.27,0a2.21,2.21,0,0,0-.9.27,1.2,1.2,0,0,0-.72,1.11l0,.54,0,.46a2,2,0,0,1,0,.32,1.09,1.09,0,0,1-.39.6l-.63.35-1.14.46-1.14.39c-.41.14-.69.23-.86.27a3.71,3.71,0,0,1-.89.12h-.47a1.84,1.84,0,0,1-1.52-.51,4,4,0,0,1-.61-1.63v-.29a2.21,2.21,0,0,1,.16-.88,3.09,3.09,0,0,1,.35-.83l.46-.66a4,4,0,0,1,.47-.46l2.06-1.9.6-.63.51-.63.23-.33.23-.33a4.77,4.77,0,0,0,.32-.67,2.16,2.16,0,0,0,.2-.83v-.19a1.22,1.22,0,0,0-.07-.17.51.51,0,0,0-.2-.22l.12-.12,1.77-.44c.56,0,.83.25.79.73v.24a5.42,5.42,0,0,1-.43,1.22l-.24.41a2.26,2.26,0,0,1-.28.43,5.17,5.17,0,0,1-.48.59,12.94,12.94,0,0,1-.92,1l-2.38,2.49-.58.75a2.13,2.13,0,0,0-.33.65l-.07.35v.43a1.63,1.63,0,0,0,.74,1.73l.32.11.36,0H402l.35,0a1,1,0,0,0,.76-.51,1,1,0,0,0,.14-.54V620.1a1.41,1.41,0,0,1,.47-1,3.16,3.16,0,0,1,.58-.39l.83-.38.32-.12.58-.18,1.75-.53.88-.22.94-.21A1.91,1.91,0,0,1,410,617a.28.28,0,0,1,.25.11,1,1,0,0,1,.07.42v.31l0,.28,0,.2.06.27A1.22,1.22,0,0,0,410.88,619.33Z" transform="translate(-47.14 -377.08)" fill="#3d3775"/><path d="M420.39,622.65l-.12.17-.85.08-.58,0h-.3a1,1,0,0,1-.71-.18,1.6,1.6,0,0,1-.23-.76c-.05-.52-.09-1.25-.11-2.19s-.06-1.75-.11-2.19a7.55,7.55,0,0,0-.23-1.36,3.86,3.86,0,0,0-.82-1.6l-.15-.15a.82.82,0,0,0-.27-.14.77.77,0,0,0-.48.26,2.6,2.6,0,0,0-.64.81l-.21.43-.24.61,0,.22-.12.56,0,.46v.41c0,.59,0,1,.19,1.1v.09l-1.8.22c-.23,0-.37-.07-.42-.23a3.45,3.45,0,0,1-.08-.88,7.73,7.73,0,0,1,.21-2,4.5,4.5,0,0,1,.76-1.7,6.54,6.54,0,0,1,1-1.09l1.12-.8-.51-.85a1.17,1.17,0,0,1-.22-.54q0-.28.78-.51l1.13-.32a5.57,5.57,0,0,0,.91,1.59l.63.8.51.78.31.49a9.71,9.71,0,0,1,.65,1.55,6.63,6.63,0,0,1,.34,1.38l.09.76v.73l.19,2.62a9.56,9.56,0,0,0,.11,1A1.58,1.58,0,0,0,420.39,622.65Z" transform="translate(-47.14 -377.08)" fill="#3d3775"/><path d="M433.27,613l.05.63a3.06,3.06,0,0,1-.09.83,3.84,3.84,0,0,1-1,1.78,2.24,2.24,0,0,1-1,.68L431,617l-.48.12-.3,0-.33,0-1.64,0-.65,4.63a.44.44,0,0,0,.15.39.8.8,0,0,0,.5.13h.39c.21,0,.35,0,.4-.1l.14-.29a1.18,1.18,0,0,1,.31-.39,1.82,1.82,0,0,1,.45-.24l.31,0H431l.77.07.18.1a1.65,1.65,0,0,0-.35,1,1.59,1.59,0,0,0,.62,1.25l-.15.22-.41,0h-1a1.46,1.46,0,0,1-.75-.17,1.14,1.14,0,0,1-.54-.48l-.22-.34a.54.54,0,0,0-.31-.15h-.61l-1.46.06-.71.06q-.87.06-.87-.75l0-.25.73-4.64-.73.07-.8,0a5.77,5.77,0,0,1-.9,0,1.69,1.69,0,0,1-1.58-1.26l-.05-.32,0-.36,0-.57.08-.45a3.3,3.3,0,0,1,.38-.9,4.21,4.21,0,0,1,.59-.74,4.53,4.53,0,0,1,3.06-1.21l.49,0h.6l1-.06,2.33-.28a6.37,6.37,0,0,1,1,.06,2.21,2.21,0,0,1,1.51.95A3.48,3.48,0,0,1,433.27,613Zm-6.51-.76a.14.14,0,0,0-.05-.11s-.1,0-.21,0a2.14,2.14,0,0,0-.82.18,2.65,2.65,0,0,0-1,1.18,3.36,3.36,0,0,0-.24.81l-.14.8v.61l0,.12a1.15,1.15,0,0,0,.21.73,1,1,0,0,0,.71.31h.13l.34,0,.17,0,.2-.07Zm4.18.87a1.08,1.08,0,0,0-.67-1.13,1.67,1.67,0,0,0-.72-.13l-.25,0a.36.36,0,0,0-.19,0l-.79,4.75h.46l.19,0a2.31,2.31,0,0,0,.46-.13,1.79,1.79,0,0,0,.85-.72,4.29,4.29,0,0,0,.3-.57l.26-.67.1-.61Z" transform="translate(-47.14 -377.08)" fill="#3d3775"/><path d="M452.16,622.12a.91.91,0,0,0,0,.31,1,1,0,0,0,.2.17l-.08.15-.67.1-.49,0-.63.05c-.5,0-.74-.2-.74-.71v-.15l0-.12.59-3.49a.68.68,0,0,0-.11-.34.71.71,0,0,0-.38-.1,2.17,2.17,0,0,0-.41.05l-.79.17-.4.07-.35,0a2.39,2.39,0,0,1-1.05-.19,1.68,1.68,0,0,1-.72-.52.88.88,0,0,0-.54.3,2.47,2.47,0,0,0-.19.54l-.1.82a1.3,1.3,0,0,1-.41.78,4.35,4.35,0,0,1-.75.49l-.47.17-.65.21v-.21a1.15,1.15,0,0,0,.17-.4l0-.22,0-.26,0-.56-.08-.36-.05-.2,0-.09a.1.1,0,0,1,.05-.08l.21-.14,2.54-1.22a4.55,4.55,0,0,1-.4-1.83V614.2a1.79,1.79,0,0,1,.13-.57l.14-.33a2.82,2.82,0,0,1,.73-1,3.36,3.36,0,0,1,.82-.47,7.25,7.25,0,0,1,1-.28l1.11-.17a8,8,0,0,1,1-.06,6.25,6.25,0,0,1,.78,0,1.34,1.34,0,0,1,.32.1l.14.07a.47.47,0,0,1,.19.12,1.34,1.34,0,0,1,.46.53l.1.3,0,.31,0,.35,0,.16-.07.2a3.81,3.81,0,0,1-.93,1.63l-.24.26-.25.2a3.43,3.43,0,0,1-.54.31,8.3,8.3,0,0,1-1.09.44l-1.19.27a1.33,1.33,0,0,0,.51.71.94.94,0,0,0,.71.29l.1,0h.34l.27-.07,1.23-.37.27-.06H452a.73.73,0,0,1,.85.86,3.15,3.15,0,0,1,0,.52ZM450,613.78l.15-.49,0-.22v-.19a1.18,1.18,0,0,0-.39-.88.61.61,0,0,0-.46-.17,1.1,1.1,0,0,0-.59.18,3.7,3.7,0,0,0-.46.44,2.44,2.44,0,0,0-.41.73,3,3,0,0,0-.15.82v.93a1.38,1.38,0,0,0,0,.26l0,.22a.82.82,0,0,0,0,.28,3.78,3.78,0,0,0,.15.45,1.94,1.94,0,0,0,1.14-.8l.54-.75.17-.35Zm6,7.47-.12.16-.11.18-.26.41a2,2,0,0,0-.14.68,1.35,1.35,0,0,0,.55,1l-.05.07a3.41,3.41,0,0,1-1,.15l-.19,0-.39,0a1.13,1.13,0,0,1-.53-.26,2,2,0,0,1-.37-.47,1.26,1.26,0,0,0-.21-.34l-.2,0h-.1l-1.55.15-1.41.05.19-.2h.29l.2,0c.33-.07.49-.2.49-.38a.28.28,0,0,0-.05-.17h.17l.27.13.29.08.33.06h.62a.45.45,0,0,0,.24-.06l.19-.17.08-.19.11-.2a1.48,1.48,0,0,1,.37-.49,1.94,1.94,0,0,1,1.16-.31h.28l.45.06a2,2,0,0,1,.34.07Z" transform="translate(-47.14 -377.08)" fill="#3d3775"/><path d="M473.15,613.51l.05.32,0,.29,0,.32v.09s0,.07,0,.08l-.05.22a1.67,1.67,0,0,1-1.23,1.28l-.59.18-1.07.28-1,.3a3.94,3.94,0,0,1-1.12.15,1.53,1.53,0,0,1-1.45-1.29l-.08-.73v-2.36c0-.53-.19-.8-.56-.8a.76.76,0,0,0-.66.46,5.38,5.38,0,0,0-.39,1.31l-.45,1.95c-.12.55-.25,1.23-.37,2.06l-.32,2.09a12.35,12.35,0,0,0-.14,1.61,1.55,1.55,0,0,0,.27,1.07l-.13.22-.46,0-.44,0-.9.14h-.41a.5.5,0,0,1-.6-.56v-.13l0-.16c.08-.77.2-1.54.36-2.32l.47-2.31h-.74l-.49,0-.64.08-.63.06-.51,0a1.27,1.27,0,0,1-1.35-1.15l-.07-.53a3.47,3.47,0,0,1,.19-1.19,3.29,3.29,0,0,1,1.47-2,6.39,6.39,0,0,1,3.42-.86l1.31,0a5.17,5.17,0,0,0,1-.12l.91-.2,1.18-.14.69,0a.87.87,0,0,1,.9.34,8.3,8.3,0,0,1,1.12-.36l1.18-.21h.2a2,2,0,0,1,1.48.71,3.27,3.27,0,0,1,.39.77Zm-10.21-1c0-.25-.15-.37-.46-.36l-.39,0a1.48,1.48,0,0,0-.36,0,1.9,1.9,0,0,0-.9.48,4,4,0,0,0-.38.51,6.05,6.05,0,0,0-.29.7l-.22.69-.11.68v.87a.78.78,0,0,0,.74.83l.57,0h.58l.22,0Zm8.12,2.62v-.55l-.05-.29a3.25,3.25,0,0,0-.17-.74l-.11-.34-.22-.62a1,1,0,0,0-.23-.45.72.72,0,0,0-.4-.28l-.3,0a2.6,2.6,0,0,0-.85.2l0,.46V613l.05,1.87,0,.2,0,.26.11.34a.78.78,0,0,0,.3.43.8.8,0,0,0,.55.2h.24l.22-.05a.88.88,0,0,0,.79-.94v-.12Z" transform="translate(-47.14 -377.08)" fill="#3d3775"/><path d="M483.5,615.82l-.77,6a.64.64,0,0,0,.43.67v.15l-.31,0h-.22l-.13,0-1.19.14c-.64,0-.95-.24-.95-.72V622l0-.24.9-6.51a1.48,1.48,0,0,0-.15-.68,1.54,1.54,0,0,0-.6-.49l-.17-.05-.2,0a2.06,2.06,0,0,0-1.24.46,2.2,2.2,0,0,0-.68.68l-.22.36-.22.44-.1.41a.23.23,0,0,0,.15.2l.54,0c.26,0,.39.08.39.17a2.35,2.35,0,0,1-.18.55l-.58,1.36a8.94,8.94,0,0,0-.51,1.54l-.15.68-.16,1v.1a.44.44,0,0,0,.24.41v.24l-1.07.12-.58,0a.9.9,0,0,1-.66-.18,1.32,1.32,0,0,1-.17-.82,3.09,3.09,0,0,1,.14-.94l.57-1.87.17-.46.22-.47a3.18,3.18,0,0,0,.33-.87c0-.12-.1-.18-.29-.17l-.49,0c-.37,0-.55-.07-.55-.27a1.24,1.24,0,0,1,.43-.76l.51-.57.54-.53c.11-.11.17-.19.17-.23s0-.07-.08-.07l-.21,0h-.8a1.78,1.78,0,0,1-.63-.07q-.3-.11-.27-.51v-.32l.14-.93.1-1v-.36a.63.63,0,0,0-.42-.63l.08-.13a6.8,6.8,0,0,0,.95-.24l.29-.07.26-.07h.3a.74.74,0,0,1,.63.2.86.86,0,0,1,.2.65v.2l0,.24-.32,2.11,0,.25q0,.42.33.42a1,1,0,0,0,.35-.06l.55-.18c.32-.12.81-.28,1.44-.47l.75-.13a3.23,3.23,0,0,1,.68-.06,3,3,0,0,1,1.81.52,2,2,0,0,1,.57.64c0,.09.06.22.11.38l.06.22v.24Z" transform="translate(-47.14 -377.08)" fill="#3d3775"/><path d="M497.58,619.33l-.08.11-.33,0h-.57l-.31,0a2,2,0,0,1-.44-.14,2.31,2.31,0,0,1-.58-.34l-.17-.22-.19-.34c-.13-.33-.3-.49-.49-.49l-.27,0a2.21,2.21,0,0,0-.9.27,1.17,1.17,0,0,0-.71,1.11l0,.54,0,.46a2,2,0,0,1,0,.32,1.09,1.09,0,0,1-.39.6l-.63.35-1.14.46-1.14.39c-.4.14-.69.23-.86.27a3.64,3.64,0,0,1-.89.12h-.47a1.81,1.81,0,0,1-1.51-.51,3.91,3.91,0,0,1-.61-1.63v-.29a2,2,0,0,1,.15-.88,3.45,3.45,0,0,1,.35-.83l.46-.66a4,4,0,0,1,.47-.46l2.06-1.9.6-.63.51-.63.24-.33.22-.33a3.86,3.86,0,0,0,.32-.67,2,2,0,0,0,.2-.83v-.19l-.06-.17a.62.62,0,0,0-.21-.22l.12-.12,1.77-.44c.56,0,.83.25.8.73l0,.24a4.94,4.94,0,0,1-.43,1.22l-.23.41a3,3,0,0,1-.29.43,5.17,5.17,0,0,1-.48.59c-.11.15-.42.47-.91,1l-2.39,2.49-.58.75a2.38,2.38,0,0,0-.33.65l-.07.35v.43a1.63,1.63,0,0,0,.74,1.73l.33.11.35,0h.12l.35,0a1,1,0,0,0,.76-.51,1,1,0,0,0,.14-.54V620.1a1.41,1.41,0,0,1,.47-1,3.16,3.16,0,0,1,.58-.39l.83-.38.33-.12.57-.18,1.75-.53.89-.22.93-.21a2,2,0,0,1,.36-.05.27.27,0,0,1,.25.11.86.86,0,0,1,.07.42v.31l0,.28,0,.2.07.27A1.17,1.17,0,0,0,497.58,619.33Z" transform="translate(-47.14 -377.08)" fill="#3d3775"/><path d="M507.94,622.41l-.08.15-.85.31-.34,0-.36,0a1.3,1.3,0,0,1-.75-.13.85.85,0,0,1-.34-.58l-.15-7.2a5.23,5.23,0,0,0-.12-.55,1.38,1.38,0,0,0-.61-.88,1.21,1.21,0,0,0-.5-.19,1.61,1.61,0,0,0-1.17.55,3.45,3.45,0,0,0-.77,1.21,11.38,11.38,0,0,0-.36,1.44l-.09.9v.94l.05,2.76a1.42,1.42,0,0,1,0,.3l.09.38a1.47,1.47,0,0,0,.3.78l-.05.1-.29.05-.59.07L500,623a.58.58,0,0,1-.59-.34,2.49,2.49,0,0,1-.19-.71l-.08-1.09,0-1.13,0-.37,0-.53v-.84a5.37,5.37,0,0,1,.19-1.37,5.12,5.12,0,0,1,.95-1.83,5.47,5.47,0,0,1,1.29-1l.57-.34a.44.44,0,0,0,.16-.17l0-.39-.1-1.69-.05-.22a.52.52,0,0,0-.22-.27l0-.09.6-.17,1-.18.29,0a.42.42,0,0,1,.48.29,2.91,2.91,0,0,1,.06.61l.06,1.8a3.5,3.5,0,0,1,2.14,1.09,3.28,3.28,0,0,1,.71,1.7c0,.31.08,1,.1,2l.12,4.31C507.68,622.21,507.78,622.36,507.94,622.41Zm3.91-1.16-.12.16-.12.18-.25.41a2,2,0,0,0-.14.68,1.32,1.32,0,0,0,.55,1l-.06.07a3.36,3.36,0,0,1-1,.15l-.19,0-.39,0a1.15,1.15,0,0,1-.52-.26,2,2,0,0,1-.38-.47,1.3,1.3,0,0,0-.2-.34l-.2,0h-.11l-1.54.15-1.41.05.19-.2h.28l.21,0c.33-.07.49-.2.49-.38a.37.37,0,0,0-.05-.17h.17l.27.13.29.08.32.06h.63a.48.48,0,0,0,.24-.06l.19-.17.08-.19.1-.2a1.48,1.48,0,0,1,.38-.49,1.93,1.93,0,0,1,1.15-.31H511l.44.06a1.83,1.83,0,0,1,.34.07Z" transform="translate(-47.14 -377.08)" fill="#3d3775"/><path d="M523,613.05v.46l0,.17a1.09,1.09,0,0,1-.06.23l-.1.26a2.74,2.74,0,0,1-1.28,1.54l-.8.27-1.43.26-1.45.2.16.72.09.34.13.4.18.43.19.51.31.71.42.89.05.15,0,.1s-.06.1-.17.17a12.75,12.75,0,0,0-3,.95.81.81,0,0,0-.53.75,1.21,1.21,0,0,1-.18.73,1.3,1.3,0,0,1-.63.44l-1.12.41-.23.05-.18.07-.29.1-.09-.08.16-.27.12-.34,0-.24.06-.44,0-.22v-.16a.35.35,0,0,0,0-.17,1.9,1.9,0,0,0-.06-.35c0-.16-.11-.33-.17-.51l0-.14.75-.19.81-.15.15,0a.72.72,0,0,1,.51.31l.21.1a.63.63,0,0,0,.22,0l.22-.07.29-.13.29-.19c.22-.14.34-.25.34-.34a.58.58,0,0,0-.05-.2l-.11-.19-.27-.73-.47-1.12a8.3,8.3,0,0,1-.56-3.21,3.11,3.11,0,0,1,.19-1.08,6.13,6.13,0,0,1,.47-1,4,4,0,0,1,1.79-1.52,5.3,5.3,0,0,1,1.55-.45l.85-.12c.2,0,.46,0,.76,0h.23l.37,0,.56.18.17.09.14.12a2.17,2.17,0,0,1,.34.73l.05.37Zm-2.16-.6a4.57,4.57,0,0,0,0-.49,1.51,1.51,0,0,0-.22-.36.68.68,0,0,0-.19-.08l-.18,0H520l-.2,0-.22.09-.12.07a3.14,3.14,0,0,0-1.37,1.42,3.84,3.84,0,0,0-.54,1.89v.19l0,.29a1.59,1.59,0,0,0,0,.23l0,.24a7.25,7.25,0,0,0,1.36-.29,2.28,2.28,0,0,0,1.05-.8,3.45,3.45,0,0,0,.53-1.19l.15-.66,0-.3Z" transform="translate(-47.14 -377.08)" fill="#3d3775"/><path d="M535.58,613l0,.63a3.48,3.48,0,0,1-.08.83,3.93,3.93,0,0,1-1,1.78,2.31,2.31,0,0,1-1,.68l-.22.07-.47.12-.31,0-.32,0-1.65,0-.65,4.63a.42.42,0,0,0,.16.39.75.75,0,0,0,.49.13H531c.21,0,.35,0,.41-.1l.13-.29a1.51,1.51,0,0,1,.31-.39,1.74,1.74,0,0,1,.46-.24l.3,0h.79l.76.07.19.1a1.6,1.6,0,0,0-.36,1,1.57,1.57,0,0,0,.63,1.25l-.15.22-.41,0h-1a1.44,1.44,0,0,1-.75-.17,1.12,1.12,0,0,1-.55-.48l-.22-.34a.5.5,0,0,0-.3-.15h-.61l-1.46.06-.72.06c-.58,0-.86-.21-.86-.75v-.25l.73-4.64-.73.07-.8,0a5.87,5.87,0,0,1-.9,0,1.69,1.69,0,0,1-1.58-1.26l0-.32,0-.36,0-.57.09-.45a3,3,0,0,1,.37-.9,4.87,4.87,0,0,1,.6-.74,4.49,4.49,0,0,1,3.05-1.21l.5,0h.59l1-.06,2.32-.28a6.37,6.37,0,0,1,1,.06,2.21,2.21,0,0,1,1.51.95A3.48,3.48,0,0,1,535.58,613Zm-6.51-.76a.12.12,0,0,0-.05-.11.31.31,0,0,0-.2,0,2.1,2.1,0,0,0-.82.18,3.18,3.18,0,0,0-.64.55,3.46,3.46,0,0,0-.39.63,4.59,4.59,0,0,0-.24.81l-.14.8v.61l0,.12a1.15,1.15,0,0,0,.21.73,1,1,0,0,0,.71.31h.13l.34,0,.17,0,.21-.07Zm4.18.87a1.07,1.07,0,0,0-.67-1.13,1.62,1.62,0,0,0-.72-.13l-.25,0a.31.31,0,0,0-.18,0l-.79,4.75h.46l.18,0a2.13,2.13,0,0,0,.46-.13,1.75,1.75,0,0,0,.85-.72,5.45,5.45,0,0,0,.31-.57l.25-.67.1-.61Z" transform="translate(-47.14 -377.08)" fill="#3d3775"/><path d="M554.84,619v.48l0,.17,0,.2-.06.12-.11.22a1.78,1.78,0,0,1-.5.58l-.13.1-.17.12-.38.21c-.13.06-.41.17-.83.32q-1.4.47-1.44.51l-1,.39-.85.27a5,5,0,0,1-1,.14h-.42l-.17,0a4.42,4.42,0,0,1-.49-.05,2.13,2.13,0,0,1-1.57-1.26,2.56,2.56,0,0,1-.22-1,2.69,2.69,0,0,1,.53-1.6,12.43,12.43,0,0,1,.83-1c.21-.23.52-.54,1-1l1.53-1.45a8.12,8.12,0,0,0,1.4-1.59l.22-.36.22-.41.17-.49.05-.22v-.22a.84.84,0,0,0-.25-.73l.1-.12.7,0,1.2-.14c.5,0,.75.22.75.65v.17l0,.24a3.92,3.92,0,0,1-.63,1.51l-.42.61-.59.67a11.56,11.56,0,0,1-1.11,1.1l-1.17,1a6,6,0,0,0-1.07,1.1l-.41.55-.26.49-.13.43-.14.64v.21a2,2,0,0,0,.36,1.13,1.29,1.29,0,0,0,.89.51.53.53,0,0,1,.18,0l.12,0h.16l.36,0,.17,0,.2-.05c.1,0,.33-.14.68-.31l.22-.12.21-.14a1.83,1.83,0,0,0,.8-1l.07-.32v-.63c0-.39-.17-.58-.5-.58l.09-.2a3.39,3.39,0,0,0,.63-.2l.65-.26a3.3,3.3,0,0,1,.65-.1c.16,0,.26,0,.27,0A.72.72,0,0,1,554.84,619Z" transform="translate(-47.14 -377.08)" fill="#3d3775"/><path d="M569.52,613.69l-.07.12a3.29,3.29,0,0,1-1.88-.22,1.37,1.37,0,0,1-.6-.56l-.15-.37-.14-.51a2.52,2.52,0,0,0-.1-.56.4.4,0,0,0-.44-.22h-1.31a2.06,2.06,0,0,0-.49.08,1.08,1.08,0,0,0-.19.51l-.69,3.2c0,.27.21.41.62.41s.58.16.58.47v.24l-.06.26-1,5.49a.65.65,0,0,0,.24.62l-.08.13-.85.05-.87,0a1,1,0,0,1-.62-.15.56.56,0,0,1-.23-.5l0-.24,0-.27,1.1-5.67c0-.28-.11-.43-.42-.43h-.37c-.31,0-.46-.13-.46-.47a2.75,2.75,0,0,1,0-.34l.58-2.69c0-.42-.2-.62-.6-.62h-1.22a.65.65,0,0,0-.42.1,1.19,1.19,0,0,0-.21.44,6.85,6.85,0,0,1-.34.88,1.27,1.27,0,0,1-.63.61l-.32.12-.37.11-.38,0h-1l-.11-.12a1.52,1.52,0,0,0,.55-1.2l.1-1a.53.53,0,0,1,.15-.31,1,1,0,0,1,.41-.06l11.42-.22a.48.48,0,0,1,.34.08.54.54,0,0,1,.08.34v.39l0,.75,0,.42,0,.27A1.33,1.33,0,0,0,569.52,613.69Z" transform="translate(-47.14 -377.08)" fill="#3d3775"/><path d="M582.21,622.6l-.07.11-1,.11c-.32,0-.64,0-1,0s-.56-.08-.65-.24a2.3,2.3,0,0,1-.08-.76v-8.18a.48.48,0,0,0,0-.22l0-.25-.06-.26c-.21-.82-.53-1.27-1-1.34l-.15,0c-.6,0-1,.45-1.26,1.4a5.91,5.91,0,0,0-.2,1.07l-.07.58,0,.57,0,5.78.1.78a.92.92,0,0,0,.31.6l0,.1h-.24l-.29,0-.92.19h-.2l-.16,0c-.56,0-.85-.3-.85-1V615.6l-.57,0c-.31,0-.5.07-.57.16a1.17,1.17,0,0,0-.16.62,2.21,2.21,0,0,1-.14.66,1.41,1.41,0,0,1-.59.66,2.27,2.27,0,0,1-.73.29,3.19,3.19,0,0,1-.7.14l-.1-.1,0-.06.08-.15,0-.15v-.22l0-.43-.13-.86,0-.14V616a.18.18,0,0,1,.11-.16l.2-.05,1.65-.32,1.68-.37a4.17,4.17,0,0,1,3.94-4,3.62,3.62,0,0,1,2.67.82,2.42,2.42,0,0,1,.64,1.17l0,.24.07.37,0,.44V621a5.28,5.28,0,0,0,.06.9C581.91,622.28,582,622.52,582.21,622.6Z" transform="translate(-47.14 -377.08)" fill="#3d3775"/><path d="M592.32,622.41l-.09.15-.7.26-.47.1-.43,0a1.31,1.31,0,0,1-.77-.12c-.21-.11-.31-.36-.31-.74v-4c0-.54,0-.9,0-1.07a3.71,3.71,0,0,0-.18-1,3.33,3.33,0,0,0-.3-.81c-.18-.4-.38-.6-.58-.6a2.18,2.18,0,0,0-.61.43,10.35,10.35,0,0,0-1.1,1.41,6.07,6.07,0,0,0-.67,1.77,8.41,8.41,0,0,0-.24,1.88,8,8,0,0,0,.08,1.33v.15l0,.12.07.25a2.94,2.94,0,0,0,.2.53l-.05.15-2,.26c-.44,0-.66-.49-.66-1.58,0-.66,0-1.15,0-1.48v-.24a.88.88,0,0,1,0-.22l.15-.83.17-.8.09-.31.11-.3a7.78,7.78,0,0,1,2.09-3.16c.3-.27.73-.62,1.3-1l-.33-.52-.39-.65-.07-.14,0-.18c0-.19.29-.37.87-.53l1.11-.3a2.66,2.66,0,0,0,.44,1l.34.53.53.75a5.92,5.92,0,0,1,.41.56l.41.59a5.2,5.2,0,0,1,.66,1.35l.38,1.24.07.35.1.85v1.56l.07,2.42a.81.81,0,0,0,0,.25C592.07,622.24,592.17,622.38,592.32,622.41Zm4-1.16-.12.16-.12.18-.25.41a2,2,0,0,0-.14.68,1.32,1.32,0,0,0,.55,1l0,.07a3.42,3.42,0,0,1-1,.15l-.18,0-.39,0a1.13,1.13,0,0,1-.53-.26,1.78,1.78,0,0,1-.37-.47,1.26,1.26,0,0,0-.21-.34l-.2,0h-.1l-1.55.15-1.41.05.19-.2h.28l.21,0c.33-.07.49-.2.49-.38a.37.37,0,0,0-.05-.17h.17l.27.13.29.08.32.06h.63a.48.48,0,0,0,.24-.06l.19-.17.08-.19.1-.2a1.48,1.48,0,0,1,.38-.49,1.93,1.93,0,0,1,1.15-.31h.29l.44.06a1.83,1.83,0,0,1,.34.07Z" transform="translate(-47.14 -377.08)" fill="#3d3775"/><path d="M606.38,615.82l-.76,6a.64.64,0,0,0,.42.67v.15l-.3,0h-.22l-.14,0-1.19.14c-.63,0-1-.24-1-.72V622l0-.24.9-6.51a1.36,1.36,0,0,0-.15-.68,1.5,1.5,0,0,0-.59-.49l-.17-.05-.21,0a2.08,2.08,0,0,0-1.24.46,2.31,2.31,0,0,0-.68.68l-.22.36-.22.44-.1.41a.23.23,0,0,0,.15.2l.55,0c.26,0,.39.08.39.17a2.63,2.63,0,0,1-.19.55l-.58,1.36a11.07,11.07,0,0,0-.51,1.54l-.15.68-.15,1v.1a.45.45,0,0,0,.23.41v.24l-1.07.12-.57,0a.94.94,0,0,1-.67-.18,1.32,1.32,0,0,1-.17-.82,3.09,3.09,0,0,1,.14-.94l.58-1.87.17-.46.22-.47a3.38,3.38,0,0,0,.32-.87c0-.12-.09-.18-.29-.17l-.49,0q-.54,0-.54-.27a1.27,1.27,0,0,1,.42-.76l.51-.57.54-.53c.12-.11.17-.19.17-.23s0-.07-.08-.07l-.2,0h-.8a1.71,1.71,0,0,1-.63-.07.43.43,0,0,1-.27-.51v-.32l.14-.93.09-1v-.36a.61.61,0,0,0-.42-.63l.09-.13a7.18,7.18,0,0,0,1-.24l.28-.07.26-.07h.31a.71.71,0,0,1,.62.2.87.87,0,0,1,.21.65l0,.2,0,.24-.33,2.11V614c0,.28.08.42.32.42a1.09,1.09,0,0,0,.36-.06l.54-.18c.33-.12.81-.28,1.44-.47l.75-.13a3.23,3.23,0,0,1,.68-.06,3,3,0,0,1,1.82.52,2,2,0,0,1,.56.64,3,3,0,0,0,.12.38l0,.22,0,.24Z" transform="translate(-47.14 -377.08)" fill="#3d3775"/><path d="M632.85,610v5.32h2.47a1.75,1.75,0,0,0,1.24-.37,2.44,2.44,0,0,0,.52-1.48h.37V618h-.37a2.59,2.59,0,0,0-.2-1.16,1.3,1.3,0,0,0-.54-.55,2.25,2.25,0,0,0-1-.19h-2.47v4.26a4.29,4.29,0,0,0,.13,1.35.91.91,0,0,0,.42.43,1.89,1.89,0,0,0,.92.24h.49v.37H629v-.37h.48a1.45,1.45,0,0,0,1.22-.49,3.15,3.15,0,0,0,.23-1.53v-8.75a4.37,4.37,0,0,0-.13-1.36.9.9,0,0,0-.4-.43,1.89,1.89,0,0,0-.92-.24H629v-.37h10.07l.13,3h-.35a4,4,0,0,0-.6-1.39,2,2,0,0,0-.85-.65,4.63,4.63,0,0,0-1.56-.2Z" transform="translate(-47.14 -377.08)" fill="#3d3775"/><path d="M642.11,617.09a4.79,4.79,0,0,0,1,3.2,3,3,0,0,0,2.35,1.16A2.53,2.53,0,0,0,647,621a3.58,3.58,0,0,0,1.11-1.69l.31.2a4.77,4.77,0,0,1-1.21,2.49,3.27,3.27,0,0,1-2.53,1.12,3.7,3.7,0,0,1-2.82-1.28,4.94,4.94,0,0,1-1.17-3.45,5.24,5.24,0,0,1,1.2-3.66,3.94,3.94,0,0,1,3-1.31,3.41,3.41,0,0,1,2.53,1,3.76,3.76,0,0,1,1,2.71Zm0-.58h4.24a4.4,4.4,0,0,0-.21-1.24,2,2,0,0,0-.75-.87,1.81,1.81,0,0,0-1-.32,2,2,0,0,0-1.48.64A2.82,2.82,0,0,0,642.11,616.51Z" transform="translate(-47.14 -377.08)" fill="#3d3775"/><path d="M656,621.76a4.4,4.4,0,0,1-1.31,1,3.16,3.16,0,0,1-1.37.3,3.4,3.4,0,0,1-2.62-1.25,4.64,4.64,0,0,1-1.12-3.22,5.8,5.8,0,0,1,1.24-3.6,3.81,3.81,0,0,1,3.18-1.63,2.71,2.71,0,0,1,2,.77v-1.69a14.15,14.15,0,0,0-.07-1.93.83.83,0,0,0-.24-.49.66.66,0,0,0-.4-.13,2.34,2.34,0,0,0-.69.16l-.13-.35,2.73-1.12h.45v10.58a14.51,14.51,0,0,0,.07,2,.83.83,0,0,0,.24.49.55.55,0,0,0,.39.14,2,2,0,0,0,.72-.17l.11.35-2.72,1.13H656Zm0-.69v-4.72a3.14,3.14,0,0,0-.36-1.23,2,2,0,0,0-.79-.85,1.92,1.92,0,0,0-1-.28,2,2,0,0,0-1.56.79,4.44,4.44,0,0,0-.91,3,4.72,4.72,0,0,0,.88,3.09,2.49,2.49,0,0,0,2,1.07A2.43,2.43,0,0,0,656,621.07Z" transform="translate(-47.14 -377.08)" fill="#3d3775"/><path d="M661.21,617.09a4.68,4.68,0,0,0,1,3.2,3,3,0,0,0,2.35,1.16,2.55,2.55,0,0,0,1.56-.5,3.66,3.66,0,0,0,1.11-1.69l.31.2a4.72,4.72,0,0,1-1.22,2.49,3.23,3.23,0,0,1-2.52,1.12,3.7,3.7,0,0,1-2.82-1.28,4.9,4.9,0,0,1-1.18-3.45,5.2,5.2,0,0,1,1.21-3.66,3.92,3.92,0,0,1,3-1.31,3.39,3.39,0,0,1,2.52,1,3.72,3.72,0,0,1,1,2.71Zm0-.58h4.23a3.77,3.77,0,0,0-.21-1.24,1.91,1.91,0,0,0-.74-.87,1.81,1.81,0,0,0-1-.32,2.08,2.08,0,0,0-1.49.64A2.81,2.81,0,0,0,661.21,616.51Z" transform="translate(-47.14 -377.08)" fill="#3d3775"/><path d="M671.32,613.38v2c.77-1.37,1.55-2,2.36-2a1.31,1.31,0,0,1,.91.33,1,1,0,0,1,.36.78.91.91,0,0,1-.26.65.84.84,0,0,1-.62.27,1.26,1.26,0,0,1-.78-.34,1.28,1.28,0,0,0-.65-.34.59.59,0,0,0-.39.19,5,5,0,0,0-.93,1.35v4.39a2.8,2.8,0,0,0,.19,1.14,1.05,1.05,0,0,0,.46.45,2,2,0,0,0,.95.18v.36h-4.68v-.36a1.94,1.94,0,0,0,1-.22.81.81,0,0,0,.34-.5,4.65,4.65,0,0,0,0-1v-3.55a15.9,15.9,0,0,0-.06-1.9.76.76,0,0,0-.24-.45.69.69,0,0,0-.43-.13,1.77,1.77,0,0,0-.7.15l-.1-.36,2.76-1.12Z" transform="translate(-47.14 -377.08)" fill="#3d3775"/><path d="M680.54,621.47a14.26,14.26,0,0,1-1.77,1.26,2.65,2.65,0,0,1-1.15.25,2,2,0,0,1-1.56-.65,2.37,2.37,0,0,1-.62-1.7,2.15,2.15,0,0,1,.3-1.16,4.05,4.05,0,0,1,1.43-1.28,21.58,21.58,0,0,1,3.37-1.46v-.36a2.94,2.94,0,0,0-.44-1.87,1.56,1.56,0,0,0-1.26-.51,1.41,1.41,0,0,0-1,.34,1,1,0,0,0-.38.77l0,.58a1,1,0,0,1-.23.71.8.8,0,0,1-.62.25.76.76,0,0,1-.6-.26,1,1,0,0,1-.24-.71,2.05,2.05,0,0,1,.88-1.57,3.81,3.81,0,0,1,2.47-.72,4.21,4.21,0,0,1,2,.41,1.84,1.84,0,0,1,.86,1,5.51,5.51,0,0,1,.18,1.76v3.11a15.14,15.14,0,0,0,.05,1.6.71.71,0,0,0,.17.4.41.41,0,0,0,.26.09.51.51,0,0,0,.28-.07,5.44,5.44,0,0,0,.81-.72v.55c-.74,1-1.46,1.5-2.13,1.5a1,1,0,0,1-.78-.34A1.74,1.74,0,0,1,680.54,621.47Zm0-.64v-3.49a18.26,18.26,0,0,0-1.95.85,3.33,3.33,0,0,0-1.13.92,1.83,1.83,0,0,0-.34,1,1.74,1.74,0,0,0,.43,1.19,1.3,1.3,0,0,0,1,.47A3.64,3.64,0,0,0,680.54,620.83Z" transform="translate(-47.14 -377.08)" fill="#3d3775"/><path d="M687.47,608.59v12.14a3,3,0,0,0,.13,1.13.89.89,0,0,0,.38.43,2.21,2.21,0,0,0,1,.14v.36h-4.48v-.36a1.91,1.91,0,0,0,.86-.13.87.87,0,0,0,.36-.43,3.48,3.48,0,0,0,.13-1.14v-8.31a15.65,15.65,0,0,0-.07-1.9.89.89,0,0,0-.23-.49.61.61,0,0,0-.39-.13,2,2,0,0,0-.66.16l-.17-.35,2.72-1.12Z" transform="translate(-47.14 -377.08)" fill="#3d3775"/><path d="M694.63,622.79v-.37h.51a1.34,1.34,0,0,0,1.22-.55,3.19,3.19,0,0,0,.22-1.47v-8.75a2.75,2.75,0,0,0-.29-1.59,1.45,1.45,0,0,0-1.15-.44h-.51v-.37h5.51a12.06,12.06,0,0,1,4.62.69,5.51,5.51,0,0,1,2.54,2.3,7,7,0,0,1,1,3.71,6.82,6.82,0,0,1-1.72,4.73c-1.29,1.41-3.24,2.11-5.87,2.11Zm3.86-1a10,10,0,0,0,2.13.28,5.06,5.06,0,0,0,3.84-1.62,7.15,7.15,0,0,0,0-8.84,5.14,5.14,0,0,0-3.92-1.62,8.68,8.68,0,0,0-2,.29Z" transform="translate(-47.14 -377.08)" fill="#3d3775"/><path d="M711.12,617.09a4.68,4.68,0,0,0,1,3.2,3,3,0,0,0,2.35,1.16A2.55,2.55,0,0,0,716,621a3.66,3.66,0,0,0,1.11-1.69l.31.2a4.72,4.72,0,0,1-1.22,2.49,3.23,3.23,0,0,1-2.52,1.12,3.7,3.7,0,0,1-2.82-1.28,4.9,4.9,0,0,1-1.18-3.45,5.2,5.2,0,0,1,1.21-3.66,3.92,3.92,0,0,1,3-1.31,3.39,3.39,0,0,1,2.52,1,3.72,3.72,0,0,1,1,2.71Zm0-.58h4.23a3.77,3.77,0,0,0-.21-1.24,1.91,1.91,0,0,0-.74-.87,1.81,1.81,0,0,0-1-.32,2.08,2.08,0,0,0-1.49.64A2.81,2.81,0,0,0,711.12,616.51Z" transform="translate(-47.14 -377.08)" fill="#3d3775"/><path d="M721.27,615.32c.67-.66,1.06-1,1.18-1.14a3.37,3.37,0,0,1,1-.59,2.75,2.75,0,0,1,1-.21,2.27,2.27,0,0,1,1.48.5,2.45,2.45,0,0,1,.82,1.44,7.07,7.07,0,0,1,1.74-1.57,3.07,3.07,0,0,1,1.46-.37,2.25,2.25,0,0,1,1.29.37,2.49,2.49,0,0,1,.9,1.22,5.75,5.75,0,0,1,.22,1.82v3.94a3.43,3.43,0,0,0,.13,1.17.75.75,0,0,0,.37.38,1.88,1.88,0,0,0,.87.15v.36h-4.51v-.36h.19a1.55,1.55,0,0,0,.92-.23.88.88,0,0,0,.33-.51,7.34,7.34,0,0,0,0-1v-3.94a3.36,3.36,0,0,0-.27-1.58,1.36,1.36,0,0,0-1.25-.63,2.3,2.3,0,0,0-1.06.26,5.83,5.83,0,0,0-1.3,1l0,.11,0,.43v4.37a3.64,3.64,0,0,0,.11,1.16.82.82,0,0,0,.39.39,2.37,2.37,0,0,0,1,.15v.36h-4.62v-.36a2.09,2.09,0,0,0,1-.18,1,1,0,0,0,.4-.54,5.54,5.54,0,0,0,0-1v-3.94a3,3,0,0,0-.33-1.61,1.43,1.43,0,0,0-1.23-.63,2.22,2.22,0,0,0-1.07.28,4.37,4.37,0,0,0-1.28,1v4.91a3.14,3.14,0,0,0,.13,1.16.82.82,0,0,0,.37.41,2.37,2.37,0,0,0,1,.13v.36h-4.52v-.36a2,2,0,0,0,.88-.13.9.9,0,0,0,.38-.43,3.56,3.56,0,0,0,.12-1.14v-3.5a13.31,13.31,0,0,0-.08-2,.79.79,0,0,0-.22-.45.65.65,0,0,0-.41-.12,1.71,1.71,0,0,0-.67.15l-.15-.36,2.75-1.12h.43Z" transform="translate(-47.14 -377.08)" fill="#3d3775"/><path d="M738.83,613.38a4,4,0,0,1,3.34,1.58,4.84,4.84,0,0,1,1.07,3.09,5.89,5.89,0,0,1-.59,2.49,4.29,4.29,0,0,1-1.63,1.89,4.22,4.22,0,0,1-2.3.64,3.86,3.86,0,0,1-3.28-1.65,5.06,5.06,0,0,1-1-3.11,5.6,5.6,0,0,1,.62-2.5,4.32,4.32,0,0,1,1.65-1.84A4.24,4.24,0,0,1,738.83,613.38Zm-.31.65a2.08,2.08,0,0,0-1.06.31,2.2,2.2,0,0,0-.86,1.1,5.35,5.35,0,0,0-.33,2,7.09,7.09,0,0,0,.79,3.45,2.37,2.37,0,0,0,2.09,1.44,1.93,1.93,0,0,0,1.6-.8,4.51,4.51,0,0,0,.63-2.74,6.24,6.24,0,0,0-1-3.83A2.15,2.15,0,0,0,738.52,614Z" transform="translate(-47.14 -377.08)" fill="#3d3775"/><path d="M752.25,619.32a5,5,0,0,1-1.45,2.78,3.46,3.46,0,0,1-2.38,1,3.51,3.51,0,0,1-2.72-1.31,5.14,5.14,0,0,1-1.16-3.53,4.83,4.83,0,0,1,1.29-3.5,4.09,4.09,0,0,1,3.08-1.35,3.41,3.41,0,0,1,2.21.71,2,2,0,0,1,.87,1.48.83.83,0,0,1-.24.62,1,1,0,0,1-.69.23,1.05,1.05,0,0,1-.89-.38,1.64,1.64,0,0,1-.22-.8,1.27,1.27,0,0,0-.41-.89,1.42,1.42,0,0,0-1-.3,2,2,0,0,0-1.61.74,3.91,3.91,0,0,0-.81,2.58,5.27,5.27,0,0,0,.8,2.89,2.46,2.46,0,0,0,2.18,1.25,2.63,2.63,0,0,0,1.75-.66,4.48,4.48,0,0,0,1.07-1.67Z" transform="translate(-47.14 -377.08)" fill="#3d3775"/><path d="M756.13,613.38v2c.77-1.37,1.55-2,2.36-2a1.31,1.31,0,0,1,.91.33,1,1,0,0,1,.36.78.91.91,0,0,1-.26.65.84.84,0,0,1-.62.27,1.31,1.31,0,0,1-.79-.34,1.27,1.27,0,0,0-.64-.34.59.59,0,0,0-.39.19,5,5,0,0,0-.93,1.35v4.39a2.8,2.8,0,0,0,.19,1.14,1.05,1.05,0,0,0,.46.45,2,2,0,0,0,1,.18v.36h-4.68v-.36a1.88,1.88,0,0,0,1-.22.78.78,0,0,0,.35-.5,4.65,4.65,0,0,0,.05-1v-3.55a15.9,15.9,0,0,0-.06-1.9.76.76,0,0,0-.24-.45.69.69,0,0,0-.43-.13,1.77,1.77,0,0,0-.7.15l-.1-.36,2.76-1.12Z" transform="translate(-47.14 -377.08)" fill="#3d3775"/><path d="M765.35,621.47a14.26,14.26,0,0,1-1.77,1.26,2.65,2.65,0,0,1-1.15.25,2,2,0,0,1-1.56-.65,2.37,2.37,0,0,1-.62-1.7,2.15,2.15,0,0,1,.3-1.16,4.05,4.05,0,0,1,1.43-1.28,21.15,21.15,0,0,1,3.37-1.46v-.36a2.94,2.94,0,0,0-.44-1.87,1.56,1.56,0,0,0-1.26-.51,1.41,1.41,0,0,0-1,.34,1,1,0,0,0-.38.77l0,.58a1,1,0,0,1-.23.71.81.81,0,0,1-.62.25.75.75,0,0,1-.6-.26,1,1,0,0,1-.24-.71,2.05,2.05,0,0,1,.88-1.57,3.81,3.81,0,0,1,2.47-.72,4.14,4.14,0,0,1,2,.41,1.82,1.82,0,0,1,.87,1,5.51,5.51,0,0,1,.18,1.76v3.11a15.14,15.14,0,0,0,0,1.6.71.71,0,0,0,.17.4.39.39,0,0,0,.26.09.51.51,0,0,0,.28-.07,5.44,5.44,0,0,0,.81-.72v.55c-.75,1-1.46,1.5-2.14,1.5a1,1,0,0,1-.78-.34A1.8,1.8,0,0,1,765.35,621.47Zm0-.64v-3.49a18.26,18.26,0,0,0-2,.85,3.33,3.33,0,0,0-1.13.92,1.76,1.76,0,0,0-.34,1,1.69,1.69,0,0,0,.43,1.19,1.3,1.3,0,0,0,1,.47A3.67,3.67,0,0,0,765.35,620.83Z" transform="translate(-47.14 -377.08)" fill="#3d3775"/><path d="M776.91,619.32a5,5,0,0,1-1.45,2.78,3.44,3.44,0,0,1-5.1-.34,5.09,5.09,0,0,1-1.16-3.53,4.87,4.87,0,0,1,1.28-3.5,4.1,4.1,0,0,1,3.08-1.35,3.42,3.42,0,0,1,2.22.71,2,2,0,0,1,.87,1.48.84.84,0,0,1-.25.62,1,1,0,0,1-.68.23,1.05,1.05,0,0,1-.89-.38,1.62,1.62,0,0,1-.23-.8,1.26,1.26,0,0,0-.4-.89,1.44,1.44,0,0,0-1-.3,2,2,0,0,0-1.61.74,3.9,3.9,0,0,0-.8,2.58,5.19,5.19,0,0,0,.8,2.89,2.46,2.46,0,0,0,2.17,1.25,2.66,2.66,0,0,0,1.76-.66,4.75,4.75,0,0,0,1.07-1.67Z" transform="translate(-47.14 -377.08)" fill="#3d3775"/><path d="M780.77,610.64v3h2.13v.7h-2.13v5.93a2,2,0,0,0,.25,1.19.81.81,0,0,0,.66.31,1.12,1.12,0,0,0,.64-.2,1.36,1.36,0,0,0,.47-.6h.39a3.15,3.15,0,0,1-1,1.47,2.14,2.14,0,0,1-1.32.49,1.75,1.75,0,0,1-.9-.25,1.54,1.54,0,0,1-.65-.73,3.82,3.82,0,0,1-.21-1.46v-6.15h-1.45V614a4,4,0,0,0,1.13-.75,6,6,0,0,0,1-1.24,13,13,0,0,0,.64-1.39Z" transform="translate(-47.14 -377.08)" fill="#3d3775"/><path d="M786.85,613.38v7.35a3.48,3.48,0,0,0,.12,1.14.85.85,0,0,0,.37.42,1.87,1.87,0,0,0,.89.14v.36h-4.44v-.36a2,2,0,0,0,.9-.13.87.87,0,0,0,.36-.43,3.16,3.16,0,0,0,.14-1.14V617.2a12.57,12.57,0,0,0-.09-1.93.79.79,0,0,0-.22-.44.65.65,0,0,0-.41-.12,1.79,1.79,0,0,0-.68.15l-.14-.36,2.76-1.12Zm-.83-4.79a.94.94,0,0,1,.71.3,1,1,0,0,1,.3.71,1,1,0,0,1-.3.72.94.94,0,0,1-.71.3,1,1,0,1,1,0-2Z" transform="translate(-47.14 -377.08)" fill="#3d3775"/><path d="M797,619.32a5,5,0,0,1-1.45,2.78,3.46,3.46,0,0,1-2.38,1,3.51,3.51,0,0,1-2.72-1.31,5.14,5.14,0,0,1-1.16-3.53,4.87,4.87,0,0,1,1.28-3.5,4.12,4.12,0,0,1,3.08-1.35,3.42,3.42,0,0,1,2.22.71,2,2,0,0,1,.87,1.48.83.83,0,0,1-.24.62,1,1,0,0,1-.69.23A1.05,1.05,0,0,1,795,616a1.53,1.53,0,0,1-.22-.8,1.27,1.27,0,0,0-.41-.89,1.43,1.43,0,0,0-1-.3,2,2,0,0,0-1.6.74,3.91,3.91,0,0,0-.81,2.58,5.27,5.27,0,0,0,.8,2.89,2.46,2.46,0,0,0,2.17,1.25,2.64,2.64,0,0,0,1.76-.66,4.61,4.61,0,0,0,1.07-1.67Z" transform="translate(-47.14 -377.08)" fill="#3d3775"/><path d="M816.43,622.79h-3.61l-4.58-6.33c-.34,0-.62,0-.83,0h-.28l-.31,0v3.94a2.69,2.69,0,0,0,.28,1.58,1.39,1.39,0,0,0,1.14.44h.53v.37H803v-.37h.51a1.33,1.33,0,0,0,1.23-.56,3.1,3.1,0,0,0,.21-1.46v-8.75a2.75,2.75,0,0,0-.28-1.59,1.47,1.47,0,0,0-1.16-.44H803v-.37h4.94a11.75,11.75,0,0,1,3.18.32,3.55,3.55,0,0,1,1.73,1.16,3,3,0,0,1,.72,2,3.16,3.16,0,0,1-.82,2.17,4.57,4.57,0,0,1-2.52,1.29l2.8,3.89a6.88,6.88,0,0,0,1.65,1.77,4.07,4.07,0,0,0,1.79.56Zm-9.61-7h.56a4.4,4.4,0,0,0,2.92-.84,2.68,2.68,0,0,0,1-2.13,2.77,2.77,0,0,0-.79-2.06,2.84,2.84,0,0,0-2.1-.8,9.46,9.46,0,0,0-1.57.19Z" transform="translate(-47.14 -377.08)" fill="#3d3775"/><path d="M818.33,617.09a4.68,4.68,0,0,0,1,3.2,3,3,0,0,0,2.34,1.16,2.58,2.58,0,0,0,1.57-.5,3.66,3.66,0,0,0,1.11-1.69l.31.2a4.79,4.79,0,0,1-1.22,2.49,3.24,3.24,0,0,1-2.53,1.12,3.73,3.73,0,0,1-2.82-1.28,4.94,4.94,0,0,1-1.17-3.45,5.24,5.24,0,0,1,1.2-3.66,4,4,0,0,1,3-1.31,3.4,3.4,0,0,1,2.53,1,3.72,3.72,0,0,1,1,2.71Zm0-.58h4.23a3.77,3.77,0,0,0-.21-1.24,1.91,1.91,0,0,0-.74-.87,1.84,1.84,0,0,0-1-.32,2.06,2.06,0,0,0-1.48.64A2.81,2.81,0,0,0,818.33,616.51Z" transform="translate(-47.14 -377.08)" fill="#3d3775"/><path d="M825.11,614.56l2.81-1.14h.38v2.13a5.24,5.24,0,0,1,1.42-1.69,2.67,2.67,0,0,1,1.51-.48,2.87,2.87,0,0,1,2.29,1.08,5,5,0,0,1,1.13,3.43,5.68,5.68,0,0,1-1.36,3.91,3.81,3.81,0,0,1-4.09,1.06,2.92,2.92,0,0,1-.9-.6v2.79a3.56,3.56,0,0,0,.12,1.19.84.84,0,0,0,.4.41,2.4,2.4,0,0,0,1,.15v.37h-4.79v-.37h.25a1.94,1.94,0,0,0,.93-.21.72.72,0,0,0,.3-.36,4.25,4.25,0,0,0,.1-1.24v-8.65a4.39,4.39,0,0,0-.08-1.13.61.61,0,0,0-.25-.35.85.85,0,0,0-.48-.12,1.59,1.59,0,0,0-.6.14Zm3.19,1.58v3.42a7.38,7.38,0,0,0,.09,1.46,1.82,1.82,0,0,0,.69,1,2.07,2.07,0,0,0,1.37.44,2,2,0,0,0,1.62-.78,4.53,4.53,0,0,0,.8-2.86,5,5,0,0,0-.91-3.23,1.92,1.92,0,0,0-1.52-.77,2.18,2.18,0,0,0-1,.23A5.49,5.49,0,0,0,828.3,616.14Z" transform="translate(-47.14 -377.08)" fill="#3d3775"/><path d="M843.9,613.65v5.54a13.53,13.53,0,0,0,.08,1.94.83.83,0,0,0,.24.49.54.54,0,0,0,.38.14,1.66,1.66,0,0,0,.7-.17l.14.35-2.73,1.13h-.45v-1.93a8.47,8.47,0,0,1-1.8,1.6,2.74,2.74,0,0,1-1.31.33,2.13,2.13,0,0,1-1.33-.44,2.26,2.26,0,0,1-.78-1.14,6.83,6.83,0,0,1-.22-2v-4.09a2,2,0,0,0-.14-.89,1,1,0,0,0-.42-.39,2.36,2.36,0,0,0-1-.12v-.37h3.2v6.12a2.28,2.28,0,0,0,.45,1.68,1.55,1.55,0,0,0,1.07.39,2.31,2.31,0,0,0,1-.26,5.32,5.32,0,0,0,1.3-1v-5.19a1.45,1.45,0,0,0-.29-1.05,1.83,1.83,0,0,0-1.18-.29v-.37Z" transform="translate(-47.14 -377.08)" fill="#3d3775"/><path d="M848.52,615.22a3.64,3.64,0,0,1,2.86-1.84,3.18,3.18,0,0,1,2.46,1.2,4.83,4.83,0,0,1,1,3.29,5.05,5.05,0,0,1-1.62,3.92,4.45,4.45,0,0,1-3.1,1.28,4.7,4.7,0,0,1-1.62-.29,7.1,7.1,0,0,1-1.68-.87v-9.47a13.37,13.37,0,0,0-.08-1.92.83.83,0,0,0-.23-.49.66.66,0,0,0-.4-.13,2.21,2.21,0,0,0-.7.16l-.14-.35,2.75-1.12h.45Zm0,.64v5.47a3.63,3.63,0,0,0,1.05.76,2.57,2.57,0,0,0,1.11.25,2.16,2.16,0,0,0,1.69-1,4.56,4.56,0,0,0,.79-2.9,4.08,4.08,0,0,0-.79-2.7,2.28,2.28,0,0,0-1.78-1,2.35,2.35,0,0,0-1.06.27A4.89,4.89,0,0,0,848.52,615.86Z" transform="translate(-47.14 -377.08)" fill="#3d3775"/><path d="M859.28,608.59v12.14a3.37,3.37,0,0,0,.12,1.13.91.91,0,0,0,.39.43,2.13,2.13,0,0,0,1,.14v.36h-4.48v-.36a1.88,1.88,0,0,0,.86-.13.87.87,0,0,0,.36-.43,3.22,3.22,0,0,0,.13-1.14v-8.31a13.69,13.69,0,0,0-.07-1.9.9.9,0,0,0-.22-.49.66.66,0,0,0-.4-.13,2.07,2.07,0,0,0-.66.16l-.17-.35,2.73-1.12Z" transform="translate(-47.14 -377.08)" fill="#3d3775"/><path d="M864.87,613.38v7.35a3.48,3.48,0,0,0,.12,1.14.85.85,0,0,0,.37.42,1.87,1.87,0,0,0,.89.14v.36h-4.44v-.36a2,2,0,0,0,.9-.13.87.87,0,0,0,.36-.43,3.16,3.16,0,0,0,.14-1.14V617.2a12.57,12.57,0,0,0-.09-1.93.79.79,0,0,0-.22-.44.65.65,0,0,0-.41-.12,1.79,1.79,0,0,0-.68.15l-.14-.36,2.76-1.12Zm-.83-4.79a.94.94,0,0,1,.71.3,1,1,0,0,1,.3.71,1,1,0,0,1-.3.72.94.94,0,0,1-.71.3,1,1,0,1,1,0-2Z" transform="translate(-47.14 -377.08)" fill="#3d3775"/><path d="M875.06,619.32a5,5,0,0,1-1.45,2.78,3.44,3.44,0,0,1-5.1-.34,5.14,5.14,0,0,1-1.16-3.53,4.87,4.87,0,0,1,1.28-3.5,4.12,4.12,0,0,1,3.08-1.35,3.42,3.42,0,0,1,2.22.71,2,2,0,0,1,.87,1.48.8.8,0,0,1-.25.62,1,1,0,0,1-.68.23A1.05,1.05,0,0,1,873,616a1.53,1.53,0,0,1-.22-.8,1.27,1.27,0,0,0-.41-.89,1.43,1.43,0,0,0-1-.3,2,2,0,0,0-1.6.74,3.91,3.91,0,0,0-.81,2.58,5.27,5.27,0,0,0,.8,2.89,2.46,2.46,0,0,0,2.17,1.25,2.64,2.64,0,0,0,1.76-.66,4.61,4.61,0,0,0,1.07-1.67Z" transform="translate(-47.14 -377.08)" fill="#3d3775"/><path d="M885.75,613.38a4,4,0,0,1,3.33,1.58,4.84,4.84,0,0,1,1.07,3.09,5.74,5.74,0,0,1-.59,2.49,4.21,4.21,0,0,1-1.62,1.89,4.27,4.27,0,0,1-2.3.64,3.89,3.89,0,0,1-3.29-1.65,5.12,5.12,0,0,1-1-3.11,5.48,5.48,0,0,1,.63-2.5,4.24,4.24,0,0,1,1.64-1.84A4.28,4.28,0,0,1,885.75,613.38Zm-.31.65a2.05,2.05,0,0,0-1.06.31,2.21,2.21,0,0,0-.87,1.1,5.35,5.35,0,0,0-.33,2,7.09,7.09,0,0,0,.8,3.45,2.35,2.35,0,0,0,2.09,1.44,1.94,1.94,0,0,0,1.6-.8,4.59,4.59,0,0,0,.62-2.74,6.31,6.31,0,0,0-1-3.83A2.18,2.18,0,0,0,885.44,614Z" transform="translate(-47.14 -377.08)" fill="#3d3775"/><path d="M895,614.37v6a2.86,2.86,0,0,0,.28,1.61,1.22,1.22,0,0,0,1,.44h.83v.36h-5.46v-.36H892a1.34,1.34,0,0,0,.73-.2,1,1,0,0,0,.45-.54,4.6,4.6,0,0,0,.12-1.31v-6h-1.77v-.72h1.77v-.6a5.55,5.55,0,0,1,.44-2.32,3.69,3.69,0,0,1,3.38-2.11,3.1,3.1,0,0,1,1.93.67,1.29,1.29,0,0,1,.57,1,.79.79,0,0,1-.26.57.77.77,0,0,1-.55.26.89.89,0,0,1-.49-.16,2.58,2.58,0,0,1-.62-.71,2.64,2.64,0,0,0-.68-.74,1.38,1.38,0,0,0-.69-.19,1.26,1.26,0,0,0-.78.25,1.34,1.34,0,0,0-.46.76A14.47,14.47,0,0,0,895,613v.66h2.36v.72Z" transform="translate(-47.14 -377.08)" fill="#3d3775"/><path d="M906.75,610v5.35h3a2.45,2.45,0,0,0,1.55-.34,2.25,2.25,0,0,0,.58-1.62h.37v4.71h-.37a4.75,4.75,0,0,0-.28-1.27,1.32,1.32,0,0,0-.59-.55,3,3,0,0,0-1.26-.2h-3v4.47a4.26,4.26,0,0,0,.08,1.09.64.64,0,0,0,.28.31,1.64,1.64,0,0,0,.76.11h2.29a6,6,0,0,0,1.67-.16,2.4,2.4,0,0,0,1-.62,7.9,7.9,0,0,0,1.27-1.87h.4l-1.17,3.39H902.89v-.37h.48a1.81,1.81,0,0,0,.91-.23.8.8,0,0,0,.44-.48,5,5,0,0,0,.11-1.3v-8.8a2.85,2.85,0,0,0-.26-1.59,1.57,1.57,0,0,0-1.2-.4h-.48v-.37h10.44l.15,3h-.39a4.72,4.72,0,0,0-.47-1.47,1.59,1.59,0,0,0-.75-.61,4.52,4.52,0,0,0-1.41-.15Z" transform="translate(-47.14 -377.08)" fill="#3d3775"/><path d="M918.16,610.64v3h2.14v.7h-2.14v5.93a2,2,0,0,0,.25,1.19.81.81,0,0,0,.66.31,1.12,1.12,0,0,0,.64-.2,1.46,1.46,0,0,0,.48-.6h.39a3.24,3.24,0,0,1-1,1.47,2.14,2.14,0,0,1-1.32.49,1.75,1.75,0,0,1-.9-.25,1.54,1.54,0,0,1-.65-.73,3.82,3.82,0,0,1-.21-1.46v-6.15h-1.45V614a4,4,0,0,0,1.13-.75,6,6,0,0,0,1-1.24,11.2,11.2,0,0,0,.64-1.39Z" transform="translate(-47.14 -377.08)" fill="#3d3775"/><path d="M923.77,608.59v6.69a7.6,7.6,0,0,1,1.76-1.56,2.71,2.71,0,0,1,1.29-.34,2.11,2.11,0,0,1,1.34.43,2.52,2.52,0,0,1,.83,1.34,9.43,9.43,0,0,1,.19,2.34v3.24a3.39,3.39,0,0,0,.14,1.18.78.78,0,0,0,.34.38,1.82,1.82,0,0,0,.88.14v.36H926v-.36h.21a1.48,1.48,0,0,0,.89-.19,1,1,0,0,0,.35-.57,8,8,0,0,0,0-.94v-3.24a8.07,8.07,0,0,0-.15-2,1.29,1.29,0,0,0-1.32-.93,2.31,2.31,0,0,0-1,.25,5,5,0,0,0-1.27,1v4.84a3.76,3.76,0,0,0,.1,1.16.82.82,0,0,0,.39.39,2.31,2.31,0,0,0,1,.15v.36h-4.54v-.36a2,2,0,0,0,1-.19.69.69,0,0,0,.32-.38,3.37,3.37,0,0,0,.12-1.13v-8.28a14.15,14.15,0,0,0-.07-1.93.89.89,0,0,0-.23-.49.7.7,0,0,0-.42-.13,2.78,2.78,0,0,0-.68.16l-.14-.35,2.74-1.12Z" transform="translate(-47.14 -377.08)" fill="#3d3775"/><path d="M934.36,613.38v7.35a3.15,3.15,0,0,0,.13,1.14.83.83,0,0,0,.36.42,1.94,1.94,0,0,0,.9.14v.36h-4.44v-.36a2,2,0,0,0,.89-.13.84.84,0,0,0,.37-.43,3.22,3.22,0,0,0,.13-1.14V617.2a12.57,12.57,0,0,0-.09-1.93.73.73,0,0,0-.22-.44.63.63,0,0,0-.41-.12,1.74,1.74,0,0,0-.67.15l-.14-.36,2.75-1.12Zm-.83-4.79a1,1,0,0,1,1,1,1,1,0,0,1-.29.72,1,1,0,0,1-1.74-.72,1,1,0,0,1,1-1Z" transform="translate(-47.14 -377.08)" fill="#3d3775"/><path d="M941.26,613.38a4,4,0,0,1,3.33,1.58,4.84,4.84,0,0,1,1.07,3.09,5.89,5.89,0,0,1-.59,2.49,4.21,4.21,0,0,1-1.62,1.89,4.27,4.27,0,0,1-2.3.64,3.88,3.88,0,0,1-3.29-1.65,5.12,5.12,0,0,1-1-3.11,5.48,5.48,0,0,1,.63-2.5A4.24,4.24,0,0,1,939.1,614,4.28,4.28,0,0,1,941.26,613.38ZM941,614a2.11,2.11,0,0,0-1.07.31,2.25,2.25,0,0,0-.86,1.1,5.35,5.35,0,0,0-.33,2,7.09,7.09,0,0,0,.8,3.45,2.35,2.35,0,0,0,2.09,1.44,1.93,1.93,0,0,0,1.59-.8,4.51,4.51,0,0,0,.63-2.74,6.24,6.24,0,0,0-1-3.83A2.15,2.15,0,0,0,941,614Z" transform="translate(-47.14 -377.08)" fill="#3d3775"/><path d="M946.25,614.56l2.81-1.14h.38v2.13a5.25,5.25,0,0,1,1.43-1.69,2.62,2.62,0,0,1,1.5-.48,2.91,2.91,0,0,1,2.3,1.08,5.08,5.08,0,0,1,1.12,3.43,5.68,5.68,0,0,1-1.36,3.91,3.81,3.81,0,0,1-4.09,1.06,3.17,3.17,0,0,1-.9-.6v2.79a3.56,3.56,0,0,0,.12,1.19.84.84,0,0,0,.4.41,2.43,2.43,0,0,0,1,.15v.37H946.2v-.37h.25a2,2,0,0,0,.94-.21.76.76,0,0,0,.29-.36,4.11,4.11,0,0,0,.11-1.24v-8.65a4.93,4.93,0,0,0-.08-1.13.68.68,0,0,0-.26-.35.82.82,0,0,0-.47-.12,1.63,1.63,0,0,0-.61.14Zm3.19,1.58v3.42a7.38,7.38,0,0,0,.09,1.46,1.87,1.87,0,0,0,.69,1,2.07,2.07,0,0,0,1.37.44,2,2,0,0,0,1.62-.78,4.47,4.47,0,0,0,.81-2.86,5,5,0,0,0-.92-3.23,1.9,1.9,0,0,0-1.52-.77,2.18,2.18,0,0,0-1,.23A5.74,5.74,0,0,0,949.44,616.14Z" transform="translate(-47.14 -377.08)" fill="#3d3775"/><path d="M960.18,613.38v7.35a3.4,3.4,0,0,0,.13,1.14.85.85,0,0,0,.37.42,1.87,1.87,0,0,0,.89.14v.36h-4.44v-.36a2,2,0,0,0,.9-.13.87.87,0,0,0,.36-.43,3.16,3.16,0,0,0,.14-1.14V617.2a12.57,12.57,0,0,0-.09-1.93.79.79,0,0,0-.22-.44.65.65,0,0,0-.41-.12,1.79,1.79,0,0,0-.68.15l-.14-.36,2.76-1.12Zm-.82-4.79a1,1,0,0,1,1,1,1,1,0,0,1-.29.72,1,1,0,0,1-.71.3,1,1,0,1,1,0-2Z" transform="translate(-47.14 -377.08)" fill="#3d3775"/><path d="M967.79,621.47a14.26,14.26,0,0,1-1.77,1.26,2.63,2.63,0,0,1-1.14.25,2,2,0,0,1-1.57-.65,2.36,2.36,0,0,1-.61-1.7,2.15,2.15,0,0,1,.3-1.16,4,4,0,0,1,1.42-1.28,22,22,0,0,1,3.37-1.46v-.36a2.94,2.94,0,0,0-.43-1.87,1.57,1.57,0,0,0-1.27-.51,1.41,1.41,0,0,0-1,.34,1,1,0,0,0-.37.77l0,.58a1,1,0,0,1-.24.71.79.79,0,0,1-.61.25.77.77,0,0,1-.61-.26,1,1,0,0,1-.23-.71,2,2,0,0,1,.88-1.57,3.76,3.76,0,0,1,2.46-.72,4.19,4.19,0,0,1,2,.41,1.9,1.9,0,0,1,.87,1,5.51,5.51,0,0,1,.18,1.76v3.11a15.14,15.14,0,0,0,0,1.6.72.72,0,0,0,.16.4.44.44,0,0,0,.27.09.53.53,0,0,0,.28-.07,5.44,5.44,0,0,0,.81-.72v.55c-.75,1-1.46,1.5-2.14,1.5a1,1,0,0,1-.78-.34A1.86,1.86,0,0,1,967.79,621.47Zm0-.64v-3.49a20.45,20.45,0,0,0-1.95.85,3.28,3.28,0,0,0-1.12.92,1.76,1.76,0,0,0-.34,1,1.69,1.69,0,0,0,.43,1.19,1.26,1.26,0,0,0,1,.47A3.64,3.64,0,0,0,967.79,620.83Z" transform="translate(-47.14 -377.08)" fill="#3d3775"/><rect x="569.78" y="227.36" width="1.35" height="25.98" fill="#3d3775"/><path d="M276,594h.72v-24H276v-.54h9v.54h-.64l6,13,6-13h-.65v-.54h9v.54H304v24h.71v.54H297.9V594h.71v-17l-8.25,17.93-8.25-17.93v17h.72v.54H276Z" transform="translate(-47.14 -377.08)"/><path d="M309.37,594h.72v-24h-.72v-.54h7.54v.54h-.72v24h.72v.54h-7.54Z" transform="translate(-47.14 -377.08)"/><path d="M321.57,594h.72v-24h-.72v-.54h8.61v.54h-1L342,585.6V569.92h-.72v-.54h6.82v.54h-.72v24h.72v.54h-7.54V594h1.08l-14-17.33V594h.72v.54h-6.82Z" transform="translate(-47.14 -377.08)"/><path d="M352.78,594h.71v-24h-.71v-.54h7.53v.54h-.72v24h.72v.54h-7.53Z" transform="translate(-47.14 -377.08)"/><path d="M366.69,586.28l-.25.58a18.26,18.26,0,0,0,10.37,2.86c4.48,0,6.67-.82,6.67-2.79s-2.22-2.59-7.6-3c-7.68-.61-11-2.83-11-7.39,0-5.52,5.35-7.85,11.77-7.85a19.46,19.46,0,0,1,11,2.9l.22-.36.47.29-3.05,5-.47-.29.29-.5a18.16,18.16,0,0,0-8.83-2c-3.8,0-5.67,1.08-5.67,2.58,0,2,2,2.51,7.75,2.94,7.32.58,10.62,2.66,10.62,7.75,0,5.31-5.13,8-12.34,7.89-6.24-.1-10.22-1.68-12.16-3.26l-.29.65-.46-.29,2.51-6Z" transform="translate(-47.14 -377.08)"/><path d="M398.83,594h1.08V574.23h-9v.89h-.54v-6.27h.54v.53h23.5v-.53H415v6.27h-.54v-.89h-9V594h1.08v.54h-7.72Z" transform="translate(-47.14 -377.08)"/><path d="M417.67,594h.71v-24h-.71v-.54h15.78c4.48,0,8.54,2,8.54,7.54,0,4.81-3.12,6.56-6.93,6.92L442.2,594H443v.54h-8.79V594h.75l-5.85-10.05h-4.95V594h.72v.54h-7.17Zm6.45-19.55v5h9c2.3,0,3.34-.86,3.34-2.51s-1-2.51-3.34-2.51Z" transform="translate(-47.14 -377.08)"/><path d="M452,594H453v-9.19l-9.4-14.85h-.5v-.54h7.72v.54h-.76L456,580.29l6.24-10.37h-.94v-.54H469v.54h-.54l-9.54,14.82V594H460v.54h-8Z" transform="translate(-47.14 -377.08)"/><path d="M499.31,569c7.85,0,14.52,4.52,14.52,12.91s-6.67,12.91-14.52,12.91-14.53-4.52-14.53-12.91S491.45,569,499.31,569Zm0,20.8c4.77,0,8.61-2.72,8.61-7.89s-3.84-7.89-8.61-7.89-8.61,2.72-8.61,7.89S494.54,589.83,499.31,589.83Z" transform="translate(-47.14 -377.08)"/><path d="M518,594h.71v-24H518v-.54h22.27v-.53h.54v6.45h-.54v-.89H524.41v4.84H534.5v-.54H535v5.92h-.53v-.54H524.41V594h1.08v.54H518Z" transform="translate(-47.14 -377.08)"/><path d="M573.23,569.92h-.71v-.54h7.17v.54H579l5,16.65,5.56-16.65h-.72v-.54h7.53v.54h-.54l-8.61,24h.54v.54H581V594h.54l-5.39-16.72L570.72,594h.54v.54h-6.81V594H565l-8.61-24h-.53v-.54h7.53v.54h-.72l5.56,16.29Z" transform="translate(-47.14 -377.08)"/><path d="M594.4,594H595l9.79-24h-.5v-.54H613v.54h-.5l9.8,24h.57v.54h-7.43V594h.69l-2-5.28h-11l-2,5.28h.68v.54H594.4Zm10.51-9.87h7.46l-3.73-9.72Z" transform="translate(-47.14 -377.08)"/><path d="M629.51,594h1.08V574.23h-9v.89h-.54v-6.27h.54v.53h23.5v-.53h.54v6.27h-.54v-.89h-9V594h1.08v.54h-7.72Z" transform="translate(-47.14 -377.08)"/><path d="M648.34,594h.72v-24h-.72v-.54h22.28v-.53h.54v6.45h-.54v-.89H654.8v4.84h9.72v-.54h.54v5.92h-.54v-.54H654.8v5.38h15.82V588.4h.54v6.45h-.54v-.35H648.34Z" transform="translate(-47.14 -377.08)"/><path d="M675.1,594h.72v-24h-.72v-.54h15.79c4.48,0,8.54,2,8.54,7.54,0,4.81-3.13,6.56-6.93,6.92L699.64,594h.75v.54h-8.78V594h.75l-5.85-10.05h-5V594h.72v.54H675.1Zm6.46-19.55v5h9c2.3,0,3.34-.86,3.34-2.51s-1-2.51-3.34-2.51Z" transform="translate(-47.14 -377.08)"/><path d="M715.28,594h.57l9.79-24h-.5v-.54h8.76v.54h-.51l9.8,24h.57v.54h-7.43V594H737l-2-5.28H724L722,594h.68v.54h-7.42Zm10.51-9.87h7.46l-3.73-9.72Z" transform="translate(-47.14 -377.08)"/><path d="M746.09,594h.72v-24h-.72v-.54h8.61v.54h-1l12.85,15.68V569.92h-.72v-.54h6.82v.54h-.72v24h.72v.54H765.1V594h1.08l-14-17.33V594h.72v.54h-6.82Z" transform="translate(-47.14 -377.08)"/><path d="M777.3,594H778v-24h-.71v-.54H791c7.32,0,12.56,4.7,12.56,12.56S798.32,594.5,791,594.5H777.3Zm6.81-19.55v15.06h6.17c4.6,0,7.18-2.76,7.18-7.53s-2.58-7.53-7.18-7.53Z" transform="translate(-47.14 -377.08)"/><path d="M822.21,594h.71v-24h-.71v-.54h22.27v-.53H845v6.45h-.54v-.89H828.66v4.84h9.72v-.54h.54v5.92h-.54v-.54h-9.72v5.38h15.82V588.4H845v6.45h-.54v-.35H822.21Z" transform="translate(-47.14 -377.08)"/><path d="M849,594h.72v-24H849v-.54h8.61v.54h-1l12.84,15.68V569.92h-.71v-.54h6.81v.54h-.72v24h.72v.54H868V594h1.07l-14-17.33V594h.72v.54H849Z" transform="translate(-47.14 -377.08)"/><path d="M880.17,594h.72v-24h-.72v-.54h22.28v-.53H903v6.45h-.54v-.89H886.63v4.84h9.72v-.54h.54v5.92h-.54v-.54h-9.72v5.38h15.82V588.4H903v6.45h-.54v-.35H880.17Z" transform="translate(-47.14 -377.08)"/><path d="M906.93,594h.72v-24h-.72v-.54h15.78c4.49,0,8.54,2,8.54,7.54,0,4.81-3.12,6.56-6.92,6.92L931.47,594h.75v.54h-8.79V594h.76l-5.85-10.05h-5V594h.72v.54h-7.18Zm6.46-19.55v5h9c2.29,0,3.33-.86,3.33-2.51s-1-2.51-3.33-2.51Z" transform="translate(-47.14 -377.08)"/><path d="M949.8,589.83a12.48,12.48,0,0,0,6.27-1.68v-2.8h-5.84v1.07h-.54v-6.09h.54v.53h12.12v.54h-.72v9.51h.72v.54h-.72a20.24,20.24,0,0,1-11.83,3.4c-8.76,0-15.25-4.87-15.25-12.91S941,569,949.8,569a18.28,18.28,0,0,1,11.4,3.58l.26-.32.46.29-3.84,5.09-.46-.29.36-.46a12.44,12.44,0,0,0-8.18-2.87c-6,0-9.33,2.94-9.33,7.89S943.84,589.83,949.8,589.83Z" transform="translate(-47.14 -377.08)"/><path d="M972.61,594h1.08v-9.19l-9.4-14.85h-.5v-.54h7.71v.54h-.76l5.89,10.37,6.24-10.37h-.93v-.54h7.71v.54h-.54l-9.54,14.82V594h1.08v.54h-8Z" transform="translate(-47.14 -377.08)"/></g></svg>
