<svg width="179" height="231" viewBox="0 0 179 231" fill="none" xmlns="http://www.w3.org/2000/svg">
<circle cx="89.5" cy="89.5" r="89.5" fill="#F1F1F1"/>
<rect x="53.1931" y="86.3707" width="90.1259" height="125.175" rx="10.014" transform="rotate(2.5 53.1931 86.3707)" fill="#EEEEEE"/>
<rect x="54.987" y="88.3284" width="86.3706" height="121.42" rx="8.13636" transform="rotate(2.5 54.987 88.3284)" stroke="black" stroke-opacity="0.6" stroke-width="3.75524"/>
<path d="M5.0096 91.3441C4.28772 85.8608 8.14757 80.8306 13.6308 80.1087L83.129 70.9591C88.6123 70.2372 93.6426 74.097 94.3644 79.5803L108.089 183.828C108.811 189.311 104.951 194.341 99.4676 195.063L29.9694 204.213C24.4862 204.935 19.4559 201.075 18.734 195.591L5.0096 91.3441Z" fill="#FAFAFA"/>
<path d="M13.3858 78.2471C6.87438 79.1044 2.29081 85.0778 3.14804 91.5892L16.8725 195.836C17.7297 202.348 23.7031 206.931 30.2145 206.074L99.7127 196.925C106.224 196.067 110.808 190.094 109.95 183.583L96.226 79.3352C95.3688 72.8239 89.3953 68.2403 82.884 69.0975L13.3858 78.2471Z" stroke="black" stroke-opacity="0.6" stroke-width="3.75524"/>
<path d="M5.0096 91.344C4.28772 85.8608 8.14757 80.8305 13.6308 80.1086L83.129 70.959C88.6123 70.2371 93.6426 74.097 94.3644 79.5802L96.8152 98.1958L7.46039 109.96L5.0096 91.344Z" fill="#EEEEEE"/>
<rect x="112.49" y="73.4064" width="3.75524" height="12.5175" rx="1.87762" transform="rotate(82.5 112.49 73.4064)" fill="black" fill-opacity="0.6"/>
<rect x="78.1962" y="52.6702" width="3.75524" height="12.5175" rx="1.87762" transform="rotate(-7.5 78.1962 52.6702)" fill="black" fill-opacity="0.6"/>
<rect x="100.199" y="56.0862" width="3.75524" height="12.5175" rx="1.87762" transform="rotate(37.5 100.199 56.0862)" fill="black" fill-opacity="0.6"/>
<rect x="16.8013" y="113.78" width="72.6014" height="5.00699" rx="2.5035" transform="rotate(-7.5 16.8013 113.78)" fill="#DCDCDC"/>
<rect x="20.0689" y="138.601" width="72.6014" height="5.00699" rx="2.5035" transform="rotate(-7.5 20.0689 138.601)" fill="#DCDCDC"/>
<rect x="23.3367" y="163.422" width="72.6014" height="5.00699" rx="2.5035" transform="rotate(-7.5 23.3367 163.422)" fill="#DCDCDC"/>
<rect x="18.1083" y="123.708" width="26.2867" height="5.00699" rx="2.5035" transform="rotate(-7.5 18.1083 123.708)" fill="#EEEEEE"/>
<rect x="21.376" y="148.529" width="26.2867" height="5.00699" rx="2.5035" transform="rotate(-7.5 21.376 148.529)" fill="#EEEEEE"/>
<rect x="24.6438" y="173.35" width="26.2867" height="5.00699" rx="2.5035" transform="rotate(-7.5 24.6438 173.35)" fill="#EEEEEE"/>
</svg>
