<svg width="250" height="158" viewBox="0 0 250 158" fill="none" xmlns="http://www.w3.org/2000/svg">
<path d="M126.193 123.988C159.603 123.988 186.687 96.9038 186.687 63.4939C186.687 30.0841 159.603 3 126.193 3C92.7832 3 65.6992 30.0841 65.6992 63.4939C65.6992 96.9038 92.7832 123.988 126.193 123.988Z" fill="#F3F7FF" stroke="black" stroke-opacity="0.87" stroke-width="4.51447"/>
<path fill-rule="evenodd" clip-rule="evenodd" d="M116.5 110.433C119.676 111.02 122.907 111.324 126.193 111.347C152.622 111.347 174.047 89.9226 174.047 63.4939C174.047 37.0652 152.622 15.6405 126.193 15.6405C119.404 15.6405 112.945 17.0543 107.095 19.6036C96.9282 24.0336 88.5994 31.8925 83.5692 41.7195C80.2258 48.2512 78.3397 55.6523 78.3397 63.4939C78.3397 70.6087 79.8924 77.3609 82.6774 83.43C84.6658 87.763 87.2822 91.7478 90.4102 95.2679" fill="white"/>
<path d="M116.5 110.433C119.676 111.02 122.907 111.324 126.193 111.347C152.622 111.347 174.047 89.9226 174.047 63.4939C174.047 37.0652 152.622 15.6405 126.193 15.6405C119.404 15.6405 112.945 17.0543 107.095 19.6036C96.9282 24.0336 88.5994 31.8925 83.5692 41.7195C80.2258 48.2512 78.3397 55.6523 78.3397 63.4939C78.3397 70.6087 79.8924 77.3609 82.6774 83.43C84.6658 87.763 87.2822 91.7478 90.4102 95.2679" stroke="black" stroke-opacity="0.87" stroke-width="4.51447" stroke-linecap="round"/>
<path d="M96.0318 100.648C99.9108 103.8 104.293 106.358 109.04 108.181" stroke="black" stroke-opacity="0.87" stroke-width="4.51447" stroke-linecap="round"/>
<path d="M175.852 111.347L186.687 122.182" stroke="black" stroke-opacity="0.87" stroke-width="4.51447"/>
<path fill-rule="evenodd" clip-rule="evenodd" d="M184.936 120.431C181.518 123.849 181.518 129.39 184.936 132.808L204.954 152.826C208.372 156.244 213.913 156.244 217.331 152.826C220.749 149.408 220.749 143.866 217.331 140.449L197.313 120.431C193.895 117.013 188.354 117.013 184.936 120.431Z" fill="black" fill-opacity="0.08" stroke="black" stroke-opacity="0.87" stroke-width="4.51447"/>
<path d="M193.91 123.988L213.774 143.852" stroke="white" stroke-width="4.51447" stroke-linecap="round"/>
<path d="M127.096 30.0869C124.797 30.0869 122.55 30.3131 120.377 30.7444M113.814 32.7523C101.461 37.9435 92.786 50.1571 92.786 64.3969" stroke="black" stroke-opacity="0.38" stroke-width="4.51447" stroke-linecap="round"/>
<path d="M223.12 63.9947H208.357M234.54 49.9505H203.525H234.54ZM247.181 49.9505H243.17H247.181Z" stroke="black" stroke-opacity="0.38" stroke-width="4.51447" stroke-linecap="round" stroke-linejoin="round"/>
<path d="M60.5992 103.722H45.8355M52.1557 87.8721H21.1399H52.1557ZM10.6226 87.8721H3H10.6226Z" stroke="black" stroke-opacity="0.38" stroke-width="4.51447" stroke-linecap="round" stroke-linejoin="round"/>
</svg>
