<svg width="235" height="76" viewBox="0 0 235 76" fill="none" xmlns="http://www.w3.org/2000/svg">
<g clip-path="url(#clip0_467_47158)">
<path d="M44.2812 1.01398H61.9371V48.7771C61.9371 54.2967 60.6384 59.0992 58.0409 63.1846C55.4435 67.2699 51.8216 70.4276 47.1751 72.6575C42.5302 74.8874 37.1341 76.0024 30.987 76.0024C24.7676 76.0024 19.3347 74.8874 14.6882 72.6575C10.0418 70.4276 6.4321 67.2699 3.85926 63.1846C1.28642 59.0977 0 54.2952 0 48.7771V1.01398H17.6904V47.2224C17.6904 49.7771 18.2449 52.0544 19.3539 54.0543C20.4398 56.0344 22.0563 57.6641 24.0173 58.7558C26.0141 59.8886 28.3373 60.4551 30.987 60.4551C33.6366 60.4551 35.9537 59.8886 37.9382 58.7558C39.8939 57.6569 41.5086 56.0289 42.6016 54.0543C43.7214 52.0544 44.2812 49.7771 44.2812 47.2224V1.01398Z" fill="white"/>
<path d="M67.2778 1.01398H89.1869L107.771 46.8587H108.628L127.213 1.01398H149.122V75.0607H131.894V29.5772H131.286L113.704 74.5922H102.695L85.1133 29.3231H84.5051V75.0607H67.2778V1.01398Z" fill="white"/>
<path d="M172.155 1.01398V75.0607H154.465V1.01398H172.155Z" fill="white"/>
<path d="M217.061 23.2137C216.821 20.5611 215.767 18.4944 213.897 17.0135C212.028 15.5325 209.365 14.7936 205.909 14.7968C203.622 14.7968 201.716 15.0974 200.191 15.6988C198.665 16.3002 197.522 17.1261 196.76 18.1766C196.004 19.2175 195.594 20.4745 195.589 21.7662C195.521 22.7874 195.751 23.8063 196.251 24.6962C196.789 25.5929 197.523 26.3534 198.396 26.9199C199.461 27.6201 200.608 28.1846 201.81 28.6005C203.283 29.122 204.787 29.5448 206.315 29.8662L212.605 31.3114C215.911 32.0033 219.129 33.0706 222.199 34.4931C224.771 35.6813 227.137 37.2815 229.205 39.2319C231.061 41.0145 232.524 43.1723 233.5 45.565C234.477 47.9519 234.977 50.6278 235 53.5928C234.977 58.2686 233.81 62.2817 231.498 65.632C229.186 68.9823 225.868 71.5464 221.544 73.3241C217.221 75.108 212.009 76 205.909 76C199.785 76 194.448 75.0676 189.898 73.2029C185.349 71.3381 181.811 68.5185 179.284 64.7439C176.759 60.9709 175.46 56.191 175.388 50.404H192.327C192.473 52.7894 193.105 54.7776 194.223 56.3689C195.39 57.9985 196.996 59.2537 198.85 59.9842C200.814 60.8047 203.096 61.2149 205.695 61.2149C208.077 61.2149 210.109 60.8894 211.789 60.2382C213.47 59.5871 214.762 58.6827 215.667 57.525C216.561 56.3961 217.052 54.995 217.061 53.5485C217.065 52.2332 216.609 50.9589 215.773 49.9518C214.939 48.9511 213.658 48.0832 211.932 47.3482C209.793 46.4852 207.588 45.8015 205.338 45.304L197.688 43.4975C191.351 42.0275 186.359 39.6468 182.712 36.3555C179.066 33.0643 177.255 28.6114 177.279 22.997C177.256 18.4159 178.471 14.402 180.924 10.9554C183.377 7.5087 186.773 4.82114 191.11 2.89269C195.447 0.965783 200.39 0.00155395 205.941 0C211.611 0 216.537 0.970449 220.72 2.91134C224.902 4.85223 228.149 7.57164 230.459 11.0696C232.763 14.5644 233.942 18.614 233.998 23.2184L217.061 23.2137Z" fill="white"/>
</g>
<defs>
<clipPath id="clip0_467_47158">
<rect width="235" height="76" fill="white"/>
</clipPath>
</defs>
</svg>
