<svg id="Layer_1" data-name="Layer 1" xmlns="http://www.w3.org/2000/svg" viewBox="0 0 1019.95 326.06"><path d="M192.19,4.35h76.63V209.26q0,35.52-16.91,61.81t-47.16,40.64q-30.24,14.35-70.26,14.35-40.49,0-70.74-14.35t-47-40.64Q0,244.77,0,209.26V4.35H76.78V202.59Q76.78,219,84,231.9a51.59,51.59,0,0,0,20.24,20.17q13,7.29,30.25,7.29t30.17-7.29A52.25,52.25,0,0,0,184.9,231.9q7.29-12.87,7.29-29.31Z" transform="translate(0 0)" fill="#007cff"/><path d="M292,4.35h95.09L467.75,201h3.72L552.13,4.35h95.09V322H572.45V126.89h-2.64L493.5,320H445.72L369.41,125.8h-2.64V322H292Z" transform="translate(0 0)" fill="#007cff"/><path d="M747.19,4.35V322H670.41V4.35Z" transform="translate(0 0)" fill="#007cff"/><path d="M942.09,99.59Q940.53,82.52,928.36,73t-34.67-9.51q-14.9,0-24.82,3.87T854,78a26.19,26.19,0,0,0-5.08,15.4A22.35,22.35,0,0,0,851.77,106a29.56,29.56,0,0,0,9.31,9.54,66.85,66.85,0,0,0,14.82,7.21,153.86,153.86,0,0,0,19.55,5.43l27.3,6.2A194.87,194.87,0,0,1,964.39,148a114.23,114.23,0,0,1,30.41,20.33,79.23,79.23,0,0,1,18.64,27.17q6.36,15.36,6.51,34.44-.15,30.09-15.2,51.65t-43.2,33Q933.4,326,893.69,326.05q-39.87,0-69.49-12t-46.07-36.29q-16.44-24.28-16.91-61.52h73.52q.94,15.34,8.23,25.59a44.92,44.92,0,0,0,20.08,15.51q12.8,5.28,29.71,5.28,15.51,0,26.45-4.19T936,246.79a27.55,27.55,0,0,0,6.05-17.06,23.86,23.86,0,0,0-5.59-15.43q-5.43-6.44-16.67-11.17a182.23,182.23,0,0,0-28.62-8.77L858,186.61q-41.26-9.47-65-30.64T769.43,98.66Q769.28,69.19,785.25,47t44.21-34.59Q857.69,0,893.83,0,930.75,0,958,12.49t42.27,35q15,22.48,15.36,52.12Z" transform="translate(0 0)" fill="#007cff"/></svg>