<svg xmlns="http://www.w3.org/2000/svg" xmlns:xlink="http://www.w3.org/1999/xlink" viewBox="0 0 1017.84 879.39"><defs><linearGradient id="linear-gradient" x1="523.61" y1="621.22" x2="622.71" y2="678.43" gradientUnits="userSpaceOnUse"><stop offset="0" stop-color="#401400"/><stop offset="1" stop-color="#793f01"/></linearGradient><linearGradient id="linear-gradient-2" x1="416.38" y1="543.83" x2="80.98" y2="-37.1" gradientUnits="userSpaceOnUse"><stop offset="0" stop-color="#040086"/><stop offset="1"/></linearGradient><linearGradient id="linear-gradient-3" x1="490.41" y1="418.25" x2="903.47" y2="656.73" gradientUnits="userSpaceOnUse"><stop offset="0" stop-color="#2d48a0"/><stop offset="1" stop-color="#4ea0c0"/></linearGradient><linearGradient id="linear-gradient-4" x1="231.36" y1="674.11" x2="705.02" y2="947.57" gradientUnits="userSpaceOnUse"><stop offset="0" stop-color="#0d6500"/><stop offset="1" stop-color="#2eb21d"/></linearGradient></defs><g id="Layer_1" data-name="Layer 1"><path d="M809.39,185.78c27.24-18.77,64.77-3.69,72.2,28.89,4.2,18.41,2,36-10.52,51-10,11.95-23.31,16.74-38.69,16.23a47.47,47.47,0,0,1-8.49-.95c-6.14-1.3-11.67-3.8-16.29-8.63-.63,2.17-.29,4.14-.29,6.06,0,1.32-.39,1.71-1.72,1.71q-18.08-.07-36.15,0c-1.28,0-1.92-.32-1.75-1.69a10.58,10.58,0,0,0,0-1.38q0-65.13-.07-130.27c0-2.6.75-3.12,3.19-3.1q17.79.19,35.6,0c2.3,0,3.07.37,3,2.92C809.3,159.49,809.39,172.44,809.39,185.78Zm-.78,43.7c.13,3.64.4,7,1.79,10.19,2.72,6.27,7.55,9.72,14.31,9.81,6.37.09,11.24-2.91,14.16-8.73,2.57-5.14,2.69-10.62,1.89-16.13-1.2-8.29-7-14-14.58-14.43-8-.5-14.45,4.1-16.65,11.91A35.38,35.38,0,0,0,808.61,229.48Z" transform="translate(-31.14 -100.01)" fill="#fe0000"/><path d="M635.45,179.55c14,0,27.48,0,41-.05,1.78,0,2.11.94,2.58,2.16l9.79,25.41q4.9,12.7,9.79,25.44c1.12-.52,1.11-1.65,1.45-2.51q9.44-23.92,18.77-47.89c.72-1.87,1.57-2.64,3.7-2.62,12.14.12,24.28.06,36.81.06-1.33,3.33-2.56,6.44-3.81,9.55q-18.87,46.8-37.77,93.61c-3.46,8.58-7.77,16.71-14.62,23.09-10.12,9.44-22.6,12.18-35.95,11.69-9.27-.34-18.14-2.48-26.21-7.39-1.79-1.09-2-2-1.05-3.88,3.9-7.79,7.62-15.66,11.42-23.5.44-.9.91-1.78,1.39-2.72,5.37,3.6,10.94,6,17.43,5a15,15,0,0,0,3.44-.9c3.88-1.57,4.21-2.43,2.6-6.29l-39.65-95.51C636.22,181.5,635.9,180.66,635.45,179.55Z" transform="translate(-31.14 -100.01)" fill="#fe0000"/><path d="M591.05,267.79C582,282,568.75,282.85,554.84,281.4c-8.45-.89-16.06-4.09-21.87-10.5-14.63-16.17-8.07-40.28,12.76-47.21,7.76-2.58,15.79-3.33,23.9-3.37,5.52,0,11-.06,16.55,0,1.6,0,1.83-.41,1.36-1.88-1.75-5.46-5.88-8-11.12-9.08-10.44-2.18-22.57.46-33,7.17l-9-18.54c-1.08-2.23-2-4.53-3.27-6.66-1-1.71-.8-2.55,1-3.53a83.49,83.49,0,0,1,25.46-8.52c14.48-2.5,28.91-2.56,43,1.94,17.21,5.49,27.44,18.76,28.76,36.81.89,12.13.29,24.26.44,36.39.09,7.82,0,15.63.06,23.45,0,1.67-.4,2.18-2.13,2.17q-17.37-.1-34.76,0c-1.54,0-2.08-.4-2-2C591.13,274.92,591.05,271.76,591.05,267.79Zm-10.29-27.42a29.14,29.14,0,0,0-9.74,1c-3.85,1.26-5.71,3.8-5.63,7.53a7.78,7.78,0,0,0,6,7.37,13.46,13.46,0,0,0,16-7,10.82,10.82,0,0,0,.44-8.31c-.6-1.66-3.65-.32-5.57-.64C581.94,240.33,581.66,240.37,580.76,240.37Z" transform="translate(-31.14 -100.01)" fill="#fe0000"/><path d="M395.8,151.4c15.13,0,29.84,0,44.55,0,1.61,0,2,1.07,2.54,2.06l22.58,38.16c.74,1.26,1.49,2.52,2.44,4.11,3.3-5.54,6.48-10.83,9.63-16.13q7.81-13.12,15.6-26.29c.68-1.14,1.29-1.93,2.92-1.92,13,.09,25.94.05,38.91.05.33,0,.66,0,1.34.08-4.45,7.53-8.71,14.79-13,22q-17.19,29-34.41,58a7.66,7.66,0,0,0-1.08,4.17c0,13.89,0,27.78.07,41.67,0,2.22-.64,2.7-2.75,2.68q-19.18-.15-38.36,0c-1.92,0-2.44-.46-2.43-2.41.09-14.07,0-28.15.08-42.22a8.16,8.16,0,0,0-1.18-4.41q-23-38.42-45.83-76.88Z" transform="translate(-31.14 -100.01)" fill="#fe0000"/><path d="M969.65,239.46c-10.76,0-21.52.06-32.28-.05-2.55,0-2.57.72-1.45,2.59,3.18,5.31,8.07,7.9,14,8.74,8.81,1.26,17-.26,24.19-5.85,1.26-1,2-.92,3.18.26,6.15,6.33,12.33,12.64,18.66,18.8,1.62,1.58,1.15,2.44-.16,3.69a48.69,48.69,0,0,1-25,12.6c-16.51,3.09-32.78,2.54-48.29-4.59-20.23-9.3-30.56-26.73-29.74-49.6.7-19.37,13.84-37.1,33.34-44.21,16.91-6.17,33.95-6.07,50.41,1.52,18.35,8.46,27.47,23.35,28.37,43.38.15,3.39-.2,6.8-.18,10.2,0,2-.68,2.6-2.75,2.57C991.18,239.39,980.42,239.46,969.65,239.46Zm-3.72-20.16c-1.58-8.05-7.23-12.9-15.15-13.24s-14.16,4-16.31,11.25c-.49,1.63-.24,2,1.47,2C945.85,219.26,955.77,219.3,965.93,219.3Z" transform="translate(-31.14 -100.01)" fill="#fe0000"/><path d="M583.33,697.5c-26.61-1.82-47.91-12.79-60.59-37.07-7.38-14.12-7.12-28.61,2.76-41.84,7-9.43,17.15-14.26,28.55-15.45,27.81-2.91,50.1,7.28,66.09,30.18,7.75,11.09,10.74,23.67,6.31,36.94-5,14.94-16.3,22.79-31.25,26A61.37,61.37,0,0,1,583.33,697.5Z" transform="translate(-31.14 -100.01)" fill="url(#linear-gradient)"/><path d="M1049,166.71a27.33,27.33,0,1,1-27.26-27.46A27.33,27.33,0,0,1,1049,166.71Zm-2.76-.13a24.57,24.57,0,1,0-24.56,24.56A24.66,24.66,0,0,0,1046.21,166.58Z" transform="translate(-31.14 -100.01)" fill="#fe0000"/><path d="M1033.42,179.82c-3.65.93-6.35.29-7.83-3.2a8.89,8.89,0,0,0-.95-1.35,7.82,7.82,0,0,0-8.83-3.36c-.84.22-1,.69-1,1.38a29.07,29.07,0,0,0,0,3.85c.3,2.33-.38,3.19-2.91,3.06-2-.1-2.36-.7-2.34-2.53.1-7.71.13-15.43,0-23.14,0-2.16.66-2.64,2.65-2.52,4.29.28,8.64-.42,12.9.5,4,.87,6.84,3.12,7.74,7.26,1,4.45-.47,8-4.35,10.39-1.33.81-1.08,1.31-.35,2.24.9,1.16,1.7,2.4,2.54,3.6ZM1014.85,162c0,1.38,0,2.76,0,4.13,0,.77,0,1.55,1,1.55,2.83,0,5.71.34,8.46-.57a4.88,4.88,0,0,0,3.54-4.73c.19-3.51-2-5.64-6.09-5.93C1014.85,156,1014.85,156,1014.85,162Z" transform="translate(-31.14 -100.01)" fill="#fe0000"/></g><g id="Layer_2" data-name="Layer 2"><path d="M206.66,100.06q86,0,172,0c2.3,0,3.28.49,3.79,2.95A48.23,48.23,0,0,1,380.73,129c-2.93,8.48-3.81,17.4-5,26.23A971.7,971.7,0,0,0,368,300.34a748.87,748.87,0,0,0,7.12,92.1c5.2,36.21,13.17,71.75,27.15,105.7,10.63,25.78,24.37,49.64,43.84,69.9,7,7.23,14.87,13.45,22,20.48,4.92,4.84,9.94,9.58,14.28,15a26.62,26.62,0,0,1,3.26,5.1c1.49,3.08.86,4.49-2.51,5.39-3.15.83-6.23.13-9.3-.4-12.71-2.2-24.86-6.49-37.14-10.29-24.38-7.54-48.93-14.59-73.09-22.77-44.08-14.9-85.36-35.67-124.13-61.39C200.52,493.27,165.64,462.83,135.6,427A433.75,433.75,0,0,1,54.15,278.57,480.81,480.81,0,0,1,35,189.5a574.79,574.79,0,0,1-3.56-87.6c.05-1.41.36-2.06,1.85-1.86a13.8,13.8,0,0,0,1.93,0Z" transform="translate(-31.14 -100.01)" fill="url(#linear-gradient-2)"/><path d="M610,334.45c18.69.13,37,3.35,55,7.74,42.35,10.28,82.87,25.83,122.81,43q43.41,18.65,85.33,40.5c13,6.78,19.07,17.76,21.45,31.75,1.94,11.34-1.17,21.89-3.66,32.59-9.79,41.86-19.71,83.69-29.5,125.55Q848,673.26,834.61,731c-4.86,21-9.41,42.14-14.31,63.16-1,4.35-1.82,8.82-3.76,12.94a16.55,16.55,0,0,1-3.91,5.61,6.46,6.46,0,0,1-4.8,1.72c-2.06-.12-3.14-.69-2.74-3.2A252.07,252.07,0,0,0,808,777.17c1-49.33-10.66-95.11-38.54-136.21-14.36-21.17-31.89-39.25-54.42-51.89-13.49-7.58-28-12.8-42.5-18.17-29.69-11-59.73-21.1-89.06-33.08-20.43-8.34-40.55-17.31-59.25-29.15-3.25-2.06-6.33-4.42-9.56-6.52C502.25,494.07,495.37,482.21,493,468c-7.39-43.3,5.63-79.16,40.48-106.38,17.61-13.76,37.81-22.11,59.78-26.11A88.7,88.7,0,0,1,610,334.45Z" transform="translate(-31.14 -100.01)" fill="url(#linear-gradient-3)"/><path d="M469.64,979.4c-19.22-.17-38.05-3.5-55.08-13.86-12.38-7.54-21.84-17.58-28-31Q320.41,789.39,253.83,644.44c-1.27-2.76-1.89-5.19-.64-8.05,1-2.26,2.4-2.51,4.41-1.55a27.16,27.16,0,0,1,6.21,4.54c11.66,10.56,22.66,21.82,34.39,32.31a530.89,530.89,0,0,0,68.92,52.76c22,14,46.26,22.24,71.58,27.64,34.31,7.31,69.05,9.08,104,7.59a545.3,545.3,0,0,0,86.41-10.59c18-3.69,36.27-4,53.86,2.48,25.58,9.47,46.83,24.85,61.95,47.9,8.88,13.53,13.24,28.46,11.77,44.74-1.42,15.84-7.82,29.75-17.38,42.26-13,17-30.1,29-48.82,38.84-22.38,11.77-46.17,19.87-70.47,26.59-27.3,7.55-55,13.12-82.91,18.08q-21.57,3.84-43.18,7.47A161.84,161.84,0,0,1,469.64,979.4Z" transform="translate(-31.14 -100.01)" fill="url(#linear-gradient-4)"/></g></svg>